<svg xmlns="http://www.w3.org/2000/svg" viewBox="0 0 800 480"><defs><clipPath clipPathUnits="userSpaceOnUse" id="a"><path d="M0 500h500V0H0z"/></clipPath><clipPath clipPathUnits="userSpaceOnUse" id="b"><path d="M125 167h83v-18h-83z"/></clipPath><clipPath clipPathUnits="userSpaceOnUse" id="c"><path d="M293 167h83v-18h-83z"/></clipPath><clipPath clipPathUnits="userSpaceOnUse" id="d"><path d="M285 162h54V64h-54z"/></clipPath><clipPath clipPathUnits="userSpaceOnUse" id="e"><path d="M159 161h50V64h-50z"/></clipPath><clipPath clipPathUnits="userSpaceOnUse" id="f"><path d="M195 191h123V88H195z"/></clipPath><clipPath clipPathUnits="userSpaceOnUse" id="g"><path d="M195 318h34v-34h-34z"/></clipPath><clipPath clipPathUnits="userSpaceOnUse" id="h"><path d="M234 310h20v-20h-20z"/></clipPath><clipPath clipPathUnits="userSpaceOnUse" id="i"><path d="M259 309h14v-14h-14z"/></clipPath><clipPath clipPathUnits="userSpaceOnUse" id="j"><path d="M211 227h15v-18h-15z"/></clipPath><clipPath clipPathUnits="userSpaceOnUse" id="k"><path d="M273 227h14v-18h-14z"/></clipPath><clipPath clipPathUnits="userSpaceOnUse" id="l"><path d="M0 500h500V0H0z"/></clipPath><clipPath clipPathUnits="userSpaceOnUse" id="m"><path d="M0 500h500V0H0z"/></clipPath><clipPath clipPathUnits="userSpaceOnUse" id="n"><path d="M0 500h500V0H0z"/></clipPath><clipPath clipPathUnits="userSpaceOnUse" id="o"><path d="M0 500h500V0H0z"/></clipPath></defs><g clip-path="url(#a)" transform="matrix(1.6495 0 0 -1.1118 -14 516)"><path d="M449 152h-32c4 4 6 9 6 15v1c0 12-9 21-21 21h-8a22 22 0 006 43h30c11 0 21 9 21 21v1c0 12-10 21-21 21h-9a22 22 0 000 43h4c11 0 21 10 21 21v2c0 11-10 21-21 21h-8c-10 2-17 10-17 20 0 11 10 20 22 20h17c11 0 21 10 21 21s-10 21-21 21H86c-12 0-21-10-21-21s9-21 21-21h29c12 0 22-9 22-20 0-10-7-18-17-20H73c-11 0-21-10-21-21v-2c0-11 10-21 21-21h42a22 22 0 000-43H78c-12 0-21-9-21-21v-1c0-12 9-21 21-21h16a22 22 0 007-43H51c-12 0-21-9-21-21v-1c0-11 9-21 21-21h32c-4-4-6-9-6-15v-1c0-11 9-21 21-21h-1c12 0 21-10 21-22 0-11-9-21-21-21h306c-12 0-22 10-22 21 0 12 10 22 22 22h46c12 0 21 10 21 21v1c0 12-9 21-21 21" fill="#8fd8de"/><path d="M374 233s1 17 5 21c5 3 30 2 30 2s9 20 12 19 2-5 2-5l-10-24-30-12zM128 233s-2 17-6 21c-5 3-30 2-30 2s-9 20-12 19-2-5-2-5l10-24 30-12z" fill="#fcb8a5"/><path d="M205 65l-7 123h62l-2-123z" fill="#0f6693"/><path d="M110 236l15-69s4-12 18-12l65-6-1 39h-61l-19 53zM296 65l7 123h-46l1-123z" fill="#0f6693"/><path d="M392 236l-16-69s-3-12-18-12l-65-6 1 39h61l19 53z" fill="#0f6693"/><g clip-path="url(#b)" opacity=".4"><path d="M125 167s4-12 18-12l65-6-1 18z" fill="#0f6693"/></g><g clip-path="url(#c)" opacity=".4"><path d="M294 167l-1-18 65 6c15 0 18 12 18 12z" fill="#0f6693"/></g><path d="M296 64h24l32 41s7 9-2 21l-36 54-29-25 38-47zM198 64h-24l-32 41s-7 9 2 21l36 54 29-25-38-47z" fill="#0f6693"/><g clip-path="url(#d)" opacity=".2"><path d="M296 64h7c14 15 21 32 36 47l-46 51-8-7 38-47z" fill="#0f6693"/></g><g clip-path="url(#e)" opacity=".2"><path d="M203 161c-16-16-28-35-44-51l15-23 17-23h7l-27 44 38 47z" fill="#0f6693"/></g><path d="M261 179h-20v31h20z" fill="#fcb8a5"/><path d="M261 179l-20 26 20 5z" fill="#f5a692"/><path d="M273 204h-47c-10 0-18 8-18 18v61c0 10 8 18 18 18h47c9 0 18-8 18-18v-61c0-10-9-18-18-18" fill="#fcb8a5"/><path d="M273 204h-47c-10 0-18 8-18 18v61c0 10 8 18 18 18h47c9 0 18-8 18-18v-61c0-10-9-18-18-18" fill="#fcb8a5"/><path d="M288 293v-46c0-10-9-18-18-18h-41c-10 0-18 8-18 18v46c-2-3-3-6-3-10v-61c0-10 8-18 18-18h47c9 0 18 8 18 18v61c0 4-2 7-3 10" fill="#81276a"/><path d="M270 216h-42c-2 0-4 2-4 5v16c0 3 2 5 4 5h42c2 0 5-2 5-5v-16c0-3-3-5-5-5" fill="#81276a"/><path d="M261 232c0-7-6-10-13-10s-12 3-12 10" fill="none" stroke="#fcb8a5" stroke-width="3" stroke-linecap="round" stroke-linejoin="round" stroke-miterlimit="10"/><path d="M265 179c0-6-7-10-14-10-8 0-14 4-14 10s6 10 14 10c7 0 14-4 14-10" fill="#fcb8a5"/><path d="M272 73h-43v19h43z" fill="#113159"/><path d="M295 65c-1 6-9 11-18 11h-53c-9 0-17-5-18-11zM300 88h-98c-10 0-18 8-18 18v71c0 10 8 18 18 18h98c9 0 18-8 18-18v-71c0-10-9-18-18-18" fill="#fff"/><g clip-path="url(#f)" opacity=".1"><path d="M310 191l-33-29-40-36-41-36-1-1 7-1h98c9 0 18 8 18 18v71c0 6-3 11-8 14" fill="#3863b1"/></g><path d="M287 293s-72-28-89-4c-19 27 1 38 5 40 5 2 20 6 28-12 0 0-5 13 7 16s21-18 21-18 15 10 27 3 8-23 8-26l-4-28z" fill="#81276a"/><g clip-path="url(#g)"><path d="M196 318s-2-11 3-20 15-16 30-14c0 0-29-4-33 34" fill="#fcfcfc"/></g><g clip-path="url(#h)"><path d="M234 310s-1-7 2-12 9-9 18-8c0 0-17-2-20 20" fill="#fcfcfc"/></g><g clip-path="url(#i)"><path d="M259 309s-1-5 1-8c2-4 6-7 13-6 0 0-12-2-14 14" fill="#fcfcfc"/></g><path d="M244 268a19 19 0 10-38 0 19 19 0 0038 0zM292 268a19 19 0 10-38-1 19 19 0 0038 1z" fill="none" stroke="#113159" stroke-width="3" stroke-linecap="round" stroke-linejoin="round" stroke-miterlimit="10"/><path d="M250 248c-2 0-4 1-4 3v23c0 2 2 4 4 4 1 0 3-2 3-4v-23c0-2-2-3-3-3" fill="#ff7c89"/><path d="M244 266c0 2 2 5 5 5s6-3 6-5" fill="none" stroke="#113159" stroke-width="3" stroke-linecap="round" stroke-linejoin="round" stroke-miterlimit="10"/><path d="M230 257a4 4 0 10-8 0 4 4 0 008 0M279 257a4 4 0 10-8 0 4 4 0 008 0M207 268a2 2 0 10-4 0 2 2 0 004 0M296 268a2 2 0 10-4 0 2 2 0 004 0" fill="#113159"/><g clip-path="url(#j)"><path d="M212 227s-2-17 14-18c0 0-14 4-14 18" fill="#fcfcfc"/></g><g><g clip-path="url(#k)"><path d="M287 227s2-17-14-18c0 0 14 4 14 18" fill="#fcfcfc"/></g></g><path d="M162 287H47v70h115z" fill="#3863b1"/><path d="M162 344H47v13h115z" fill="#113159"/><g><path d="M55 335l97-39" fill="none" stroke="#fff" stroke-width="2" stroke-miterlimit="10"/></g><g><path d="M151 336l-96-41" fill="none" stroke="#fff" stroke-width="2" stroke-miterlimit="10"/></g><g><path d="M157 351a2 2 0 10-4 0 2 2 0 004 0" fill="#e83666"/></g><g><path d="M151 351a2 2 0 10-4 0 2 2 0 004 0" fill="#7cb642"/></g><g><path d="M145 351a2 2 0 10-4 0 2 2 0 004 0" fill="#fec448"/></g><g><path d="M409 300h-55c-4 0-7 3-7 7v35c0 4 3 7 7 7h55c3 0 7-3 7-7v-35c0-4-4-7-7-7" fill="#3863b1"/></g></g><text transform="matrix(1.62406 0 0 1.09465 0 480)" style="-inkscape-font-specification:Montserrat-Bold" x="357.5" y="-289" font-weight="700" font-size="25.9" font-family="Montserrat" fill="#fcfcfc"><tspan x="357.52356 373.03842 383.19177" y="-289">&lt;/&gt;</tspan></text><g clip-path="url(#l)" transform="matrix(1.6495 0 0 -1.1118 -14 516)"><path d="M286 385c0-18-21-32-46-32-26 0-46 14-46 32s20 32 46 32c25 0 46-14 46-32" fill="#fff"/><path d="M252 368l15-36 1 48z" fill="#fff"/></g><text transform="matrix(1.62406 0 0 1.09465 0 480)" style="-inkscape-font-specification:Montserrat-Bold" x="205.8" y="-351.6" font-weight="700" font-size="20.5" font-family="Montserrat" fill="#3863b1"><tspan x="205.7778 222.32303 234.97766 254.53299" y="-351.6">HTML</tspan></text><g clip-path="url(#m)" transform="matrix(1.6495 0 0 -1.1118 -14 516)"><path d="M301 256c0-12 14-22 32-22 17 0 32 10 32 22s-15 22-32 22c-18 0-32-10-32-22" fill="#fff"/><path d="M324 244l-10-25-1 33z" fill="#fff"/></g><text transform="matrix(1.62406 0 0 1.09465 0 480)" style="-inkscape-font-specification:Montserrat-Bold" x="312.4" y="-220.6" font-weight="700" font-size="20.5" font-family="Montserrat" fill="#3863b1"><tspan x="312.42227 324.52405 335.39722" y="-220.6">css</tspan></text><text transform="matrix(1.62406 0 0 1.09465 0 480)" style="-inkscape-font-specification:Montserrat-Bold" x="139.1" y="-214.8" font-weight="700" font-size="22.8" font-family="Montserrat" fill="#fff"><tspan x="139.12906 149.39386 168.71716" y="-214.8">{ }</tspan></text><g clip-path="url(#n)" transform="matrix(1.6495 0 0 -1.1118 -14 516)"><path d="M167 255l-3-1a4 4 0 01-6-4l6-6 6 6v2c0 2-1 3-3 3" fill="#0f6693"/></g><text transform="matrix(1.62406 0 0 1.09465 0 480)" style="-inkscape-font-specification:Montserrat-Bold" x="325.6" y="-365.3" font-weight="700" font-size="20.9" font-family="Montserrat" fill="#fff"><tspan x="325.55847 344.84897 364.13937" y="-365.3">www</tspan></text><g clip-path="url(#o)" transform="matrix(1.6495 0 0 -1.1118 -14 516)"><path d="M304 367h37M315 361h37M122 420h37M133 414h37M367 133h37M378 127h37M60 167h37M71 161h37" fill="none" stroke="#fff" stroke-width="2" stroke-miterlimit="10"/><path d="M404 54H98v12h306z" fill="#113159"/></g></svg>