<?xml version="1.0" encoding="UTF-8"?>
<svg xmlns="http://www.w3.org/2000/svg" version="1.2" viewBox="0 0 400 400" width="400" height="400">
  <style>.a{fill:#ebebeb}.b{fill:#e0e0e0}.c{fill:#fff}.d{fill:#f5f5f5}.e{fill:#263238}.f{fill:#ff725e}.g{fill:#fafafa}.h{fill:#455a64}.i{fill:#ffbe9d}.j{fill:#eb996e}.k{fill:none}</style>
  <path class="a" d="m361.9 276.2l-32.8-12.5c-2.3-0.8-3.4-3.4-2.6-5.6l17.4-45.5c0.8-2.3 3.4-3.4 5.6-2.6l20.9 8 9.8 22.7-12.6 33c-0.8 2.3-3.4 3.4-5.7 2.5z"></path>
  <path class="b" d="m380.2 240.7l-12.3-4.7c-2.1-0.8-3.2-3.1-2.4-5.2l4.9-12.8z"></path>
  <path class="c" d="m362.9 229.2c0 0.2-3.5-1-7.7-2.6-4.2-1.6-7.5-3-7.5-3.2 0.1-0.2 3.6 1 7.8 2.6 4.2 1.6 7.5 3 7.4 3.2z"></path>
  <path class="c" d="m370 240.2c-0.1 0.1-5.7-1.9-12.6-4.5-6.9-2.6-12.5-4.9-12.4-5.1 0-0.1 5.7 1.9 12.6 4.5 6.9 2.6 12.5 4.9 12.4 5.1z"></path>
  <path class="c" d="m370 247.1c-0.1 0.1-6.3-2.1-13.8-4.9-7.5-2.9-13.6-5.4-13.5-5.5 0-0.2 6.2 2 13.7 4.9 7.6 2.8 13.6 5.3 13.6 5.5z"></path>
  <path class="c" d="m367.8 252.8c-0.1 0.1-6.2-2.1-13.8-4.9-7.5-2.9-13.5-5.4-13.5-5.5 0.1-0.2 6.2 2 13.8 4.9 7.5 2.8 13.5 5.3 13.5 5.5z"></path>
  <path class="c" d="m365.6 258.5c0 0.1-6.2-2.1-13.7-4.9-7.6-2.9-13.6-5.4-13.6-5.5 0.1-0.2 6.3 2 13.8 4.9 7.5 2.8 13.6 5.3 13.5 5.5z"></path>
  <path class="c" d="m363.4 264.2c0 0.1-6.2-2.1-13.7-4.9-7.5-2.9-13.6-5.4-13.5-5.5 0-0.2 6.2 2 13.7 4.9 7.5 2.8 13.6 5.3 13.5 5.5z"></path>
  <path class="d" d="m206 127.3q-0.2-1.5-0.5-3.1 0.3 1.6 0.5 3.1 0.2 1.5 0.4 3-0.2-1.5-0.4-3z"></path>
  <path class="d" d="m203.1 146.4c1.3 0.1 2.5-0.6 3.5-1.5q-0.2 3-0.6 6-1 7.7-3.4 14.9-2.2 7.2-5.7 13.8-2.3 4.5-5.2 8.8-1 1.4-2 2.8-2 2.7-4.2 5.3-3.2 3.7-6.7 7-5.1 4.7-11 8.7-3.7 2.5-7.8 4.7c-12.3 6.5-26.4 10.3-41.3 10.3-8.8 0-17.4-1.3-25.4-3.8-7-2.1-13.7-5-19.8-8.7q-0.1-0.2-0.2-0.5c-2-4.2-2.1-10.4 2.1-12.5 0.8-0.4 1.7-0.6 2.4-1.2 1.8-1.8 0.3-5.4 2.1-7.1 1.1-1 2.7-1 4-1.5 2.3-1.1 3.1-4.1 2.9-6.7-0.2-2.5-1-5.1-0.7-7.6 0.4-3.9 3.4-7.8 1.7-11.3-1.9-3.9-7.6-3.2-11.5-5-5.6-2.4-7.3-9.3-10.9-14.2-3.3-4.3-10.9-9.1-16.6-7.8-4.2 0.9-5.7 3.4-6.1 6.5q-0.3 0-0.5-0.1c-1.6-0.1-3.4-0.2-4.2-1.5-1-1.5-0.1-3.7-1.1-5.2-0.5-0.7-1.4-1.1-2.2-1.6-0.7-0.6-1.4-1.6-0.9-2.4 0.4-0.7 1.3-0.8 1.8-1.4 0.4-0.5 0.4-1.3 0-1.8-1.6-1.8-3.4 2-4.2 2.9q-0.4 0.4-0.7 0.7 0.1-2.8 0.3-5.5 0.3-2.6 0.7-5.2 0 0 0 0c0.9-1.8 1.3-4 1.6-5.6 0.5-2.1 1.2-4.3 2.8-5.7 1.7-1.4 4.5-1.6 5.8 0.2 0.9 1.2 0.7 2.9 0.4 4.5q-0.5 3.1-0.9 6.2c-0.1 0.6-0.2 1.2 0 1.8 0.6 1.3 2.8 1.1 3.6-0.1 0.9-1.2 0.8-2.8 0.5-4.2-0.2-1.4-0.5-2.9 0.1-4.3 1.4-3.3 6.3-2.8 9.2-5 1.8-1.3 2.6-3.5 3.6-5.5 1.1-2 2.9-3.9 5.1-3.8 0.8 0 1.5 0.3 2.2 0.2 2.2 0 3.5-3.2 2-4.8-0.4-0.3-0.8-0.6-1-1-0.4-0.8 0-1.7 0.7-2.2 0.7-0.5 1.5-0.6 2.3-0.8q2.9-0.4 5.7-0.8c2.1-0.4 4.7-1.4 4.4-3.5-0.2-1.8-2.7-2.6-3-4.4-0.1-0.4-0.1-0.9-0.3-1.3-0.5-1.2-2.3-0.7-3.4-0.1-0.4-1.7-2.8-2.4-4.1-1.3-1.1 0.9-1.2 2.5-1.6 3.9-1 3.3-3.6 5.9-6.2 8.2-0.8 0.8-1.8 1.7-2.9 1.7-1.2 0.1-2.4-1.2-1.9-2.2 0.4-0.7 1.4-1.1 1.3-1.9-0.1-0.9-1.8-0.9-2.2-1.8 0.7-2.8 3.9-3.9 6.3-5.4 2.9-1.8 5.2-4.6 6.4-7.9 0.2-0.5 0.3-1.1 0.1-1.6-0.4-0.7-1.3-0.8-2.1-0.8-1.9 0-4.2 0.2-4.9 2-0.4 0.9-0.1 2-0.3 2.9-0.7 2.9-4.7 3.3-7.1 5-0.9 0.7-1.7 1.6-2.7 2.1-1.1 0.6-2.5 0.5-3.7 0.6q-0.4 0-0.7 0.1-1.1 1.6-2.2 3.2 1.1-1.6 2.2-3.2 1.3-1.8 2.7-3.6 1.6-2 3.4-4c3.3-3.8 7-7.3 10.9-10.4q1-0.8 2.1-1.6 1.2-0.9 2.5-1.8 1-0.7 2-1.4 0.4-0.2 0.8-0.5 0.9-0.6 1.9-1.2 1.1-0.7 2.2-1.3 1-0.6 2.1-1.1 0.1 0 0.1-0.1 1.1-0.6 2.2-1.1 1.1-0.5 2.2-1 1.3-0.6 2.6-1.2 1-0.4 2.1-0.8 0.1-0.1 0.1-0.1 1.2-0.4 2.4-0.9 0 0 0 0 1.2-0.4 2.4-0.8 1.4-0.5 2.9-0.9 0.9-0.2 1.8-0.5 0.9-0.2 1.8-0.4 1.9-0.5 3.9-0.9 0.8-0.1 1.6-0.3 0.9-0.1 1.8-0.3 1-0.1 1.9-0.2 0.9-0.1 1.9-0.2 0.9-0.2 1.8-0.2 3.8-0.4 7.8-0.4 1.5 0 3 0.1 1.4 0 2.8 0.1 1.3 0.1 2.7 0.2 0.6 0.1 1.2 0.2 0.2 0 0.4 0 2.1 0.2 4.1 0.6 0.4 0 0.9 0.1 0.1 0 0.2 0.1 1 0.1 2.1 0.4 0 0 0.1 0 2.8 0.5 5.5 1.3 1.4 0.3 2.7 0.8 1.4 0.4 2.7 0.8 1.4 0.5 2.7 1 1.2 0.4 2.3 0.9 1.1 0.4 2.1 0.9 0.7 0.3 1.4 0.6 0.2 0.1 0.3 0.1 0.8 0.4 1.5 0.8 0.7 0.3 1.3 0.6 1.2 0.6 2.4 1.3 0.3 0.1 0.5 0.3 0.6 0.3 1.2 0.6 0.7 0.4 1.3 0.9 0.7 0.4 1.4 0.8 0.7 0.4 1.4 0.9 0.6 0.4 1.3 0.9 2.7 1.8 5.2 3.8 0.9 0.7 1.8 1.5 0.7 0.6 1.5 1.2 0.7 0.6 1.4 1.3 0.8 0.7 1.6 1.5 0.9 0.9 1.8 1.8 0.6 0.6 1.1 1.1 0.2 0.2 0.4 0.4 0.1 0.1 0.1 0.2 0.7 0.6 1.3 1.3 0.2 0.3 0.3 0.5l1.2 1.3q0.6 0.7 1.1 1.3 0.5 0.6 1 1.2 0.6 0.8 1.3 1.7 0.8 1.1 1.6 2.2 0.6 0.9 1.2 1.8 0.9 1.4 1.8 2.9c2.8 4.5 5.2 9.4 7.1 14.4q0.1 0.3 0.3 0.7-0.7-1.3-1.5-2.5c-4.9-7.8-12-13.8-17.4-21.3-1.7-2.4-3.1-4.4-6.2-4.8-4.6-0.8-6.9 1.9-10.2-2.5-0.9-1.2-2.4-2.3-3.7-1.6q0.5 1.4 1 2.9c0.1 0.1 0.1 0.4 0.1 0.6 0 0.6-1 0.8-1.6 0.4-0.5-0.3-0.8-1-1.2-1.5-1.5-2.1-4.9-2.4-6.6-0.6-0.1-0.9-0.7-1.7-1.5-2-0.2 1.7-2.1 2.9-3.8 2.4-0.3-0.9 1.3-1 1.8-1.7 0.5-0.7-0.1-1.7-0.7-2.2-1.7-1.5-3.9-2.3-6.1-2.4-1.4 0-2.9 0.2-4.2-0.5-0.7-0.4-1.2-1.1-1.9-1.5-1.5-0.9-3.5-0.1-5 0.8-2.2 1.2-4.4 2.7-5.1 5-0.8 2.3 0.9 5.5 3.3 5.2 0.6-0.1 1.3-0.4 1.9-0.2 0.8 0.2 1.2 1.2 1.3 2.1 0.1 0.9 0 1.8 0.4 2.6 0.4 0.8 1.7 1.2 2.2 0.4 1.1-1.1 1-2.9 0.7-4.4-0.3-1.6-0.6-3.3 0.3-4.6 0.9-1.3 3.6-0.9 3.4 0.7-0.1 0.9-1.1 1.6-1.1 2.5 0 1 1.2 1.5 2.1 1.4 1 0 2-0.3 2.9-0.1 0.9 0.2 1.6 1.4 1 2.1-1.2 1.3-4.2-0.9-4.8 0.7-0.2 0.4 0 0.9 0 1.3-0.1 1.4-1.9 1.9-3.2 2.1-1.4 0.1-2.8 0.3-4.1-0.3-1.2-0.6-2.1-2.2-1.4-3.4-0.7-0.5-1.7 0-2.1 0.8-0.4 0.7-0.3 1.7-0.2 2.5-1.4-0.3-2.7 0.9-3.5 2.1-0.9 1.3-1.7 2.7-3.1 3.1-1.4 0.5-3.3-0.1-4.1 1.2-0.9 1.6 1.8 3.7 0.9 5.4-0.6 0.9-1.9 0.9-3 1.2-2.8 0.8-3.8 4.9-1.9 7.1 1.9 2.2 5.8 2.1 7.8 0 1.4-1.5 2-3.5 3-5.2 1-1.7 2.9-3.3 4.9-2.7 0.7 0.2 1.4 0.7 2 1.2q1.4 1.2 2.8 2.4c0.6 0.5 1.2 1.1 1.2 1.9-0.1 0.6-0.6 1.1-0.8 1.7-0.6 1.7 1.9 3.3 3.4 2.3 1.5-0.9 1.7-3.2 0.7-4.7-1.5-2-4.8-3-4.7-5.5 1.7-1.3 4.3 0.1 5.3 2 1 2 1 4.2 1.8 6.2 0.8 2 3.1 3.8 5.1 2.8q-0.8-2.5-1.5-5.1c1.2-0.9 2.6 1.7 4.1 1.3 0.9-0.3 1-1.6 0.6-2.4-0.4-0.9-1.1-1.6-1.2-2.6-0.3-1.7 1.6-3.2 3.3-2.9 1.7 0.3 2.9 1.9 3.2 3.6 0.2 0.7 0.2 1.4 0.5 2 0.6 1.3 2.3 1.7 3.7 2.3 1.3 0.6 2.8 1.9 2.2 3.3-0.3 0.6-0.9 1.2-0.7 1.8 0.2 0.5 1 0.8 1 1.4 0 0.3-0.4 0.6-0.7 0.8-1 0.3-2 0.5-2.9 0.9-0.8 0.4-1.7 1.3-1.6 2.3 0.1 1.3 1.8 2 2.6 3.2 0.7 1.1 0.6 2.5 1.1 3.8 0.4 1.2 1.3 2.1 2.1 3.1 2.3 3.1 2.8 7.2 4 10.9 0.5 1.7 1.4 3.6 3.1 3.9 1 0.2 1.9-0.2 2.8-0.6 2.5-0.9 5.1-2 6.8-4 1.8-2.1 2.4-5.4 0.6-7.4-0.2-0.2-0.5-0.5-0.9-0.5-0.4-0.1-0.9 0.3-1.3 0.5-1.2 0.5-2.8 0.1-3.9-0.9-1-0.9-1.6-2.2-2.3-3.5q-1-2-2-4.1c0.8-0.7 2.1-0.4 2.9 0.3 0.9 0.6 1.4 1.6 2.1 2.5 2.1 2.6 5.5 3.7 8.8 4.1 0.8 0.1 1.7 0.2 2.5 0.5 2.4 1.1 3.1 4.8 5.8 5.6 0.7 0.2 1.5 0.1 2.2 0.5 1 0.4 1.5 1.6 1.8 2.7 0.6 2.1 0.8 4.2 1.7 6.2 0.8 1.9 2.5 3.7 4.7 3.7z"></path>
  <path class="d" d="m47.1 171.6c8.3 11 12.8 24.2 17.6 37.1q-3.2-2.5-6.1-5.2-3.3-3-6.2-6.4-2.2-2.4-4.1-5-2.1-2.7-3.9-5.6-1.5-2.3-2.8-4.8-3.1-5.5-5.4-11.5c-3.3-8.7-5.2-18.2-5.6-28q0-0.3 0-0.6c1 0.3 1.9 0.8 2.7 1.4 1.7 1 3.7 2.3 3.8 4.2 0 0.4 0 0.7 0.2 1 0.1 0.2 0.5 0.3 0.8 0.4q2.2 0.5 4.5 0.6c0 1.8 0.1 3.7 0.1 5.4-0.1 2.6-0.9 5.1-0.6 7.6 0.4 3.6 2.9 6.5 5 9.4z"></path>
  <path class="d" d="m30.6 137.5q0 0.8 0 1.5 0 0.7 0 1.3 0-0.6 0-1.3 0-0.7 0-1.5z"></path>
  <g style="opacity:.6">
    <path class="d" d="m71.9 213.7q0.8 0.5 1.6 1-0.8-0.5-1.6-1-1.2-0.7-2.3-1.5 1.1 0.8 2.3 1.5z"></path>
  </g>
  <path class="a" d="m144.3 206.7q-0.9 0-1.7-0.2c-1.8-0.4-3.2-1.4-3.9-2.9-0.5-1.2-0.6-2.6-0.6-3.8-0.1-0.9-0.1-1.8-0.3-2.7-0.4-1.5-1.2-2.8-2.1-4.2-0.6-1-1.3-2.1-1.8-3.2-0.8-2.2-0.9-4.5-0.9-6.7l-0.1-0.6c-0.4-15.5-4.8-28-12.5-36.3-1-1.2-2.2-2.3-3.7-2.7-1.8-0.5-3.8 0.2-4.9 1.7-0.3 0.3-0.5 0.7-0.7 1.1-0.4 0.7-0.7 1.4-1.3 1.9-0.8 0.7-1.9 1-3.1 0.8-1.6-0.2-3.1-1.3-3.9-2.7-1.3-2.4-1.1-5.3-0.9-7.7l0.8-9.7c0.1-1.4 0.3-3.5 1.5-4.9 0.9-1 2.3-1.5 3.6-2 0.9-0.4 1.9-0.7 2.7-1.3 1.6-1.2 2.3-3 3-4.9 0.4-1.1 0.8-2.2 1.4-3.2 1-1.8 3.5-3 5.5-2.7 0.9 0.1 1.6 0.6 2 1.3 1-1.8 2.2-2.9 3.6-3.3 3.2-0.9 7.1 1.6 10.8 4.1 3.5 2.2 6.7 4.3 9.3 3.8 0.6-0.1 1.2-0.3 1.9-0.4 1.3-0.4 2.7-0.8 4.1-0.6 3.7 0.5 5.6 4.5 6.8 8l6.1 16.8c0.7 2.1 1.7 4.4 3.7 5.2 0.7 0.3 1.6 0.3 2.5 0.3 0.9 0.1 1.8 0.1 2.6 0.4 1.5 0.6 2.5 1.7 2.8 3.4 0.5 2.8-0.9 6.4-3.3 8.5-1.1 0.9-2.3 1.7-3.5 2.6-2.7 1.8-5.3 3.6-6.4 6.4-0.6 1.6-0.7 3.3-0.7 5-0.1 1.8-0.2 3.6-0.9 5.3-0.6 1.4-1.6 2.6-2.6 3.8-0.6 0.7-1.3 1.4-1.8 2.2-1.9 2.9-2.4 6.5-3 10q-0.1 0.7-0.2 1.4c-0.6 3.8-1.6 8.2-4.8 10.9-1.3 1.2-3.2 1.8-5.1 1.8z"></path>
  <g style="opacity:.6">
    <path class="d" d="m30.7 135.4q-0.1 0.2-0.1 0.5 0 0.8 0 1.6 0-0.8 0-1.6 0-0.3 0.1-0.5z"></path>
  </g>
  <g style="opacity:.6">
    <path class="d" d="m30.6 140.3q0 0.7 0 1.3 0-0.6 0-1.3z"></path>
  </g>
  <path class="a" d="m42.6 149.2q-2.3-0.1-4.5-0.6c-0.3-0.1-0.7-0.2-0.8-0.4-0.2-0.3-0.2-0.6-0.2-1-0.1-1.9-2.1-3.2-3.8-4.2-0.8-0.6-1.7-1.1-2.7-1.4q0-0.6 0-1.3 0-0.6 0-1.3 0-0.7 0-1.5 0-0.8 0-1.6 0-0.3 0.1-0.5 0.3-0.3 0.7-0.7c0.8-0.9 2.6-4.7 4.2-2.9 0.4 0.5 0.4 1.3 0 1.8-0.5 0.6-1.4 0.7-1.8 1.4-0.5 0.8 0.2 1.8 0.9 2.4 0.8 0.5 1.7 0.9 2.2 1.6 1 1.5 0.1 3.7 1.1 5.2 0.8 1.3 2.6 1.4 4.2 1.5q0.2 0.1 0.5 0.1"></path>
  <path class="a" d="m42.7 145.8c0.4-3.1 1.9-5.6 6.1-6.5 5.7-1.3 13.3 3.5 16.6 7.8 3.6 4.9 5.3 11.8 10.9 14.2 3.9 1.8 9.6 1.1 11.5 5 1.7 3.5-1.3 7.4-1.7 11.3-0.3 2.5 0.5 5.1 0.7 7.6 0.2 2.6-0.6 5.6-2.9 6.7-1.3 0.5-2.9 0.5-4 1.5-1.8 1.7-0.3 5.3-2.1 7.1-0.7 0.6-1.6 0.8-2.4 1.2-4.2 2.1-4.1 8.3-2.1 12.5q0.1 0.3 0.2 0.5-0.8-0.5-1.6-1-1.2-0.7-2.3-1.5-1.1-0.7-2.2-1.5-1.4-1-2.7-2c-4.8-12.9-9.3-26.1-17.6-37.1-2.1-2.9-4.6-5.8-5-9.4-0.3-2.5 0.5-5 0.6-7.6 0-1.7-0.1-3.6-0.1-5.4"></path>
  <path class="a" d="m33.3 119.1c-0.3 1.6-0.7 3.8-1.6 5.6q0.6-3.4 1.4-6.6 0.8-3.2 1.8-6.3c1.9-6 4.5-11.7 7.6-17.1q1-1.7 2.1-3.4 1.1-1.6 2.2-3.2 0.3-0.1 0.7-0.1c1.2-0.1 2.6 0 3.7-0.6 1-0.5 1.8-1.4 2.7-2.1 2.4-1.7 6.4-2.1 7.1-5 0.2-0.9-0.1-2 0.3-2.9 0.7-1.8 3-2 4.9-2 0.8 0 1.7 0.1 2.1 0.8 0.2 0.5 0.1 1.1-0.1 1.6-1.2 3.3-3.5 6.1-6.4 7.9-2.4 1.5-5.6 2.6-6.3 5.4 0.4 0.9 2.1 0.9 2.2 1.8 0.1 0.8-0.9 1.2-1.3 1.9-0.5 1 0.7 2.3 1.9 2.2 1.1 0 2.1-0.9 2.9-1.7 2.6-2.3 5.2-4.9 6.2-8.2 0.4-1.4 0.5-3 1.6-3.9 1.3-1.1 3.7-0.4 4.1 1.3 1.1-0.6 2.9-1.1 3.4 0.1 0.2 0.4 0.2 0.9 0.3 1.3 0.3 1.8 2.8 2.6 3 4.4 0.3 2.1-2.3 3.1-4.4 3.5q-2.8 0.4-5.7 0.8c-0.8 0.2-1.6 0.3-2.3 0.8-0.7 0.5-1.1 1.4-0.7 2.2 0.2 0.4 0.6 0.7 1 1 1.5 1.6 0.2 4.8-2 4.8-0.7 0.1-1.4-0.2-2.2-0.2-2.2-0.1-4 1.8-5.1 3.8-1 2-1.8 4.2-3.6 5.5-2.9 2.2-7.8 1.7-9.2 5-0.6 1.4-0.3 2.9-0.1 4.3 0.3 1.4 0.4 3-0.5 4.2-0.8 1.2-3 1.4-3.6 0.1-0.2-0.6-0.1-1.2 0-1.8q0.4-3.1 0.9-6.2c0.3-1.6 0.5-3.3-0.4-4.5-1.3-1.8-4.1-1.6-5.8-0.2-1.6 1.4-2.3 3.6-2.8 5.7z"></path>
  <path class="a" d="m107.2 73.9q-3.4 0.8-6.7 1.6c-1 0.3-2 0.5-2.9 1-1.7 1.1-2.6 3-4 4.6-1.3 1.5-3.7 2.6-5.3 1.3-0.8-0.6-1.1-1.6-1.2-2.6-0.2-1.4 0.2-2.8 0.9-4 0.8-1.3 1.9-2.2 2.6-3.5 0.6-1.3 0.5-3.3-0.8-3.9-0.7-0.3-1.6-0.2-2.3-0.6-1.1-0.9-0.3-2.8 1-3.3 1.3-0.5 2.8-0.2 4.2-0.1 5.1 0.4 8.9-3 12.7-5.8 3-2.1 9.4-4.7 12.8-2.5 1.4 0.9 1.9 3.2 0.6 4.2-0.5 0.4-1.3 0.5-1.9 1-0.6 0.6-0.7 1.6-1.1 2.4-1 2-3.7 2.8-4.6 4.9-0.6 1.2-0.3 2.8-1.2 3.9-0.6 0.9-1.8 1.2-2.8 1.4z"></path>
  <g style="opacity:.6">
    <path class="d" d="m206.8 139q0 3-0.2 5.8 0.2-2.8 0.2-5.8 0-0.6 0-1.2 0-1.9-0.1-3.7 0.1 1.8 0.1 3.7 0 0.6 0 1.2z"></path>
  </g>
  <g style="opacity:.6">
    <path class="d" d="m201.3 108.3q0.6 1.6 1.1 3.3-0.5-1.7-1.1-3.3 0 0 0 0 0 0 0 0 0 0 0 0 0 0 0 0z"></path>
  </g>
  <path class="a" d="m206.8 139q0 3-0.2 5.8v0.1c-1 0.9-2.2 1.6-3.5 1.5-2.2 0-3.9-1.8-4.7-3.7-0.9-2-1.1-4.1-1.7-6.2-0.3-1.1-0.8-2.3-1.8-2.7-0.7-0.4-1.5-0.3-2.2-0.5-2.7-0.8-3.4-4.5-5.8-5.6-0.8-0.3-1.7-0.4-2.5-0.5-3.3-0.4-6.7-1.5-8.8-4.1-0.7-0.9-1.2-1.9-2.1-2.5-0.8-0.7-2.1-1-2.9-0.3q1 2.1 2 4.1c0.7 1.3 1.3 2.6 2.3 3.5 1.1 1 2.7 1.4 3.9 0.9 0.4-0.2 0.9-0.6 1.3-0.5 0.4 0 0.7 0.3 0.9 0.5 1.8 2 1.2 5.3-0.6 7.4-1.7 2-4.3 3.1-6.8 4-0.9 0.4-1.8 0.8-2.8 0.6-1.7-0.3-2.6-2.2-3.1-3.9-1.2-3.7-1.7-7.8-4-10.9-0.8-1-1.7-1.9-2.1-3.1-0.5-1.3-0.4-2.7-1.1-3.8-0.8-1.2-2.5-1.9-2.6-3.2-0.1-1 0.8-1.9 1.6-2.3 0.9-0.4 1.9-0.6 2.9-0.9 0.3-0.2 0.7-0.5 0.7-0.8 0-0.6-0.8-0.9-1-1.4-0.2-0.6 0.4-1.2 0.7-1.8 0.6-1.4-0.9-2.7-2.2-3.3-1.4-0.6-3.1-1-3.7-2.3-0.3-0.6-0.3-1.3-0.5-2-0.3-1.7-1.5-3.3-3.2-3.6-1.7-0.3-3.6 1.2-3.3 2.9 0.1 1 0.8 1.7 1.2 2.6 0.4 0.8 0.3 2.1-0.6 2.4-1.5 0.4-2.9-2.2-4.1-1.3q0.7 2.6 1.5 5.1c-2 1-4.3-0.8-5.1-2.8-0.8-2-0.8-4.2-1.8-6.2-1-1.9-3.6-3.3-5.3-2-0.1 2.5 3.2 3.5 4.7 5.5 1 1.5 0.8 3.8-0.7 4.7-1.5 1-4-0.6-3.4-2.3 0.2-0.6 0.7-1.1 0.8-1.7 0-0.8-0.6-1.4-1.2-1.9q-1.4-1.2-2.8-2.4c-0.6-0.5-1.3-1-2-1.2-2-0.6-3.9 1-4.9 2.7-1 1.7-1.6 3.7-3 5.2-2 2.1-5.9 2.2-7.8 0-1.9-2.2-0.9-6.3 1.9-7.1 1.1-0.3 2.4-0.3 3-1.2 0.9-1.7-1.8-3.8-0.9-5.4 0.8-1.3 2.7-0.7 4.1-1.2 1.4-0.4 2.2-1.8 3.1-3.1 0.8-1.2 2.1-2.4 3.5-2.1-0.1-0.8-0.2-1.8 0.2-2.5 0.4-0.8 1.4-1.3 2.1-0.8-0.7 1.2 0.2 2.8 1.4 3.4 1.3 0.6 2.7 0.4 4.1 0.3 1.3-0.2 3.1-0.7 3.2-2.1 0-0.4-0.2-0.9 0-1.3 0.6-1.6 3.6 0.6 4.8-0.7 0.6-0.7-0.1-1.9-1-2.1-0.9-0.2-1.9 0.1-2.9 0.1-0.9 0.1-2.1-0.4-2.1-1.4 0-0.9 1-1.6 1.1-2.5 0.2-1.6-2.5-2-3.4-0.7-0.9 1.3-0.6 3-0.3 4.6 0.3 1.5 0.4 3.3-0.7 4.4-0.5 0.8-1.8 0.4-2.2-0.4-0.4-0.8-0.3-1.7-0.4-2.6-0.1-0.9-0.5-1.9-1.3-2.1-0.6-0.2-1.3 0.1-1.9 0.2-2.4 0.3-4.1-2.9-3.3-5.2 0.7-2.3 2.9-3.8 5.1-5 1.5-0.9 3.5-1.7 5-0.8 0.7 0.4 1.2 1.1 1.9 1.5 1.3 0.7 2.8 0.5 4.2 0.5 2.2 0.1 4.4 0.9 6.1 2.4 0.6 0.5 1.2 1.5 0.7 2.2-0.5 0.7-2.1 0.8-1.8 1.7 1.7 0.5 3.6-0.7 3.8-2.4 0.8 0.3 1.4 1.1 1.5 2 1.7-1.8 5.1-1.5 6.6 0.6 0.4 0.5 0.7 1.2 1.2 1.5 0.6 0.4 1.6 0.2 1.6-0.4 0-0.2 0-0.5-0.1-0.6q-0.5-1.5-1-2.9c1.3-0.7 2.8 0.4 3.7 1.6 3.3 4.4 5.6 1.7 10.2 2.5 3.1 0.4 4.5 2.4 6.2 4.8 5.4 7.5 12.5 13.5 17.4 21.3q0.8 1.2 1.5 2.5 0 0 0 0 0 0 0 0 0.6 1.6 1.1 3.3 0.6 1.7 1.1 3.5 1.3 4.4 2 9.1 0.3 1.6 0.5 3.1 0.2 1.5 0.4 3 0.1 1.9 0.3 3.8 0.1 1.8 0.1 3.7 0 0.6 0 1.2z"></path>
  <path class="a" d="m173.4 186.1c-1.4 0.2-3.1-0.5-4.2 0.4-0.6 0.6-0.8 1.5-1 2.3-0.3 1.1-1 2.1-2 2.7-1 0.6-2.4 0.7-3.3 0-0.9-0.7-1.2-2.2-0.4-3.1 0.3-0.4 0.8-0.6 1.2-1 1.9-1.8 0.6-5.1 2-7.2 0.8-1.3 2.2-2.5 3.1-3.8 0.7-1 1-1.7 2.3-2 5.7-1.1 8.3 10.8 2.3 11.7z"></path>
  <path class="a" d="m169.3 354.3l-31.4 9.9c-2.2 0.6-4.5-0.6-5.2-2.8l-13.6-43.5c-0.7-2.2 0.5-4.5 2.7-5.2l19.9-6.2 20.5 11.1 9.8 31.5c0.7 2.2-0.5 4.5-2.7 5.2z"></path>
  <path class="b" d="m169.1 354.4l-31.1 9.7c-2.2 0.7-4.6-0.5-5.3-2.8l-3.6-11.5 39.3-12.3 3.6 11.4c0.7 2.3-0.6 4.8-2.9 5.5z"></path>
  <path class="c" d="m145.9 349.4l2 6.4-1.4 0.4-0.9-2.6-2.7 0.9 0.8 2.6-1.4 0.4-2-6.4 1.4-0.4 0.8 2.5 2.7-0.9-0.7-2.5z"></path>
  <path class="c" d="m152.2 354.2c-0.3 0.2-0.6 0.5-1 0.6-1.2 0.4-2 0-2.3-1.2l-0.7-2-0.7 0.2-0.3-1.1 0.7-0.2-0.4-1.2 1.4-0.4 0.3 1.2 1.2-0.4 0.4 1.1-1.2 0.4 0.6 2c0.1 0.4 0.4 0.5 0.8 0.4q0.3-0.1 0.5-0.3z"></path>
  <path class="c" d="m160 348.9l0.9 2.8-1.3 0.4-0.9-2.6c-0.2-0.8-0.7-1-1.2-0.9-0.6 0.2-0.9 0.8-0.6 1.6l0.7 2.5-1.3 0.4-0.8-2.6c-0.3-0.7-0.7-1-1.3-0.8-0.6 0.2-0.9 0.7-0.6 1.6l0.8 2.4-1.4 0.4-1.5-4.8 1.3-0.4 0.1 0.5c0.3-0.5 0.7-0.9 1.3-1.1 0.7-0.2 1.3-0.1 1.8 0.3 0.2-0.6 0.7-1.1 1.4-1.3 1.2-0.3 2.2 0.1 2.6 1.6z"></path>
  <path class="c" d="m160 344.5l1.4-0.4 2.1 6.8-1.4 0.4z"></path>
  <path class="c" d="m139.5 327.8l-4.5 3.9 5.9 0.5 0.7 2.3-8.5-1-0.7-2.3 6.4-5.6z"></path>
  <path class="c" d="m143.1 319.3l2.1-0.7 0.2 18.8-2.2 0.7z"></path>
  <path class="c" d="m155.4 324l0.8 2.3-6.5 5.7-0.7-2.3 4.5-3.8-5.9-0.6-0.7-2.3z"></path>
  <g style="opacity:.3">
    <path class="c" d="m162.2 317.6l-11.8 3.7c-2 0.6-4.2-0.5-4.8-2.6l-3.9-12.2z"></path>
  </g>
  <path class="b" d="m150.4 321.3l11.8-3.7c0 0 0.9 3 1 3.3 0.1 0.2-10.6 1.6-12.2 1.8q-0.2 0-0.5 0c-3.6 0.1-4.4-2.9-4.4-2.9 1.3 2.3 4.3 1.5 4.3 1.5z"></path>
  <path class="e" d="m200 381.8c-91.1 0-164.8-0.1-164.8-0.3 0-0.1 73.7-0.2 164.8-0.2 91.1 0 164.8 0.1 164.8 0.2 0 0.2-73.7 0.3-164.8 0.3z"></path>
  <path class="c" d="m76.7 103.7h238.9v179.6h-238.9z"></path>
  <path class="e" d="m315.6 283.3q0 0 0-0.9 0-0.8 0-2.4 0-3.3 0-9.6c-0.1-8.3-0.1-20.6-0.1-36.3-0.1-31.2-0.1-76.1-0.2-130.4l0.3 0.4c-67.4 0-149.9 0-238.9 0l0.4-0.4c0 64.6 0 125.7 0 179.6l-0.4-0.4c70.8 0.1 130.5 0.1 172.5 0.2 21 0 37.6 0.1 48.9 0.1 5.7 0 10.1 0 13 0q2.3 0 3.4 0 0.6 0 0.9 0.1 0.2 0 0.2 0 0 0-0.2 0-0.3 0-0.9 0-1.1 0-3.3 0c-2.9 0-7.2 0-12.9 0.1-11.3 0-27.9 0-48.9 0.1-42.1 0-101.8 0.1-172.7 0.1h-0.4v-0.3c0-53.9 0-115 0-179.6v-0.4h0.4c89 0 171.5 0.1 238.9 0.1h0.4v0.3c-0.1 54.4-0.1 99.3-0.2 130.7 0 15.6-0.1 27.8-0.1 36.2q0 6.2 0 9.4 0 1.6 0 2.5 0 0.8-0.1 0.8z"></path>
  <path class="e" d="m314.5 125.7q-0.1 0-0.7 0-0.6 0.1-1.7 0.1c-1.6 0-3.9 0-6.8 0.1-6 0-14.5 0-25.1 0-21.2 0-50.4-0.1-82.7-0.4-32.3-0.3-61.5-0.5-82.7-0.7-10.6 0-19.1-0.1-25-0.2-3 0-5.3 0-6.9 0q-1.1-0.1-1.7-0.1-0.6 0-0.6 0 0-0.1 0.6-0.1 0.6 0 1.7 0c1.6 0 3.9-0.1 6.9-0.1 5.9 0 14.4-0.1 25-0.1 21.2 0.1 50.4 0.2 82.7 0.5 32.3 0.2 61.5 0.5 82.7 0.6 10.6 0.1 19.1 0.2 25.1 0.2 2.9 0.1 5.2 0.1 6.8 0.1q1.1 0 1.7 0.1 0.6 0 0.7 0z"></path>
  <path class="e" d="m89.5 115.6c-1.6 0-2.8-1.2-2.8-2.8 0-1.5 1.2-2.8 2.8-2.8 1.5 0 2.8 1.3 2.8 2.8 0 1.6-1.3 2.8-2.8 2.8z"></path>
  <path class="e" d="m100.7 115.6c-1.5 0-2.8-1.2-2.8-2.8 0-1.5 1.3-2.8 2.8-2.8 1.6 0 2.9 1.3 2.9 2.8 0 1.6-1.3 2.8-2.9 2.8z"></path>
  <path class="e" d="m112 115.6c-1.6 0-2.8-1.2-2.8-2.8 0-1.5 1.2-2.8 2.8-2.8 1.6 0 2.8 1.3 2.8 2.8 0 1.6-1.2 2.8-2.8 2.8z"></path>
  <path class="a" d="m118.3 229.9h49.2v36.8h-49.2z"></path>
  <path class="a" d="m172.3 229.9h49.1v36.8h-49.1z"></path>
  <path class="a" d="m235.1 229.9h49.1v36.8h-49.1z"></path>
  <path class="d" d="m347.1 188.7c-8.7 5.4-23.5 8.1-34.3 5.7q-0.1 0.7-0.3 1.3c-1.1 3.1-3.5 6-6.7 6.9-0.8 0.2-1.7 0.2-2.5 0.1-0.4 4.9-2.1 9.9-6.4 13.4-12.7 10.3-31.3-6.4-31.3-6.4l-44.6-25.9c1-9 6.4-17.5 14.1-22.3 7.7-4.8 17.7-5.9 26.2-2.8 11.2-11.8 31.9-12.7 44-1.9 4.8-5.9 17.3 0.8 24.9 0.1 9.6-0.8 16.9-13.1 15.8-22.7-1.2-9.6-24.9-22.8-34.5-21.4l11.9-13.9c14.8 1.8 43.8 15.7 45.2 43.4 0.8 14.9-8.8 38.5-21.5 46.4z"></path>
  <path class="e" d="m308.4 162.2q0 0-0.1-0.2-0.2-0.3-0.5-0.7-0.3-0.5-0.7-1.1c-0.3-0.4-0.7-0.8-1.1-1.3-1.7-2.1-4.5-4.8-8.7-7-2.1-1.1-4.5-2.1-7.2-2.6-2.7-0.6-5.7-0.8-8.8-0.4-6.2 0.7-12.8 3.7-17.6 9.1-0.7 0.7-1.3 1.5-1.8 2.2l-0.1 0.2-0.2-0.1c-6.2-3.1-13-3.4-18.8-2.1-1.4 0.3-2.8 0.8-4.1 1.3-1.2 0.6-2.5 1.2-3.6 1.9-2.3 1.3-4.2 2.7-5.8 4.3-3.2 3.1-5 6.3-5.8 8.6q-0.4 0.9-0.6 1.6-0.2 0.6-0.3 1.1-0.1 0.5-0.2 0.7-0.1 0.3-0.1 0.3 0 0 0.1-0.3 0-0.2 0.1-0.7 0.1-0.5 0.3-1.2 0.2-0.7 0.5-1.5c0.8-2.4 2.6-5.7 5.8-8.8 1.6-1.6 3.6-3.1 5.8-4.4 1.2-0.7 2.4-1.3 3.7-1.9 1.3-0.5 2.7-1 4.2-1.3 5.7-1.5 12.7-1.1 19 2l-0.3 0.1c0.6-0.7 1.2-1.5 1.9-2.3 4.9-5.4 11.6-8.5 17.8-9.2 3.2-0.4 6.2-0.2 9 0.4 2.7 0.6 5.1 1.6 7.2 2.7 4.3 2.3 7 5.1 8.7 7.2 0.4 0.5 0.8 1 1.1 1.4q0.4 0.6 0.7 1 0.2 0.5 0.4 0.7 0.1 0.3 0.1 0.3z"></path>
  <path class="e" d="m317 156.4c0 0-0.6-0.4-1.6-0.8q-0.8-0.3-2-0.4c-0.7-0.1-1.5-0.1-2.4 0-0.8 0.1-1.6 0.3-2.3 0.6q-1 0.5-1.7 1c-0.9 0.6-1.3 1.2-1.4 1.1q0 0 0.3-0.4 0.3-0.4 0.9-1 0.7-0.5 1.8-1c0.7-0.4 1.5-0.6 2.4-0.7 0.9-0.2 1.7-0.1 2.5 0q1.2 0.2 2 0.6 0.8 0.3 1.2 0.6 0.4 0.3 0.3 0.4z"></path>
  <path class="e" d="m329.6 173.2c0 0.1-0.4-0.2-1.3-0.5-0.8-0.3-2.1-0.6-3.8-0.5-1.6 0-3.6 0.6-5.3 2-1.7 1.4-3 3.6-3.3 6.1l-0.1 0.4-0.3-0.2q-1.3-0.9-2.9-1.4c-2.8-1.1-5.7-1.1-8.3-0.6-2.5 0.6-4.5 1.8-6 3.1-1.5 1.2-2.5 2.5-3.1 3.4-0.6 1-0.9 1.5-0.9 1.5q0 0 0.2-0.4 0.1-0.4 0.5-1.1c0.6-1 1.6-2.3 3.1-3.6 1.5-1.3 3.6-2.6 6.2-3.2 2.5-0.6 5.6-0.6 8.4 0.5 1.1 0.4 2.2 0.9 3.1 1.5l-0.4 0.1c0.4-2.7 1.8-5 3.6-6.4 1.8-1.4 3.8-2 5.5-2 1.7-0.1 3 0.3 3.9 0.7q0.6 0.2 0.9 0.4 0.3 0.2 0.3 0.2z"></path>
  <path class="e" d="m364.2 126.1q0 0 0.3 0.6c0.2 0.4 0.5 0.9 0.8 1.7 0.7 1.4 1.6 3.6 2.3 6.4 0.7 2.8 1.2 6.2 1.2 10 0 1.9-0.1 3.9-0.3 6q-0.3 3.1-1 6.3c-1.9 8.6-5.3 16-8.4 20.8-1.5 2.5-3 4.3-4.1 5.5q-0.8 0.9-1.3 1.3-0.5 0.4-0.5 0.4 0 0 0.4-0.5 0.5-0.4 1.3-1.3c1-1.2 2.5-3.1 3.9-5.5 3-4.9 6.4-12.2 8.3-20.8q0.7-3.2 1-6.2c0.2-2.1 0.3-4.1 0.3-6 0-3.8-0.4-7.2-1.1-9.9-0.7-2.8-1.5-5-2.1-6.5-0.3-0.7-0.6-1.3-0.8-1.7q-0.2-0.5-0.2-0.6z"></path>
  <path class="e" d="m342.1 127.2c0 0 0.2 0.3 0.7 0.8 0.4 0.5 1 1.3 1.6 2.4 1.3 2.1 2.5 5.4 2.4 9.2-0.2 3.8-1.6 7.1-2.9 9.1-0.7 1.1-1.4 1.8-1.8 2.3-0.5 0.5-0.8 0.8-0.8 0.7-0.1 0 1-1.1 2.3-3.1 1.3-2.1 2.6-5.3 2.7-9 0.2-3.7-1-7-2.1-9.1-1.2-2.1-2.2-3.2-2.1-3.3z"></path>
  <path class="f" d="m318.3 89c10.1 5.4 18 14.7 21.9 25.5 1 2.7-1.9 5.2-4.5 3.8q-5.9-3.5-11.4-7.7v0.1c0.8 2.3-1.8 4.3-3.8 3-3.1-2.1-5.7-4.8-7.8-8z"></path>
  <g style="opacity:.3">
    <path d="m322.2 98.1c3.8 1.5 6.7 4.9 7.5 8.9 0.1 0.8 0.1 1.9-0.7 2.3-0.7 0.3-1.5-0.3-2.1-0.9q-1.1-1.1-2.3-2.2c-0.7-0.7-1.8-1.4-2.7-0.9-0.8 0.5-0.7 1.8-1.5 2.4-0.5 0.3-1.3 0.2-1.8-0.2-0.5-0.3-0.9-0.9-1.3-1.4z"></path>
  </g>
  <path class="f" d="m348.1 125c0.2-1.4 1.6-2.5 3-2.4 1.4 0.2 2.6 1.6 2.4 3-0.1 1.4-1.4 2.5-2.9 2.4-1.4-0.1-2.5-1.4-2.5-2.8"></path>
  <path class="d" d="m235.5 28.2c7.3 1.6 14.2 4 19.7 6.2 6.4 2.5 12.5 5.7 18.3 9.4l59.2 38-11.1 17.2-6.3 9.9-11.1 17.2-65.2-41.8c0 0-12.8-8.7-24-24.2-11.3-15.7-16.2-27.9-14-31.5 2.3-3.5 15.7-4.5 34.5-0.4z"></path>
  <path class="f" d="m291.8 55.6q0.1 0 0.2-0.1c14.1-4.7 29.5-2.8 42 5.2l7.8 5-20.8 8.6z"></path>
  <path class="e" d="m291.8 55.6q0 0 0.1 0.1 0.2 0.1 0.5 0.2 0.5 0.4 1.6 1.1c1.4 0.9 3.5 2.2 6.1 3.8 5.1 3.3 12.4 8 21 13.4h-0.1c5.8-2.4 12.2-5.1 18.9-7.8q0.9-0.4 1.8-0.8v0.2q-2.3-1.5-4.6-2.9c-1.5-1-3-2-4.5-2.8-3-1.8-6-3.2-9-4.3-3-1.1-6-1.7-8.8-2.2-1.4-0.2-2.7-0.3-4-0.4-1.3-0.1-2.6-0.2-3.8-0.1-4.8 0-8.6 0.7-11.2 1.4-1.3 0.3-2.3 0.6-3 0.8-0.6 0.2-0.8 0.2-1 0.3q0 0 0.3-0.1 0.2-0.1 0.7-0.3c0.7-0.2 1.7-0.5 3-0.8 2.6-0.7 6.4-1.4 11.2-1.5 1.2-0.1 2.5 0 3.8 0.1 1.3 0.1 2.7 0.2 4.1 0.4 2.8 0.4 5.7 1.1 8.8 2.2 3 1 6.1 2.4 9 4.2 1.6 0.9 3 1.9 4.5 2.9q2.3 1.4 4.6 2.9l0.3 0.2-0.3 0.1q-0.9 0.3-1.8 0.7c-6.7 2.8-13.1 5.4-18.9 7.8l-0.1 0.1v-0.1c-8.6-5.5-15.9-10.2-21.1-13.6-2.6-1.6-4.6-2.9-6-3.8q-1-0.7-1.6-1.1-0.2-0.1-0.4-0.2-0.1-0.1-0.1-0.1z"></path>
  <path class="f" d="m292.2 118.4l0.8 22.2-7.7-5c-12.3-7.9-20.4-20.9-21.9-35.4q0-0.2 0-0.3z"></path>
  <path class="e" d="m263.4 99.9q0 0 0.1 0.1 0.1 0.1 0.4 0.2 0.5 0.4 1.6 1c1.4 0.9 3.4 2.2 5.9 3.8 5.1 3.3 12.4 7.9 20.9 13.3v0.1c0.3 6.2 0.5 13 0.8 20.2q0 1 0 1.9l0.1 0.3-0.3-0.1q-2.3-1.5-4.5-3c-1.5-0.9-3-1.8-4.4-2.8-2.8-2-5.4-4.1-7.5-6.4-2.2-2.3-4.1-4.7-5.6-7-0.8-1.2-1.4-2.4-2.1-3.5-0.5-1.1-1.1-2.2-1.6-3.3-1.9-4.4-2.8-8.1-3.3-10.7-0.3-1.3-0.3-2.3-0.4-3q-0.1-0.5-0.1-0.8 0-0.3 0-0.3c0 0.2 0 0.5 0.1 1.1 0.1 0.6 0.2 1.7 0.5 3 0.5 2.5 1.4 6.3 3.4 10.6 0.4 1.1 1 2.2 1.6 3.3 0.7 1.1 1.3 2.3 2.1 3.5 1.5 2.3 3.3 4.7 5.5 6.9 2.2 2.3 4.7 4.4 7.6 6.4 1.3 0.9 2.8 1.9 4.3 2.8q2.3 1.5 4.6 2.9l-0.2 0.2q-0.1-1-0.1-2c-0.3-7.1-0.5-14-0.7-20.2v0.1c-8.4-5.4-15.6-10-20.6-13.3-2.6-1.7-4.6-3-6-3.9q-1-0.7-1.6-1-0.2-0.2-0.4-0.3-0.1-0.1-0.1-0.1z"></path>
  <path class="f" d="m225.9 26.4l-17.6 23.7c-6.4-10.8-9.1-18.8-7.3-21.5 2.4-3.4 12.3-3.7 24.9-2.2z"></path>
  <path class="d" d="m293.9 119.5l27.9-44"></path>
  <path class="e" d="m321.8 75.5c0.1 0-6.1 9.9-13.8 22.1-7.7 12.1-14 21.9-14.1 21.9-0.1 0 6.1-9.9 13.8-22.1 7.7-12.2 14-22 14.1-21.9z"></path>
  <path class="d" d="m295.7 121l27.9-44.1"></path>
  <path class="e" d="m323.6 76.9c0.1 0.1-6.1 10-13.8 22.1-7.7 12.2-14 22-14.1 22 0-0.1 6.2-10 13.9-22.1 7.7-12.2 14-22 14-22z"></path>
  <path class="d" d="m297.9 122.3l27.9-44.1"></path>
  <path class="e" d="m325.8 78.2c0 0.1-6.2 10-13.9 22.1-7.7 12.2-14 22-14 22-0.1-0.1 6.1-10 13.8-22.1 7.7-12.2 14-22 14.1-22z"></path>
  <path class="d" d="m300 123.6l27.9-44.1"></path>
  <path class="e" d="m327.9 79.5c0 0.1-6.2 10-13.9 22.1-7.7 12.2-14 22-14 22-0.1-0.1 6.1-10 13.8-22.1 7.7-12.2 14-22 14.1-22z"></path>
  <path class="d" d="m302.1 124.9l27.9-44.1"></path>
  <path class="e" d="m330 80.8c0 0.1-6.2 10-13.9 22.1-7.7 12.2-14 22-14 22-0.1-0.1 6.1-10 13.8-22.1 7.7-12.2 14-22 14.1-22z"></path>
  <path class="e" d="m277.7 77.7q0 0 0.3 0.1 0.3 0.2 0.9 0.6c0.8 0.4 1.9 1.1 3.3 2 2.8 1.7 6.6 4.2 10.7 6.9 4.2 2.7 7.9 5.2 10.7 7 1.3 0.9 2.4 1.7 3.1 2.2q0.6 0.4 0.9 0.6 0.3 0.2 0.3 0.2 0 0-0.3-0.2-0.4-0.2-0.9-0.5c-0.8-0.5-1.9-1.2-3.3-2.1-2.7-1.8-6.5-4.3-10.6-7-4.2-2.7-7.9-5.2-10.7-7-1.3-0.8-2.4-1.5-3.2-2.1-0.4-0.2-0.7-0.4-0.9-0.5q-0.3-0.2-0.3-0.2z"></path>
  <path class="e" d="m291.8 55.6c0.1 0-6.2 9.9-14 22-7.7 12.2-14.1 22-14.2 22 0-0.1 6.2-10 14-22.1 7.8-12.1 14.1-22 14.2-21.9z"></path>
  <path class="e" d="m301.5 87.9c0 0-0.1-0.1 0-0.4 0-0.2 0.1-0.6 0.5-0.9 0.3-0.3 0.9-0.6 1.5-0.4 0.6 0.2 1.2 0.7 1.3 1.5 0.1 0.7-0.4 1.4-1 1.7-0.6 0.3-1.2 0.1-1.6-0.1-0.4-0.3-0.6-0.6-0.7-0.9 0-0.2 0-0.3 0-0.3 0 0 0 0.1 0.1 0.3 0.1 0.2 0.4 0.5 0.7 0.7 0.4 0.2 0.9 0.3 1.4 0.1 0.5-0.3 0.9-0.9 0.8-1.5 0-0.6-0.5-1.1-1.1-1.3-0.5-0.1-1 0.1-1.3 0.3-0.3 0.3-0.5 0.6-0.5 0.9-0.1 0.2-0.1 0.3-0.1 0.3z"></path>
  <path class="e" d="m289 79.6c0 0 0-0.1 0-0.4 0-0.2 0.2-0.6 0.5-0.9 0.3-0.4 0.9-0.6 1.6-0.4 0.6 0.2 1.2 0.7 1.2 1.5 0.1 0.7-0.4 1.4-0.9 1.7-0.6 0.3-1.3 0.1-1.6-0.1-0.4-0.3-0.6-0.6-0.7-0.9-0.1-0.2-0.1-0.4-0.1-0.4 0.1 0 0.1 0.2 0.2 0.4 0.1 0.2 0.3 0.5 0.7 0.7 0.3 0.2 0.9 0.3 1.3 0 0.5-0.2 0.9-0.8 0.9-1.4-0.1-0.6-0.6-1.1-1.1-1.3-0.5-0.2-1 0-1.4 0.3-0.3 0.3-0.4 0.6-0.5 0.8-0.1 0.3-0.1 0.4-0.1 0.4z"></path>
  <path class="e" d="m265 73.8c0 0 0-0.1 0-0.4 0-0.2 0.2-0.6 0.5-0.9 0.3-0.3 1-0.6 1.6-0.4 0.6 0.2 1.2 0.7 1.2 1.5 0.1 0.7-0.4 1.4-0.9 1.7-0.6 0.3-1.2 0.1-1.6-0.1-0.4-0.3-0.6-0.6-0.7-0.9-0.1-0.2-0.1-0.4-0.1-0.4 0.1 0 0.1 0.2 0.2 0.4 0.1 0.2 0.3 0.5 0.7 0.7 0.3 0.2 0.9 0.3 1.4 0 0.4-0.2 0.8-0.8 0.8-1.4-0.1-0.6-0.6-1.1-1.1-1.3-0.5-0.1-1 0.1-1.3 0.3-0.4 0.3-0.5 0.6-0.6 0.9-0.1 0.2 0 0.3-0.1 0.3z"></path>
  <path class="e" d="m254.3 71.2c0.1 0 4.7 2.5 10.3 5.7 5.6 3.1 10.1 5.8 10 5.8 0 0.1-4.6-2.4-10.2-5.6-5.6-3.2-10.1-5.8-10.1-5.9z"></path>
  <g style="opacity:.3">
    <path d="m274.9 113.3c-4.5-3.4-8.3-8.7-11.5-13.4 9.4 5.5 28 18 28 18-5.7 0.7-11.9-1.1-16.5-4.6z"></path>
  </g>
  <path class="c" d="m261.8 58.9c-0.5 8.7-8 15.3-16.7 14.8-8.7-0.5-15.3-7.9-14.8-16.6 0.4-8.7 7.9-15.4 16.6-14.9 8.7 0.5 15.4 8 14.9 16.7z"></path>
  <path class="e" d="m261.8 58.9q-0.1 0-0.1-0.3 0-0.3 0-0.8 0-0.4-0.1-1.2c0-0.4 0-1-0.2-1.6-0.2-1.2-0.7-2.7-1.5-4.3-0.8-1.5-2-3.2-3.7-4.6-1.7-1.4-3.9-2.7-6.4-3.3-2.6-0.6-5.5-0.6-8.3 0.2-1.4 0.4-2.7 1.1-4 1.9-0.7 0.4-1.3 0.9-1.9 1.4-0.5 0.6-1.1 1.1-1.6 1.8-2.1 2.4-3.3 5.6-3.5 9-0.2 3.3 0.7 6.7 2.5 9.3 0.4 0.7 0.9 1.3 1.4 1.9 0.5 0.6 1 1.2 1.7 1.6 1.1 1 2.4 1.8 3.8 2.4 2.7 1.2 5.5 1.4 8.1 1.1 2.6-0.3 4.9-1.3 6.7-2.5 1.9-1.2 3.3-2.7 4.3-4.2 1-1.5 1.6-2.9 2-4.1 0.2-0.5 0.3-1.1 0.4-1.6q0.2-0.7 0.2-1.2 0.1-0.4 0.1-0.7 0-0.2 0.1-0.2 0 0 0 0.2-0.1 0.3-0.1 0.8 0 0.5-0.2 1.2c-0.1 0.4-0.2 1-0.4 1.6-0.3 1.2-0.9 2.6-1.9 4.1-1 1.5-2.4 3.1-4.3 4.3-1.9 1.3-4.2 2.3-6.8 2.7-2.7 0.3-5.6 0-8.4-1.2-1.4-0.5-2.7-1.4-3.9-2.4-0.6-0.5-1.2-1-1.7-1.6-0.5-0.6-1.1-1.2-1.5-1.9-0.9-1.4-1.6-2.9-2-4.6-0.4-1.6-0.6-3.3-0.6-5.1 0.3-3.4 1.6-6.7 3.7-9.2 0.5-0.7 1.1-1.2 1.7-1.8 0.6-0.5 1.2-1 1.9-1.4 1.3-0.9 2.7-1.5 4.1-1.9 2.9-0.9 5.9-0.8 8.4-0.2 2.6 0.6 4.8 1.9 6.5 3.4 1.8 1.4 3 3.1 3.8 4.7 0.8 1.6 1.3 3.1 1.5 4.4 0.1 0.6 0.1 1.1 0.2 1.6q0 0.7 0 1.2 0 0.5 0 0.8 0 0.3 0 0.3z"></path>
  <path class="e" d="m201 28.6q0 0 0.1-0.1 0.1-0.2 0.4-0.4c0.4-0.4 1-0.8 1.8-1.1 1.8-0.8 4.6-1.3 8.3-1.5 3.6-0.1 8.1 0.1 13.2 0.7 5.2 0.7 11 1.8 17.4 3.6q4.7 1.3 9.8 3.2c3.4 1.3 6.9 2.7 10.4 4.4 3.5 1.7 7.1 3.7 10.6 5.9q5.3 3.4 10.9 7c14.8 9.5 31.3 20.1 48.9 31.3l0.2 0.1-0.2 0.2c-4.5 7.1-9.3 14.6-14.2 22.2-4.8 7.6-9.6 15-14.2 22.1l-0.1 0.2-0.2-0.1c-17.5-11.2-34-21.8-48.9-31.4q-5.6-3.6-10.8-7-2.7-1.7-5.2-3.3c-1.7-1.1-3.3-2.4-4.8-3.6-6-5-11.1-10.2-15.3-15.3-4.1-5.1-7.4-10-10.2-14.5-2.7-4.4-4.8-8.4-6.2-11.7-1.4-3.4-2.1-6.1-2.2-8-0.1-1 0.1-1.7 0.2-2.2q0.1-0.3 0.2-0.5 0.1-0.2 0.1-0.2c0.1 0.1-0.1 0.3-0.2 0.7-0.2 0.5-0.3 1.2-0.2 2.2 0.1 1.8 0.8 4.6 2.3 7.9 1.4 3.4 3.5 7.3 6.2 11.7 2.8 4.4 6.1 9.3 10.3 14.4 4.2 5.1 9.2 10.3 15.2 15.2 1.5 1.3 3.1 2.5 4.8 3.6q2.5 1.7 5.1 3.3 5.3 3.4 10.9 7c14.9 9.5 31.4 20.1 48.9 31.4h-0.2c4.5-7.1 9.3-14.6 14.2-22.1 4.8-7.6 9.6-15.1 14.2-22.2l0.1 0.3c-17.6-11.3-34.1-21.9-48.9-31.4q-5.6-3.6-10.9-7c-3.5-2.2-7-4.2-10.5-5.9-3.5-1.7-7-3.1-10.4-4.4q-5.1-1.9-9.8-3.3c-6.3-1.8-12.2-2.9-17.3-3.6-5.1-0.6-9.6-0.9-13.2-0.7-3.7 0.1-6.5 0.6-8.2 1.3-0.9 0.4-1.5 0.8-1.9 1.1-0.3 0.3-0.4 0.6-0.5 0.5z"></path>
  <path class="c" d="m265.6 209.7h-138.9c-9.1 0-16.4-7.3-16.4-16.4 0-9.1 7.3-16.4 16.4-16.4h138.9c9.1 0 16.5 7.3 16.5 16.4 0 9.1-7.4 16.4-16.5 16.4z"></path>
  <path class="e" d="m265.6 209.7q0 0 1 0c0.3-0.1 0.7-0.1 1.2-0.2 0.5 0 1.1-0.1 1.7-0.3q0.4-0.1 0.9-0.2 0.5-0.2 1.1-0.4 0.3-0.1 0.5-0.2 0.3-0.2 0.6-0.3c0.4-0.2 0.8-0.4 1.2-0.6 1.6-0.9 3.3-2.3 4.7-4.2 0.4-0.5 0.8-1 1.1-1.5 0.3-0.5 0.6-1.1 0.9-1.7 0.3-0.6 0.5-1.3 0.7-1.9q0.2-0.5 0.3-1.1l0.1-0.5 0.1-0.5q0.1-0.6 0.2-1.1 0-0.6 0-1.1l0.1-0.6-0.1-0.6q0-0.6 0-1.2c-0.2-1.5-0.6-3.1-1.3-4.7-1.4-3.1-3.9-6-7.3-7.8-1.7-1-3.6-1.6-5.6-1.8-2-0.3-4.1-0.1-6.3-0.2-34.5 0-82.1 0.1-134.7 0.1-1.6 0-3.2 0.3-4.8 0.7q-2.3 0.8-4.3 2.1-2 1.4-3.5 3.2c-1 1.3-1.8 2.7-2.4 4.1-0.6 1.5-1 3-1.1 4.6q-0.2 2.4 0.2 4.7c0.3 1.5 0.8 3 1.5 4.3 0.8 1.4 1.7 2.7 2.7 3.8 2.2 2.2 4.9 3.7 7.8 4.4 0.7 0.3 1.5 0.3 2.2 0.5 0.8 0 1.5 0.1 2.3 0q2.2 0 4.5 0 8.9 0 17.5 0c22.8 0.1 43.3 0.1 60.5 0.1 17.3 0 31.2 0 40.9 0.1 4.8 0 8.5 0 11.1 0q1.9 0 2.9 0 0.9 0 0.9 0 0 0-0.9 0.1-1 0-2.9 0c-2.6 0-6.3 0-11.1 0-9.7 0-23.6 0.1-40.9 0.1-17.2 0-37.7 0-60.5 0q-8.6 0-17.5 0-2.3 0-4.5 0c-0.8 0.1-1.6 0-2.3 0-0.8-0.2-1.5-0.2-2.3-0.5-3-0.7-5.8-2.3-8-4.6-1.1-1.1-2-2.4-2.7-3.8-0.8-1.4-1.3-2.9-1.6-4.5q-0.4-2.3-0.3-4.7c0.2-1.6 0.6-3.2 1.2-4.7 0.6-1.5 1.4-3 2.5-4.2q1.5-1.9 3.6-3.3 2-1.4 4.4-2.2c1.6-0.5 3.2-0.7 4.9-0.7 52.6 0 100.2 0 134.7 0 2.2 0.1 4.3 0 6.3 0.2 2.1 0.3 4 0.9 5.8 1.8 3.4 1.9 5.9 4.9 7.3 8 0.7 1.6 1.1 3.2 1.3 4.8q0 0.6 0 1.2l0.1 0.6-0.1 0.6q0 0.5 0 1.1-0.1 0.6-0.2 1.1l-0.1 0.6-0.1 0.5q-0.2 0.5-0.3 1c-0.2 0.7-0.4 1.3-0.7 1.9-0.3 0.7-0.6 1.2-1 1.8-0.3 0.5-0.7 1-1 1.5-1.5 1.9-3.2 3.3-4.9 4.2-0.3 0.3-0.8 0.4-1.1 0.6q-0.3 0.1-0.6 0.3-0.3 0.1-0.6 0.2-0.5 0.2-1 0.4-0.6 0.1-1 0.2c-0.6 0.2-1.2 0.2-1.7 0.3-0.4 0.1-0.9 0.1-1.2 0.1q-1 0-1 0z"></path>
  <path class="c" d="m259.3 199.7c-4 0-7.3-3.2-7.3-7.3 0-4 3.3-7.3 7.3-7.3 4.1 0 7.3 3.3 7.3 7.3 0 4.1-3.2 7.3-7.3 7.3z"></path>
  <path fill-rule="evenodd" class="e" d="m259.3 200.1c-4.2 0-7.7-3.4-7.7-7.7 0-4.3 3.5-7.7 7.7-7.7 4.3 0 7.7 3.4 7.7 7.7 0 4.3-3.4 7.7-7.7 7.7zm6.9-7.7c0-3.8-3-6.9-6.9-6.9-3.8 0-6.9 3.1-6.9 6.9 0 3.8 3.1 6.9 6.9 6.9 3.9 0 6.9-3.1 6.9-6.9z"></path>
  <path class="e" d="m271.2 201l-6.2-3.9 0.4-0.7 6.2 3.9z"></path>
  <path class="e" d="m133.4 196l0.6-1.4c0.6 0.5 1.6 0.8 2.5 0.8 1 0 1.5-0.3 1.5-0.8 0-1.4-4.5-0.4-4.5-3.3 0-1.3 1.1-2.4 3.2-2.4 1 0 2 0.3 2.7 0.7l-0.5 1.4c-0.8-0.5-1.5-0.7-2.2-0.7-1 0-1.4 0.4-1.4 0.9 0 1.4 4.4 0.5 4.4 3.3 0 1.3-1 2.4-3.2 2.4-1.2 0-2.5-0.4-3.1-0.9z"></path>
  <path fill-rule="evenodd" class="e" d="m146.6 194.3h-4.5c0.2 0.7 0.8 1.1 1.7 1.1 0.6 0 1.1-0.1 1.5-0.5l0.9 1q-0.8 0.9-2.4 0.9c-2.1 0-3.4-1.3-3.4-3 0-1.8 1.3-3.1 3.1-3.1 1.8 0 3.1 1.2 3.1 3.1 0 0.1 0 0.3 0 0.5zm-4.5-1h2.9c-0.1-0.8-0.7-1.3-1.5-1.3-0.7 0-1.3 0.5-1.4 1.3z"></path>
  <path fill-rule="evenodd" class="e" d="m152.8 193.4v3.3h-1.6v-0.7q-0.5 0.8-1.8 0.8c-1.4 0-2.2-0.8-2.2-1.8 0-1 0.7-1.7 2.5-1.7h1.4c0-0.8-0.5-1.2-1.4-1.2-0.6 0-1.2 0.2-1.7 0.6l-0.6-1.2c0.7-0.5 1.6-0.8 2.6-0.8 1.8 0 2.8 0.9 2.8 2.7zm-1.7 1.5v-0.6h-1.2c-0.8 0-1 0.3-1 0.7 0 0.4 0.3 0.7 0.9 0.7 0.6 0 1.1-0.3 1.3-0.8z"></path>
  <path class="e" d="m158 190.7v1.6q-0.2 0-0.4 0c-0.9 0-1.6 0.5-1.6 1.6v2.8h-1.7v-5.9h1.7v0.8c0.4-0.6 1.1-0.9 2-0.9z"></path>
  <path class="e" d="m158.5 193.8c0-1.8 1.4-3.1 3.3-3.1 1.2 0 2.2 0.6 2.7 1.5l-1.4 0.8c-0.3-0.6-0.8-0.9-1.3-0.9-0.9 0-1.5 0.6-1.5 1.7 0 1 0.6 1.6 1.5 1.6 0.5 0 1-0.2 1.3-0.8l1.4 0.7c-0.5 1-1.5 1.5-2.7 1.5-1.9 0-3.3-1.2-3.3-3z"></path>
  <path class="e" d="m171.4 193.4v3.3h-1.7v-3.1c0-0.9-0.4-1.4-1.2-1.4-0.8 0-1.4 0.5-1.4 1.6v2.9h-1.7v-8.1h1.7v2.8c0.5-0.4 1.1-0.7 1.9-0.7 1.4 0 2.4 0.9 2.4 2.7z"></path>
  <path class="e" d="m173.6 196.8c-0.6 0-1.1-0.5-1.1-1 0-0.6 0.5-1.1 1.1-1.1 0.6 0 1.1 0.5 1.1 1.1 0 0.5-0.5 1-1.1 1z"></path>
  <path class="e" d="m176.5 196.8c-0.6 0-1.1-0.5-1.1-1 0-0.6 0.5-1.1 1.1-1.1 0.6 0 1 0.5 1 1.1 0 0.5-0.4 1-1 1z"></path>
  <path class="e" d="m179.4 196.8c-0.6 0-1.1-0.5-1.1-1 0-0.6 0.5-1.1 1.1-1.1 0.5 0 1 0.5 1 1.1 0 0.5-0.5 1-1 1z"></path>
  <path class="f" d="m80.7 80.1l-25.8-13.7c-1.7-0.9-2.4-3.1-1.5-4.9l18.9-35.7c0.9-1.8 3.1-2.5 4.9-1.5l16.4 8.6 5.7 19.8-13.6 25.8c-1 1.8-3.2 2.5-5 1.6z"></path>
  <g style="opacity:.3">
    <path class="c" d="m99.3 52.7l-9.6-5.1c-1.7-0.9-2.3-3-1.4-4.6l5.3-10.1z"></path>
  </g>
  <g style="opacity:.2">
    <path d="m89.7 47.6l9.6 5.1c0 0-1.3 2.5-1.4 2.7-0.1 0.2-7.6-5.7-8.8-6.6q-0.1-0.1-0.2-0.2c-2.4-2.3-1-4.7-1-4.7-0.6 2.3 1.8 3.7 1.8 3.7z"></path>
  </g>
  <path class="g" d="m86.3 41.4c-0.1 0.1-2.8-1.2-6.1-2.9-3.3-1.7-5.9-3.3-5.8-3.4 0-0.1 2.8 1.2 6.1 2.9 3.3 1.8 5.9 3.3 5.8 3.4z"></path>
  <path class="g" d="m91 51.2c0 0.1-4.5-2.1-9.9-5-5.4-2.8-9.8-5.3-9.7-5.4 0-0.1 4.5 2.1 9.9 4.9 5.4 2.9 9.8 5.3 9.7 5.5z"></path>
  <path class="g" d="m90.3 56.8c-0.1 0.2-4.9-2.3-10.8-5.4-6-3.1-10.7-5.7-10.6-5.9 0-0.1 4.9 2.3 10.8 5.5 5.9 3.1 10.7 5.7 10.6 5.8z"></path>
  <path class="g" d="m87.9 61.3c0 0.2-4.9-2.3-10.8-5.4-5.9-3.1-10.7-5.8-10.6-5.9 0.1-0.1 4.9 2.3 10.8 5.4 5.9 3.2 10.7 5.8 10.6 5.9z"></path>
  <path class="g" d="m85.6 65.8c-0.1 0.1-5-2.3-10.9-5.4-5.9-3.1-10.6-5.8-10.6-5.9 0.1-0.1 5 2.3 10.9 5.4 5.9 3.1 10.6 5.8 10.6 5.9z"></path>
  <path class="g" d="m83.2 70.3c-0.1 0.1-4.9-2.3-10.8-5.4-5.9-3.2-10.7-5.8-10.6-5.9 0.1-0.2 4.9 2.3 10.8 5.4 5.9 3.1 10.7 5.7 10.6 5.9z"></path>
  <path class="h" d="m207.9 348.5c-2.3-0.3-3.9-2.4-3.6-4.7l5.2-35.8c0.3-1.8 2-3.1 4-2.8l3.3 0.5c1.4 0.2 2.8-0.4 3.5-1.5l1-1.3c0.7-1.1 2.1-1.7 3.4-1.5l16 2.3c1.2 0.2 2.3 1 2.8 2.1l0.6 1.3c0.5 1.1 1.6 1.9 2.8 2.1l20.4 2.9c1.9 0.3 3.3 2 3 3.8l-5.3 36.6c-0.3 2.3-2.4 3.9-4.7 3.5z"></path>
  <g style="opacity:.3">
    <path d="m207.9 348.5c-2.3-0.3-3.9-2.4-3.6-4.7l5.2-35.8c0.3-1.8 2-3.1 4-2.8l3.3 0.5c1.4 0.2 2.8-0.4 3.5-1.5l1-1.3c0.7-1.1 2.1-1.7 3.4-1.5l16 2.3c1.2 0.2 2.3 1 2.8 2.1l0.6 1.3c0.5 1.1 1.6 1.9 2.8 2.1l20.4 2.9c1.9 0.3 3.3 2 3 3.8l-5.3 36.6c-0.3 2.3-2.4 3.9-4.7 3.5z"></path>
  </g>
  <path class="h" d="m267.8 312.2c1.7 0.2 2.8 1.8 2.6 3.4l-5.3 36.7c-0.4 2.4-2.7 4-5.3 3.7l-51.4-7.4c-2.6-0.4-4.4-2.6-4-5l5.6-38.9 0.2-1.5c0.3-2.1 2.4-3.5 4.6-3.2l12.7 1.8c1.6 0.3 3 1.4 3.6 2.9l0.8 2.3 13 1.9z"></path>
  <path class="c" d="m253.4 337.8l-30.6-4.4 1.9-12.9 30.6 4.4z"></path>
  <path class="e" d="m249.7 329.9c0 0.1-4.7-0.5-10.5-1.3-5.8-0.9-10.5-1.6-10.5-1.7 0-0.2 4.7 0.4 10.6 1.3 5.8 0.8 10.5 1.6 10.4 1.7z"></path>
  <path class="e" d="m249.3 332.6c0 0.1-4.7-0.4-10.5-1.3-5.8-0.8-10.5-1.6-10.5-1.7 0-0.1 4.8 0.5 10.6 1.3 5.8 0.8 10.5 1.6 10.4 1.7z"></path>
  <path class="f" d="m300.7 332.6c-1.4 0.5-2.9-0.2-3.5-1.6l-8.5-22.1c-0.4-1.2 0.2-2.5 1.4-2.9l2.1-0.8c0.9-0.3 1.5-1.1 1.5-2l0.1-1c0.1-0.9 0.7-1.7 1.6-2l9.9-3.8c0.7-0.3 1.6-0.2 2.2 0.3l0.8 0.6c0.6 0.5 1.5 0.6 2.3 0.3l12.6-4.8c1.2-0.5 2.5 0 2.9 1.2l8.7 22.6c0.5 1.4-0.2 3-1.6 3.6z"></path>
  <g style="opacity:.3">
    <path d="m300.7 332.6c-1.4 0.5-2.9-0.2-3.5-1.6l-8.5-22.1c-0.4-1.2 0.2-2.5 1.4-2.9l2.1-0.8c0.9-0.3 1.5-1.1 1.5-2l0.1-1c0.1-0.9 0.7-1.7 1.6-2l9.9-3.8c0.7-0.3 1.6-0.2 2.2 0.3l0.8 0.6c0.6 0.5 1.5 0.6 2.3 0.3l12.6-4.8c1.2-0.5 2.5 0 2.9 1.2l8.7 22.6c0.5 1.4-0.2 3-1.6 3.6z"></path>
  </g>
  <path class="f" d="m323.5 292.6c1-0.4 2.2 0.1 2.6 1.2l8.7 22.7c0.5 1.5-0.3 3.2-1.9 3.8l-31.8 12.2c-1.6 0.6-3.4-0.1-3.9-1.6l-9.2-24.1-0.4-0.9c-0.5-1.3 0.2-2.8 1.6-3.3l7.9-3c1-0.4 2.2-0.2 3 0.4l1.2 1.1 8-3z"></path>
  <path class="c" d="m323.4 311.9l-18.9 7.2-3.1-7.9 19-7.3z"></path>
  <path class="e" d="m318.8 308.5c0 0.1-2.8 1.3-6.4 2.7-3.6 1.4-6.6 2.4-6.6 2.3-0.1-0.1 2.8-1.3 6.4-2.7 3.6-1.3 6.6-2.4 6.6-2.3z"></path>
  <path class="e" d="m319.5 310.2c0 0.1-2.9 1.3-6.5 2.7-3.6 1.4-6.5 2.4-6.6 2.3 0-0.1 2.9-1.3 6.5-2.7 3.6-1.3 6.5-2.4 6.6-2.3z"></path>
  <path class="f" d="m332.7 346.4c1.6 0.7 2.8 2.2 3.4 3.9 0.6 1.6 0.6 3.4 0.4 5.2-0.4 3.3-2.3 6.7-4.4 9.4-2.8-2.4-3.5-6.8-3.7-9-0.3-3.5 1.3-10 4.3-9.5z"></path>
  <path class="f" d="m335.4 370.5c-0.4-1.9 0.4-4 1.9-5.3 1.4-1.3 3.5-1.8 5.4-1.7 0.9 0.1 1.9 0.3 2.4 1.1 0.5 0.7 0.5 1.6 0.1 2.4-0.4 0.8-1.1 1.3-1.8 1.8-2.5 1.5-5.2 2.6-8 1.7z"></path>
  <path class="e" d="m331.8 380.9q0 0 0.1-0.7 0.1-0.8 0.3-1.9c0.4-1.6 0.8-3.8 2-6 1.2-2.2 2.9-3.8 4.3-4.6 0.7-0.4 1.3-0.6 1.7-0.7q0.4-0.1 0.5-0.2 0.2 0 0.2 0c0 0.1-1 0.3-2.3 1.1-1.4 0.8-3 2.4-4.2 4.5-1.2 2.2-1.6 4.4-2 5.9q-0.2 1.2-0.4 1.9-0.2 0.7-0.2 0.7z"></path>
  <path class="e" d="m331.9 351.5q0 0 0 0.3 0.1 0.3 0.1 0.9c0 0.7 0.1 1.8 0.1 3.2 0.1 2.7 0.2 6.4 0.2 10.5-0.1 4.2-0.2 7.9-0.3 10.6 0 1.4-0.1 2.5-0.1 3.2q-0.1 0.6-0.1 0.9 0 0.3 0 0.3 0 0 0-0.3 0-0.3 0-0.9 0-1.2 0.1-3.2c0-2.7 0.1-6.4 0.1-10.6 0-4.1 0-7.8-0.1-10.5q0-2 0-3.2 0-0.6 0-0.9 0-0.3 0-0.3z"></path>
  <path class="f" d="m330.5 372.9c-4.4 0-8.7-2.9-10.3-7-0.4-1-0.6-2.2 0.2-2.9 0.8-0.7 2-0.4 3 0 3.7 1.8 6.5 5.5 7.1 9.6"></path>
  <path class="e" d="m323.9 366.2q0 0 0.6 0.3 0.3 0.1 0.6 0.3c0.3 0.2 0.6 0.4 0.9 0.6 0.3 0.2 0.7 0.4 1 0.7q0.5 0.5 1.1 1c0.7 0.7 1.4 1.6 2 2.6 0.6 1 1 2 1.3 3q0.2 0.7 0.3 1.4c0.1 0.4 0.2 0.8 0.2 1.2 0 0.4 0 0.7 0 1q0.1 0.5 0 0.8 0 0.6-0.1 0.6c0 0 0.1-0.9-0.1-2.4 0-0.4-0.1-0.8-0.2-1.2q-0.1-0.7-0.3-1.4c-0.3-0.9-0.8-1.9-1.3-2.9-0.6-1-1.3-1.8-2-2.6q-0.5-0.5-1-0.9c-0.4-0.3-0.7-0.6-1-0.8-1.2-0.9-2.1-1.2-2-1.3z"></path>
  <path class="h" d="m108.7 359.3l-1 14.9c0 0 15.7 5.9 15.8 8.7l-30.6-0.7 0.5-23.3z"></path>
  <g style="opacity:.6">
    <path class="c" d="m98.1 372.8c0.6-0.3 1.4 0.1 1.6 0.7 0.2 0.6-0.4 1.3-1 1.4-0.6 0.1-1.2-0.3-1.3-0.8-0.2-0.6 0.3-1.2 0.9-1.4"></path>
  </g>
  <g style="opacity:.6">
    <path class="c" d="m92.9 382.2l0.1-2.4 29.3 1.6c0 0 1.4 0.6 1.2 1.5z"></path>
  </g>
  <path class="e" d="m108.2 374.1c0 0.1-0.8 0.2-1.5 0.6-0.8 0.4-1.2 1-1.3 1-0.1-0.1 0.1-0.9 1-1.4 0.9-0.6 1.8-0.4 1.8-0.2z"></path>
  <path class="e" d="m111.4 375.4c0 0.1-0.7 0.4-1.2 0.9-0.5 0.6-0.7 1.3-0.8 1.3-0.2 0-0.2-0.9 0.4-1.6 0.7-0.7 1.6-0.7 1.6-0.6z"></path>
  <path class="e" d="m113.1 379.1c-0.1 0-0.3-0.7 0.1-1.5 0.4-0.7 1.1-1 1.2-0.9 0 0.1-0.4 0.5-0.8 1.1-0.3 0.7-0.3 1.3-0.5 1.3z"></path>
  <path class="e" d="m108 370.7c-0.1 0.1-0.7-0.1-1.6-0.1-0.8 0-1.5 0.3-1.6 0.1 0-0.1 0.6-0.6 1.6-0.6 1 0 1.7 0.4 1.6 0.6z"></path>
  <path class="e" d="m107.4 367.2c0 0.1-0.6 0.1-1.6 0-0.4-0.1-1-0.3-1.5-0.5q-0.5-0.2-0.9-0.5c-0.2-0.1-0.3-0.2-0.5-0.4-0.1-0.1-0.2-0.5 0-0.7 0.1-0.2 0.4-0.3 0.6-0.3q0.4 0 0.6 0.1 0.5 0.1 1 0.3c0.5 0.3 1 0.6 1.4 0.9 0.6 0.6 0.9 1.2 0.8 1.2 0 0.1-0.4-0.4-1.1-0.9-0.3-0.3-0.8-0.6-1.3-0.8q-0.4-0.2-0.9-0.3c-0.3-0.1-0.6-0.1-0.7 0.1 0 0 0 0 0 0.1q0.1 0.2 0.4 0.3 0.4 0.3 0.8 0.4 0.8 0.4 1.4 0.6c0.9 0.3 1.5 0.3 1.5 0.4z"></path>
  <path class="e" d="m107.2 367.4c-0.1 0-0.4-0.5-0.4-1.4 0-0.5 0.1-1 0.3-1.6q0.1-0.4 0.4-0.9c0.2-0.2 0.4-0.6 1-0.7 0.3 0 0.5 0.3 0.6 0.4 0.1 0.2 0.1 0.4 0.1 0.6q0.1 0.5 0 1c-0.1 0.6-0.4 1.1-0.7 1.4-0.6 0.8-1.2 0.9-1.2 0.9-0.1-0.1 0.4-0.4 0.9-1.1 0.3-0.3 0.5-0.8 0.5-1.3q0.1-0.4 0-0.8c0-0.4-0.1-0.6-0.2-0.6-0.2 0-0.5 0.2-0.6 0.5q-0.2 0.4-0.4 0.8c-0.2 0.5-0.3 1-0.3 1.4-0.1 0.8 0.1 1.4 0 1.4z"></path>
  <path class="h" d="m70.2 360.8l-3 23.1-30.4-3.7c0.5-2.8 16.9-6.3 16.9-6.3l1.3-14.9z"></path>
  <g style="opacity:.6">
    <path class="c" d="m63.3 373.8c0.6 0.2 0.9 0.9 0.7 1.4-0.2 0.6-0.9 0.9-1.5 0.7-0.6-0.2-1-1-0.7-1.6 0.2-0.5 1.1-0.8 1.6-0.5"></path>
  </g>
  <g style="opacity:.6">
    <path class="c" d="m36.8 380.2c0-1 1.4-1.4 1.4-1.4l29.2 2.8-0.2 2.3z"></path>
  </g>
  <path class="e" d="m55 374.1c0.8 0.7 0.9 1.5 0.8 1.5-0.1 0.1-0.4-0.6-1.1-1.1-0.7-0.5-1.4-0.7-1.4-0.8-0.1-0.2 0.9-0.2 1.7 0.4z"></path>
  <path class="e" d="m51.4 375.4c0.5 0.8 0.3 1.6 0.2 1.5-0.2 0-0.2-0.6-0.7-1.3-0.4-0.6-1-1-1-1.1 0-0.1 0.9 0 1.5 0.9z"></path>
  <path class="e" d="m47.3 376.6c-0.2-0.7-0.6-1.1-0.5-1.2 0.1-0.2 0.7 0.2 1 1.1 0.3 0.8 0 1.4-0.1 1.4-0.2 0-0.1-0.6-0.4-1.3z"></path>
  <path class="e" d="m55.6 370c1 0.2 1.6 0.8 1.5 0.9-0.1 0.1-0.7-0.3-1.6-0.4-0.8-0.2-1.5-0.1-1.6-0.2 0-0.1 0.7-0.5 1.7-0.3z"></path>
  <path class="e" d="m56.6 366.8q0.6-0.1 1.5-0.3 0.4-0.2 0.9-0.4 0.2-0.1 0.3-0.2c0.1 0 0.1-0.1 0.1-0.1-0.1-0.2-0.4-0.2-0.7-0.2q-0.5 0.1-0.9 0.2c-0.6 0.1-1.1 0.3-1.4 0.5-0.8 0.5-1.2 0.9-1.3 0.8 0 0 0.3-0.5 1.1-1.1 0.3-0.2 0.9-0.5 1.5-0.7q0.4-0.1 0.9-0.1 0.3-0.1 0.6 0c0.2 0 0.5 0.1 0.6 0.4 0.2 0.2 0.1 0.6-0.1 0.7-0.2 0.1-0.4 0.2-0.5 0.3q-0.5 0.2-0.9 0.3c-0.7 0.2-1.2 0.3-1.7 0.3-1 0-1.5-0.2-1.5-0.2 0-0.1 0.6-0.1 1.5-0.2z"></path>
  <path class="e" d="m55.5 365.8c0-0.4 0-0.9-0.2-1.4q-0.1-0.5-0.3-0.9c0-0.2-0.3-0.5-0.4-0.5-0.1-0.1-0.3 0.2-0.4 0.5q-0.1 0.4-0.1 0.8c0 0.5 0.1 1 0.3 1.4 0.4 0.8 0.9 1.1 0.8 1.2 0 0-0.6-0.2-1.1-1-0.3-0.4-0.5-1-0.5-1.6q0-0.5 0.1-1c0.1-0.1 0.1-0.3 0.3-0.5 0.1-0.2 0.3-0.3 0.6-0.3 0.6 0.1 0.8 0.5 0.9 0.9q0.2 0.4 0.3 0.9c0.1 0.6 0.1 1.1 0 1.6-0.1 0.9-0.5 1.3-0.6 1.3 0 0 0.2-0.5 0.3-1.4z"></path>
  <path class="e" d=""></path>
  <path class="e" d="m119.8 257.9c-0.4 9.7-3.5 47.6-4.4 61-0.5 7.4-3 44.2-4 53.4h-20c0 0 2.3-50.9 2.3-53.2 0-2.2 0.8-56.6 0.8-56.6 0 0-11.8 46.9-12.5 53.6-0.7 6.7-3.4 18.5-4.9 26.5-2.2 12.1-5.4 29.8-5.4 29.8l-20.1-0.8 6.9-54.4c-0.3-5.2 10.9-80.2 10.9-80.2l47.7-1.5c0 0 3.1 12.7 2.7 22.4z"></path>
  <path class="h" d="m114 235.8c-0.1 0-0.2-0.7-0.2-1.7 0-0.9 0.1-1.7 0.2-1.7 0.1 0 0.1 0.8 0.1 1.7 0 1 0 1.7-0.1 1.7z"></path>
  <path class="h" d="m116 236.7c-0.1 0-0.3-0.9-0.2-2.2 0.1-1.2 0.4-2.1 0.5-2.1 0.1 0-0.1 1-0.2 2.2-0.1 1.1 0 2.1-0.1 2.1z"></path>
  <path class="h" d="m98.1 233.1c0.1 0.1-0.5 0-1 0.6-0.2 0.3-0.4 0.7-0.3 1.1 0.1 0.5 0.5 0.9 1 0.9 0.5 0.1 1.1 0 1.3-0.4 0.2-0.4 0.2-0.9 0.1-1.2-0.2-0.7-0.8-0.8-0.7-0.9 0 0 0.1 0 0.3 0.1 0.2 0.1 0.5 0.3 0.6 0.7 0.2 0.4 0.3 0.9 0 1.4-0.3 0.6-1 0.8-1.6 0.7-0.7-0.1-1.2-0.6-1.3-1.2-0.1-0.6 0.2-1.1 0.5-1.4 0.2-0.3 0.6-0.4 0.8-0.4 0.2 0 0.3 0 0.3 0z"></path>
  <path class="h" d="m76.2 315.9c-0.1 0.1-2.4-0.7-5.1-1.9-2.8-1.1-5.1-2.1-5-2.2 0-0.1 2.3 0.8 5.1 1.9 2.8 1.1 5 2.1 5 2.2z"></path>
  <path class="e" d="m73.6 122.7c0.1-2.8 1.8-4.5 4.2-5.9 2.4-1.4 5.5-1.6 8-0.4 1.7 0.8 3.2 2.2 5 2.4 3.1 0.4 5.9-2.4 8.9-1.7 1.8 0.4 3.1 2.2 3.1 4-0.1 1.8-1.6 3.5-3.4 3.7 2 0.3 3.1 2.9 2.4 4.7-0.7 1.9-2.8 3-4.8 3-2 0.1-4-0.8-5.7-1.8-1.7-1-3.4-2.2-5.2-3.1-1.8-0.8-3.9-1.3-5.8-0.8-2.6 0.7-4.5 3.2-5.2 5.8-0.7 2.6-0.4 5.4 0 8.1 0.4 2.7 1 5.4 0.7 8.1 0 0.3-0.1 0.7-0.4 0.9-0.4 0.2-0.8-0.2-1.1-0.6-3.4-3.9-6-8.6-7.6-13.6-0.9-2.8-1.4-5.6-0.3-8.5 1.1-2.8 4.8-5.5 7.2-4.3z"></path>
  <path class="i" d="m80.8 119.5l0.7-0.1c7.5-0.7 14.3 4.4 15.6 11.7 1.3 6.9 2.6 14.4 2.9 18.2 0.7 7.6-6.9 9.6-6.9 9.6 0 0.2 0 0 0 0 0.9 6.1 1.4 11-5.4 13-8.1 1.7-11.4-3.3-12.2-8.4l-4.5-27.4c-1.5-7.9 1.9-15.3 9.8-16.6z"></path>
  <path class="j" d="m93.4 161.2c-7.6 1.5-10.6-4.3-10.6-4.3 5.5 2.8 10.3 2 10.3 2z"></path>
  <path class="e" d="m94.5 139c-0.6 0-1.1-0.4-1.1-1 0-0.6 0.5-1.1 1.1-1.1 0.6 0 1.1 0.5 1.1 1.1 0 0.6-0.5 1-1.1 1z"></path>
  <path class="e" d="m95.8 135c-0.1 0.2-1-0.3-2.2-0.2-1.1 0.1-1.9 0.8-2.1 0.7 0-0.1 0.1-0.4 0.4-0.7 0.4-0.3 1-0.6 1.7-0.7 0.7-0.1 1.4 0.1 1.8 0.4 0.3 0.2 0.5 0.5 0.4 0.5z"></path>
  <path class="e" d="m83.8 140.7c-0.6 0-1.1-0.4-1.1-1 0-0.6 0.5-1.1 1.1-1.1 0.6 0 1.1 0.5 1.1 1.1 0 0.6-0.5 1-1.1 1z"></path>
  <path class="e" d="m84.5 136.4c-0.1 0.2-1-0.4-2.2-0.2-1.2 0.1-2 0.8-2.1 0.6-0.1 0 0-0.3 0.4-0.6 0.3-0.3 0.9-0.6 1.7-0.7 0.7-0.1 1.3 0.1 1.7 0.4 0.4 0.2 0.6 0.5 0.5 0.5z"></path>
  <path class="e" d="m89.4 144.7c0 0 0.7-0.2 1.9-0.5 0.3-0.1 0.6-0.2 0.6-0.4 0.1-0.2-0.1-0.5-0.3-0.8q-0.5-1.1-1.1-2.2c-1.6-3.2-2.7-5.8-2.6-5.8 0.1-0.1 1.5 2.4 3.1 5.5q0.5 1.2 1.1 2.3c0.1 0.3 0.3 0.7 0.2 1.1 0 0.3-0.2 0.4-0.4 0.5q-0.3 0.1-0.5 0.1c-1.2 0.2-2 0.3-2 0.2z"></path>
  <path class="e" d="m84.1 131.8c-0.1 0.3-1.3 0.3-2.6 0.6-1.4 0.3-2.5 0.8-2.7 0.5-0.1-0.1 0.1-0.4 0.5-0.8 0.4-0.4 1.1-0.7 1.9-0.9 0.8-0.2 1.6-0.1 2.1 0 0.6 0.2 0.9 0.4 0.8 0.6z"></path>
  <path class="e" d="m95.1 131.7c-0.2 0.3-1.1 0.1-2 0.2-1 0-1.8 0.3-2 0.1-0.1-0.2 0-0.5 0.3-0.7 0.3-0.3 0.9-0.6 1.6-0.6 0.7-0.1 1.3 0.1 1.6 0.3 0.4 0.3 0.5 0.5 0.5 0.7z"></path>
  <path class="i" d="m73.3 149.2c0 0.2-5.1 1.9-5.8-3.3-0.7-5.2 4.6-4.2 4.7-4.2 0 0 1.1 7.4 1.1 7.5z"></path>
  <path class="j" d="m71.3 147.7c-0.2 0.2-0.5 0.3-0.8 0.3-0.8-0.2-1.5-1.1-1.7-2.1-0.1-0.5 0-1.1 0.2-1.5 0.1-0.4 0.4-0.9 0.8-0.9q0.3-0.1 0.5 0 0.2 0.2 0.3 0.3c0 0.2 0 0.3-0.1 0.3 0 0 0-0.1-0.1-0.2 0-0.2-0.3-0.3-0.5-0.2-0.3 0.1-0.5 0.4-0.6 0.8-0.1 0.4-0.2 0.9-0.1 1.3 0.1 1 0.7 1.8 1.3 1.9 0.3 0.1 0.5 0 0.7-0.1 0.1-0.1 0.2-0.2 0.2-0.2 0 0 0 0.2-0.1 0.3z"></path>
  <path class="e" d="m98.6 129.4c-3.3 1.2-7.2 0.7-10.1-1.3-2-1.4-3.7-3.5-6.1-4-1.6-0.3-3.3 0.2-4.7 1.2-1.3 0.9-2.4 2.2-3.3 3.6 1.9 3.8 1.4 8.2 0.8 12.4-0.1 0.4-0.2 0.9-0.5 1.2-0.6 0.6-1.6 0.3-2.2-0.2-0.9-0.8-1.4-2.1-1.7-3.3-0.8-2.7-1.2-5.6-0.8-8.5 0.3-2.8 1.4-5.6 3.2-7.8 2.4-2.7 5.9-4.4 9.4-4.7 3.6-0.3 7.2 0.7 10.3 2.6 1.4 0.8 2.7 1.9 3.6 3.4z"></path>
  <path class="j" d="m90.5 147.9c-0.1 0.5-0.2 1-0.4 1.5-0.2 0.4-0.6 0.8-1.1 0.9-0.5 0.2-1.1 0-1.5-0.4-0.3-0.4-0.6-0.9-0.6-1.4-0.1-0.5 0-1.1 0.4-1.3 0.2 0 0.4 0 0.6 0q1.4 0.3 2.7 0.5"></path>
  <path class="e" d="m89.6 150.4c-0.2 0.1-0.6 0.2-1.1 0.2-0.4-0.1-1-0.3-1.4-0.8-0.4-0.5-0.7-1.2-0.5-1.9q0-0.3 0.2-0.6 0-0.1 0.2-0.2c0.1-0.1 0.2-0.1 0.3-0.1 0.3 0 0.4 0.1 0.5 0.1q0.3 0 0.5 0.1 0.8 0.2 1.5 0.3c0.8 0.2 1.3 0.4 1.3 0.5 0 0-0.5 0-1.4-0.2q-0.6-0.1-1.5-0.2-0.2-0.1-0.4-0.1c-0.2 0-0.4-0.1-0.5-0.1-0.1 0-0.1 0-0.1 0.1q-0.1 0.2-0.2 0.5c-0.1 0.5 0.1 1.2 0.4 1.6 0.3 0.4 0.8 0.6 1.2 0.7 0.8 0.1 1.3-0.2 1.3-0.2 0 0.1-0.1 0.2-0.3 0.3z"></path>
  <path class="i" d="m116 130c0 0 0.8 0.3 1.8 1.1 4.2 3.3 16.5 9.7 21.7 15.1 5.9 6 6.1 10.7 6.1 10.7l-15.7-1.8-19.3-18.8-1.2 0.3z"></path>
  <path class="i" d="m116 130l-2.9 5.6c0 0-1.9 1-3.4 1.7-1.5 0.8-7.1 0.7-7.1 0.7 0 0-4.2-0.5-4.7-0.7l-0.2-2.1 3.6 0.1 0.2-1.6-2.7-0.7c0 0-1.3 0.6-4.6 0.6-3.4 0-3.3-1.7-3.3-1.7 0 0 3.5-0.3 3.2-0.4-0.2-0.1-0.7-1.4-0.7-1.4l5.6-1.9c-1.4 0.5-1.5-1.3-1.5-1.3l5.3-2 4.6 2.3 2 0.5z"></path>
  <path class="j" d="m104.4 128.7c0 0-0.3-0.2-0.8-0.4-0.5-0.2-1.2-0.5-1.9-1h0.2q-0.1 0.1-0.2 0.2c-0.7 0.5-1.6 0.7-2.2 0.8-0.5 0-0.9 0-0.9-0.1 0-0.1 1.4-0.2 2.9-1.1q0.1-0.1 0.2-0.1l0.1-0.1 0.2 0.1c0.6 0.4 1.3 0.8 1.7 1.1 0.5 0.3 0.7 0.5 0.7 0.6z"></path>
  <path class="j" d="m102.7 131.5c0 0-0.4 0.1-0.9-0.1-0.6-0.2-1.2-0.8-1.9-1.2h0.2q-0.5 0.4-1.1 0.6c-1.1 0.6-2.2 0.8-3 0.8-0.8 0-1.3-0.1-1.3-0.2 0-0.1 2 0.1 4.1-0.9q0.6-0.3 1.1-0.6l0.1-0.1 0.1 0.1c0.8 0.4 1.3 1 1.8 1.2 0.4 0.3 0.8 0.3 0.8 0.4z"></path>
  <path class="j" d="m107.6 133.2c0 0.1-0.4-0.1-1 0-0.6 0-1.5 0.1-2.3 0.7-0.5 0.3-0.9 0.7-1.1 1.1l-0.1 0.1h-0.1c-1.1 0.2-1.9 0.3-1.9 0.2 0-0.1 0.8-0.3 1.9-0.6l-0.2 0.1c0.3-0.5 0.7-0.9 1.3-1.3 0.9-0.6 1.8-0.7 2.5-0.6 0.7 0 1.1 0.3 1 0.3z"></path>
  <path class="k" d="m113.1 135.6c0 0-1.9 1-3.4 1.7-1.5 0.8-7.1 0.7-7.1 0.7 0 0-3.8-0.4-4.3-0.6l-0.4-2.3 3.4 0.2 0.2-1.6-2.7-0.7c0 0-1.3 0.6-4.6 0.6-3.4 0-3.3-1.7-3.3-1.7 0 0 3.5-0.3 3.2-0.4-0.2-0.1-0.7-1.4-0.7-1.4l5.6-1.9c-1.4 0.5-1.5-1.3-1.5-1.3l5.3-2 4.6 2.3 2 0.5 6.6 2.3"></path>
  <path class="j" d="m113.1 135.6q0 0-0.1 0.1-0.2 0.1-0.5 0.2-0.7 0.4-2 1.1c-0.4 0.2-0.8 0.5-1.4 0.6q-0.9 0.3-1.9 0.4-2.1 0.1-4.6 0.1h-0.1q-0.9-0.1-2-0.2c-0.8-0.1-1.5-0.1-2.3-0.4h-0.1v-0.1q-0.2-1-0.4-2.2v-0.2h0.2q1.7 0 3.5 0.1l-0.2 0.2q0-0.8 0.1-1.6l0.1 0.2q-1.3-0.3-2.7-0.7h0.2c-1.3 0.4-2.7 0.5-4 0.6-0.7 0-1.4 0-2.1-0.1-0.7-0.1-1.5-0.5-1.9-1.2-0.1-0.2-0.2-0.4-0.2-0.7v-0.1l0.1-0.1q1.3-0.1 2.5-0.2 0.3 0 0.6-0.1h0.1q0 0 0 0c0 0 0 0 0 0-0.1 0.1-0.1 0.2-0.1 0.2 0 0.1 0.2 0.2 0.1 0.2 0-0.1-0.1-0.1-0.1-0.1-0.1-0.1-0.1-0.2-0.2-0.3q-0.3-0.6-0.5-1.2v-0.2h0.2q2.8-1 5.5-1.9l0.1 0.4c-0.2 0.1-0.4 0.1-0.7 0.1-0.2 0-0.4-0.2-0.6-0.4-0.3-0.3-0.4-0.7-0.4-1.2v-0.1l0.1-0.1q2.8-1 5.3-1.9h0.1q2.6 1.2 4.7 2.2h-0.1q1.1 0.3 2 0.6 0.9 0.3 1.7 0.6 1.6 0.5 2.7 0.9 1 0.4 1.7 0.7 0.5 0.2 0.5 0.2 0 0-0.6-0.2-0.6-0.2-1.7-0.5-1.1-0.4-2.7-0.9-0.8-0.3-1.7-0.6-0.9-0.2-1.9-0.5h-0.1q-2.1-1-4.6-2.2h0.1q-2.5 0.9-5.3 2l0.1-0.2c0.1 0.3 0.2 0.7 0.4 1 0.2 0.2 0.6 0.3 0.9 0.2l0.1 0.3q-2.6 0.9-5.5 1.9l0.1-0.3c0.1 0.4 0.3 0.7 0.5 1.1 0 0.1 0.1 0.1 0.1 0.2q0 0 0 0c0 0 0 0 0 0.1 0-0.2 0-0.1 0-0.1q0 0 0.1 0 0 0.1 0 0.1c0.1 0.1 0 0.2 0 0.2-0.1 0.1-0.1 0.1-0.1 0.1q0 0-0.1 0-0.1 0-0.1 0-0.3 0.1-0.6 0.1-1.3 0.2-2.5 0.3l0.2-0.2c0 0.1 0 0.3 0.1 0.4 0.3 0.6 1 0.9 1.6 1 0.7 0.1 1.4 0.1 2.1 0.1 1.3-0.1 2.7-0.2 3.8-0.6h0.1q1.4 0.4 2.7 0.7l0.2 0.1v0.1q-0.1 0.9-0.2 1.6v0.2h-0.2q-1.8-0.1-3.4-0.2l0.2-0.2q0.2 1.2 0.3 2.3l-0.1-0.2c0.7 0.2 1.5 0.3 2.2 0.4q1.1 0.1 2.1 0.2 2.5 0.1 4.6-0.1 1-0.1 1.8-0.3c0.6-0.1 1-0.4 1.5-0.6q1.2-0.6 1.9-0.9 0.3-0.2 0.6-0.3 0.1-0.1 0.1 0z"></path>
  <path class="j" d="m106.4 129.5c0.1 0.1-0.7 1.2-2 2.1-1.3 1-2.6 1.4-2.7 1.3 0-0.1 1.2-0.7 2.4-1.6 1.3-0.9 2.3-1.9 2.3-1.8z"></path>
  <path class="f" d="m143.2 165.7c-1.2 1.4-29.8 18.3-29.8 18.3l-5.8-19.5 4.1-2.5 18.2-6.9 15.5 1.3c0 0 1.6 4.8-2.2 9.3z"></path>
  <path class="f" d="m71.7 167l2.9-5.5 8 3.9 6.9 4.9 2.6-7.2 2-1.1 4.6 2.7 11.7-0.8 3.9 22.1 3.5 32.5 1.4 28.7c0 0-10.1 6.6-25.3 7.4-15.2 0.9-23.3-1.5-26.4-4.2l2.2-27.9-12.3-48.5 5.3-3.3z"></path>
  <path class="e" d="m110.4 169.5c0 0 0.2 0.4 0.4 1.1 0.3 0.7 0.6 1.7 1 3 0.7 2.6 1.6 6.1 2.3 10.1 0.8 4 1.1 7.7 1.3 10.4 0.1 1.3 0.1 2.4 0.1 3.1 0.1 0.7 0.1 1.2 0 1.2 0 0-0.1-0.4-0.1-1.2q-0.1-1.2-0.3-3.1c-0.2-2.7-0.7-6.3-1.4-10.3-0.7-4-1.5-7.5-2.2-10.1q-0.5-1.9-0.8-3c-0.2-0.8-0.3-1.2-0.3-1.2z"></path>
  <path class="e" d="m87.3 169.9c0 0-0.5-0.1-1.1-0.4-0.7-0.3-1.6-1-2.5-2.1h0.3c-0.1 1.9-0.5 4.4-1.4 7l-0.1 0.2-0.2-0.1q-0.3-0.2-0.6-0.4c-2.7-1.9-5.2-3.7-7-4.9q-1.2-1-2.1-1.6c-0.5-0.3-0.7-0.6-0.7-0.6 0 0 0.3 0.2 0.8 0.5q0.9 0.6 2.2 1.4c1.8 1.2 4.3 2.9 7.1 4.8q0.3 0.2 0.5 0.4l-0.3 0.1c0.9-2.5 1.3-5 1.5-6.9l0.1-0.4 0.2 0.4c0.7 1 1.6 1.7 2.3 2 0.6 0.4 1 0.6 1 0.6z"></path>
  <path class="e" d="m98.2 165.6c0.1 0.1-1 1.3-2.6 3l-0.1 0.1-0.2-0.1q-0.7-0.9-1.7-1.8-0.5-0.4-1-0.8-0.2-0.2-0.5-0.4-0.1 0-0.1 0c0 0 0 0-0.1 0.1q-0.4 1-0.7 1.9c-0.4 1.1-0.7 1.8-0.8 1.7 0 0 0.2-0.7 0.5-1.8q0.3-0.9 0.7-1.9c0-0.1 0.1-0.3 0.3-0.4 0.2 0 0.3 0 0.4 0.1q0.3 0.2 0.5 0.4 0.6 0.4 1.1 0.8 1 0.9 1.7 1.8h-0.3c1.7-1.6 2.9-2.7 2.9-2.7z"></path>
  <path fill-rule="evenodd" class="h" d="m95 252.6c6.6-1.3 13.6-0.5 20.1 2.5 8.1 3.7 14.2 10.4 17.2 18.7 3 8.3 2.6 17.3-1.1 25.3-7.7 16.6-27.5 23.8-44 16.1-8.1-3.7-14.1-10.4-17.2-18.7-3-8.3-2.6-17.3 1.1-25.3 4.7-10.1 13.8-16.7 23.9-18.6zm11.9 62.9c9.4-1.8 17.9-7.9 22.3-17.3 3.5-7.5 3.8-15.9 1-23.7-2.8-7.7-8.5-13.9-16-17.4-7.5-3.5-15.9-3.8-23.6-1-7.8 2.8-14 8.5-17.5 16-3.5 7.5-3.8 15.9-1 23.6 2.8 7.8 8.5 14 16 17.5 6.1 2.8 12.6 3.5 18.8 2.3z"></path>
  <path fill-rule="evenodd" class="h" d="m101.1 319.9c-5 0-10-1.1-14.6-3.3-8.4-3.9-14.8-10.8-18-19.5-3.2-8.8-2.8-18.2 1.2-26.6 4.7-10.1 14-17.4 25-19.5 7.2-1.3 14.5-0.4 21.1 2.6 8.4 4 14.8 10.9 18 19.6 3.2 8.8 2.8 18.2-1.1 26.6-4 8.4-10.9 14.8-19.6 18-3.9 1.4-8 2.1-12 2.1zm0.1-64.1c-3.4 0-6.8 0.6-10.1 1.8-7.4 2.7-13.2 8.1-16.5 15.2-3.3 7.1-3.7 15-1 22.4 2.7 7.4 8.1 13.2 15.2 16.5 5.6 2.6 11.7 3.4 17.8 2.3 9.3-1.8 17.2-7.9 21.1-16.5 3.3-7.1 3.7-15 1-22.4-2.7-7.4-8.1-13.2-15.2-16.5-3.9-1.9-8.1-2.8-12.3-2.8z"></path>
  <path class="h" d="m20.5 252.8l0.3-0.8c0.7-1.5 2-2.4 3.1-2l48.4 19.7c0.3 0.1 0.4 0.5 0.2 0.8l-2 5.1c-0.2 0.4-0.5 0.6-0.7 0.5l-48.5-19.7c-1-0.5-1.4-2.1-0.8-3.6z"></path>
  <path class="i" d="m65.8 197l-5.9 19.3 3 39.2-8.6 1.1c0 0-9.9-33.4-8.9-39.5 1-6 5-23.6 5-23.6z"></path>
  <path class="i" d="m62.8 255.3l4 6.8 2.5 6.4-3.7-1.5c0 0-1.6 7.8-2.3 8-0.6 0.2-2.4-0.5-2.2-1.9 0 0-1 0.9-2.1 0.6-1.1-0.2-1.4-0.9-1.3-2.3 0 0-1.3 1-2.1 0.4-0.8-0.7-0.7-1.9-0.7-1.9 0 0-1.7 0.2-1.9-0.7-0.3-0.9-0.3-3.5-0.1-4.4 0.2-1 1-5 1-5l0.4-3.2z"></path>
  <path class="j" d="m61.7 270.9c-0.3 1.2-0.5 2.2-0.6 2.2-0.1-0.1 0-1.1 0.2-2.3 0.2-1.2 0.5-2.2 0.6-2.2 0.1 0 0 1-0.2 2.3z"></path>
  <path class="j" d="m58.2 269.5c-0.2 1-0.4 1.8-0.5 1.8-0.1 0 0-0.9 0.2-1.8 0.2-1 0.4-1.8 0.5-1.8 0.1 0 0 0.8-0.2 1.8z"></path>
  <path class="j" d="m55.5 268.5c-0.1 0.8-0.5 1.5-0.6 1.4-0.1 0 0.1-0.7 0.3-1.5 0.1-0.8 0.2-1.5 0.3-1.5 0.1 0 0.1 0.7 0 1.6z"></path>
  <path class="j" d="m65.6 267c-0.3 1.2-0.7 2.2-0.8 2.1-0.1 0 0.1-1 0.4-2.2 0.3-1.1 0.6-2.1 0.7-2.1 0.1 0 0 1-0.3 2.2z"></path>
  <path class="f" d="m44.9 230.1c0-0.6-2.7-9.8-1.8-14.5 0.8-4.8 10.5-36.8 11.9-39.1 1.3-2.3 4.1-3.5 4.1-3.5 0 0 5.8 2.7 7.8 9.7 2 7 2 15.9 2 15.9l-7.9 19.4 0.9 11.1z"></path>
  <path class="e" d="m68.3 197.9c0 0 0.1-1.4 0-3.7 0-1.2-0.1-2.5-0.3-4-0.3-1.5-0.7-3.2-1.2-4.9-0.5-1.6-1.2-3.2-1.8-4.5-0.7-1.4-1.4-2.6-2-3.6-1.3-1.9-2.2-3-2.2-3 0 0 0.3 0.2 0.7 0.7 0.5 0.5 1.1 1.2 1.7 2.2 0.7 0.9 1.4 2.1 2.1 3.5 0.7 1.4 1.4 2.9 1.9 4.6 0.5 1.7 0.9 3.4 1.1 4.9 0.2 1.5 0.3 2.9 0.3 4.1 0 1.1 0 2.1-0.1 2.7-0.1 0.7-0.1 1-0.2 1z"></path>
  <path class="e" d="m67.8 202c0.1 0-0.2 0.9-0.8 2.4-0.5 1.5-1.4 3.5-2.4 5.7-0.9 2.1-1.8 4.1-2.5 5.6-0.6 1.5-1 2.3-1.1 2.3 0 0 0.2-0.9 0.8-2.4 0.6-1.5 1.4-3.5 2.4-5.7 1-2.1 1.9-4 2.6-5.6 0.6-1.4 1-2.3 1-2.3z"></path>
  <path class="e" d="m61.5 218.8c-0.1 0.1-2.3-1.4-5.4-2.4-3.1-0.9-5.8-0.8-5.8-1 0 0 0.7-0.1 1.7-0.1 1.1 0.1 2.6 0.3 4.2 0.7 1.6 0.5 2.9 1.2 3.9 1.7 0.9 0.6 1.4 1 1.4 1.1z"></path>
  <path class="c" d="m112.5 273.9c0.1 0.1-6.2 5.6-14 12.3-7.9 6.8-14.3 12.1-14.4 12-0.1 0 6.2-5.6 14.1-12.3 7.8-6.7 14.3-12.1 14.3-12z"></path>
  <path class="c" d="m120.7 273.9c0 0.1-5.3 4.8-11.9 10.5-6.6 5.7-12.1 10.2-12.1 10.1-0.1-0.1 5.2-4.7 11.8-10.4 6.6-5.7 12.1-10.3 12.2-10.2z"></path>
  <path class="e" d="m132.6 285.1q0 0 0-0.5-0.1-0.5-0.1-1.5-0.1-0.5-0.1-1.1-0.1-0.6-0.2-1.3-0.1-0.7-0.2-1.5c-0.1-0.5-0.3-1.1-0.5-1.7-0.5-2.4-1.6-5.3-3.4-8.4-1.8-3-4.5-6.1-8-8.8q-0.7-0.5-1.4-1-0.7-0.5-1.4-0.9c-0.5-0.3-1-0.7-1.6-0.9q-0.8-0.4-1.6-0.8-0.4-0.2-0.8-0.4-0.4-0.2-0.9-0.3-0.8-0.3-1.7-0.7c-0.6-0.1-1.3-0.3-1.9-0.4-0.6-0.2-1.2-0.4-1.9-0.5-1.3-0.2-2.6-0.4-3.9-0.4-0.7-0.1-1.4-0.1-2.1-0.1q-1 0-2 0.1c-0.4 0-0.7 0-1.1 0.1l-1 0.1c-0.7 0.1-1.4 0.2-2.1 0.4-1.4 0.3-2.8 0.6-4.2 1.2-1.4 0.4-2.7 1.1-4.1 1.8-0.6 0.3-1.3 0.8-1.9 1.1-0.3 0.3-0.7 0.4-1 0.7l-0.9 0.6c-1.3 0.9-2.4 2-3.5 3.1-1.1 1.1-2.2 2.3-3.1 3.6l-0.7 0.9-0.6 1.1-0.7 1q-0.3 0.5-0.6 1.1-0.5 1.1-1 2.2-0.4 1.1-0.9 2.3c-1 3.1-1.5 6.5-1.6 9.8 0.1 3.4 0.6 6.8 1.6 9.9q0.5 1.2 0.9 2.3 0.5 1.1 1 2.2l0.3 0.6 0.3 0.5 0.6 1 0.7 1 0.7 1c0.9 1.3 2 2.5 3.1 3.6 1.1 1.1 2.2 2.2 3.5 3l0.9 0.7c0.3 0.3 0.7 0.4 1 0.6 0.6 0.4 1.3 0.8 1.9 1.2 1.4 0.7 2.7 1.3 4.1 1.8 1.4 0.6 2.8 0.8 4.2 1.2 0.7 0.2 1.4 0.2 2.1 0.4l1 0.1c0.4 0.1 0.7 0.1 1.1 0.1q1 0 2 0.1c0.7 0 1.4-0.1 2.1-0.1 1.3 0 2.6-0.3 3.9-0.4 0.7-0.1 1.3-0.3 1.9-0.5 0.6-0.1 1.3-0.3 1.9-0.5q0.9-0.3 1.7-0.6 0.5-0.2 0.9-0.3 0.4-0.2 0.8-0.4 0.8-0.4 1.6-0.8c0.6-0.2 1.1-0.6 1.6-0.9q0.7-0.4 1.4-0.9 0.7-0.5 1.4-1c3.5-2.7 6.2-5.8 8-8.9 1.8-3 2.9-5.9 3.4-8.3 0.2-0.6 0.4-1.2 0.5-1.7q0.1-0.8 0.2-1.5 0.1-0.8 0.2-1.4 0-0.6 0.1-1.1 0-0.9 0.1-1.4 0-0.6 0-0.6 0 0 0 0.6 0 0.5-0.1 1.5 0 0.4 0 1.1-0.1 0.6-0.2 1.3-0.1 0.7-0.2 1.5c-0.1 0.6-0.3 1.1-0.4 1.7-0.5 2.5-1.7 5.4-3.4 8.5-1.8 3-4.5 6.2-8 9q-0.7 0.5-1.4 1-0.7 0.4-1.5 0.9c-0.5 0.3-1 0.6-1.5 0.9q-0.8 0.4-1.6 0.8-0.5 0.2-0.9 0.4-0.4 0.1-0.9 0.3-0.8 0.3-1.7 0.7c-0.6 0.2-1.3 0.3-1.9 0.5-0.6 0.1-1.2 0.3-1.9 0.4-1.3 0.2-2.6 0.5-4 0.5-0.7 0-1.4 0.1-2.1 0.1q-1-0.1-2.1-0.1c-0.3-0.1-0.7-0.1-1-0.1l-1.1-0.2c-0.7-0.1-1.4-0.2-2.1-0.3-1.4-0.4-2.8-0.7-4.2-1.2-1.4-0.5-2.8-1.2-4.1-1.8-0.7-0.4-1.4-0.8-2-1.2-0.3-0.2-0.7-0.4-1-0.6l-0.9-0.7c-1.3-0.9-2.4-2-3.6-3.1-1.1-1.2-2.2-2.3-3.1-3.6l-0.8-1-0.6-1.1-0.6-1-0.4-0.5-0.2-0.6q-0.6-1.1-1.1-2.2-0.4-1.2-0.9-2.4c-1-3.1-1.6-6.5-1.6-10 0-3.4 0.6-6.8 1.6-9.9q0.5-1.2 0.9-2.4 0.5-1.1 1.1-2.2 0.2-0.6 0.6-1.1l0.6-1 0.6-1.1 0.8-1c0.9-1.3 2-2.5 3.1-3.6 1.2-1.1 2.3-2.2 3.6-3.1l0.9-0.7c0.3-0.2 0.7-0.4 1-0.6 0.6-0.4 1.3-0.8 2-1.2 1.3-0.6 2.7-1.3 4.1-1.8 1.4-0.5 2.8-0.8 4.2-1.2 0.7-0.1 1.4-0.2 2.1-0.3l1.1-0.2c0.3 0 0.7 0 1-0.1q1.1 0 2.1-0.1c0.7 0 1.4 0.1 2.1 0.1 1.4 0 2.7 0.3 4 0.5 0.7 0.1 1.3 0.3 1.9 0.4 0.6 0.2 1.3 0.3 1.9 0.5q0.9 0.4 1.7 0.7 0.5 0.1 0.9 0.3 0.4 0.2 0.9 0.4 0.8 0.4 1.6 0.8c0.5 0.2 1 0.6 1.5 0.9q0.8 0.4 1.5 0.9 0.7 0.5 1.4 1c3.5 2.8 6.2 6 8 9 1.7 3.1 2.9 6 3.4 8.4 0.1 0.7 0.3 1.2 0.4 1.8q0.1 0.8 0.2 1.5 0.1 0.7 0.2 1.3 0 0.6 0 1.1 0.1 1 0.1 1.5 0 0.5 0 0.5z"></path>
  <path class="e" d="m121 301.8c0 0 0.3-0.4 0.8-1 0.5-0.7 1.2-1.7 2-3 1.5-2.6 3.2-6.6 3.7-11.2 0.5-4.6-0.3-8.9-1.3-11.7-0.5-1.5-1-2.6-1.3-3.4-0.4-0.7-0.6-1.2-0.6-1.2q0 0 0.2 0.3 0.2 0.3 0.5 0.8c0.4 0.8 0.9 1.9 1.5 3.4 1 2.8 1.9 7.1 1.4 11.8-0.5 4.7-2.2 8.7-3.9 11.3-0.8 1.3-1.5 2.3-2.1 3q-0.4 0.5-0.7 0.7-0.2 0.3-0.2 0.2z"></path>
  <path class="e" d="m119.3 304.7c0.1 0.1-0.2 0.4-0.5 0.6-0.4 0.2-0.7 0.3-0.8 0.2 0-0.1 0.2-0.4 0.6-0.6 0.3-0.2 0.7-0.3 0.7-0.2z"></path>
  <path class="c" d="m78.1 298.6q0 0-0.2-0.4c-0.1-0.2-0.3-0.6-0.5-1.1-0.4-1-0.8-2.4-1.2-4.3-0.9-3.6-1.2-9 0.3-14.6 1.5-5.6 4.5-10 7.1-12.8 1.2-1.4 2.4-2.4 3.2-3 0.4-0.4 0.8-0.6 1-0.7q0.3-0.3 0.3-0.3c0.1 0.1-0.4 0.4-1.2 1.1-0.8 0.7-1.9 1.7-3.1 3.1-2.5 2.8-5.4 7.2-6.9 12.7-1.5 5.6-1.2 10.8-0.5 14.5 0.4 1.8 0.8 3.3 1.2 4.3 0.3 1 0.5 1.5 0.5 1.5z"></path>
  <path class="c" d="m96.7 259.4c0 0.1-0.9 0.3-1.9 0.4-1 0-1.9 0-1.9-0.1 0-0.1 0.8-0.3 1.9-0.4 1 0 1.8 0 1.9 0.1z"></path>
</svg>
