<?xml version="1.0" encoding="UTF-8"?>
<svg xmlns="http://www.w3.org/2000/svg" version="1.2" viewBox="0 0 400 400" width="400" height="400">
  <style>.a{fill:#ffae01}.b{fill:#fff}.c{fill:#ff6d00}.d{fill:#ff827c}.e{fill:#404add}.f{fill:#6893e6}.g{fill:#0d005a}.h{fill:#e43d4e}</style>
  <path class="a" d="m202 311.4h109.2v13.7h-109.2z"></path>
  <path class="b" d="m208.8 322.1c-0.2 0-0.3-0.1-0.3-0.3v-7.1c0-0.1 0.1-0.3 0.3-0.3 0.1 0 0.3 0.2 0.3 0.3v7.1c0 0.2-0.2 0.3-0.3 0.3z"></path>
  <path class="b" d="m216.1 322.1c-0.1 0-0.3-0.1-0.3-0.3v-7.1c0-0.1 0.2-0.3 0.3-0.3 0.2 0 0.3 0.2 0.3 0.3v7.1c0 0.2-0.1 0.3-0.3 0.3z"></path>
  <path class="b" d="m223.5 322.1c-0.2 0-0.3-0.1-0.3-0.3v-7.1c0-0.1 0.1-0.3 0.3-0.3 0.1 0 0.2 0.2 0.2 0.3v7.1c0 0.2-0.1 0.3-0.2 0.3z"></path>
  <path class="b" d="m230.8 322.1c-0.2 0-0.3-0.1-0.3-0.3v-7.1c0-0.1 0.1-0.3 0.3-0.3 0.2 0 0.3 0.2 0.3 0.3v7.1c0 0.2-0.1 0.3-0.3 0.3z"></path>
  <path class="b" d="m238.1 322.1c-0.1 0-0.2-0.1-0.2-0.3v-7.1c0-0.1 0.1-0.3 0.2-0.3 0.2 0 0.3 0.2 0.3 0.3v7.1c0 0.2-0.1 0.3-0.3 0.3z"></path>
  <path class="b" d="m245.5 322.1c-0.2 0-0.3-0.1-0.3-0.3v-7.1c0-0.1 0.1-0.3 0.3-0.3 0.1 0 0.3 0.2 0.3 0.3v7.1c0 0.2-0.2 0.3-0.3 0.3z"></path>
  <path class="b" d="m252.8 322.1c-0.1 0-0.3-0.1-0.3-0.3v-7.1c0-0.1 0.2-0.3 0.3-0.3 0.2 0 0.3 0.2 0.3 0.3v7.1c0 0.2-0.1 0.3-0.3 0.3z"></path>
  <path class="b" d="m260.2 322.1c-0.2 0-0.3-0.1-0.3-0.3v-7.1c0-0.1 0.1-0.3 0.3-0.3 0.1 0 0.2 0.2 0.2 0.3v7.1c0 0.2-0.1 0.3-0.2 0.3z"></path>
  <path class="b" d="m267.5 322.1c-0.2 0-0.3-0.1-0.3-0.3v-7.1c0-0.1 0.1-0.3 0.3-0.3 0.1 0 0.3 0.2 0.3 0.3v7.1c0 0.2-0.2 0.3-0.3 0.3z"></path>
  <path class="b" d="m274.8 322.1c-0.1 0-0.3-0.1-0.3-0.3v-7.1c0-0.1 0.2-0.3 0.3-0.3 0.2 0 0.3 0.2 0.3 0.3v7.1c0 0.2-0.1 0.3-0.3 0.3z"></path>
  <path class="b" d="m282.2 322.1c-0.2 0-0.3-0.1-0.3-0.3v-7.1c0-0.1 0.1-0.3 0.3-0.3 0.1 0 0.2 0.2 0.2 0.3v7.1c0 0.2-0.1 0.3-0.2 0.3z"></path>
  <path class="b" d="m289.5 322.1c-0.2 0-0.3-0.1-0.3-0.3v-7.1c0-0.1 0.1-0.3 0.3-0.3 0.2 0 0.3 0.2 0.3 0.3v7.1c0 0.2-0.1 0.3-0.3 0.3z"></path>
  <path class="b" d="m296.8 322.1c-0.1 0-0.2-0.1-0.2-0.3v-7.1c0-0.1 0.1-0.3 0.2-0.3 0.2 0 0.3 0.2 0.3 0.3v7.1c0 0.2-0.1 0.3-0.3 0.3z"></path>
  <path class="b" d="m304.2 322.1c-0.2 0-0.3-0.1-0.3-0.3v-7.1c0-0.1 0.1-0.3 0.3-0.3 0.1 0 0.3 0.2 0.3 0.3v7.1c0 0.2-0.2 0.3-0.3 0.3z"></path>
  <path class="a" d="m193.1 283.9h109.2v13.7h-109.2z"></path>
  <path class="b" d="m199.9 294.6c-0.2 0-0.3-0.1-0.3-0.3v-7.1c0-0.2 0.1-0.3 0.3-0.3 0.1 0 0.3 0.1 0.3 0.3v7.1c0 0.2-0.2 0.3-0.3 0.3z"></path>
  <path class="b" d="m207.2 294.6c-0.1 0-0.3-0.1-0.3-0.3v-7.1c0-0.2 0.2-0.3 0.3-0.3 0.2 0 0.3 0.1 0.3 0.3v7.1c0 0.2-0.1 0.3-0.3 0.3z"></path>
  <path class="b" d="m214.6 294.6c-0.2 0-0.3-0.1-0.3-0.3v-7.1c0-0.2 0.1-0.3 0.3-0.3 0.1 0 0.2 0.1 0.2 0.3v7.1c0 0.2-0.1 0.3-0.2 0.3z"></path>
  <path class="b" d="m221.9 294.6c-0.2 0-0.3-0.1-0.3-0.3v-7.1c0-0.2 0.1-0.3 0.3-0.3 0.2 0 0.3 0.1 0.3 0.3v7.1c0 0.2-0.1 0.3-0.3 0.3z"></path>
  <path class="b" d="m229.2 294.6c-0.1 0-0.2-0.1-0.2-0.3v-7.1c0-0.2 0.1-0.3 0.2-0.3 0.2 0 0.3 0.1 0.3 0.3v7.1c0 0.2-0.1 0.3-0.3 0.3z"></path>
  <path class="b" d="m236.6 294.6c-0.2 0-0.3-0.1-0.3-0.3v-7.1c0-0.2 0.1-0.3 0.3-0.3 0.1 0 0.3 0.1 0.3 0.3v7.1c0 0.2-0.2 0.3-0.3 0.3z"></path>
  <path class="b" d="m243.9 294.6c-0.1 0-0.3-0.1-0.3-0.3v-7.1c0-0.2 0.2-0.3 0.3-0.3 0.2 0 0.3 0.1 0.3 0.3v7.1c0 0.2-0.1 0.3-0.3 0.3z"></path>
  <path class="b" d="m251.3 294.6c-0.2 0-0.3-0.1-0.3-0.3v-7.1c0-0.2 0.1-0.3 0.3-0.3 0.1 0 0.2 0.1 0.2 0.3v7.1c0 0.2-0.1 0.3-0.2 0.3z"></path>
  <path class="b" d="m258.6 294.6c-0.2 0-0.3-0.1-0.3-0.3v-7.1c0-0.2 0.1-0.3 0.3-0.3 0.1 0 0.3 0.1 0.3 0.3v7.1c0 0.2-0.2 0.3-0.3 0.3z"></path>
  <path class="b" d="m265.9 294.6c-0.1 0-0.3-0.1-0.3-0.3v-7.1c0-0.2 0.2-0.3 0.3-0.3 0.2 0 0.3 0.1 0.3 0.3v7.1c0 0.2-0.1 0.3-0.3 0.3z"></path>
  <path class="b" d="m273.3 294.6c-0.2 0-0.3-0.1-0.3-0.3v-7.1c0-0.2 0.1-0.3 0.3-0.3 0.1 0 0.2 0.1 0.2 0.3v7.1c0 0.2-0.1 0.3-0.2 0.3z"></path>
  <path class="b" d="m280.6 294.6c-0.2 0-0.3-0.1-0.3-0.3v-7.1c0-0.2 0.1-0.3 0.3-0.3 0.2 0 0.3 0.1 0.3 0.3v7.1c0 0.2-0.1 0.3-0.3 0.3z"></path>
  <path class="b" d="m287.9 294.6c-0.1 0-0.2-0.1-0.2-0.3v-7.1c0-0.2 0.1-0.3 0.2-0.3 0.2 0 0.3 0.1 0.3 0.3v7.1c0 0.2-0.1 0.3-0.3 0.3z"></path>
  <path class="b" d="m295.3 294.6c-0.2 0-0.3-0.1-0.3-0.3v-7.1c0-0.2 0.1-0.3 0.3-0.3 0.1 0 0.3 0.1 0.3 0.3v7.1c0 0.2-0.2 0.3-0.3 0.3z"></path>
  <path class="a" d="m187.7 242.6h109.1v13.8h-109.1z"></path>
  <path class="b" d="m194.4 253.3c-0.1 0-0.2-0.1-0.2-0.3v-7.1c0-0.1 0.1-0.3 0.2-0.3 0.2 0 0.3 0.2 0.3 0.3v7.1c0 0.2-0.1 0.3-0.3 0.3z"></path>
  <path class="b" d="m201.8 253.3c-0.2 0-0.3-0.1-0.3-0.3v-7.1c0-0.1 0.1-0.3 0.3-0.3 0.1 0 0.3 0.2 0.3 0.3v7.1c0 0.2-0.2 0.3-0.3 0.3z"></path>
  <path class="b" d="m209.1 253.3c-0.1 0-0.3-0.1-0.3-0.3v-7.1c0-0.1 0.2-0.3 0.3-0.3 0.2 0 0.3 0.2 0.3 0.3v7.1c0 0.2-0.1 0.3-0.3 0.3z"></path>
  <path class="b" d="m216.4 253.3c-0.1 0-0.2-0.1-0.2-0.3v-7.1c0-0.1 0.1-0.3 0.2-0.3 0.2 0 0.3 0.2 0.3 0.3v7.1c0 0.2-0.1 0.3-0.3 0.3z"></path>
  <path class="b" d="m223.8 253.3c-0.2 0-0.3-0.1-0.3-0.3v-7.1c0-0.1 0.1-0.3 0.3-0.3 0.1 0 0.3 0.2 0.3 0.3v7.1c0 0.2-0.2 0.3-0.3 0.3z"></path>
  <path class="b" d="m231.1 253.3c-0.1 0-0.3-0.1-0.3-0.3v-7.1c0-0.1 0.2-0.3 0.3-0.3 0.2 0 0.3 0.2 0.3 0.3v7.1c0 0.2-0.1 0.3-0.3 0.3z"></path>
  <path class="b" d="m238.5 253.3c-0.2 0-0.3-0.1-0.3-0.3v-7.1c0-0.1 0.1-0.3 0.3-0.3 0.1 0 0.2 0.2 0.2 0.3v7.1c0 0.2-0.1 0.3-0.2 0.3z"></path>
  <path class="b" d="m245.8 253.3c-0.2 0-0.3-0.1-0.3-0.3v-7.1c0-0.1 0.1-0.3 0.3-0.3 0.2 0 0.3 0.2 0.3 0.3v7.1c0 0.2-0.1 0.3-0.3 0.3z"></path>
  <path class="b" d="m253.1 253.3c-0.1 0-0.2-0.1-0.2-0.3v-7.1c0-0.1 0.1-0.3 0.2-0.3 0.2 0 0.3 0.2 0.3 0.3v7.1c0 0.2-0.1 0.3-0.3 0.3z"></path>
  <path class="b" d="m260.5 253.3c-0.2 0-0.3-0.1-0.3-0.3v-7.1c0-0.1 0.1-0.3 0.3-0.3 0.1 0 0.3 0.2 0.3 0.3v7.1c0 0.2-0.2 0.3-0.3 0.3z"></path>
  <path class="b" d="m267.8 253.3c-0.1 0-0.3-0.1-0.3-0.3v-7.1c0-0.1 0.2-0.3 0.3-0.3 0.2 0 0.3 0.2 0.3 0.3v7.1c0 0.2-0.1 0.3-0.3 0.3z"></path>
  <path class="b" d="m275.1 253.3c-0.1 0-0.2-0.1-0.2-0.3v-7.1c0-0.1 0.1-0.3 0.2-0.3 0.2 0 0.3 0.2 0.3 0.3v7.1c0 0.2-0.1 0.3-0.3 0.3z"></path>
  <path class="b" d="m282.5 253.3c-0.2 0-0.3-0.1-0.3-0.3v-7.1c0-0.1 0.1-0.3 0.3-0.3 0.1 0 0.3 0.2 0.3 0.3v7.1c0 0.2-0.2 0.3-0.3 0.3z"></path>
  <path class="b" d="m289.8 253.3c-0.1 0-0.3-0.1-0.3-0.3v-7.1c0-0.1 0.2-0.3 0.3-0.3 0.2 0 0.3 0.2 0.3 0.3v7.1c0 0.2-0.1 0.3-0.3 0.3z"></path>
  <path class="a" d="m181.9 228.8h109.2v13.8h-109.2z"></path>
  <path class="b" d="m188.7 239.5c-0.2 0-0.3-0.1-0.3-0.2v-7.1c0-0.2 0.1-0.3 0.3-0.3 0.1 0 0.3 0.1 0.3 0.3v7.1c0 0.1-0.2 0.2-0.3 0.2z"></path>
  <path class="b" d="m196 239.5c-0.1 0-0.2-0.1-0.2-0.2v-7.1c0-0.2 0.1-0.3 0.2-0.3 0.2 0 0.3 0.1 0.3 0.3v7.1c0 0.1-0.1 0.2-0.3 0.2z"></path>
  <path class="b" d="m203.4 239.5c-0.2 0-0.3-0.1-0.3-0.2v-7.1c0-0.2 0.1-0.3 0.3-0.3 0.1 0 0.3 0.1 0.3 0.3v7.1c0 0.1-0.2 0.2-0.3 0.2z"></path>
  <path class="b" d="m210.7 239.5c-0.1 0-0.3-0.1-0.3-0.2v-7.1c0-0.2 0.2-0.3 0.3-0.3 0.2 0 0.3 0.1 0.3 0.3v7.1c0 0.1-0.1 0.2-0.3 0.2z"></path>
  <path class="b" d="m218 239.5c-0.1 0-0.2-0.1-0.2-0.2v-7.1c0-0.2 0.1-0.3 0.2-0.3 0.2 0 0.3 0.1 0.3 0.3v7.1c0 0.1-0.1 0.2-0.3 0.2z"></path>
  <path class="b" d="m225.4 239.5c-0.2 0-0.3-0.1-0.3-0.2v-7.1c0-0.2 0.1-0.3 0.3-0.3 0.1 0 0.3 0.1 0.3 0.3v7.1c0 0.1-0.2 0.2-0.3 0.2z"></path>
  <path class="b" d="m232.7 239.5c-0.1 0-0.3-0.1-0.3-0.2v-7.1c0-0.2 0.2-0.3 0.3-0.3 0.2 0 0.3 0.1 0.3 0.3v7.1c0 0.1-0.1 0.2-0.3 0.2z"></path>
  <path class="b" d="m240.1 239.5c-0.2 0-0.3-0.1-0.3-0.2v-7.1c0-0.2 0.1-0.3 0.3-0.3 0.1 0 0.2 0.1 0.2 0.3v7.1c0 0.1-0.1 0.2-0.2 0.2z"></path>
  <path class="b" d="m247.4 239.5c-0.2 0-0.3-0.1-0.3-0.2v-7.1c0-0.2 0.1-0.3 0.3-0.3 0.1 0 0.3 0.1 0.3 0.3v7.1c0 0.1-0.2 0.2-0.3 0.2z"></path>
  <path class="b" d="m254.7 239.5c-0.1 0-0.2-0.1-0.2-0.2v-7.1c0-0.2 0.1-0.3 0.2-0.3 0.2 0 0.3 0.1 0.3 0.3v7.1c0 0.1-0.1 0.2-0.3 0.2z"></path>
  <path class="b" d="m262.1 239.5c-0.2 0-0.3-0.1-0.3-0.2v-7.1c0-0.2 0.1-0.3 0.3-0.3 0.1 0 0.2 0.1 0.2 0.3v7.1c0 0.1-0.1 0.2-0.2 0.2z"></path>
  <path class="b" d="m269.4 239.5c-0.1 0-0.3-0.1-0.3-0.2v-7.1c0-0.2 0.2-0.3 0.3-0.3 0.2 0 0.3 0.1 0.3 0.3v7.1c0 0.1-0.1 0.2-0.3 0.2z"></path>
  <path class="b" d="m276.7 239.5c-0.1 0-0.2-0.1-0.2-0.2v-7.1c0-0.2 0.1-0.3 0.2-0.3 0.2 0 0.3 0.1 0.3 0.3v7.1c0 0.1-0.1 0.2-0.3 0.2z"></path>
  <path class="b" d="m284.1 239.5c-0.2 0-0.3-0.1-0.3-0.2v-7.1c0-0.2 0.1-0.3 0.3-0.3 0.1 0 0.3 0.1 0.3 0.3v7.1c0 0.1-0.2 0.2-0.3 0.2z"></path>
  <path class="a" d="m203.6 256.4h109.2v13.7h-109.2z"></path>
  <path class="b" d="m210.4 267.1c-0.2 0-0.3-0.2-0.3-0.3v-7.1c0-0.2 0.1-0.3 0.3-0.3 0.1 0 0.3 0.1 0.3 0.3v7.1c0 0.1-0.2 0.3-0.3 0.3z"></path>
  <path class="b" d="m217.7 267.1c-0.1 0-0.3-0.2-0.3-0.3v-7.1c0-0.2 0.2-0.3 0.3-0.3 0.2 0 0.3 0.1 0.3 0.3v7.1c0 0.1-0.1 0.3-0.3 0.3z"></path>
  <path class="b" d="m225 267.1c-0.1 0-0.2-0.2-0.2-0.3v-7.1c0-0.2 0.1-0.3 0.2-0.3 0.2 0 0.3 0.1 0.3 0.3v7.1c0 0.1-0.1 0.3-0.3 0.3z"></path>
  <path class="b" d="m232.4 267.1c-0.2 0-0.3-0.2-0.3-0.3v-7.1c0-0.2 0.1-0.3 0.3-0.3 0.1 0 0.3 0.1 0.3 0.3v7.1c0 0.1-0.2 0.3-0.3 0.3z"></path>
  <path class="b" d="m239.7 267.1c-0.1 0-0.3-0.2-0.3-0.3v-7.1c0-0.2 0.2-0.3 0.3-0.3 0.2 0 0.3 0.1 0.3 0.3v7.1c0 0.1-0.1 0.3-0.3 0.3z"></path>
  <path class="b" d="m247.1 267.1c-0.2 0-0.3-0.2-0.3-0.3v-7.1c0-0.2 0.1-0.3 0.3-0.3 0.1 0 0.2 0.1 0.2 0.3v7.1c0 0.1-0.1 0.3-0.2 0.3z"></path>
  <path class="b" d="m254.4 267.1c-0.2 0-0.3-0.2-0.3-0.3v-7.1c0-0.2 0.1-0.3 0.3-0.3 0.1 0 0.3 0.1 0.3 0.3v7.1c0 0.1-0.2 0.3-0.3 0.3z"></path>
  <path class="b" d="m261.7 267.1c-0.1 0-0.3-0.2-0.3-0.3v-7.1c0-0.2 0.2-0.3 0.3-0.3 0.2 0 0.3 0.1 0.3 0.3v7.1c0 0.1-0.1 0.3-0.3 0.3z"></path>
  <path class="b" d="m269.1 267.1c-0.2 0-0.3-0.2-0.3-0.3v-7.1c0-0.2 0.1-0.3 0.3-0.3 0.1 0 0.2 0.1 0.2 0.3v7.1c0 0.1-0.1 0.3-0.2 0.3z"></path>
  <path class="b" d="m276.4 267.1c-0.1 0-0.3-0.2-0.3-0.3v-7.1c0-0.2 0.2-0.3 0.3-0.3 0.2 0 0.3 0.1 0.3 0.3v7.1c0 0.1-0.1 0.3-0.3 0.3z"></path>
  <path class="b" d="m283.7 267.1c-0.1 0-0.2-0.2-0.2-0.3v-7.1c0-0.2 0.1-0.3 0.2-0.3 0.2 0 0.3 0.1 0.3 0.3v7.1c0 0.1-0.1 0.3-0.3 0.3z"></path>
  <path class="b" d="m291.1 267.1c-0.2 0-0.3-0.2-0.3-0.3v-7.1c0-0.2 0.1-0.3 0.3-0.3 0.1 0 0.3 0.1 0.3 0.3v7.1c0 0.1-0.2 0.3-0.3 0.3z"></path>
  <path class="b" d="m298.4 267.1c-0.1 0-0.3-0.2-0.3-0.3v-7.1c0-0.2 0.2-0.3 0.3-0.3 0.2 0 0.3 0.1 0.3 0.3v7.1c0 0.1-0.1 0.3-0.3 0.3z"></path>
  <path class="b" d="m305.8 267.1c-0.2 0-0.3-0.2-0.3-0.3v-7.1c0-0.2 0.1-0.3 0.3-0.3 0.1 0 0.2 0.1 0.2 0.3v7.1c0 0.1-0.1 0.3-0.2 0.3z"></path>
  <path class="a" d="m196.7 270.1h109.2v13.8h-109.2z"></path>
  <path class="b" d="m203.5 280.8c-0.2 0-0.3-0.1-0.3-0.3v-7.1c0-0.1 0.1-0.2 0.3-0.2 0.1 0 0.3 0.1 0.3 0.2v7.1c0 0.2-0.2 0.3-0.3 0.3z"></path>
  <path class="b" d="m210.8 280.8c-0.1 0-0.3-0.1-0.3-0.3v-7.1c0-0.1 0.2-0.2 0.3-0.2 0.2 0 0.3 0.1 0.3 0.2v7.1c0 0.2-0.1 0.3-0.3 0.3z"></path>
  <path class="b" d="m218.2 280.8c-0.2 0-0.3-0.1-0.3-0.3v-7.1c0-0.1 0.1-0.2 0.3-0.2 0.1 0 0.2 0.1 0.2 0.2v7.1c0 0.2-0.1 0.3-0.2 0.3z"></path>
  <path class="b" d="m225.5 280.8c-0.2 0-0.3-0.1-0.3-0.3v-7.1c0-0.1 0.1-0.2 0.3-0.2 0.1 0 0.3 0.1 0.3 0.2v7.1c0 0.2-0.2 0.3-0.3 0.3z"></path>
  <path class="b" d="m232.8 280.8c-0.1 0-0.3-0.1-0.3-0.3v-7.1c0-0.1 0.2-0.2 0.3-0.2 0.2 0 0.3 0.1 0.3 0.2v7.1c0 0.2-0.1 0.3-0.3 0.3z"></path>
  <path class="b" d="m240.2 280.8c-0.2 0-0.3-0.1-0.3-0.3v-7.1c0-0.1 0.1-0.2 0.3-0.2 0.1 0 0.2 0.1 0.2 0.2v7.1c0 0.2-0.1 0.3-0.2 0.3z"></path>
  <path class="b" d="m247.5 280.8c-0.2 0-0.3-0.1-0.3-0.3v-7.1c0-0.1 0.1-0.2 0.3-0.2 0.2 0 0.3 0.1 0.3 0.2v7.1c0 0.2-0.1 0.3-0.3 0.3z"></path>
  <path class="b" d="m254.8 280.8c-0.1 0-0.2-0.1-0.2-0.3v-7.1c0-0.1 0.1-0.2 0.2-0.2 0.2 0 0.3 0.1 0.3 0.2v7.1c0 0.2-0.1 0.3-0.3 0.3z"></path>
  <path class="b" d="m262.2 280.8c-0.2 0-0.3-0.1-0.3-0.3v-7.1c0-0.1 0.1-0.2 0.3-0.2 0.1 0 0.3 0.1 0.3 0.2v7.1c0 0.2-0.2 0.3-0.3 0.3z"></path>
  <path class="b" d="m269.5 280.8c-0.1 0-0.3-0.1-0.3-0.3v-7.1c0-0.1 0.2-0.2 0.3-0.2 0.2 0 0.3 0.1 0.3 0.2v7.1c0 0.2-0.1 0.3-0.3 0.3z"></path>
  <path class="b" d="m276.9 280.8c-0.2 0-0.3-0.1-0.3-0.3v-7.1c0-0.1 0.1-0.2 0.3-0.2 0.1 0 0.2 0.1 0.2 0.2v7.1c0 0.2-0.1 0.3-0.2 0.3z"></path>
  <path class="b" d="m284.2 280.8c-0.2 0-0.3-0.1-0.3-0.3v-7.1c0-0.1 0.1-0.2 0.3-0.2 0.1 0 0.3 0.1 0.3 0.2v7.1c0 0.2-0.2 0.3-0.3 0.3z"></path>
  <path class="b" d="m291.5 280.8c-0.1 0-0.3-0.1-0.3-0.3v-7.1c0-0.1 0.2-0.2 0.3-0.2 0.2 0 0.3 0.1 0.3 0.2v7.1c0 0.2-0.1 0.3-0.3 0.3z"></path>
  <path class="b" d="m298.9 280.8c-0.2 0-0.3-0.1-0.3-0.3v-7.1c0-0.1 0.1-0.2 0.3-0.2 0.1 0 0.2 0.1 0.2 0.2v7.1c0 0.2-0.1 0.3-0.2 0.3z"></path>
  <path class="a" d="m208.8 297.6h109.2v13.8h-109.2z"></path>
  <path class="b" d="m215.6 308.3c-0.2 0-0.3-0.1-0.3-0.2v-7.1c0-0.2 0.1-0.3 0.3-0.3 0.1 0 0.3 0.1 0.3 0.3v7.1c0 0.1-0.2 0.2-0.3 0.2z"></path>
  <path class="b" d="m222.9 308.3c-0.1 0-0.3-0.1-0.3-0.2v-7.1c0-0.2 0.2-0.3 0.3-0.3 0.2 0 0.3 0.1 0.3 0.3v7.1c0 0.1-0.1 0.2-0.3 0.2z"></path>
  <path class="b" d="m230.2 308.3c-0.1 0-0.2-0.1-0.2-0.2v-7.1c0-0.2 0.1-0.3 0.2-0.3 0.2 0 0.3 0.1 0.3 0.3v7.1c0 0.1-0.1 0.2-0.3 0.2z"></path>
  <path class="b" d="m237.6 308.3c-0.2 0-0.3-0.1-0.3-0.2v-7.1c0-0.2 0.1-0.3 0.3-0.3 0.1 0 0.3 0.1 0.3 0.3v7.1c0 0.1-0.2 0.2-0.3 0.2z"></path>
  <path class="b" d="m244.9 308.3c-0.1 0-0.3-0.1-0.3-0.2v-7.1c0-0.2 0.2-0.3 0.3-0.3 0.2 0 0.3 0.1 0.3 0.3v7.1c0 0.1-0.1 0.2-0.3 0.2z"></path>
  <path class="b" d="m252.3 308.3c-0.2 0-0.3-0.1-0.3-0.2v-7.1c0-0.2 0.1-0.3 0.3-0.3 0.1 0 0.2 0.1 0.2 0.3v7.1c0 0.1-0.1 0.2-0.2 0.2z"></path>
  <path class="b" d="m259.6 308.3c-0.2 0-0.3-0.1-0.3-0.2v-7.1c0-0.2 0.1-0.3 0.3-0.3 0.2 0 0.3 0.1 0.3 0.3v7.1c0 0.1-0.1 0.2-0.3 0.2z"></path>
  <path class="b" d="m266.9 308.3c-0.1 0-0.2-0.1-0.2-0.2v-7.1c0-0.2 0.1-0.3 0.2-0.3 0.2 0 0.3 0.1 0.3 0.3v7.1c0 0.1-0.1 0.2-0.3 0.2z"></path>
  <path class="b" d="m274.3 308.3c-0.2 0-0.3-0.1-0.3-0.2v-7.1c0-0.2 0.1-0.3 0.3-0.3 0.1 0 0.3 0.1 0.3 0.3v7.1c0 0.1-0.2 0.2-0.3 0.2z"></path>
  <path class="b" d="m281.6 308.3c-0.1 0-0.3-0.1-0.3-0.2v-7.1c0-0.2 0.2-0.3 0.3-0.3 0.2 0 0.3 0.1 0.3 0.3v7.1c0 0.1-0.1 0.2-0.3 0.2z"></path>
  <path class="b" d="m288.9 308.3c-0.1 0-0.2-0.1-0.2-0.2v-7.1c0-0.2 0.1-0.3 0.2-0.3 0.2 0 0.3 0.1 0.3 0.3v7.1c0 0.1-0.1 0.2-0.3 0.2z"></path>
  <path class="b" d="m296.3 308.3c-0.2 0-0.3-0.1-0.3-0.2v-7.1c0-0.2 0.1-0.3 0.3-0.3 0.1 0 0.3 0.1 0.3 0.3v7.1c0 0.1-0.2 0.2-0.3 0.2z"></path>
  <path class="b" d="m303.6 308.3c-0.1 0-0.3-0.1-0.3-0.2v-7.1c0-0.2 0.2-0.3 0.3-0.3 0.2 0 0.3 0.1 0.3 0.3v7.1c0 0.1-0.1 0.2-0.3 0.2z"></path>
  <path class="b" d="m311 308.3c-0.2 0-0.3-0.1-0.3-0.2v-7.1c0-0.2 0.1-0.3 0.3-0.3 0.1 0 0.2 0.1 0.2 0.3v7.1c0 0.1-0.1 0.2-0.2 0.2z"></path>
  <path class="c" d="m284.1 242.9h-91.9c-0.1 0-0.2-0.2-0.2-0.3 0-0.2 0.1-0.3 0.2-0.3h91.9c0.1 0 0.3 0.1 0.3 0.3 0 0.1-0.2 0.3-0.3 0.3z"></path>
  <path class="c" d="m303.2 270.4h-94.4c-0.2 0-0.3-0.1-0.3-0.3 0-0.1 0.1-0.3 0.3-0.3h94.4c0.1 0 0.3 0.2 0.3 0.3 0 0.2-0.2 0.3-0.3 0.3z"></path>
  <path class="c" d="m297.1 284.2h-94.3c-0.2 0-0.3-0.2-0.3-0.3 0-0.2 0.1-0.3 0.3-0.3h94.3c0.2 0 0.3 0.1 0.3 0.3 0 0.1-0.1 0.3-0.3 0.3z"></path>
  <path class="c" d="m300.3 297.9h-88.4c-0.1 0-0.3-0.1-0.3-0.3 0-0.1 0.2-0.3 0.3-0.3h88.4c0.2 0 0.3 0.2 0.3 0.3 0 0.2-0.1 0.3-0.3 0.3z"></path>
  <path class="c" d="m307.7 311.7h-95.6c-0.2 0-0.3-0.2-0.3-0.3 0-0.2 0.1-0.3 0.3-0.3h95.6c0.1 0 0.2 0.1 0.2 0.3 0 0.1-0.1 0.3-0.2 0.3z"></path>
  <path class="c" d="m293.6 256.6h-87.1c-0.1 0-0.3-0.1-0.3-0.2 0-0.2 0.2-0.3 0.3-0.3h87.1c0.1 0 0.3 0.1 0.3 0.3 0 0.1-0.2 0.2-0.3 0.2z"></path>
  <path class="d" d="m141.8 298.8q-0.8 1-1.7 2.2c-1.6 2.2-3.2 4.8-4.6 7.5-3.1 5.8-5.7 12.1-7.5 16.7 0 0-33.4 4.1-47.1-6.9 5.3-11 24.6-3.2 38.5-14.3 2.5-2.1 4.9-4.7 6.9-8.2 0.9-1.5 1.7-3.2 2.5-5.1z"></path>
  <path class="e" d="m135.5 308.5c-2.2 4.1-4.1 8.5-5.7 12.3q-1 2.4-1.8 4.4c0 0-33.4 4.1-47.1-6.9q0.7-1.5 1.7-2.5c6.9-7.2 24.1-1.7 36.8-11.8 3.6 3.5 11.5 4.9 16.1 4.5z"></path>
  <path class="f" d="m129.8 320.8q-1 2.4-1.8 4.4c0 0-33.4 4.1-47.1-6.9q0.7-1.5 1.7-2.5c7.6 4.5 25.7 9.5 47.2 5z"></path>
  <path class="b" d="m96.3 320.2q0 0 0 0c-0.1 0-0.3-0.2-0.2-0.3 0.3-2.8-1.1-5.6-3.5-7.1-0.2-0.1-0.2-0.2-0.1-0.4 0-0.1 0.2-0.1 0.3-0.1 2.7 1.6 4.1 4.6 3.8 7.6 0 0.2-0.1 0.3-0.3 0.3z"></path>
  <path class="b" d="m96.4 315.2c-0.2 0-0.3-0.1-0.3-0.2 0-0.2 0.1-0.3 0.3-0.3 9-0.5 17.9-3.2 25.7-7.8 0.1-0.1 0.3 0 0.3 0.1 0.1 0.1 0.1 0.3-0.1 0.4-7.8 4.6-16.8 7.4-25.9 7.8q0 0 0 0z"></path>
  <path class="g" d="m141.8 298.8q-0.8 1-1.7 2.2l-13.8-5.2c0.9-1.5 1.7-3.2 2.5-5.1z"></path>
  <path class="d" d="m202.3 157.8c-5.5-2.2-4.8 6.3-4 9.3-2.3 0.2-4-2-3.9-6.1-4 2.7-6.2-2.3-6.2-2.3 0 0-0.5 0.7-2.8 5.3-2.2 4.6-4.5 3.3-4.5 3.3 0 0 4.3-15.3 10.9-18.3 6.7-3.1 14.4 2.9 14.4 2.9z"></path>
  <path class="h" d="m188 158.1c-0.1 0-0.2-0.1-0.3-0.2-0.3-1.4-0.2-3.9 0.5-5.4 0-0.2 0.2-0.2 0.3-0.2 0.2 0.1 0.2 0.2 0.2 0.4-0.7 1.4-0.7 3.8-0.4 5 0 0.2-0.1 0.3-0.2 0.4q-0.1 0-0.1 0z"></path>
  <path class="h" d="m195 160.7q-0.2 0-0.3-0.1c0-0.1 0-0.3 0.1-0.4 1.3-1 1.8-2 1.5-2.4q-0.2-0.4-0.6-0.4-0.5-0.1-1.3 0.5c-0.6 0.5-1.5 0.6-2.2 0.3-0.5-0.3-1.3-0.9-1.3-2.8 0-0.2 0.2-0.3 0.3-0.3q0 0 0 0c0.2 0 0.3 0.2 0.3 0.3 0 1.2 0.3 2 1 2.3 0.5 0.2 1.1 0.1 1.6-0.3q1-0.7 1.7-0.6 0.6 0.1 1 0.7c0.5 0.8-0.2 2.1-1.7 3.2q0 0-0.1 0z"></path>
  <path class="e" d="m237 143.1l-25-20.3c-6-5-6.3-14.2-0.6-19.5l19.3-17.7 11.4 17.4-7 6.5c-2.6 2.6-2.4 6.9 0.6 9.1l9.1 6.7z"></path>
  <path class="d" d="m252.3 71.8c1.7-2.6 3.8-3.8 5.3-3.1 1.6 0.7 0 2.7 0 2.7 0 0 1.9-2.8 4.2-1.3 2.2 1.6-0.4 4.1-0.4 4.1 0 0 2.5-2.6 4-1.2 1.6 1.4 0 3.4 0 3.4 0 0 2.3-0.6 3.1 1.4 0.7 2-2.4 4.6-2.4 4.6l-11-2.4z"></path>
  <path class="f" d="m231.7 136.6q-0.1 0-0.1-0.1c-0.2-0.1-0.2-0.2-0.1-0.4 1-1.4 1.9-4.9 0.8-8.3-0.9-3-3-5.2-6.4-6.5-3.6-1.4-5.6-3.1-6.1-5-0.7-2.4 1.2-5 3.3-7.7 1.4-1.7 3.5-5 2.5-7.4q-1.1-2.6-6.3-3.1c-0.1 0-0.3-0.1-0.2-0.3 0-0.2 0.1-0.3 0.3-0.3 3.7 0.4 5.9 1.6 6.7 3.5 0.9 2 0 4.8-2.5 8-2.1 2.5-3.9 5-3.3 7.2 0.5 1.7 2.4 3.2 5.8 4.6 3.5 1.3 5.8 3.7 6.8 6.8 1.1 3.6 0.1 7.3-0.9 8.8q-0.1 0.2-0.3 0.2z"></path>
  <path class="g" d="m232.9 92c-4.8-1.3-6.3-5.8-4.5-9 1.9-3.2 4.8-3.6 7-2.2-1.2-8 7.9-11.7 13.1-6.7 1.2-4.5 10.2-4 10.4 5.3 7.2-3.5 16.2 9.2 4.6 21.6-1.4 1.4-2.1 3.4-1.9 5.4 0.2 3.1 0.7 7 0.7 7l-12.8-14.1z"></path>
  <path class="d" d="m249.6 115.2l1.2-3.2-0.2 0.1c-0.6 0.3-3.4 1.9-6.9 2.6-1.7 0.3-3.4-0.5-4.2-2-3.5-6.7-6.2-14.8-6.6-20.7 2.1 0.6 7.4-0.6 9-4.1 0.3 1.9 3.7 4.1 6.3 0.8-0.7 4.5 4 7.9 4 7.9 0 0 4-5.8 6.6-1.7 2.6 4-0.8 6.6-0.8 6.6l8.1 16.6h-17.6z"></path>
  <path class="g" d="m237 96.8q0 0-0.1 0c-0.1-0.1-0.2-0.2-0.2-0.4 0.5-1.9 2-3.3 4-3.7 0.1 0 0.3 0.1 0.3 0.2 0 0.2-0.1 0.3-0.2 0.4-1.7 0.3-3.1 1.6-3.5 3.3-0.1 0.1-0.2 0.2-0.3 0.2z"></path>
  <path class="g" d="m253.6 100q0 0-0.1 0c-0.1-0.1-0.2-0.2-0.1-0.4 0.5-1.6 1.6-2.9 3-3.9 0.1-0.1 0.3 0 0.4 0.1 0.1 0.1 0 0.3-0.1 0.4-1.3 0.9-2.3 2.1-2.8 3.6 0 0.1-0.2 0.2-0.3 0.2z"></path>
  <path class="d" d="m238.7 105.2c-1.8 0.7-3.5 0.8-4.7 0.7-0.9 0-1.5-0.7-1.4-1.6 0.3-1.6 1-4.3 2.7-5.9z"></path>
  <path class="h" d="m242.1 108.3c1.5-0.9 2.6-2.3 3-4.1 1.1 0.9 1.3 2.5 0.5 3.6-0.9 1.1-2.4 1.3-3.5 0.5z"></path>
  <path class="b" d="m242.8 99.8q-0.2 0.3-0.5 0.5c-1.1 1-2.7 1.6-4.3 1.4-0.1-1.8 0.6-3.5 1.8-4.8 1.1-1.2 2.6-2 4.3-2.2 0.4 1.8-0.1 3.7-1.3 5.1z"></path>
  <path class="g" d="m242.3 100.3c-1.1 1-2.7 1.6-4.3 1.4-0.1-1.8 0.6-3.5 1.8-4.8 1.4 0.5 2.4 1.8 2.5 3.4z"></path>
  <path class="g" d="m255.1 108.8c0 0-0.3 3.9-5.5 6.4l1.2-3.2c2.2-1.3 4.3-3.2 4.3-3.2z"></path>
  <path class="e" d="m234.1 84.9c-0.9 0-1.8-0.3-2.6-0.6-0.9-0.2-1.7-0.5-2.5-0.4-0.1 0-0.3-0.1-0.3-0.3 0-0.1 0.1-0.2 0.2-0.3 0.9-0.1 1.8 0.2 2.7 0.5 1.6 0.5 3.2 1 5.2-0.4 1.6-1.1 1.8-2.9 2.1-4.9 0.4-2.7 0.8-5.6 5.1-6.2 0.2 0 0.3 0.1 0.3 0.2 0.1 0.2 0 0.3-0.2 0.4-3.9 0.5-4.3 3-4.6 5.7-0.3 2-0.6 4-2.3 5.2-1.1 0.8-2.1 1.1-3.1 1.1z"></path>
  <path class="e" d="m261.8 102q-0.2 0-0.2-0.1c-0.1-0.1-0.9-1.9 1.5-7.3 1-2.3 1-4.2-0.1-5.4-0.9-1.2-2.7-1.5-4.6-1-4.3 1.1-7.1 0.1-9.2-3.4q-1-1.8-2.7-2.1c-1.6-0.2-3.8 0.8-6.1 2.9-4 3.5-7.3 4.7-10.5 3.9-0.1-0.1-0.2-0.2-0.2-0.4 0.1-0.1 0.2-0.2 0.4-0.2 3 0.8 6.1-0.4 9.9-3.7 2.5-2.3 4.8-3.3 6.6-3q1.9 0.3 3.1 2.3c2 3.3 4.5 4.2 8.5 3.1 2.2-0.5 4.1-0.1 5.2 1.2 1.2 1.4 1.3 3.5 0.2 6-2.3 5.1-1.5 6.8-1.5 6.8 0 0.2 0 0.4-0.2 0.4q0 0.1-0.1 0z"></path>
  <path class="e" d="m257.3 85.9c-1.1 0-2.3-0.4-3.4-1.5-2-2-1.2-4.3-0.5-6.6 0.7-2 1.3-3.9 0-5.4-0.1-0.1-0.1-0.3 0-0.4 0.2-0.1 0.3-0.1 0.4 0 1.5 1.8 0.8 3.9 0.2 6-0.8 2.2-1.5 4.3 0.3 6 2.5 2.5 4.9 1.1 7.2-0.3 1.5-0.9 2.9-1.7 4.1-1.3q1.2 0.4 2 2.1c0.1 0.1 0 0.3-0.1 0.4-0.2 0-0.3 0-0.4-0.2q-0.7-1.5-1.6-1.8c-1.1-0.3-2.3 0.5-3.7 1.3-1.4 0.8-2.9 1.7-4.5 1.7z"></path>
  <path fill-rule="evenodd" class="e" d="m248.3 78.3q-0.1 0-0.1 0c-0.5 0-0.9-0.3-1-0.7-0.3-0.7 0-1.9 1.2-3l0.2-0.2 0.2 0.3c0.8 1.2 1.1 2.3 0.7 3-0.2 0.4-0.7 0.6-1.2 0.6zm0.2-3c-0.8 0.8-1 1.6-0.8 2.1q0.1 0.3 0.5 0.4c0.2-0.1 0.6-0.1 0.8-0.4 0.1-0.2 0.3-0.8-0.5-2.1z"></path>
  <path fill-rule="evenodd" class="e" d="m257.6 83.2q-0.3 0-0.7-0.2c-0.5-0.2-0.7-0.6-0.6-1.1 0-0.7 0.8-1.7 2.3-2.2l0.3-0.1 0.1 0.4c0.2 1.5 0 2.5-0.7 3q-0.3 0.2-0.7 0.2zm0.8-2.8c-1 0.4-1.5 1.1-1.6 1.6q0 0.4 0.3 0.5c0.2 0.1 0.6 0.3 0.9 0 0.2-0.1 0.6-0.6 0.4-2.1z"></path>
  <path class="g" d="m234.4 106.2q-0.2 0-0.4 0c-0.5 0-1-0.2-1.3-0.6-0.3-0.4-0.4-0.8-0.3-1.3 0.2-1.6 0.9-4.4 2.7-6.1 0.2-0.1 0.3-0.1 0.4 0 0.1 0.1 0.1 0.3 0 0.4-1.7 1.6-2.4 4.3-2.6 5.8q-0.1 0.5 0.2 0.8c0.3 0.3 0.6 0.4 0.9 0.5 1.1 0 2.8-0.1 4.6-0.8 0.1 0 0.3 0.1 0.4 0.2 0 0.2-0.1 0.3-0.2 0.4-1.7 0.6-3.3 0.7-4.4 0.7z"></path>
  <path class="e" d="m275.8 147.5l-0.9 2.5c1.8 13.4 0.2 34.9-4.2 52l-34.2-9.5 0.4-2.5q-0.2 0-0.4-0.1c-9.6-2.3-20-8.2-25.8-14.9-2.4-2.7-3.3-6.1-3-9.5l-6.2-3.5c-0.9-0.6-1.3-1.8-0.7-2.7l4.8-8.4c0.6-1 1.8-1.3 2.8-0.8l7.2 4.2c2.3-1 4.8-1.4 7.3-1 3 0.5 5.9 1.5 8.6 2.9 0.4-9.9 4.1-19.4 10.5-27v-8.2c0-1.9 1.6-3.6 3.6-3.6h19.5c2 0 3.7 1.7 3.7 3.6v6.8c6.5 3.8 9.9 12 7 19.7z"></path>
  <path class="f" d="m270.8 189.6c-5 0-6-2.9-7.3-6.4-1.1-3.1-2.3-6.7-6.6-9.5-4.5-2.9-10-0.2-15.3 2.5-5.8 2.9-11.8 5.9-16 0.8-4.3-5.2-2.2-9.9-0.5-13.8 1.5-3.4 2.7-6.1-0.5-8.3-0.2-0.1-0.2-0.3-0.1-0.4 0.1-0.2 0.3-0.2 0.4-0.1 3.6 2.4 2.2 5.7 0.7 9.1-1.7 3.8-3.6 8.2 0.4 13.1 4 4.8 9.5 2 15.4-0.9 5.4-2.8 11-5.6 15.8-2.5 4.5 2.9 5.8 6.8 6.9 9.8 1.3 3.7 2.2 6.4 7.7 6 0.1 0 0.2 0.1 0.3 0.3 0 0.1-0.2 0.3-0.3 0.3q-0.5 0-1 0z"></path>
  <path class="f" d="m265 170.5q-0.2 0-0.2-0.2c-1.7-2.4-2.3-7.8 0.1-14.1 1.4-3.3 1.1-6.6-0.6-7.9-1.9-1.4-5-0.6-8.8 2.2-5.9 4.4-8.9 3.4-10.2 2.5-1.8-1.3-2.3-4.2-1.2-7.4 1.3-3.9 1.2-6.9-0.1-8.2-1.2-1.1-3.3-1.1-6.3 0-0.1 0.1-0.3 0-0.3-0.1-0.1-0.2 0-0.3 0.1-0.4q4.9-1.8 6.9 0.1c2.1 2 1 6.4 0.2 8.8-1 2.9-0.6 5.6 1.1 6.8 1.9 1.4 5.4 0.5 9.4-2.5 5.5-4.1 8.3-3.2 9.5-2.2 2 1.5 2.3 4.9 0.9 8.5-2.6 6.5-1.6 11.7-0.3 13.6 0.1 0.2 0.1 0.3-0.1 0.4q0 0.1-0.1 0.1z"></path>
  <path class="b" d="m243.3 169.1q0 0 0 0-0.2 0-0.2-0.2c-0.8-2.9-7.5-9.3-10.7-11.6-0.1-0.1-0.1-0.2 0-0.4 0-0.1 0.2-0.1 0.3 0 2.7 1.9 9.1 7.7 10.7 11.2l12.4-30c0.1-0.1 0.2-0.2 0.4-0.1 0.1 0.1 0.2 0.2 0.1 0.4l-12.7 30.5q-0.1 0.2-0.3 0.2z"></path>
  <path class="f" d="m212.7 156.6q-0.1 0-0.2 0l-6-3.5c-0.1 0-0.2-0.2-0.1-0.3 0.1-0.2 0.2-0.2 0.4-0.1l6 3.4c0.1 0.1 0.2 0.2 0.1 0.4q-0.1 0.1-0.2 0.1z"></path>
  <path class="f" d="m210.9 159.7q0 0-0.1-0.1l-6-3.4c-0.2-0.1-0.2-0.3-0.1-0.4 0.1-0.1 0.2-0.2 0.4-0.1l6 3.4c0.1 0.1 0.2 0.3 0.1 0.4q-0.1 0.2-0.3 0.2z"></path>
  <path class="f" d="m209.2 162.5q-0.1 0-0.1-0.1l-6.1-3.4c-0.1-0.1-0.1-0.3-0.1-0.4 0.1-0.1 0.3-0.2 0.4-0.1l6 3.4c0.2 0.1 0.2 0.3 0.1 0.4q0 0.2-0.2 0.2z"></path>
  <path class="f" d="m246.1 127.1q-0.1 0-0.1 0c-0.1 0-0.2-0.1-0.2-0.3l0.7-6.4c0.1-0.1 0.2-0.3 0.4-0.2 0.1 0 0.2 0.1 0.2 0.3l-0.8 6.4c0 0.1-0.1 0.2-0.2 0.2z"></path>
  <path class="f" d="m251.8 127.1q0 0 0 0c-0.1 0-0.3-0.1-0.2-0.3l0.7-6.4c0-0.1 0.2-0.3 0.3-0.2 0.2 0 0.3 0.1 0.3 0.3l-0.8 6.4c0 0.1-0.1 0.2-0.3 0.2z"></path>
  <path class="f" d="m257.6 127.1q0 0 0 0c-0.2 0-0.3-0.1-0.2-0.3l0.7-6.4c0-0.1 0.2-0.3 0.3-0.2 0.2 0 0.3 0.1 0.3 0.3l-0.8 6.4c0 0.1-0.1 0.2-0.3 0.2z"></path>
  <path class="f" d="m263.4 127.1q0 0 0 0c-0.2 0-0.3-0.1-0.3-0.3l0.8-6.4c0-0.1 0.2-0.3 0.3-0.2 0.2 0 0.3 0.1 0.3 0.3l-0.8 6.4c0 0.1-0.1 0.2-0.3 0.2z"></path>
  <path class="b" d="m270.5 194.8q-0.1 0-0.1 0l-16.7-4.3c-0.2 0-0.3-0.2-0.2-0.3 0-0.2 0.1-0.3 0.3-0.2l16.8 4.3c0.1 0 0.2 0.2 0.2 0.3-0.1 0.2-0.2 0.2-0.3 0.2z"></path>
  <path class="g" d="m273.1 154.6l-8.8 23.4c-1.2 3-3 5.7-5.3 7.7 11.3-5.9 13.6-16.3 14.1-31.1z"></path>
  <path class="b" d="m245.5 191.2q-0.1 0-0.3 0c-2.4 0-4.6-0.2-6.6-0.5-0.1-0.1-0.2-0.2-0.2-0.4 0-0.1 0.2-0.2 0.3-0.2q3 0.5 6.5 0.5 0.2 0 0.3 0c8.2 0 15.6-5.1 18.5-12.7l9.6-25.4c0.1-0.2 0.2-0.2 0.4-0.2 0.1 0.1 0.2 0.2 0.1 0.4l-9.6 25.4c-2.9 7.9-10.6 13.1-19 13.1z"></path>
  <path class="b" d="m198.3 122.8c0 9.6-7.8 17.5-17.5 17.5-4.7 0-9.1-2-12.2-5.1l-10.6 3.4 7.2-8.2c-1.2-2.3-1.8-4.9-1.8-7.6 0-9.6 7.8-17.4 17.4-17.4 9.7 0 17.5 7.8 17.5 17.4z"></path>
  <path fill-rule="evenodd" class="f" d="m180.8 140.5c-4.6 0-9-1.7-12.3-5l-11.4 3.7 7.7-8.8c-1.1-2.4-1.7-5-1.7-7.6 0-9.8 8-17.7 17.7-17.7 9.8 0 17.8 7.9 17.8 17.7 0 9.8-8 17.7-17.8 17.7zm-12.1-5.6l0.1 0.1c3.2 3.2 7.5 5 12 5 9.5 0 17.2-7.7 17.2-17.2 0-9.5-7.7-17.2-17.2-17.2-9.4 0-17.1 7.7-17.1 17.2 0 2.6 0.5 5.1 1.7 7.5l0.1 0.2-6.6 7.5z"></path>
  <path class="c" d="m189 125.6c-1.5 4.4-6.3 6.8-10.7 5.3-4.4-1.5-6.7-6.3-5.2-10.7 1.5-4.3 6.2-6.7 10.6-5.2 4.4 1.5 6.8 6.3 5.3 10.6z"></path>
  <path class="a" d="m189.6 125.9c-1.5 4.4-6.2 6.7-10.6 5.2-4.4-1.5-6.8-6.2-5.3-10.6 1.5-4.4 6.3-6.8 10.7-5.3 4.4 1.5 6.7 6.3 5.2 10.7z"></path>
  <path class="b" d="m185.6 121.6h-2.8c0-0.7-0.7-0.8-1.1-0.8-0.2 0-1.1 0-1.1 0.5 0 1.2 5.1 0 5.1 3.2 0 1.9-1.5 2.6-3.3 2.8l0.1 2h-1.7l0.1-2c-1.7-0.2-3.3-1-3.3-2.8h2.8v0.1c0 0.8 0.8 0.9 1.3 0.9 0.4 0 1.2 0 1.2-0.6 0-1.2-5.1-0.1-5.1-3.2 0-1.8 1.4-2.5 3.1-2.6l-0.1-2.1h1.7l-0.1 2.1c1.6 0.1 3.2 0.8 3.2 2.5z"></path>
  <path class="e" d="m207.8 175.4c0 1-0.8 1.9-1.9 1.9h-34.5v-3.9h34.5c1.1 0 1.9 0.9 1.9 2z"></path>
  <path class="e" d="m175.9 177.3h-30.8l-28.7-39h30.8z"></path>
  <path class="b" d="m148.1 156.1c2.8 4.1 3.8 7.4 2.1 7.4-1.7 0-5.4-3.3-8.2-7.4-2.9-4.1-3.8-7.4-2.1-7.4 1.6 0 5.3 3.3 8.2 7.4z"></path>
  <path class="h" d="m270.7 202c0 0-1.9 13.4-11.7 27l-71.3-0.2c0 0-13.8 24.1-28 58.1-1.4 3.4-2.9 6.8-4.2 10.3q-1.5 3.6-2.9 7.3c0 0-24.7-8.6-36-21.7 0 0 12.5-48.8 36.7-83 4.2-5.8 10.7-9.6 17.9-10.2 13.7-1.3 38.7-2.3 65.3 2.9z"></path>
  <path class="g" d="m159.7 286.9c-1.4 3.4-2.9 6.8-4.2 10.3-3.2-8.1-9.4-31-10.2-47.7z"></path>
  <path class="a" d="m130.6 287.2q0 0-0.1 0c-0.1 0-0.2-0.2-0.2-0.3 1.3-6.8 5.9-25.6 20.2-54 17.6-34.9 50.1-24.5 65.8-19.5l0.9 0.2c15.8 5.1 34.5 2.8 40.7-13.6 0.1-0.1 0.2-0.2 0.4-0.1 0.1 0 0.2 0.2 0.1 0.3-6.3 16.7-25.4 19.1-41.4 14l-0.9-0.3c-15.5-4.9-47.7-15.2-65.1 19.2-14.3 28.4-18.8 47.1-20.1 53.9-0.1 0.1-0.2 0.2-0.3 0.2z"></path>
  <path class="g" d="m210.9 190.9c-9.9 1.8-16.5 5.6-22.2 10.5 1.3 8.7 2.8 18.7 1.9 27.4h-4.6l-6.6-32.6z"></path>
  <path class="h" d="m184.1 200.1c7.4 28.1 11.7 56.9 12.6 85.9-11.1 6.9-24.3 9.5-37.2 7.1-15.4-31.2-20.2-66.5-13.7-100.6 0.9-4.4 3.1-8.5 6.6-11.3 0 0 0.1-0.1 0.1-0.1 2.9-2.2 6.4-3.4 10-3.6 21.7-1.1 43.3 3.5 62.8 13.1-14.4-1.3-28.8 2-41.2 9.5z"></path>
  <path class="g" d="m196.7 286c-11.1 6.9-24.3 9.5-37.2 7.1 10.8-7.7 24.4-10.3 37.2-7.1z"></path>
  <path class="a" d="m178.3 279.6q0 0 0 0c-0.1 0-0.2-0.1-0.2-0.3 0.6-26-3.1-51.8-11.1-76.5-1.1-3.5-0.7-7.2 1.2-10.3 1.9-3.1 5-5.2 8.6-5.8 13.8-2.2 27.6-1.7 41.1 1.6 0.1 0 0.2 0.2 0.2 0.3 0 0.2-0.2 0.3-0.3 0.2-13.5-3.2-27.2-3.8-40.9-1.6-3.4 0.6-6.4 2.6-8.2 5.6-1.8 2.9-2.3 6.5-1.2 9.8 8 24.8 11.8 50.7 11.1 76.7 0 0.2-0.1 0.3-0.3 0.3z"></path>
  <path class="d" d="m189.9 306.6c-3.8 7.1-19.9 25.1-32.1 22.5-1.9-0.3-3.4-2-3.5-3.9-0.8-11.4 14.9-14.9 17.3-24.2q0.2-0.8 0.3-1.5c1.5-7 0.2-11.7 0.2-11.7 0 0 5.1-2.5 13.5-2.5 0.1 1.8 0.3 3.9 0.7 6.2 0.7 5.5 1.9 11.8 3.6 15.1z"></path>
  <path class="e" d="m189.9 306.6c-3.8 7.1-19.9 25.1-32.1 22.5-1.9-0.3-3.4-2-3.5-3.9q-0.1-1.2 0.1-2.2c1.1-9.7 15-13.3 17.2-22q0.2-0.8 0.3-1.5c3.7-0.2 11.8-2.3 14.4-8 0.5 3.9 1.2 8.3 2.3 11.7q0.6 2 1.3 3.4z"></path>
  <path class="f" d="m189.9 306.6c-3.8 7.1-19.9 25.1-32.1 22.5-1.9-0.3-3.4-2-3.5-3.9q-0.1-1.2 0.1-2.2c0.7 4.2 6.7 4 13 0.8 6.2-3.1 17.1-13 21.2-20.6q0.6 2 1.3 3.4z"></path>
  <path class="b" d="m167.2 323.2c-0.1 0-0.3-0.1-0.3-0.2-0.6-3.9-4.1-6.7-8-6.4-0.2 0-0.3-0.1-0.3-0.3 0-0.1 0.1-0.3 0.3-0.3q0.2 0 0.5 0c4 0 7.4 2.9 8.1 6.9 0 0.1-0.1 0.3-0.3 0.3q0 0 0 0z"></path>
  <path class="b" d="m163.8 316.6q-0.1 0-0.2-0.1c-0.1-0.1-0.1-0.3 0-0.4 2.4-2.8 4.8-5 6.9-6.9 3.9-3.4 6.6-6 6.8-9.8 0-0.2 0.1-0.3 0.2-0.3q0 0 0 0c0.2 0 0.3 0.1 0.3 0.3-0.1 4.1-3 6.7-6.9 10.3-2.1 1.8-4.5 4-6.9 6.8q-0.1 0.1-0.2 0.1z"></path>
  <path class="g" d="m150.9 277.3c-0.1 0-0.2-0.1-0.3-0.2-4-14.8-8-38.1-7.9-54.3 0-0.2 0.2-0.3 0.3-0.3q0 0 0 0c0.2 0 0.3 0.1 0.3 0.3-0.1 16.1 3.9 39.4 7.9 54.1 0 0.2-0.1 0.3-0.2 0.4q-0.1 0-0.1 0z"></path>
  <path class="g" d="m258.6 198.9q-0.1 0-0.1 0l-22.1-6.1c-0.1-0.1-0.2-0.2-0.2-0.4 0.1-0.1 0.2-0.2 0.4-0.2l22 6.2c0.2 0 0.3 0.2 0.2 0.3 0 0.1-0.1 0.2-0.2 0.2z"></path>
  <path class="g" d="m235.3 140.2q0 0-0.1 0c-0.1-0.1-0.2-0.2-0.1-0.4 0.2-0.7 2.9-7 6.6-10.7v-3.9c0-0.1 0.2-0.3 0.3-0.3 0.2 0 0.3 0.2 0.3 0.3v4q0 0.1-0.1 0.2c-3.6 3.6-6.3 9.9-6.6 10.6q-0.1 0.2-0.3 0.2z"></path>
  <path class="a" d="m152.1 300.2q-0.1 0-0.1 0c-12.2-3.8-23.4-10.4-32.6-19.2-0.1-0.1-0.1-0.3 0-0.4 0.1-0.1 0.3-0.1 0.4 0 9.1 8.7 20.3 15.3 32.3 19 0.2 0.1 0.3 0.2 0.2 0.4 0 0.1-0.1 0.2-0.2 0.2z"></path>
  <path class="a" d="m160.4 288.8q-0.2 0-0.3-0.1c0-0.1 0-0.3 0.1-0.4 10.2-7 22.9-9.1 34.8-5.9 0.2 0 0.3 0.2 0.2 0.3 0 0.2-0.1 0.3-0.3 0.2-11.8-3.2-24.3-1-34.4 5.9q0 0-0.1 0z"></path>
  <path class="g" d="m193 196.7q-0.1 0-0.2-0.1c-0.1-0.2 0-0.3 0.1-0.4 3-1.5 13.3-6.2 25.4-6.2q1 0 2 0.1c0.2 0 0.3 0.1 0.3 0.3 0 0.1-0.2 0.2-0.3 0.2q-1 0-2 0c-12 0-22.2 4.6-25.2 6.1q0 0-0.1 0z"></path>
</svg>
