<?xml version="1.0" encoding="UTF-8"?>
<svg xmlns="http://www.w3.org/2000/svg" version="1.2" viewBox="0 0 400 400" width="400" height="400">
  <style>.a{fill:#ebebeb}.b{fill:#fff}.c{fill:#f5f5f5}.d{fill:#e0e0e0}.e{fill:#263238}.f{fill:#e8505b}.g{fill:#455a64}.h{fill:#ffbe9d}.i{fill:#eb996e}</style>
  <path class="a" d="m109 101.1c-15.1 0-27.4-12.3-27.4-27.4 0-15.2 12.3-27.4 27.4-27.4 15.2 0 27.5 12.2 27.5 27.4 0 15.1-12.3 27.4-27.5 27.4z"></path>
  <path class="b" d="m96.6 67.6h5.7v18.3h-5.7z"></path>
  <path class="b" d="m99.4 65.2c-1.8 0-3.3-1.5-3.3-3.4 0-1.9 1.5-3.4 3.3-3.4 1.9 0 3.4 1.5 3.4 3.4 0 1.9-1.5 3.4-3.4 3.4z"></path>
  <path class="b" d="m111.4 85.9h-5.5v-18.3h5.5v2.4c0 0 1.6-3 5.5-3 3.9 0 6.6 2.4 6.6 7.3 0 4.9 0 11.6 0 11.6h-5.6c0 0 0-7 0-9.6 0-2.7-1-4.1-3.1-4.1-2.3 0-3.4 1.5-3.4 4.1 0 2.8 0 9.6 0 9.6z"></path>
  <path class="c" d="m145.8 19.1l3.7 6.9 6.9 3.7-6.9 3.8-3.7 6.8-3.8-6.8-6.8-3.8 6.8-3.7z"></path>
  <path class="a" d="m302.3 205l2.8 5.2 5.2 2.8-5.2 2.8-2.8 5.1-2.8-5.1-5.2-2.8 5.2-2.8z"></path>
  <path class="d" d="m310.3 179.6l1.2 2.3 2.3 1.3-2.3 1.3-1.2 2.3-1.3-2.3-2.3-1.3 2.3-1.3z"></path>
  <path class="d" d="m119 21.7l1.2 2.3 2.4 1.3-2.4 1.3-1.2 2.3-1.3-2.3-2.3-1.3 2.3-1.3z"></path>
  <path class="d" d="m66.7 252.2l-28.3 0.2c0 0-0.7-13 11.2-14.9-2.9-1.2-5-4.2-5-7.7-0.1-4.6 3.4-8.3 7.7-8.4 4.3 0 7.8 3.7 7.9 8.3 0 3.5-2 6.5-4.9 7.7 11.9 1.6 11.4 14.8 11.4 14.8z"></path>
  <path class="a" d="m325.9 327.5c-0.8 1.2-2 2.2-3.1 3.3-1.6 1.4-2.9 2.7-4.5 4.1-1.6-1.4-3-2.7-4.6-4.1-1.1-1-2.3-2-3.1-3.3-0.8-1.2-1.4-2.8-1.1-4.3 0.4-2 2.4-3.6 4.5-3.6 2 0.1 3.9 1.8 4.2 3.8 0.3-2 2.2-3.7 4.2-3.8 2.1-0.1 4.1 1.5 4.5 3.6 0.3 1.4-0.2 3-1 4.3z"></path>
  <path class="d" d="m345.4 154.5l3-0.6 4.8-10.5-1.2-6.1c0 0 4.6-1.2 5.6 6.8 1 8.1 1.2 5.9 1.2 5.9 0 0 10-1.9 11-1.2 0.7 0.5 3 10.4 4.1 15.7 0.6 2.7-0.5 5.5-2.9 6.7q-0.5 0.2-1.1 0.3c-2.4 0.5-15.5 1-15.5 1l-5.3 1.1z"></path>
  <path class="d" d="m343.5 153.6l4 20.3-5.2 1.1-6-20.4z"></path>
  <path class="e" d="m199.2 375.7c-98 0-177.2-0.1-177.2-0.2 0-0.2 79.2-0.2 177.2-0.2 98 0 177.2 0 177.2 0.2 0 0.1-79.2 0.2-177.2 0.2z"></path>
  <path class="f" d="m314.7 146.5c-16.1 7.9-35.5 1.1-43.4-15-7.9-16.1-1.1-35.6 15-43.4 16.2-7.9 35.6-1.2 43.5 15 7.8 16.1 1.1 35.6-15.1 43.4z"></path>
  <path class="b" d="m284.7 118.9c-2.7-5.6-1.3-14.8 8.2-19.4 7.6-3.7 15.3-0.6 18.2 5.3 3.8 7.8 2.3 15.8-4.1 18.9-2.2 1.1-4.8 0.9-6.1-0.1 0 0 1.1 5.2 1.3 6.2 0.6 3.5-0.4 7.9-0.5 8.2 0 0.3-0.4 0.4-0.5 0.2-0.3-0.4-2.8-4.1-3.6-7.6-0.4-1.9-2.7-12.2-2.7-12.2 0 0-1.3-0.9-2.2-2.8-1.5-3-0.8-6 1.3-7 1.8-0.9 3.4 0 4.2 1.6 0.8 1.9 1 5.2 1.6 8 0.6 2.3 3 3.3 5.1 2.3 3.7-1.8 3.9-7.9 1.1-13.7-2.1-4.4-6.6-6.2-12-3.6-6 2.9-7.6 9.3-5.2 14.3 0.9 1.8 2 2.7 3.3 3.3 0.5 0.3 0.7 0.4 0.8 1 0.1 0.4 0.3 1.4 0.4 1.8 0.1 0.5-0.3 0.9-0.8 1-3.3 0.2-6.1-2.2-7.8-5.7z"></path>
  <path class="f" d="m347.2 238.2c-11.6-4.4-17.3-17.4-12.9-28.9 4.4-11.6 17.3-17.4 28.9-13 11.6 4.4 17.4 17.4 13 29-4.5 11.5-17.4 17.3-29 12.9z"></path>
  <path fill-rule="evenodd" class="b" d="m366.8 221.4c-2.4 6.1-9.3 9.2-15.5 6.8-2-0.7-3.7-1.9-5-3.4l-7-0.4 4.4-5.3c-0.4-2-0.3-4.2 0.6-6.4q0.1-0.2 0.2-0.4c2.5-5.9 9.2-8.8 15.3-6.4 6.1 2.3 9.3 9.1 7.1 15.2q0 0.1-0.1 0.3zm-1.8-0.7q0.2-0.4 0.3-0.8c1.4-5-1.2-10.4-6.2-12.3-4.9-1.8-10.4 0.3-12.7 4.9q-0.2 0.5-0.3 0.9c-0.8 2.1-0.9 4.2-0.4 6.2l-2.5 3.1 4.1 0.2c1.1 1.6 2.7 2.8 4.6 3.6 5.3 2 11.1-0.6 13.1-5.8z"></path>
  <path class="b" d="m360.2 221.8c0.1 0.1-0.1 0.7-0.6 1.2-0.5 0.6-1.9 0.8-2.4 0.6-0.5-0.1-0.6 0.3-3-1.9-2.4-2.2-3.1-5.7-3.2-6 0-0.1-0.3-1.2-0.2-2.2q0-0.5 0.2-1c0.5-1.4 1.5-1.8 1.8-2 0.4-0.1 0.7-0.1 0.9 0q0.3 0.1 0.5 0.2c0.2 0.1 0.4 0.1 0.5 0.7 0 0.6 0 2.2 0 2.4 0.1 0.1 0 0.3-0.1 0.5q-0.2 0.1-0.3 0.2-0.1 0.1-0.2 0.1c-0.2 0.1-0.4 0.3-0.6 0.3-0.2 0.1-0.4 0.2-0.3 0.5 0 0.4 0.3 1.5 0.8 2.5 0.7 1.4 1.5 2 1.7 2.2 0.2 0.3 0.4 0.3 0.6 0.2 0.3-0.1 1-0.5 1.3-0.7 0.3-0.2 0.5-0.1 0.7 0.1 0.2 0.2 1.3 1.3 1.5 1.6 0.3 0.2 0.4 0.4 0.4 0.5z"></path>
  <path class="f" d="m55.7 134.6c-9.4 0-17.1-7.6-17.1-17.1 0-9.5 7.7-17.1 17.1-17.1 9.5 0 17.1 7.6 17.1 17.1 0 9.5-7.6 17.1-17.1 17.1z"></path>
  <path class="b" d="m52.1 121.7c-1.6-0.1-3-1.1-3.5-2.6q0.9 0.1 1.7-0.1c-1.8-0.3-3-2-3-3.7q0.8 0.4 1.7 0.5c-1.6-1.1-2.1-3.3-1.1-5 1.8 2.2 4.6 3.7 7.7 3.9-0.6-2.4 1.2-4.6 3.6-4.6 1.1 0 2.1 0.4 2.7 1.2q1.3-0.3 2.4-0.9c-0.3 0.8-0.9 1.6-1.6 2q1.1-0.1 2.1-0.6-0.7 1.2-1.9 2c0.3 5.2-3.6 11.1-10.6 11.1-2.1 0-4-0.6-5.7-1.7 2 0.3 4-0.3 5.5-1.5z"></path>
  <path class="g" d="m86.4 326.1c-15.8 3.8-31.7-6-35.4-21.8-3.8-15.8 6-31.7 21.8-35.5 15.8-3.8 31.7 6 35.4 21.8 3.8 15.8-6 31.7-21.8 35.5z"></path>
  <path fill-rule="evenodd" class="b" d="m82.4 280.3c1.6-0.3 2.9-0.3 3.9-0.2 1.2 0.2 2.2 0.5 3.3 1.2 1 0.6 1.8 1.4 2.4 2.3 0.7 0.9 1.2 2 1.7 3.7 0.4 1.6 0.6 2.1 1.6 6.4 1 4.3 1.1 4.8 1.5 6.5 0.3 1.7 0.3 2.9 0.1 4-0.1 1.1-0.5 2.1-1.1 3.2-0.7 1.1-1.4 1.8-2.4 2.5-0.9 0.6-2 1.1-3.6 1.6-1.7 0.5-2.2 0.6-6.5 1.7-4.2 1-4.8 1.1-6.5 1.4-1.6 0.3-2.8 0.3-3.9 0.2-1.2-0.2-2.2-0.5-3.3-1.2-1-0.6-1.8-1.4-2.4-2.3-0.7-0.9-1.2-2-1.7-3.7-0.4-1.6-0.6-2.1-1.6-6.4-1-4.3-1.1-4.8-1.4-6.5-0.4-1.7-0.4-2.9-0.2-4 0.1-1.1 0.5-2.1 1.1-3.2 0.7-1.1 1.4-1.8 2.4-2.5 0.9-0.6 2-1.1 3.6-1.6 1.7-0.5 2.2-0.6 6.5-1.7 4.2-1 4.8-1.1 6.5-1.4zm-12.2 5.9c-1.5 0.4-2.3 0.9-2.8 1.2-0.6 0.5-1.1 0.9-1.5 1.6-0.4 0.7-0.6 1.3-0.7 2.1-0.1 0.6-0.2 1.5 0.1 3 0.3 1.7 0.4 2.2 1.4 6.4 1 4.2 1.2 4.7 1.6 6.3 0.5 1.6 0.9 2.3 1.3 2.8 0.4 0.7 0.9 1.1 1.6 1.6 0.7 0.4 1.3 0.6 2.1 0.7 0.6 0.1 1.5 0.1 3-0.2 1.7-0.3 2.2-0.4 6.4-1.4 4.2-1 4.7-1.1 6.3-1.6 1.5-0.4 2.3-0.9 2.8-1.2 0.6-0.5 1.1-0.9 1.5-1.6 0.4-0.7 0.6-1.3 0.8-2.1 0-0.6 0.1-1.5-0.2-3-0.3-1.7-0.4-2.2-1.4-6.4-1-4.2-1.2-4.7-1.6-6.3-0.5-1.6-0.9-2.3-1.3-2.8-0.4-0.7-0.9-1.1-1.6-1.6-0.6-0.4-1.3-0.6-2.1-0.7-0.6-0.1-1.4-0.1-3 0.2-1.7 0.3-2.2 0.4-6.4 1.4-4.2 1-4.7 1.1-6.3 1.6z"></path>
  <path fill-rule="evenodd" class="b" d="m87.7 295.5c1 4.5-1.7 9-6.2 10-4.4 1.1-8.9-1.7-10-6.1-1-4.5 1.7-9 6.2-10 4.4-1.1 8.9 1.7 10 6.1zm-2.9 0.7c-0.7-2.9-3.6-4.7-6.4-4-2.9 0.7-4.7 3.6-4 6.5 0.7 2.9 3.6 4.7 6.4 4 2.9-0.7 4.7-3.6 4-6.5z"></path>
  <path class="b" d="m87.9 286.6c0.2 1.1-0.4 2.1-1.5 2.4-1 0.2-2-0.4-2.3-1.5-0.2-1 0.4-2.1 1.4-2.3 1.1-0.3 2.1 0.4 2.4 1.4z"></path>
  <path class="g" d="m309.4 300.2c-7.5 0-13.7-6.2-13.7-13.8 0-7.5 6.2-13.7 13.7-13.7 7.6 0 13.8 6.2 13.8 13.7 0 7.6-6.2 13.8-13.8 13.8z"></path>
  <path class="b" d="m307.4 286.4h-1.8v-2.8h1.8c0 0 0-0.4 0-2.3 0-2.1 1.1-3.2 3.6-3.2 0.4 0 2.3 0 2.3 0v3c0 0-1.3 0-1.8 0-0.7 0-0.8 0.2-0.8 0.9 0 0.5 0 1.6 0 1.6h2.6l-0.3 2.8h-2.3v8.3h-3.3z"></path>
  <path class="e" d="m128.3 75.4c0-13.3 10.7-24 24-24h110.4c13.3 0 24 10.7 24 24v276.6c0 13.3-10.7 24-24 24h-110.4c-13.3 0-24-10.7-24-24z"></path>
  <path class="b" d="m279.4 78l-0.1 270c0 9.3-7.5 16.8-16.8 16.8l-110.1-0.1c-9.3 0-16.8-7.5-16.8-16.8l0.1-269.9c0-9.3 7.5-16.9 16.8-16.9l18.7 0.1h7.5c2.9 0 5.2 2.4 5.2 5.4v3.9c0 3 2.3 5.4 5.2 5.4h41.7c2.9 0 5.2-2.4 5.2-5.4v-3.9c0-3 2.3-5.4 5.2-5.4h21.4c9.3 0 16.8 7.6 16.8 16.8z"></path>
  <path class="e" d="m264.2 83.1c0 0.1-2.8 0.2-6.2 0.2-3.5 0.1-6.2 0-6.2-0.1 0 0 2.7-0.1 6.2-0.1 3.4-0.1 6.2 0 6.2 0z"></path>
  <path class="e" d="m264.2 86.3c0 0.1-2.8 0.2-6.2 0.2-3.4 0-6.2 0-6.2-0.1 0 0 2.8-0.1 6.2-0.2 3.4 0 6.2 0 6.2 0.1z"></path>
  <path class="e" d="m264.2 89.5c0 0.1-2.7 0.2-6.2 0.2-3.4 0-6.2 0-6.2-0.1 0-0.1 2.8-0.2 6.2-0.2 3.5 0 6.2 0 6.2 0.1z"></path>
  <path class="e" d="m147.2 92.6q0 0 0.3 0 0.4 0 0.9-0.1 1.3 0 3.4 0l-0.1 0.1q0-1.2 0-2.5c0-0.4-0.1-0.8 0-1.4 0.1-0.5 0.5-0.9 1.1-1 0.5 0 1 0 1.6 0 0.6 0.1 1.1 0.7 1.1 1.3q0 1.7 0 3.5l-0.1-0.1q2 0 4.2-0.1l-0.2 0.2q0-2.6 0-5.3 0-0.6 0-1.3c0-0.4-0.3-0.7-0.6-1q-1-0.9-1.9-1.8-0.9-0.9-1.8-1.8-0.4-0.4-0.8-0.8c-0.3-0.3-0.5-0.6-0.9-0.7-0.3-0.1-0.7 0-1 0.2-0.2 0.2-0.5 0.5-0.7 0.8q-0.8 0.8-1.6 1.5c-0.9 1-1.9 1.9-2.6 2.8-0.3 0.4-0.2 1-0.2 1.5q0 0.8 0 1.5 0 1.4 0 2.4-0.1 0.9-0.1 1.5 0 0.6 0 0.6 0 0 0-0.5 0-0.6-0.1-1.5 0-1 0-2.4 0-0.7 0-1.5 0-0.4-0.1-0.9 0-0.4 0.3-0.9c0.8-0.9 1.7-1.8 2.7-2.8q0.7-0.7 1.5-1.5c0.2-0.3 0.4-0.5 0.8-0.8 0.3-0.3 0.8-0.4 1.2-0.3 0.4 0.1 0.7 0.5 1 0.8q0.4 0.4 0.9 0.8 0.8 0.9 1.8 1.8 0.9 0.9 1.8 1.8c0.1 0.1 0.3 0.3 0.5 0.5q0.2 0.3 0.2 0.7 0 0.7 0 1.3 0 2.7 0 5.3v0.2h-0.1q-2.2 0-4.2 0h-0.2v-0.2q0-1.8 0-3.5c0-0.5-0.4-1-0.9-1-0.4-0.1-1 0-1.5 0-0.4 0-0.8 0.4-0.9 0.8 0 0.4 0 0.9 0 1.3q0 1.3 0 2.5v0.1h-0.1q-2.1-0.1-3.4-0.1-0.5 0-0.9 0-0.3 0-0.3 0z"></path>
  <path class="g" d="m220 303.5c0 0.1-0.4 0.1-1.2 0.1q-1.2 0-3.1 0.1c-2.7 0-6.4 0-10.4 0-4.1 0-7.8 0-10.4 0q-1.9-0.1-3.2-0.1c-0.7 0-1.1 0-1.1-0.1 0 0 0.4 0 1.1-0.1q1.3 0 3.2 0c2.6-0.1 6.3-0.1 10.4-0.1 4 0 7.7 0 10.4 0.1q1.9 0 3.1 0c0.8 0.1 1.2 0.1 1.2 0.1z"></path>
  <path class="g" d="m228.4 311c-20.9 0-37.8-0.1-37.8-0.2 0-0.2 16.9-0.2 37.8-0.2 20.9 0 37.8 0 37.8 0.2 0 0.1-16.9 0.2-37.8 0.2z"></path>
  <path class="g" d="m216.6 317.8c-14.4 0-26-0.1-26-0.2 0-0.1 11.6-0.2 26-0.2 14.4 0 26 0.1 26 0.2 0 0.1-11.6 0.2-26 0.2z"></path>
  <path fill-rule="evenodd" class="e" d="m267.7 330.8l-2.3-2.3-2.3 2.2v-6.8l4.6 0.1zm-2.3-2.7v0.1l2.1 2.1v-6.2h-4.1l-0.1 6z"></path>
  <path fill-rule="evenodd" class="e" d="m205.1 329.9l-0.8-0.3q-0.6 0.3-1.1 0.3c-1.2 0-2.3-1-2.3-2.3 0-1.3 1-2.3 2.3-2.3 1.3 0 2.3 1 2.3 2.3 0 0.5-0.2 1.1-0.6 1.5zm-1.9-4.5c-1.2 0-2.1 1-2.1 2.2 0 1.2 0.9 2.1 2.1 2.1q0.5 0 1.1-0.3l0.6 0.2-0.1-0.6c0.4-0.4 0.6-0.9 0.6-1.5-0.1-1.1-1-2.1-2.2-2.1z"></path>
  <path fill-rule="evenodd" class="e" d="m210.5 329.6l-1-2.3-1.8-1.7h4.3zm-2.3-3.8l1.5 1.4 0.8 2 1.4-3.4z"></path>
  <path class="e" d="m209.7 327.3l-0.1-0.2 2.4-1.5v0.1z"></path>
  <path class="f" d="m198 327.4c-0.2 0.4-0.6 0.7-0.9 1-0.5 0.5-0.9 0.9-1.4 1.3-0.5-0.4-0.9-0.8-1.4-1.2-0.3-0.3-0.7-0.6-0.9-1-0.3-0.4-0.4-0.9-0.4-1.3 0.2-0.6 0.8-1.1 1.4-1.1 0.6 0 1.2 0.5 1.3 1.1 0.1-0.6 0.6-1.1 1.3-1.1 0.6-0.1 1.2 0.4 1.3 1 0.1 0.5 0 0.9-0.3 1.3z"></path>
  <path class="e" d="m272.5 336.8q0 0 0-0.8 0-0.7 0-2.2c0-1.9 0-4.7 0-8.4-0.1-7.4-0.1-18-0.1-31.5l0.1 0.2c-30.8 0-76.7 0-127.9 0l0.2-0.2c0 14.9 0 29.4 0 42.9l-0.2-0.2c36.8 0 68.8 0.1 91.5 0.1 11.4 0 20.5 0 26.8 0q4.7 0.1 7.1 0.1 1.2 0 1.9 0 0.6 0 0.6 0 0 0-0.6 0-0.6 0-1.8 0-2.5 0-7.1 0c-6.3 0.1-15.4 0.1-26.7 0.1-22.8 0-54.8 0.1-91.7 0.1h-0.2v-0.2c0-13.5 0-28 0-42.9v-0.2h0.2c51.2 0.1 97.1 0.1 127.9 0.1h0.2v0.1c-0.1 13.5-0.1 24.2-0.1 31.6 0 3.6 0 6.5 0 8.4q-0.1 1.4-0.1 2.2 0 0.7 0 0.7z"></path>
  <path class="a" d="m185.3 301.3l-0.1 28.3-35.5-0.2 0.2-28.3z"></path>
  <path class="e" d="m185.3 301.3q0 0-0.1 0-0.2 0-0.5 0-0.7 0-2 0c-1.7 0-4.1 0-7.2 0-6.3 0-15.1 0-25.6 0l0.2-0.2c0 8.4-0.1 18.1-0.1 28.3 0 0.1-0.4-0.4-0.2-0.2h0.1 0.2 0.3 0.6 1.2q1.2 0 2.4 0 2.4 0.1 4.8 0.1 4.7 0 9.2 0c5.9 0.1 11.5 0.1 16.6 0.2l-0.2 0.1c0.1-8.5 0.2-15.5 0.2-20.5 0.1-2.5 0.1-4.4 0.1-5.7q0-1 0-1.6 0-0.5 0-0.5 0.1 0 0.1 0.5 0 0.5 0 1.5c0 1.3 0 3.3 0 5.7 0 5 0 12.1 0 20.6v0.2h-0.2c-5.1 0-10.7 0-16.6-0.1q-4.5 0-9.2 0-2.4 0-4.8 0-1.2 0-2.4-0.1h-1.2-0.6-0.3-0.2-0.1c0.1 0.2-0.3-0.2-0.3-0.2 0.1-10.2 0.2-19.9 0.2-28.3v-0.2h0.2c10.6 0.1 19.4 0.2 25.7 0.2 3.1 0.1 5.5 0.1 7.2 0.1q1.2 0.1 1.9 0.1 0.3 0 0.5 0 0.2 0 0.1 0z"></path>
  <path class="d" d="m151.1 302.9l33 0.2-0.2 24.7-32.9-0.1z"></path>
  <path class="c" d="m151 327.7l11.6-15.4 7 9.7 4.9-5.1 9.4 10.9z"></path>
  <path class="c" d="m170.1 313.1c-1.4 0-2.5-1.2-2.5-2.6 0-1.5 1.1-2.6 2.5-2.6 1.5 0 2.6 1.1 2.6 2.6 0 1.4-1.1 2.6-2.6 2.6z"></path>
  <path class="e" d="m209.7 117.5q0 0-0.4 0-0.5 0.1-1.1 0.1-1.5 0-4 0c-3.4 0.1-8 0.1-13.2 0.1-5.1 0-9.8 0-13.1-0.1q-2.5 0-4 0-0.7 0-1.1-0.1-0.4 0-0.4 0 0 0 0.4 0 0.4-0.1 1.1-0.1 1.5 0 4 0c3.3-0.1 8-0.1 13.1-0.1 5.2 0 9.8 0 13.2 0.1q2.5 0 4 0 0.6 0 1.1 0.1 0.4 0 0.4 0z"></path>
  <path fill-rule="evenodd" class="e" d="m262 274.1l-3.5-3.5-3.3 3.3v-10h6.8zm-3.5-3.9l0.2 0.1 3 3.1v-9.2h-6.2v9z"></path>
  <path fill-rule="evenodd" class="e" d="m173.3 273.1l-1.6-0.8q-1.2 0.7-2.1 0.7c-2.5 0-4.6-2-4.6-4.5 0-2.5 2-4.6 4.5-4.6 2.5 0 4.6 2 4.6 4.5 0 1.1-0.4 2.2-1.1 3zm-3.9-8.8c-2.3 0-4.2 1.9-4.1 4.2 0 2.4 1.9 4.3 4.2 4.2q0.9 0 2-0.6h0.1l1.2 0.5-0.3-1.2h0.1c0.7-0.8 1.1-1.9 1.1-2.9 0-2.3-1.9-4.2-4.3-4.2z"></path>
  <path fill-rule="evenodd" class="e" d="m183.8 272.4l-1.8-4.6-3.5-3.2 8.5-0.1zm-4.6-7.4l3 2.7 1.6 3.9 2.6-6.7z"></path>
  <path class="e" d="m182.3 267.8l-0.1-0.2 4.6-3.1 0.2 0.3z"></path>
  <path class="f" d="m159.3 268.1c-0.4 0.8-1.1 1.4-1.8 2-0.9 0.9-1.7 1.7-2.7 2.5-0.9-0.8-1.8-1.6-2.7-2.4-0.7-0.6-1.4-1.2-1.9-2-0.5-0.7-0.8-1.7-0.6-2.6 0.2-1.2 1.4-2.1 2.6-2.1 1.2 0 2.4 1 2.6 2.2 0.1-1.2 1.2-2.2 2.5-2.3 1.2 0 2.4 0.9 2.6 2.2 0.2 0.8-0.1 1.8-0.6 2.5z"></path>
  <path class="a" d="m159.2 123.3c-3.2 0-5.8-2.6-5.8-5.8 0-3.2 2.6-5.8 5.8-5.8 3.2 0 5.7 2.6 5.7 5.8 0 3.2-2.5 5.8-5.7 5.8z"></path>
  <path class="g" d="m205.8 241.2c-29.9 0-54.1-0.1-54.1-0.2 0-0.1 24.2-0.2 54.1-0.2 29.9 0 54 0.1 54 0.2 0 0.1-24.1 0.2-54 0.2z"></path>
  <path class="g" d="m205.8 232.2c-29.9 0-54.1-0.1-54.1-0.2 0-0.1 24.2-0.2 54.1-0.2 29.9 0 54 0.1 54 0.2 0 0.1-24.1 0.2-54 0.2z"></path>
  <path class="g" d="m181.1 250.3c-16.2 0-29.4-0.1-29.4-0.2 0-0.1 13.2-0.2 29.4-0.2 16.3 0 29.5 0.1 29.5 0.2 0 0.1-13.2 0.2-29.5 0.2z"></path>
  <path class="e" d="m201 350.6c-1.3 0-2.3-1.1-2.3-2.4 0-1.3 1-2.3 2.3-2.3 1.3 0 2.3 1 2.3 2.3 0 1.3-1 2.4-2.3 2.4z"></path>
  <path class="e" d="m208.1 350.6c-1.2 0-2.3-1.1-2.3-2.3 0-1.3 1.1-2.4 2.3-2.4 1.3 0 2.3 1.1 2.3 2.4 0 1.2-1 2.3-2.3 2.3z"></path>
  <path class="e" d="m215.2 350.6c-1.2 0-2.2-1-2.2-2.3 0-1.3 1-2.3 2.2-2.3 1.3 0 2.3 1 2.3 2.3 0 1.3-1 2.3-2.3 2.3z"></path>
  <path class="d" d="m145.3 128.9h128v78.2l-127.9 0.1z"></path>
  <path class="c" d="m157.2 207.2l36.6-49.1 22.8 30.7 15.4-16.4 30.2 34.7z"></path>
  <path class="c" d="m217.9 160.4c-4.6 0-8.2-3.7-8.2-8.3 0-4.6 3.6-8.3 8.2-8.3 4.6 0 8.3 3.7 8.3 8.3 0 4.6-3.7 8.3-8.3 8.3z"></path>
  <path class="e" d="m273 279.9c0-1.7-0.1-72.4-0.2-177l0.2 0.2c-38.6 0-82.1 0-128 0l0.2-0.2c0 66.2 0 127.4 0 177l-0.2-0.2c77.6 0.1 126.6 0.2 128 0.2-1.4 0-50.4 0-128 0.2h-0.2v-0.2c0-49.6 0-110.8 0-177v-0.2h0.2c45.9 0 89.4 0 128 0h0.1v0.2c0 52.4 0 96.6-0.1 127.8 0 15.6 0 27.9 0 36.3 0 4.2 0 7.4 0 9.6q0 1.6 0 2.5 0 0.8 0 0.8z"></path>
  <path class="h" d="m203.4 364.7h-42.4l19.7-65.5-6.7-26.7c-0.6-2.5 0.7-5 3.1-5.9 1.9-0.5 3.5-0.6 4.9-0.1l16.5-7.8c3.1-1.1 6.6 0.8 7 4 0.6 5 3.9 18.2 7.5 13.5q0.1-0.1 0.2-0.3c6.8-7 11-7.7 13.5-7.9 3.4-0.3 5 2.5 3.4 4.4-0.3 0.3-0.6 0.6-1 0.8-0.1 0.1-0.3 0.2-0.5 0.3-2 1.6-3.3 1.6-6.2 4.6-1.9 1.8-3.9 4.5-4.7 7-0.9 2.7-1.5 5.2-2 7.2l-2.9 9.5z"></path>
  <path class="f" d="m245.4 241.7l-13.1 25.7-6.5-1.8-33 26.8c-2.8 2.3-6.9 1.9-9.3-0.9l-12.5-14.5c0 0 25.3-10.9 29.9-20 4.7-9-0.7-11-0.7-11l11.9-13.6z"></path>
  <path class="f" d="m201.5 232.2c0 0-29.8-12.1-53-14.7-23.2-2.6-60.3 7.7-65.7 7.8-5.5 0.1-16.3-13.7 11.1-73.5 27.5-59.7 42-53 45.3-53.2 3.3-0.2 16 34.3 43 60.3 27 26 46.2 30.3 46.2 30.3z"></path>
  <path class="f" d="m269.2 221.7l-6.5 12.5-3 5.6c-4 7.6-13.3 10.8-21.2 7.2l-41.1-14.4 24-54.7 41.1 21.9c7.9 4.2 10.9 14 6.7 21.9z"></path>
  <g style="opacity:.4">
    <path d="m269.2 221.7l-6.5 12.5-3 5.6c-4 7.6-13.3 10.8-21.2 7.2l-41.1-14.4 24-54.7 41.1 21.9c7.9 4.2 10.9 14 6.7 21.9z"></path>
  </g>
  <path class="f" d="m135.5 100.1c7.1 3.2 1 32.1-13.6 64.4-14.6 32.4-32.2 56-39.3 52.8-7.1-3.2-1.1-32 13.6-64.4 14.6-32.4 32.2-56 39.3-52.8z"></path>
  <g style="opacity:.5">
    <path d="m135.5 100.1c7.1 3.2 1 32.1-13.6 64.4-14.6 32.4-32.2 56-39.3 52.8-7.1-3.2-1.1-32 13.6-64.4 14.6-32.4 32.2-56 39.3-52.8z"></path>
  </g>
  <path class="f" d="m272.7 239.7l-11.1-3.5 6.9-13.1 8.4 5.2z"></path>
  <g style="opacity:.6">
    <path d="m269.5 223.7l-5.6 13.2-2.3-0.7 6.9-13.1z"></path>
  </g>
  <path class="f" d="m260.8 226.1c-0.2 0.4-5.7-1.8-12.4-4.8-6.7-3-12-5.8-11.9-6.2 0.2-0.3 5.8 1.9 12.5 4.9 6.7 3 12 5.8 11.8 6.1z"></path>
  <path class="f" d="m264.2 218.3c-0.1 0.4-5.2-1.8-11.2-4.7-6.1-3-10.8-5.7-10.6-6.1 0.1-0.3 5.2 1.8 11.2 4.8 6.1 2.9 10.8 5.6 10.6 6z"></path>
  <path class="f" d="m256.5 234.3c-0.1 0.2-1.4-0.1-3.5-0.7-1.1-0.4-2.3-0.8-3.7-1.3-1.4-0.5-2.8-1.2-4.3-1.9-6.1-2.8-10.8-5.6-10.7-5.9 0.2-0.4 5.2 1.8 11.3 4.6 1.5 0.7 2.9 1.5 4.2 2 1.3 0.6 2.5 1.1 3.5 1.5 2 0.9 3.2 1.5 3.2 1.7z"></path>
  <path class="f" d="m108.6 184.2c0 0-17.6-3.7-8.5-26.3 9.2-22.5 25.9-12.2 25.9-12.2-4.4 14.5-10.2 27.3-17.4 38.5z"></path>
  <g style="opacity:.5">
    <path d="m143.7 118.8c0.1 0-0.1 1.6-0.6 4.3-0.6 2.8-1.3 6.8-2.4 11.7q-1 3.6-2.3 7.9-0.6 2.1-1.3 4.4-0.3 1.1-0.7 2.3c-0.2 0.8-0.5 1.5-0.8 2.3q-1.8 4.7-3.8 9.7-0.5 1.3-1 2.6c-0.3 0.8-0.8 1.6-1.2 2.5q-1.2 2.5-2.4 5.1-1.3 2.6-2.5 5.1c-0.5 0.9-0.8 1.7-1.3 2.5q-0.7 1.2-1.4 2.4-2.7 4.6-5.3 8.9c-0.4 0.8-0.8 1.5-1.3 2.1q-0.7 1-1.4 2-1.3 1.9-2.6 3.7-2.6 3.7-4.8 6.7c-3.2 3.9-5.9 7-7.7 9.1-1.9 2.1-2.9 3.2-3 3.2-0.1-0.1 0.8-1.4 2.6-3.6 1.7-2.2 4.2-5.4 7.3-9.3q2.1-3.1 4.6-6.7 1.3-1.9 2.6-3.8 0.7-1 1.3-2c0.5-0.6 0.9-1.3 1.3-2.1q2.5-4.3 5.2-8.9 0.7-1.2 1.4-2.4c0.4-0.8 0.8-1.6 1.2-2.4q1.2-2.5 2.5-5.1 1.2-2.6 2.4-5.1c0.4-0.8 0.9-1.6 1.2-2.5q0.5-1.3 1-2.5 2-5 3.8-9.7c0.3-0.7 0.7-1.5 0.9-2.2q0.4-1.2 0.7-2.3 0.7-2.3 1.4-4.4 1.3-4.2 2.4-7.8c1.2-4.8 2.1-8.7 2.8-11.5 0.7-2.7 1.1-4.2 1.2-4.2z"></path>
  </g>
  <g style="opacity:.4">
    <path d="m187.6 268.4c16.1-9.2 14.5-16 15.1-16 2.5-0.3 4.3 0.3 6.7 1.1 0.9 0.3 1.9 0.6 2.3 1.4 0.9 1.4-0.1 3.3-1.5 4-1.4 0.7-3.1 0.6-4.7 0.4 1.4 2 2.7 4.1 3.3 6.3 0.7 2.3 0.6 4.9-0.8 6.9-1.3 1.9-4.2 2.9-6.2 1.7-0.2 1.9-0.6 3.8-1.8 5.2-1.3 1.4-3.6 2.1-5.1 0.9 0 3.2-3 5.8-6.1 6.1-3.2 0.3-6.3-1.2-8.5-3.5-2.3-2.2-3.8-5-5.3-7.7 0 0 3-1.3 12.6-6.8z"></path>
  </g>
  <path class="i" d="m211.3 285c0 0-1.1-0.2-2.8-0.1-1.8 0-4.2 0.4-6.6 1.5-2.4 1.2-4.2 2.8-5.3 4.2-1.1 1.3-1.6 2.3-1.7 2.2q0 0 0.3-0.7c0.3-0.4 0.6-1 1.2-1.7 1.1-1.4 2.9-3.2 5.3-4.3 2.5-1.2 5-1.6 6.8-1.5 0.8 0 1.6 0.1 2 0.2q0.8 0.1 0.8 0.2z"></path>
  <path class="h" d="m179.7 267.5c0 0 0.7-3.2 3.5-5.1 2.9-1.9 6.4-0.1 6.4-0.1 0 0-0.5-1.9 1.1-4.2 0.8-1.2 2.6-1.4 4-1.4 1.2 0 2.4 0.4 3.3 1.2q3.8 3.2 6.9 7c1.1 1.4 2.3 3.2 1.5 5-0.7 1.4-2.3 2.2-3.8 2-2.8-0.2-4.6-2.2-6.3-4.1 0.8 1 1.7 2.1 2.2 3.3 0.6 1.7 0.6 3.7-0.9 4.8-0.5 0.4-1 0.5-1.5 0.6-4 0.9-4.3-1.7-5.9-3.6-1.1-1.4-2.9-2.6-4.2-3.9-0.3-0.4-1.1-0.2-0.5 0.8 1.3 2.1 3 4.2 4.7 6.9 0.7 1.1 1.6 2.8 1.1 4.1-0.6 1.5-1.7 1.7-3.4 1.4-1.6-0.3-3.6-2.4-4.8-3.6-2.7-2.5-4.5-5.2-7.1-7.7z"></path>
  <path class="h" d="m194.8 255.9c-1.1-1.1-1.4-3.1-0.5-4.8 0.6-1.1 1.3-2.3 2.1-2.5 3.3-1.2 18 1.4 17.9 4.6-0.2 3.3-1.2 4.8-9.2 3.7-1.4-0.2-3.6-0.5-3.6-0.5l-1.9 2.9z"></path>
  <path class="i" d="m197.4 269.5c-0.1 0.1-1.2-2.2-3.5-4.2-2.3-2.1-4.6-3-4.6-3.1 0-0.1 0.6 0.1 1.6 0.5 0.9 0.5 2.1 1.2 3.3 2.3 1.1 1 2 2.1 2.5 3 0.5 0.9 0.7 1.5 0.7 1.5z"></path>
  <path class="i" d="m199.9 259.5c-0.1 0.1-1.1-0.7-2.4-1.5-0.7-0.4-1.3-0.8-1.7-1-0.5-0.2-0.8-0.2-0.8-0.3 0 0 0.4-0.1 0.9 0.1 0.5 0.1 1.1 0.4 1.8 0.8 1.4 0.9 2.2 1.8 2.2 1.9z"></path>
  <path class="i" d="m202.3 256.5c0 0.1-1.3 0.1-2.8-0.3-0.8-0.3-1.4-0.6-1.8-1-0.4-0.3-0.6-0.6-0.5-0.6 0-0.1 0.9 0.8 2.4 1.2 1.5 0.4 2.7 0.6 2.7 0.7z"></path>
  <path class="i" d="m188.1 273.5c-0.1 0.1-0.6-0.6-1.4-1.7-0.7-1.1-1.7-2.7-3.4-3.9-1.6-1.2-3.5-1.5-4.8-1.3-1.3 0.2-2 0.8-2.1 0.7 0 0 0.2-0.2 0.5-0.4 0.3-0.2 0.8-0.4 1.5-0.6 1.4-0.2 3.4 0 5.2 1.3 1.7 1.2 2.7 2.9 3.4 4 0.7 1.2 1.1 1.9 1.1 1.9z"></path>
  <path class="i" d="m199.3 305.9c0 0.1-2.7 0.5-6 0.9-3.3 0.4-6 0.6-6 0.4-0.1-0.1 2.6-0.5 5.9-0.8 3.4-0.4 6.1-0.6 6.1-0.5z"></path>
  <path class="f" d="m325.3 39.9l0.9 1.6 1.7 0.9-1.7 0.9-0.9 1.7-0.9-1.7-1.6-0.9 1.6-0.9z"></path>
  <path class="f" d="m344.2 80.8l0.9 1.7 1.6 0.9-1.6 0.9-0.9 1.6-0.9-1.6-1.7-0.9 1.7-0.9z"></path>
  <path class="f" d="m41.5 190l0.9 1.7 1.7 0.9-1.7 0.9-0.9 1.6-0.9-1.6-1.6-0.9 1.6-0.9z"></path>
  <path class="f" d="m300.5 50l2.1 3.9 3.8 2-3.8 2.1-2.1 3.8-2.1-3.8-3.8-2.1 3.8-2z"></path>
  <path class="f" d="m58.4 164.1l2.1 3.8 3.8 2.1-3.8 2-2.1 3.8-2-3.8-3.8-2 3.8-2.1z"></path>
  <path class="f" d="m349.3 254.9l2.1 3.8 3.8 2-3.8 2.1-2.1 3.8-2.1-3.8-3.8-2.1 3.8-2z"></path>
</svg>
