<?xml version="1.0" encoding="UTF-8"?>
<svg xmlns="http://www.w3.org/2000/svg" version="1.1" id="Layer_1" x="0" y="0" viewBox="0 0 247 283" xml:space="preserve">
  <style>.st0{fill:#dfefec}.st1{fill:#ffba55}.st2{fill:#499da0}.st3{fill:#2c878d}.st4{fill:#fff}.st5{fill:#113952}.st6,.st8{opacity:.75;fill:#fff;enable-background:new}.st8{opacity:.6;fill:#b3d1ce}.st10{fill:#5e1212}.st11{fill:#ff8f6a}.st12{fill:#f55a29}.st13{fill:#f7e4cb}.st14{fill:#b3d1ce}</style>
  <ellipse class="st0" cx="120.3" cy="278.8" rx="197.2" ry="4.2"></ellipse>
  <circle class="st1" cx="238.4" cy="110.2" r="2.8"></circle>
  <circle class="st1" cx="222.5" cy="88.6" r="1.6"></circle>
  <circle class="st1" cx="18.7" cy="238.9" r="4"></circle>
  <circle class="st1" cx="28.9" cy="215.9" r="1.5"></circle>
  <circle class="st1" cx="227.3" cy="183.7" r="2.7"></circle>
  <circle class="st1" cx="268.3" cy="230.7" r="1"></circle>
  <circle class="st1" cx="51.9" cy="213.9" r="1.2"></circle>
  <circle class="st1" cx="10" cy="17.5" r="2.6"></circle>
  <circle class="st1" cx="2.8" cy="158.1" r="1.8"></circle>
  <circle class="st1" cx="265.5" cy="251.5" r="2.8"></circle>
  <circle class="st1" cx="67.6" cy="210.9" r=".9"></circle>
  <g id="Plants_13_">
    <path class="st2" d="M78.7 274.3c-4.3-.5-2.5-15.3 4.9-15.1 7.3.4-1.9 15.5-4.9 15.1z"></path>
    <path class="st3" d="M71.2 274.2c-3.6.1-4.9-7.7.4-10.3 5.3-2.7 3.9 10.2-.4 10.3z"></path>
    <path class="st4" d="M78.2 274.3c-.1 0-.1-.1-.1-.1.5-6.8 6.5-14.7 6.5-14.8 0 0 .1-.1.1 0 0 0 .1.1 0 .1-.1.1-6 7.9-6.5 14.7.1.1.1.1 0 .1zM71.2 274.3c-.1 0-.1-.1 0 0-.9-3.8-.2-6.4.5-8 .8-1.7 1.8-2.6 1.9-2.6h.1v.1s-4 3.5-2.4 10.4l-.1.1z"></path>
    <path class="st4" d="M86.3 262.9h-3.9s-.1 0-.1-.1l-.5-3.3c0-.1 0-.1.1-.1s.1 0 .1.1l.5 3.2h3.8c.1 0 .1 0 .1.1s0 .1-.1.1z"></path>
    <path class="st4" d="M80.8 266.1c-.1 0-.1-.1 0 0l-1.2-5.3c0-.1 0-.1.1-.1s.1 0 .1.1l1 5.1 4.7-.3c.1 0 .1 0 .1.1s0 .1-.1.1l-4.7.3zM79.4 269.2l-2-5c0-.1 0-.1.1-.1s.1 0 .1.1l1.9 4.9 4.8-.6c.1 0 .1 0 .1.1s0 .1-.1.1l-4.9.5zM78.5 272.3s-.1 0 0 0l-2.2-3.8v-.1h.1l2 3.7 4.1-1.1c.1 0 .1 0 .1.1s0 .1-.1.1l-4 1.1zM72.2 265.6c-.1 0-.1-.1-.1-.1v-1.9c0-.1 0-.1.1-.1s.1 0 .1.1v1.7l2.4-.4c.1 0 .1 0 .1.1s0 .1-.1.1l-2.5.5z"></path>
    <path class="st4" d="M71.3 267.8c-.1 0-.1-.1 0 0l-.9-3.2c0-.1 0-.1.1-.1s.1 0 .1.1l.8 3 3.7-.3s.1 0 .1.1 0 .1-.1.1l-3.8.3z"></path>
    <path class="st4" d="M70.8 271.4s-.1-.1 0 0c-.2-.2-2-2.8-2.4-4.2l-.4-1.4c0-.1 0-.1.1-.1s.1 0 .1.1l.4 1.4c.4 1.2 1.9 3.6 2.2 4l3.9-1.3c.1 0 .1 0 .1.1s0 .1-.1.1l-3.9 1.3zM71.1 273.8c-.1 0-.1 0 0 0-.1-.1-2.4-1.2-3-2.7 0-.1 0-.1.1-.1 0 0 .1 0 .1.1.6 1.3 2.5 2.4 2.8 2.5l2.4-1c.1 0 .1 0 .1.1s0 .1-.1.1l-2.4 1z"></path>
    <g>
      <path class="st5" d="M78.1 277.5c-.1 0-.1 0-.1-.1 0 0-.1-1.3.1-3.2 0-.1.1-.1.1-.1.1 0 .1.1.1.1-.2 1.8-.1 3.1-.1 3.1 0 .1 0 .2-.1.2z"></path>
    </g>
    <g>
      <path class="st5" d="M72.4 277.5s-.1 0 0 0c-.1-.1-1-1.4-1.3-3.3 0-.1 0-.1.1-.1s.1 0 .1.1c.3 1.8 1.2 3.2 1.2 3.2l-.1.1z"></path>
    </g>
  </g>
  <path class="st0" d="M176.5 65.8h61.7c2.9 0 5.3-2.4 5.3-5.3v-52c0-2.9-2.4-5.3-5.3-5.3h-61.7c-2.9 0-5.3 2.4-5.3 5.3v52.1c0 2.9 2.3 5.2 5.3 5.2z"></path>
  <path class="st6" d="M210.7 30.6V20.5h-18v18h11.4v-7.9z"></path>
  <path class="st6" d="M210.7 30.6v7.9h-6.6v10H222V30.6z"></path>
  <path class="st6" d="M204.1 30.6h6.6v7.9h-6.6z"></path>
  <path class="st4" d="M204.1 30.6h6.6v7.9h-6.6z"></path>
  <path opacity=".6" fill="#d3eae7" d="M10.8 6.8h143.1V201H10.8z"></path>
  <path class="st8" d="M10.8 172.7h143.1V201H10.8zM170.1 132.4h-51.2c-3.3 0-5.9-2.7-5.9-5.9V75.2c0-3.3 2.7-5.9 5.9-5.9h51.2c3.3 0 5.9 2.7 5.9 5.9v51.2c0 3.3-2.6 6-5.9 6zM93 132.5H41.7c-3.3 0-5.9-2.7-5.9-5.9V75.3c0-3.3 2.7-5.9 5.9-5.9H93c3.3 0 5.9 2.7 5.9 5.9v51.2c0 3.4-2.7 6-5.9 6z"></path>
  <path class="st5" d="M103.9 137.7h-1c-.1 0-.2-.1-.2-.2s.1-.2.2-.2h.8v-.8c0-.1.1-.2.2-.2s.2.1.2.2v1c.1 0 0 .2-.2.2zM100.9 137.7h-2c-.1 0-.2-.1-.2-.2s.1-.2.2-.2h2c.1 0 .2.1.2.2s-.1.2-.2.2zm-4.1 0h-2c-.1 0-.2-.1-.2-.2s.1-.2.2-.2h2c.1 0 .2.1.2.2s0 .2-.2.2zm-4 0h-2c-.1 0-.2-.1-.2-.2s.1-.2.2-.2h2c.1 0 .2.1.2.2s-.1.2-.2.2zm-4.1 0h-2c-.1 0-.2-.1-.2-.2s.1-.2.2-.2h2c.1 0 .2.1.2.2s-.1.2-.2.2zm-4.1 0h-2c-.1 0-.2-.1-.2-.2s.1-.2.2-.2h2c.1 0 .2.1.2.2s0 .2-.2.2zm-4 0h-2c-.1 0-.2-.1-.2-.2s.1-.2.2-.2h2c.1 0 .2.1.2.2s-.1.2-.2.2zm-4.1 0h-2c-.1 0-.2-.1-.2-.2s.1-.2.2-.2h2c.1 0 .2.1.2.2s-.1.2-.2.2zm-4.1 0h-2c-.1 0-.2-.1-.2-.2s.1-.2.2-.2h2c.1 0 .2.1.2.2s0 .2-.2.2zm-4 0h-2c-.1 0-.2-.1-.2-.2s.1-.2.2-.2h2c.1 0 .2.1.2.2s-.1.2-.2.2zm-4.1 0h-2c-.1 0-.2-.1-.2-.2s.1-.2.2-.2h2c.1 0 .2.1.2.2s-.1.2-.2.2zm-4.1 0h-2c-.1 0-.2-.1-.2-.2s.1-.2.2-.2h2c.1 0 .2.1.2.2s0 .2-.2.2zm-4 0h-2c-.1 0-.2-.1-.2-.2s.1-.2.2-.2h2c.1 0 .2.1.2.2s-.1.2-.2.2zm-4.1 0h-2c-.1 0-.2-.1-.2-.2s.1-.2.2-.2h2c.1 0 .2.1.2.2s0 .2-.2.2zm-4.1 0h-2c-.1 0-.2-.1-.2-.2s.1-.2.2-.2h2c.1 0 .2.1.2.2s0 .2-.2.2zm-4 0h-2c-.1 0-.2-.1-.2-.2s.1-.2.2-.2h2c.1 0 .2.1.2.2s-.1.2-.2.2zm-4.1 0h-2c-.1 0-.2-.1-.2-.2s.1-.2.2-.2h2c.1 0 .2.1.2.2s0 .2-.2.2zm-4.1 0h-2c-.1 0-.2-.1-.2-.2s.1-.2.2-.2h2c.1 0 .2.1.2.2s0 .2-.2.2zM31.8 137.7h-1c-.1 0-.2-.1-.2-.2v-1c0-.1.1-.2.2-.2s.2.1.2.2v.8h.8c.1 0 .3.1.3.2s-.2.2-.3.2zM30.8 134.6c-.1 0-.2-.1-.2-.2v-2c0-.1.1-.2.2-.2s.2.1.2.2v2c0 .1-.1.2-.2.2zm0-4c-.1 0-.2-.1-.2-.2v-2c0-.1.1-.2.2-.2s.2.1.2.2v2s-.1.2-.2.2zm0-4.1c-.1 0-.2-.1-.2-.2v-2c0-.1.1-.2.2-.2s.2.1.2.2v2c0 .1-.1.2-.2.2zm0-4.1c-.1 0-.2-.1-.2-.2v-2c0-.1.1-.2.2-.2s.2.1.2.2v2c0 .1-.1.2-.2.2zm0-4c-.1 0-.2-.1-.2-.2v-2c0-.1.1-.2.2-.2s.2.1.2.2v2c0 .1-.1.2-.2.2zm0-4.1c-.1 0-.2-.1-.2-.2v-2c0-.1.1-.2.2-.2s.2.1.2.2v2c0 .1-.1.2-.2.2zm0-4.1c-.1 0-.2-.1-.2-.2v-2c0-.1.1-.2.2-.2s.2.1.2.2v2c0 .1-.1.2-.2.2zm0-4c-.1 0-.2-.1-.2-.2v-2c0-.1.1-.2.2-.2s.2.1.2.2v2c0 .1-.1.2-.2.2zm0-4.1c-.1 0-.2-.1-.2-.2v-2c0-.1.1-.2.2-.2s.2.1.2.2v2c0 .1-.1.2-.2.2zm0-4.1c-.1 0-.2-.1-.2-.2v-2c0-.1.1-.2.2-.2s.2.1.2.2v2c0 .1-.1.2-.2.2zm0-4c-.1 0-.2-.1-.2-.2v-2c0-.1.1-.2.2-.2s.2.1.2.2v2c0 .1-.1.2-.2.2zm0-4.1c-.1 0-.2-.1-.2-.2v-2c0-.1.1-.2.2-.2s.2.1.2.2v2c0 .1-.1.2-.2.2zm0-4.1c-.1 0-.2-.1-.2-.2v-2c0-.1.1-.2.2-.2s.2.1.2.2v2c0 .1-.1.2-.2.2zm0-4c-.1 0-.2-.1-.2-.2v-2c0-.1.1-.2.2-.2s.2.1.2.2v2c0 .1-.1.2-.2.2zm0-4.1c-.1 0-.2-.1-.2-.2v-2c0-.1.1-.2.2-.2s.2.1.2.2v2c0 .1-.1.2-.2.2zm0-4.1c-.1 0-.2-.1-.2-.2v-2c0-.1.1-.2.2-.2s.2.1.2.2v2c0 .1-.1.2-.2.2zm0-4c-.1 0-.2-.1-.2-.2v-2c0-.1.1-.2.2-.2s.2.1.2.2v2c0 .1-.1.2-.2.2zM30.8 65.5c-.1 0-.2-.1-.2-.2v-1c0-.1.1-.2.2-.2h1c.1 0 .3.1.3.2s-.1.2-.3.2H31v.8c0 .1-.1.2-.2.2zM100.9 64.5h-2c-.1 0-.2-.1-.2-.2s.1-.2.2-.2h2c.1 0 .2.1.2.2s-.1.2-.2.2zm-4.1 0h-2c-.1 0-.2-.1-.2-.2s.1-.2.2-.2h2c.1 0 .2.1.2.2s0 .2-.2.2zm-4 0h-2c-.1 0-.2-.1-.2-.2s.1-.2.2-.2h2c.1 0 .2.1.2.2s-.1.2-.2.2zm-4.1 0h-2c-.1 0-.2-.1-.2-.2s.1-.2.2-.2h2c.1 0 .2.1.2.2s-.1.2-.2.2zm-4.1 0h-2c-.1 0-.2-.1-.2-.2s.1-.2.2-.2h2c.1 0 .2.1.2.2s0 .2-.2.2zm-4 0h-2c-.1 0-.2-.1-.2-.2s.1-.2.2-.2h2c.1 0 .2.1.2.2s-.1.2-.2.2zm-4.1 0h-2c-.1 0-.2-.1-.2-.2s.1-.2.2-.2h2c.1 0 .2.1.2.2s-.1.2-.2.2zm-4.1 0h-2c-.1 0-.2-.1-.2-.2s.1-.2.2-.2h2c.1 0 .2.1.2.2s0 .2-.2.2zm-4 0h-2c-.1 0-.2-.1-.2-.2s.1-.2.2-.2h2c.1 0 .2.1.2.2s-.1.2-.2.2zm-4.1 0h-2c-.1 0-.2-.1-.2-.2s.1-.2.2-.2h2c.1 0 .2.1.2.2s-.1.2-.2.2zm-4.1 0h-2c-.1 0-.2-.1-.2-.2s.1-.2.2-.2h2c.1 0 .2.1.2.2s0 .2-.2.2zm-4 0h-2c-.1 0-.2-.1-.2-.2s0-.3.1-.3h2c.1 0 .2.1.2.2s0 .3-.1.3zm-4.1 0h-2c-.1 0-.2-.1-.2-.2s.1-.2.2-.2h2c.1 0 .2.1.2.2s0 .2-.2.2zm-4.1 0h-2c-.1 0-.2-.1-.2-.2s.1-.3.2-.3h2c.1 0 .2.1.2.2s0 .3-.2.3zm-4 0h-2c-.1 0-.2-.1-.2-.2s.1-.2.2-.2h2c.1 0 .2.1.2.2s-.1.2-.2.2zm-4.1 0h-2c-.1 0-.2-.1-.2-.2s.1-.2.2-.2h2c.1 0 .2.1.2.2s0 .2-.2.2zm-4.1 0h-2c-.1 0-.2-.1-.2-.2s.1-.2.2-.2h2c.1 0 .2.1.2.2s0 .2-.2.2zM103.9 65.5c-.1 0-.2-.1-.2-.2v-.8h-.8c-.1 0-.2-.1-.2-.2s.1-.2.2-.2h1c.1 0 .2.1.2.2v1c.1.1 0 .2-.2.2zM103.9 134.6c-.1 0-.2-.1-.2-.2v-2c0-.1.1-.2.2-.2s.2.1.2.2v2c.1.1 0 .2-.2.2zm0-4c-.1 0-.2-.1-.2-.2v-2c0-.1.1-.2.2-.2s.2.1.2.2v2c.1 0 0 .2-.2.2zm0-4.1c-.1 0-.2-.1-.2-.2v-2c0-.1.1-.2.2-.2s.2.1.2.2v2c.1.1 0 .2-.2.2zm0-4.1c-.1 0-.2-.1-.2-.2v-2c0-.1.1-.2.2-.2s.2.1.2.2v2c.1.1 0 .2-.2.2zm0-4c-.1 0-.2-.1-.2-.2v-2c0-.1.1-.2.2-.2s.2.1.2.2v2c.1 0 0 .2-.2.2zm0-4.1c-.1 0-.2-.1-.2-.2v-2c0-.1.1-.2.2-.2s.2.1.2.2v2c.1.1 0 .2-.2.2zm0-4.1c-.1 0-.2-.1-.2-.2v-2c0-.1.1-.2.2-.2s.2.1.2.2v2c.1.1 0 .2-.2.2zm0-4c-.1 0-.2-.1-.2-.2v-2c0-.1.1-.2.2-.2s.2.1.2.2v2c.1.1 0 .2-.2.2zm0-4.1c-.1 0-.2-.1-.2-.2v-2c0-.1.1-.2.2-.2s.2.1.2.2v2c.1.1 0 .2-.2.2zm0-4.1c-.1 0-.2-.1-.2-.2v-2c0-.1.1-.2.2-.2s.2.1.2.2v2c.1.1 0 .2-.2.2zm0-4c-.1 0-.2-.1-.2-.2v-2c0-.1.1-.2.2-.2s.2.1.2.2v2c.1.1 0 .2-.2.2zm0-4.1c-.1 0-.2-.1-.2-.2v-2c0-.1.1-.2.2-.2s.2.1.2.2v2c.1.1 0 .2-.2.2zm0-4.1c-.1 0-.2-.1-.2-.2v-2c0-.1.1-.2.2-.2s.2.1.2.2v2c.1.1 0 .2-.2.2zm0-4c-.1 0-.2-.1-.2-.2v-2c0-.1.1-.2.2-.2s.2.1.2.2v2c.1.1 0 .2-.2.2zm0-4.1c-.1 0-.2-.1-.2-.2v-2c0-.1.1-.2.2-.2s.2.1.2.2v2c.1.1 0 .2-.2.2zm0-4.1c-.1 0-.2-.1-.2-.2v-2c0-.1.1-.2.2-.2s.2.1.2.2v2c.1.1 0 .2-.2.2zm0-4c-.1 0-.2-.1-.2-.2v-2c0-.1.1-.2.2-.2s.2.1.2.2v2c.1.1 0 .2-.2.2z"></path>
  <path class="st1" d="M73.2 20.3H32c-1.1 0-2 .9-2 2v3.3c0 1.1.9 2 2 2h41.2c1.1 0 2-.9 2-2v-3.3c0-1.1-.9-2-2-2z"></path>
  <path class="st8" d="M54.7 39.7H32c-1.1 0-2 .9-2 2v8.9c0 1.1.9 2 2 2h22.7c1.1 0 2-.9 2-2v-8.9c0-1.1-.9-2-2-2zM89.7 39.7H66.9c-1.1 0-2 .9-2 2v8.9c0 1.1.9 2 2 2h22.7c1.1 0 2-.9 2-2v-8.9c.1-1.1-.8-2-1.9-2zM126 39.7h-22.7c-1.1 0-2 .9-2 2v8.9c0 1.1.9 2 2 2H126c1.1 0 2-.9 2-2v-8.9c0-1.1-.9-2-2-2zM163.1 39.7h-22.7c-1.1 0-2 .9-2 2v8.9c0 1.1.9 2 2 2h22.7c1.1 0 2-.9 2-2v-8.9c0-1.1-.9-2-2-2z"></path>
  <g>
    <path class="st5" d="M85.5 193.1h-8.4c-.8 0-1.5-.6-1.5-1.4V185c0-.1 0-.1.1-.2l5.4-4.2c.1-.1.2-.1.3 0l5.4 4.2c.1 0 .1.1.1.2v6.6c.1.8-.6 1.5-1.4 1.5zm-9.3-7.9v6.5c0 .5.4.9 1 .9h8.4c.5 0 1-.4 1-.9v-6.5l-5.1-4-5.3 4z"></path>
    <path class="st5" d="M83.1 193.1c-.1 0-.2-.1-.2-.2v-5.8h-3.1v5.8c0 .1-.1.2-.2.2s-.2-.1-.2-.2v-6c0-.1.1-.2.2-.2h3.6c.1 0 .2.1.2.2v6c0 .1-.2.2-.3.2z"></path>
  </g>
  <g>
    <path class="st5" d="M120 191.8c-3.1 0-5.6-2.5-5.6-5.6 0-3.1 2.5-5.6 5.6-5.6s5.6 2.5 5.6 5.6c0 3-2.5 5.6-5.6 5.6zm0-10.7c-2.8 0-5.1 2.3-5.1 5.1s2.3 5.1 5.1 5.1 5.1-2.3 5.1-5.1-2.3-5.1-5.1-5.1z"></path>
    <path class="st5" d="M126.7 193.1c-.1 0-.1 0-.2-.1l-2.9-2.9c-.1-.1-.1-.3 0-.4s.3-.1.4 0l2.9 2.9c.1.1.1.3 0 .4-.1.1-.2.1-.2.1z"></path>
  </g>
  <g>
    <path class="st5" d="M43.9 193.1c-.1 0-.2-.1-.2-.2v-1.3c0-1.3-1.1-2.4-2.4-2.4H36c-1.3 0-2.4 1.1-2.4 2.4v1.3c0 .1-.1.2-.2.2s-.4-.1-.4-.3v-1.3c0-1.6 1.3-2.9 2.9-2.9h5.3c1.6 0 2.9 1.3 2.9 2.9v1.3c0 .2-.1.3-.2.3zM38.5 186.4c-1.6 0-2.9-1.3-2.9-2.9s1.3-2.9 2.9-2.9 2.9 1.3 2.9 2.9-1.3 2.9-2.9 2.9zm0-5.3c-1.3 0-2.4 1.1-2.4 2.4s1.1 2.4 2.4 2.4 2.4-1.1 2.4-2.4-1-2.4-2.4-2.4z"></path>
  </g>
  <g>
    <path d="M181.2 167.1s5.9 39.9 6.5 40.7c.6.8 3.2.3 1.1 2.9l23.5 35.2-13.6 8.8s-25.6-34.2-28-38.9c-2.4-4.7-8.3-19.8-8.3-19.8s-3.2 12.6-6.5 24c-3.2 11.3-9.6 36-9.6 36l-16.2-4.5s6.6-24.3 10.5-43.6 10.1-42.4 10.1-42.4l30.5 1.6z" fill="#376f92"></path>
    <path class="st10" d="M174.6 107.6s5.7-12.7 3.9-15.3c-1.8-2.6-7-2.7-7-2.7s-.3-6.3-8-4c0 0-5.2-4.6-8.9 2.2 0 0-2.2 1.5 0 2.8 0 0-3.9 2.4-1.4 6.1s5 1.2 5 1.2-1 4.2 2.7 5c3.7.6 13.7 4.7 13.7 4.7z"></path>
    <path class="st11" d="M165 98.3c1.2 1.2 2.2 0 2.2 0-.2 3 1.9 4.3 1.9 4.3-.2-.5-.3-1-.3-1.5 0-2.1 1.7-3.9 3.9-3.9 2.1 0 3.9 1.7 3.9 3.9 0 1.7-1 3.1-2.5 3.6.1 4.4 4.4 9.7 4.4 9.7l-7.8.7c-1.6-7-3.7-5-5.4-4.8-1.7.2-4.8-8.9-4.8-8.9 5 .3 4.5-3.1 4.5-3.1z"></path>
    <path class="st12" d="M173.8 99.1s-4.2-.4-2.6 3.9l2.6-3.9zM166.6 110s3.7-1 4.9-3.2c0 0 .8 3.5-1.7 5.7 0 0-.9-1.7-1.4-2.2s-1.8-.3-1.8-.3zM166.3 104.2c.4.7-1.5 1.6-1.7 1s1.3-1.7 1.7-1zM162.9 105.6c.1.5-1.2.9-1.3.4 0-.4 1.2-.9 1.3-.4z"></path>
    <circle class="st10" cx="164.4" cy="102.9" r=".5"></circle>
    <path class="st11" d="M142.3 121.8s-9.9 2.2-11.7 1.7c-1.8-.5-19.8-13-20.2-15.3-.4-2.3-1.8-9.4-2.7-9.9-1.4-.7-4.3-.3-7.2 0-3.1.4-5.3.8-5.3.8s.1 1.8 1.8 2 3.2.5 3.4 2.3c.1 1.3-.4 3.3.8 4.8.8 1 2.8.2 4.9 3.8 2.1 3.6 18.2 22.3 21.3 22.8s12.9-.8 12.9-.8l2-12.2zM189.3 139s6 8.7 6.4 9c.3.3-3.8 4.7-6.2 7.9-2.4 3.2-6.4 5.9-6.4 8.3s5.5 7.7 5.8 9.2c.4 1.5 8.3.5 8.3 0s1.3-3.4 1.3-3.4-1.4-.8-2.8.7c-1.5 1.5-4.5.1-4.5-.9s.2-1.3.2-1.3 0-3.4-1.4-4.6c0 0 7.1-4.7 11-7.4s8.2-5.5 7.1-7.6c-1.1-2.1-9.7-17-9.7-17l-9.1 7.1z"></path>
    <path class="st2" d="M178.5 114.4s-10.2.2-19.7 2.6-16.4 4.8-16.4 4.8l-2.4 13.6s12.7-1 13.7 1 .1 11.3-.8 17.2c-.9 5.9-2.9 11.7-2.9 11.7s23.8 3.8 33.1 1.5l2.8-30 2.9 2.6 10.5-7.8s-9.6-12.6-12.7-14.3c-3.4-1.7-8.1-2.9-8.1-2.9z"></path>
    <path class="st13" d="M178.7 114.5l-1.3-2-7.2 1.9.1.6s5.9-.4 8.4-.5zM142.3 121.8l-2.3.5-2.5 13 2.5.1zM199.2 131.5l1.1 2-10.1 7.8-1.5-1.9z"></path>
    <path class="st3" d="M185.8 136.8l.3-4.7s2 2.6 1.6 6.4l-1.9-1.7zM150.8 135.3s2.4-.3 9 2.4c0 0 .4 5.7-5.9 6.9 0 0 .2-6 0-7.3-.3-1.2-3.1-2-3.1-2z"></path>
    <path class="st5" d="M162.4 195.9l-5-18.4s-9.6 18.9-.4 38.4l5.4-20zM182.8 177.5s-6.3-4-7.4-10c0 0 3.3 0 5.9-.4l1.5 10.4z"></path>
    <path class="st14" d="M212.4 245.9l2.4 3.3-13.1 8.8-3-3.4zM146.4 255.9l-1.1 4.5-16-4.5.9-4.5z"></path>
    <path class="st11" d="M141 259.2l-1.5 6.8-6.9-2 1.1-6.9zM212.4 250.8l5 7.5-6.8 4.2-5.3-6.9z"></path>
    <path class="st2" d="M139.5 266l-1.6 7.8-1.1 10.2-23.4-5.4s2.1-5.1 7.4-4.6c5.3.5 10.6-3.1 11.8-10l6.9 2zM217.4 258.3l11.7 8.9L216 284h-9.7s.8-4.3 5-6.9c4.3-2.6-1.5-15.6-1.5-15.6l6.4-4.9 1.2 1.7z"></path>
    <path class="st12" d="M140 122.3l-2.2 12-2.7.3c-.1-.1 3.6-6.5 4.9-12.3zM199.5 134.1s-6 6.4-7.1 9.5l-1.8-2.7 8.9-6.8zM212.4 250.8s-3.6 3.6-5.5 6.8l-1.6-2.1 7.1-4.7zM141 259.2l-.5 2s-1.4-1.9-6.9-4.1l7.4 2.1z"></path>
  </g>
  <g>
    <path class="st0" d="M57.9 262H15.4c-1.9 0-3.4-1.5-3.4-3.4V211c0-1.9 1.5-3.4 3.4-3.4h42.5c1.9 0 3.4 1.5 3.4 3.4v47.7c0 1.8-1.5 3.3-3.4 3.3z"></path>
    <path class="st4" d="M19.4 242.4l10-12.3 5.8 7 8.8-9.9 12 15.2z"></path>
  </g>
  <g>
    <path d="M51.2 101c0 6.4 3.7 11.9 9.1 14.5l-7.7-21.1c-.9 2-1.4 4.2-1.4 6.6zm27-.8c0-2-.7-3.4-1.3-4.5-.8-1.3-1.6-2.5-1.6-3.8 0-1.5 1.1-2.9 2.7-2.9h.2c-2.9-2.6-6.7-4.3-10.9-4.3-5.6 0-10.6 2.9-13.5 7.3h1c1.7 0 4.3-.2 4.3-.2.9 0 1 1.2.1 1.3 0 0-.9.1-1.8.1l5.9 17.5 3.5-10.6-2.5-6.9c-.9 0-1.7-.1-1.7-.1-.9 0-.8-1.4.1-1.3 0 0 2.7.2 4.3.2 1.7 0 4.3-.2 4.3-.2.9 0 1 1.2.1 1.3 0 0-.9.1-1.8.1l5.8 17.4 1.6-5.4c.7-2.1 1.2-3.7 1.2-5zm-10.6 2.2l-4.8 14.1c1.4.4 3 .7 4.6.7 1.9 0 3.7-.3 5.4-.9 0-.1-.1-.1-.1-.2l-5.1-13.7zm13.9-9.2c.1.5.1 1.1.1 1.7 0 1.6-.3 3.5-1.2 5.8L75.5 115c4.8-2.8 8-8 8-14 0-2.8-.7-5.5-2-7.8zM67.3 82.1c-10.4 0-18.8 8.4-18.8 18.8s8.4 18.8 18.8 18.8 18.8-8.4 18.8-18.8-8.4-18.8-18.8-18.8zm0 36.8c-9.9 0-18-8.1-18-18s8.1-18 18-18 18 8.1 18 18-8 18-18 18z" fill="#00769d"></path>
  </g>
</svg>
