<?xml version="1.0" encoding="UTF-8"?>
<svg xmlns="http://www.w3.org/2000/svg" xmlns:xlink="http://www.w3.org/1999/xlink" viewBox="0 0 626.49 685.83">
  <defs>
    <style>.cls-1{mask:url(#mask);filter:url(#luminosity-noclip-2);}.cls-2,.cls-64{mix-blend-mode:multiply;}.cls-2{fill:url(#linear-gradient);}.cls-3{isolation:isolate;}.cls-4{fill:#213267;}.cls-5{fill:#224192;}.cls-6{fill:#2d4c9d;}.cls-7{fill:#fff;}.cls-8{opacity:0.1;}.cls-9{fill:#9d79b5;}.cls-10{fill:#f48e8e;}.cls-11{fill:#1d9bc2;}.cls-12{fill:#fbf393;}.cls-13{fill:#2bb99b;}.cls-14{fill:#f7f081;}.cls-15{fill:#1375b7;}.cls-16{fill:#3885c6;}.cls-17{fill:#fcc596;}.cls-18{fill:#f8e8d8;}.cls-19{fill:#3e3533;}.cls-20{fill:#4484e0;}.cls-21{fill:#3f4752;}.cls-22{fill:#2d313d;}.cls-23{fill:#2d4f9f;}.cls-24{fill:#330e00;}.cls-25{fill:#346ed8;}.cls-26{fill:#5e9eea;}.cls-27{mask:url(#mask-2);}.cls-28{fill:url(#linear-gradient-2);}.cls-29{fill:#d38753;}.cls-30{fill:url(#linear-gradient-3);}.cls-31{fill:#2f3740;}.cls-32{fill:#e79355;}.cls-33{fill:#b07347;}.cls-34{fill:#ffbd9b;}.cls-35{fill:#f4be84;}.cls-36,.cls-64{fill:#a5c0d7;}.cls-37{fill:#8394b4;}.cls-38{fill:#3d4359;}.cls-39{fill:#323749;}.cls-40{fill:#fbcebf;}.cls-41{fill:#19232d;}.cls-42{fill:#e0bc9b;}.cls-43{fill:#1c3033;}.cls-44{fill:#121e21;}.cls-45{fill:#223a3f;}.cls-46{fill:#fb9f0d;}.cls-47{fill:#ff7200;}.cls-48{fill:#efceab;}.cls-49{fill:#f9dcb8;}.cls-50{fill:#221e52;}.cls-51{fill:#1c1715;}.cls-52{fill:#e2a36a;}.cls-53{fill:#e55daa;}.cls-54{fill:#476291;}.cls-55{fill:#3e5c87;}.cls-56{fill:#5775aa;}.cls-57{fill:#ff77c4;}.cls-58{fill:#ed65b2;}.cls-59{fill:#d17a4a;}.cls-60{fill:#db52a3;}.cls-61{fill:#fdc596;}.cls-62{fill:#442b19;}.cls-63{fill:#513826;}.cls-64{opacity:0.2;}.cls-65{fill:#bad6f2;}.cls-66{fill:#c48c58;}.cls-67{fill:#a8693f;}.cls-68{fill:#d39b67;}.cls-69{fill:#b7784e;}.cls-70{fill:#e8ab73;}.cls-71{fill:#6d97be;}.cls-72{fill:#95bae2;}.cls-73{fill:#ccdded;}.cls-74{fill:#b0dfe2;}.cls-75{fill:#21759b;}.cls-76{filter:url(#luminosity-noclip);}</style>
    <filter id="luminosity-noclip" x="271.23" y="-8935.22" width="34.86" height="32766" color-interpolation-filters="sRGB">
      <feFlood flood-color="#fff" result="bg"></feFlood>
      <feBlend in="SourceGraphic" in2="bg"></feBlend>
    </filter>
    <mask id="mask" x="271.23" y="-8935.22" width="34.86" height="32766" maskUnits="userSpaceOnUse">
      <g class="cls-76"></g>
    </mask>
    <linearGradient id="linear-gradient" x1="292.95" y1="295.01" x2="319.55" y2="367.65" gradientUnits="userSpaceOnUse">
      <stop offset="0" stop-color="#fff"></stop>
      <stop offset="0.06" stop-color="#ececec"></stop>
      <stop offset="0.41" stop-color="#888"></stop>
      <stop offset="0.7" stop-color="#3f3f3f"></stop>
      <stop offset="0.9" stop-color="#111"></stop>
      <stop offset="1"></stop>
    </linearGradient>
    <filter id="luminosity-noclip-2" x="271.23" y="279.48" width="34.86" height="87.25" color-interpolation-filters="sRGB">
      <feFlood flood-color="#fff" result="bg"></feFlood>
      <feBlend in="SourceGraphic" in2="bg"></feBlend>
    </filter>
    <mask id="mask-2" x="271.23" y="279.48" width="34.86" height="87.25" maskUnits="userSpaceOnUse">
      <g class="cls-1">
        <path class="cls-2" d="M303.51,296.53c2.07-.49,2.16-6.95,2.16-6.95l.42-9.77a.61.61,0,0,1-.07-.14c-.51,0-1.47-.16-1.94-.19L272.19,283c.11.38-1.17,3-.94,3.79,1.85,5.43,7.8,13.25,9,13.44,1.4.23,5-3.86,5.45-5.19.73.66,2,2.64,2.72,3.3.39,9.5,0,22-.11,33.56,5.52,14.26,10.68,27.55,12.9,33.29.4.53.81,1,1.21,1.53l1.19-28.25q-5.39-20.4-10.79-40.79c1.15-1.57,2.62-2.73,3.76-4.29A10,10,0,0,0,303.51,296.53Z"></path>
      </g>
    </mask>
    <linearGradient id="linear-gradient-2" x1="292.95" y1="295.01" x2="319.55" y2="367.65" gradientUnits="userSpaceOnUse">
      <stop offset="0" stop-color="#cfd4d8"></stop>
      <stop offset="1" stop-color="#cfd4d8"></stop>
    </linearGradient>
    <linearGradient id="linear-gradient-3" x1="283.67" y1="327.03" x2="303.87" y2="327.03" gradientUnits="userSpaceOnUse">
      <stop offset="0" stop-color="#f5a0aa"></stop>
      <stop offset="0.22" stop-color="#f38e99"></stop>
      <stop offset="0.73" stop-color="#f06774"></stop>
      <stop offset="1" stop-color="#ef5866"></stop>
    </linearGradient>
  </defs>
  <g class="cls-3">
    <g id="Layer_2" data-name="Layer 2">
      <g id="Layer_1-2" data-name="Layer 1">
        <rect class="cls-4" x="89.83" width="493.87" height="312.49" rx="11.18"></rect>
        <rect class="cls-5" x="98.72" y="8.21" width="476.09" height="287.58"></rect>
        <rect class="cls-6" x="112.79" y="17.1" width="86.36" height="266.03" rx="4"></rect>
        <rect class="cls-7" x="123.7" y="34.87" width="37.04" height="5.73" rx="1.4"></rect>
        <rect class="cls-7" x="123.7" y="47.86" width="55.45" height="5.73" rx="1.4"></rect>
        <rect class="cls-7" x="123.7" y="60.85" width="45.9" height="5.73" rx="1.4"></rect>
        <rect class="cls-7" x="123.7" y="73.85" width="22.95" height="5.73" rx="1.27"></rect>
        <rect class="cls-7" x="123.7" y="86.84" width="30.52" height="5.73" rx="1.4"></rect>
        <rect class="cls-7" x="123.7" y="99.83" width="43.1" height="5.73" rx="1.4"></rect>
        <rect class="cls-7" x="123.7" y="112.83" width="30.52" height="5.73" rx="1.4"></rect>
        <rect class="cls-7" x="123.7" y="125.82" width="57.08" height="5.73" rx="1.4"></rect>
        <rect class="cls-7" x="123.7" y="138.81" width="37.28" height="5.73" rx="1.4"></rect>
        <rect class="cls-7" x="123.7" y="151.81" width="58.48" height="5.73" rx="1.4"></rect>
        <rect class="cls-7" x="123.7" y="164.8" width="40.77" height="5.73" rx="1.4"></rect>
        <path class="cls-7" d="M125,177.79h21.62a1.3,1.3,0,0,1,1.3,1.3v3.12a1.31,1.31,0,0,1-1.31,1.31H125a1.31,1.31,0,0,1-1.31-1.31V179.1A1.31,1.31,0,0,1,125,177.79Z"></path>
        <g class="cls-8">
          <path class="cls-7" d="M314.31,132.53a100.7,100.7,0,0,0,56.75,90.62L323,91.55A100.25,100.25,0,0,0,314.31,132.53Z"></path>
          <path class="cls-7" d="M483,127.45c0-12.45-4.47-21.07-8.3-27.77-5.11-8.3-9.89-15.32-9.89-23.62,0-9.25,7-17.87,16.91-17.87.44,0,.87.06,1.3.08A100.68,100.68,0,0,0,330.87,77.22c2.37.08,4.59.13,6.48.13,10.54,0,26.84-1.28,26.84-1.28,5.43-.32,6.07,7.65.65,8.29,0,0-5.46.64-11.53,1L390,194.39l22-66.09-15.69-43c-5.43-.32-10.56-1-10.56-1-5.43-.32-4.79-8.62.63-8.3,0,0,16.63,1.28,26.53,1.28,10.53,0,26.83-1.28,26.83-1.28,5.43-.32,6.07,7.66.65,8.3,0,0-5.47.64-11.53,1l36.39,108.24L475.32,160C479.67,146.07,483,136.07,483,127.45Z"></path>
          <path class="cls-7" d="M416.77,141.34l-30.21,87.79a100.73,100.73,0,0,0,61.88-1.61,8.64,8.64,0,0,1-.71-1.39Z"></path>
          <path class="cls-7" d="M503.36,84.22A77.76,77.76,0,0,1,504,94.57c0,10.22-1.91,21.71-7.66,36.07l-30.76,88.93A100.7,100.7,0,0,0,503.36,84.22Z"></path>
          <path class="cls-7" d="M415,15.15A117.38,117.38,0,1,0,532.39,132.53,117.51,117.51,0,0,0,415,15.15Zm0,229.38a112,112,0,1,1,112-112A112.12,112.12,0,0,1,415,244.53Z"></path>
        </g>
        <rect class="cls-7" x="220.31" y="34.87" width="62.44" height="5.73" rx="1.4"></rect>
        <rect class="cls-7" x="219.14" y="46.1" width="40.54" height="5.73" rx="1.4"></rect>
        <rect class="cls-7" x="237.55" y="58.65" width="40.54" height="5.73" rx="1.4"></rect>
        <rect class="cls-7" x="256.19" y="70.1" width="52.88" height="5.73" rx="1.4"></rect>
        <rect class="cls-7" x="255.49" y="81.56" width="42.4" height="5.73" rx="1.4"></rect>
        <rect class="cls-7" x="236.62" y="116.57" width="46.01" height="5.73" rx="1.4"></rect>
        <rect class="cls-7" x="274.82" y="140.35" width="38.56" height="5.73" rx="1.4"></rect>
        <rect class="cls-9" x="292.37" y="152.25" width="42.71" height="5.73" rx="1.4"></rect>
        <rect class="cls-7" x="274.2" y="176.03" width="42.71" height="5.73" rx="1.4"></rect>
        <rect class="cls-7" x="256.73" y="199.81" width="50.01" height="5.73" rx="1.4"></rect>
        <rect class="cls-10" x="314.04" y="199.81" width="50.01" height="5.73" rx="1.4"></rect>
        <rect class="cls-9" x="371.35" y="199.81" width="62.36" height="5.73" rx="1.4"></rect>
        <rect class="cls-7" x="292.02" y="164.14" width="54.9" height="5.73" rx="1.4"></rect>
        <rect class="cls-7" x="377.29" y="164.14" width="115.13" height="5.73" rx="1.4"></rect>
        <rect class="cls-9" x="406.06" y="152.25" width="42.71" height="5.73" rx="1.4"></rect>
        <rect class="cls-10" x="341.74" y="152.25" width="61.06" height="5.73" rx="1.4"></rect>
        <rect class="cls-7" x="375.47" y="140.35" width="38.56" height="5.73" rx="1.4"></rect>
        <rect class="cls-10" x="321.65" y="140.35" width="43.8" height="5.73" rx="1.4"></rect>
        <rect class="cls-7" x="255.72" y="128.46" width="71.52" height="5.73" rx="1.4"></rect>
        <rect class="cls-11" x="336.1" y="128.46" width="20.27" height="5.73" rx="1.19"></rect>
        <rect class="cls-7" x="256.88" y="187.92" width="27.96" height="5.73" rx="1.4"></rect>
        <rect class="cls-7" x="274.2" y="210.16" width="32.54" height="5.73" rx="1.4"></rect>
        <rect class="cls-7" x="256.73" y="222.06" width="30.91" height="5.73" rx="1.4"></rect>
        <rect class="cls-7" x="255.41" y="233.95" width="30.91" height="5.73" rx="1.4"></rect>
        <rect class="cls-7" x="274.2" y="245.62" width="44.19" height="5.73" rx="1.4"></rect>
        <rect class="cls-7" x="274.2" y="257.29" width="114.55" height="5.73" rx="1.4"></rect>
        <rect class="cls-10" x="327.48" y="245.62" width="57.31" height="5.73" rx="1.4" transform="translate(712.26 496.97) rotate(180)"></rect>
        <rect class="cls-7" x="412.3" y="257.29" width="80.12" height="5.73" rx="1.4" transform="translate(904.72 520.31) rotate(180)"></rect>
        <rect class="cls-12" x="392.01" y="245.62" width="32.85" height="5.73" rx="1.4" transform="translate(816.87 496.97) rotate(180)"></rect>
        <rect class="cls-10" x="295.56" y="233.95" width="51.49" height="5.73" rx="1.4"></rect>
        <rect class="cls-13" x="353.34" y="233.95" width="38.67" height="5.73" rx="1.4"></rect>
        <rect class="cls-11" x="403.23" y="233.95" width="18.13" height="5.73" rx="1.13"></rect>
        <path class="cls-7" d="M489.39,215.89H317.07a3,3,0,0,1-3-2.86h0a3,3,0,0,1,3-2.87H489.39a3,3,0,0,1,3,2.87h0A3,3,0,0,1,489.39,215.89Z"></path>
        <rect class="cls-11" x="420.9" y="140.35" width="18.17" height="5.73" rx="1.4"></rect>
        <rect class="cls-7" x="353.1" y="164.14" width="18.17" height="5.73" rx="1.4"></rect>
        <rect class="cls-11" x="456.93" y="152.25" width="17.16" height="5.73" rx="1.4"></rect>
        <rect class="cls-7" x="294.39" y="116.57" width="105.07" height="5.73" rx="1.4"></rect>
        <rect class="cls-7" x="236.62" y="105.56" width="30.52" height="5.73" rx="1.4"></rect>
        <rect class="cls-14" x="421.13" y="81.56" width="19.8" height="5.73" rx="1.18"></rect>
        <rect class="cls-13" x="472.15" y="46.1" width="19.8" height="5.73" rx="1.18"></rect>
        <rect class="cls-10" x="444.89" y="81.56" width="48.46" height="5.73" rx="1.4"></rect>
        <rect class="cls-10" x="309.07" y="81.56" width="103.91" height="5.73" rx="1.4"></rect>
        <rect class="cls-7" x="255.72" y="93.01" width="109.73" height="5.73" rx="1.4"></rect>
        <rect class="cls-10" x="317.46" y="70.1" width="37.97" height="5.73" rx="1.4"></rect>
        <rect class="cls-10" x="274.82" y="46.1" width="121.15" height="5.73" rx="1.4"></rect>
        <rect class="cls-7" x="407.39" y="46.1" width="39.61" height="5.73" rx="1.4"></rect>
        <path class="cls-7" d="M111.45,304a2.39,2.39,0,1,1-2.39-2.25A2.33,2.33,0,0,1,111.45,304Z"></path>
        <path class="cls-7" d="M119.47,304a2.39,2.39,0,1,1-2.39-2.25A2.33,2.33,0,0,1,119.47,304Z"></path>
        <path class="cls-7" d="M127.48,304a2.39,2.39,0,1,1-2.38-2.25A2.32,2.32,0,0,1,127.48,304Z"></path>
        <rect class="cls-15" x="540.92" y="117.64" width="85.56" height="77.22" rx="5.51"></rect>
        <rect class="cls-7" x="540.92" y="117.64" width="82.15" height="73.44" rx="5.26"></rect>
        <path class="cls-16" d="M597.84,151.67l-7.63,13.49L574.37,137,541,186.78a5.24,5.24,0,0,0,5.19,4.79h71.58a5.27,5.27,0,0,0,5.28-5.28V178.9Z"></path>
        <path class="cls-16" d="M611,135.17a6.39,6.39,0,1,1-6.38-6.38A6.39,6.39,0,0,1,611,135.17Z"></path>
        <rect class="cls-15" x="38.03" y="211.43" width="128.97" height="116.39" rx="5.23"></rect>
        <rect class="cls-7" x="38.03" y="211.43" width="123.82" height="110.7" rx="5"></rect>
        <path class="cls-17" d="M424.52,313.55c2.22-6-10-10.41-10-10.41s3.65-5.47,6.7-9.68-.27-3.21-.27-3.21c-9.92,6.06-20.27,17.22-20.15,23.45s-5.33,11.17-5.33,11.17l10.32,7.38s8.27-8.19,9.93-10.05S422.3,319.54,424.52,313.55Z"></path>
        <path class="cls-18" d="M395.45,320.64l3.41-5.46s10.67,5.94,13.59,14.19L407.11,333Z"></path>
        <path class="cls-19" d="M336,296.58c2.09,4.53,22,52.72,22,52.72s5.61-6.19,5.16,0L394.57,317s14.51,4.92,15.67,17.72c0,0-39.1,53.76-53.29,55.22s-27.06-38.47-27.06-38.47Z"></path>
        <path class="cls-20" d="M336,296.58c2.09,4.53,22,52.72,22,52.72s5.61-6.19,5.16,0L394.57,317s14.51,4.92,15.67,17.72c0,0-39.1,53.76-53.29,55.22s-27.06-38.47-27.06-38.47Z"></path>
        <path class="cls-21" d="M265.77,659.61,268.25,646l15.09,2.27L282.53,661s-2.84,5.73-10.76,5.86S265.77,659.61,265.77,659.61Z"></path>
        <polygon class="cls-21" points="333.15 650.95 332.66 662.03 335.55 669.25 348 665.16 350.72 656.94 351.63 644.17 333.15 650.95"></polygon>
        <path class="cls-22" d="M379.52,669.77c-3.86-2-16.14-5.8-24.73-12.8a4.08,4.08,0,0,0-3.36-.83l-.66.12a11.28,11.28,0,0,1-7.46,8C339,665.71,332.66,662,332.66,662l-1.16,15.71h49.17a2.9,2.9,0,0,0,1.32-1.63S384.45,672.3,379.52,669.77Z"></path>
        <path class="cls-21" d="M335.57,401.2s7.59,99.65,8.33,108.71,10,144,10,144c-11.65,4.68-24.18,1.08-24.18,1.08L309.42,519,296,446.44l-4.51-1.28S290,533.45,290,533,288,651.55,288,651.55c-11.28,5.86-26.94-.47-26.94-.47s-4.88-115.45-6.25-122.2-1.75-136.25-1.75-136.25Z"></path>
        <path class="cls-23" d="M337.85,427.24c-16.6,5.76-54.18,14.34-84.76,1.8,0-7.86.07-18.28,0-23.8l83.33,7.24C336.85,417.31,337.33,420.54,337.85,427.24Z"></path>
        <path class="cls-24" d="M332.82,392.2c-.64-2.37-1.16-3.86-1.16-3.86l-73.58,3s-.26,1.5-.66,4.07c.36.5.66.88.66.88C290.91,409.71,314.69,409.73,332.82,392.2Z"></path>
        <path class="cls-25" d="M241.89,329.63,254.78,377l-6.55,44.27s54,24.63,90.58.78l-3.29-101.42Z"></path>
        <path class="cls-20" d="M323.74,288c2.92,1.23,22.77,6.64,11.78,32.6l-3.35,70s3.74,10.78,1.38,13.07c-18.14,17.6-41.94,17.6-74.81,4.18a15.26,15.26,0,0,1-1.95-3.09c-1.21-4.76,2.81-18,2.81-18l-18.37-57.11S223.12,305,235.11,296C254,282,292.85,275,323.74,288Z"></path>
        <path class="cls-25" d="M338.81,422.06,336.89,363c-8.46,9.95-13.44,20.57-18,32.81a140.11,140.11,0,0,1-49.12-42.56l14.37,38.41c-12.42-14.57-32-53.93-44.42-68.51L254.78,377l-6.55,44.27S302.26,445.91,338.81,422.06Z"></path>
        <path class="cls-26" d="M304.93,279.56s7.25-.31,8.57.5,4.61,10.33,5.28,11.83S310,302.26,310,302.26s7.82,12.83,7.5,13.86-14.19,57.14-14.19,57.14-33.62-50.13-34.3-52.62,3.22-15.39,3.22-15.39-10-7.33-10.56-8.93-1.88-11.83,0-13.13c1.15-.79,7.84-2.3,7.84-2.3Z"></path>
        <path class="cls-18" d="M269.48,283.31h0l19.38,50c7.14,18.41,15-.85,15-.85l2.22-52.79c-.49,0-1.52-.16-2-.19Z"></path>
        <g class="cls-27">
          <path class="cls-28" d="M303.51,296.53c2.07-.49,2.16-6.95,2.16-6.95l.42-9.77a.61.61,0,0,1-.07-.14c-.51,0-1.47-.16-1.94-.19L272.19,283c.11.38-1.17,3-.94,3.79,1.85,5.43,7.8,13.25,9,13.44,1.4.23,5-3.86,5.45-5.19.73.66,2,2.64,2.72,3.3.39,9.5,0,22-.11,33.56,5.52,14.26,10.68,27.55,12.9,33.29.4.53.81,1,1.21,1.53l1.19-28.25q-5.39-20.4-10.79-40.79c1.15-1.57,2.62-2.73,3.76-4.29A10,10,0,0,0,303.51,296.53Z"></path>
        </g>
        <path class="cls-29" d="M297.07,285.88c-3.41,1.67-11.65,2.3-15.38,2.2-5.54-.13-3.16-3.12-5-3.68l-8.4-23.48,24.18-1.47,1.28,1.45Z"></path>
        <path class="cls-30" d="M303.87,332.46l-10.78-36.39,4.71-5.29-8-4.9-6.12,5.65,5.7,5a338.65,338.65,0,0,0-.52,36.73l13.51,34.87Z"></path>
        <path class="cls-18" d="M272.57,275.53s13.73,10.66,16.86,10.15,7.46-7.32,7.46-7.32,7.84-.24,9.2,1.31-1.39,15.27-2.86,16c-3.08,1.56-12.35-8.8-14-7.48s-6.47,10.17-8.05,10S267,285.64,267.74,281.1A6.85,6.85,0,0,1,272.57,275.53Z"></path>
        <path class="cls-22" d="M279.25,661.83c-5.94-5.77-11.22-.91-11.22-.91l-2.26-1.31c-3.27,5-9.56,11.09-10.35,14.06-1.5,5.62,1.17,12.16,10,12.16,8.58,0,16.85-5.4,17.78-9.78.55-2.63-.35-9.73-.64-15Z"></path>
        <path class="cls-31" d="M309.42,519l-.4-2.17c4.44,16,10.63,37.52,11.74,37.58,1.76.09,19.36-2.81,20.12-5.2.35-1.07,1.82-17.31,3.34-35,1.81,24.93,9.72,139.69,9.72,139.69-11.65,4.68-24.18,1.08-24.18,1.08Z"></path>
        <path class="cls-31" d="M261.09,651.07s0-.1,0-.26v-.11c0-.12,0-.26,0-.45,0-.5-.05-1.24-.09-2.18,0-.21,0-.44,0-.68q0-.64-.06-1.38c0-.19,0-.38,0-.58-.05-1.09-.11-2.33-.16-3.7l0-.68c0-.78-.07-1.59-.11-2.44v0c0-.91-.08-1.85-.12-2.83l0-.47c-.1-2.41-.22-5-.34-7.84l0-.82c-.21-4.79-.44-10.05-.69-15.57a2.62,2.62,0,0,1,0-.28c-.1-2.07-.19-4.18-.29-6.32v-.21c-.81-17.67-1.73-37-2.54-51.74v-.06c-.2-3.68-.39-7.06-.58-10.06,3.59,2.67,9.67,6.9,12.13,6.81,3.61-.12,15.76-10.29,16.48-14.82.57-3.62,4.71-37.6,6.35-51.1-.42,23.83-.88,50-.9,49.74,0,0,0,.15,0,.48a1.55,1.55,0,0,0,0,.22c0,1.36-.08,4.63-.16,9.24,0,.28,0,.55,0,.83,0,1.69-.06,3.54-.09,5.53,0,.66,0,1.34,0,2,0,2.78-.09,5.78-.14,9,0,.4,0,.8,0,1.2-.57,35.08-1.45,90-1.45,90a21.71,21.71,0,0,1-6.68,2.13c-.76.12-1.52.21-2.29.27s-1.52.08-2.28.09-1.5,0-2.23-.06-1.46-.11-2.16-.19-1.4-.17-2.06-.28c-1-.16-1.95-.34-2.83-.54-.59-.13-1.15-.27-1.67-.4a40.9,40.9,0,0,1-4.74-1.49Z"></path>
        <polygon class="cls-32" points="300.94 402.09 208.86 409.29 213.4 469.06 306.03 460.46 300.94 402.09"></polygon>
        <path class="cls-33" d="M249.93,406.08c2.08,8,1.36,16.66,1.65,25,.35,9.85,2.91,20.76,11.19,26.1,7.7,5,17.91,3.49,26.48.24a75.31,75.31,0,0,0,15.8-8.22l1,11.24-67.52,6.26c.39-4.72-.83-9.52-2-14.15l-11.55-43.85-.18-.68Z"></path>
        <path class="cls-34" d="M238.29,442.49s1.13,6.1,1.24,8.65a40.42,40.42,0,0,0,1.06,9.33c1,3.92-2.68,3.11,2,7.35s4.81,1.54,5.46,5.33,6.7,2,6.7,2a7.5,7.5,0,0,0,4.23,3.54c3.32,1.33,3.55-.19,5.85-9.54,0,0,6.46-2.33,5.69-4.64s-17.2-11.26-17.2-11.26l-4.76-12.39Z"></path>
        <path class="cls-18" d="M235.5,447.85l1.63,8.25s16.74-2.31,21.41-5.28l-2.12-10.23Z"></path>
        <path class="cls-20" d="M220.86,368.17s.56-57.17,12.16-70l20.07,25.95-3.68,52.77c.39,10.37,10.68,67.88,10.68,67.88s-13.16,5.86-27.1,6.74C233,451.48,220.18,385.22,220.86,368.17Z"></path>
        <path class="cls-35" d="M269.46,255.8s-9.24-.9-9-9.34c.24-8.21,10.7-6.37,12.82,2.17a.16.16,0,0,0,.32,0c.49-2.43,2.15-9.87,4.45-11.77,0,0-3.62-12.21,4.93-15.9s28.92-4,29.32,9.33-1.12,17.41-1.44,23.59-10,24.45-14.07,25.75-24.07-11.08-27.15-14.21S269.46,255.8,269.46,255.8Z"></path>
        <path class="cls-19" d="M326.48,214.34s-3.66.78-5.88-.57c0,0,4.55-11,1.52-15.67,0,0-6.7,8-26.67,4.2s-38.09,2.52-43.13,19.54,7.54,40.3,16.27,41.8c-1.13-3.32.87-7.84.87-7.84s-9.24-.9-9-9.34c.24-8.21,10.7-6.37,12.82,2.17a.16.16,0,0,0,.32,0c.49-2.43,2.15-9.87,4.45-11.77,0,0-3.62-12.21,4.93-15.9s28.92-4,29.32,9.33c0,1.37.06,2.61.06,3.79h0S327.7,229,326.48,214.34Z"></path>
        <g id="chair">
          <rect class="cls-36" x="494.2" y="618.78" width="100.13" height="6.43" transform="translate(1166.26 77.74) rotate(90)"></rect>
          <rect class="cls-37" x="492.16" y="620.82" width="100.13" height="2.35" transform="translate(1164.22 79.78) rotate(90)"></rect>
          <polygon class="cls-37" points="547.78 597.51 552.89 573.43 535.63 573.43 540.74 597.51 547.78 597.51"></polygon>
          <polygon class="cls-36" points="508.12 677.73 580.4 677.73 580.4 675.75 551.37 670.91 537.15 670.91 508.12 675.75 508.12 677.73"></polygon>
          <polygon class="cls-36" points="535.46 671.46 553.06 671.46 549.79 650.92 538.73 650.92 535.46 671.46"></polygon>
          <polygon class="cls-37" points="549.79 650.92 538.73 650.92 535.46 671.46 508.12 675.75 556.31 675.75 547.78 672.06 545.48 652.74 549.79 650.92"></polygon>
          <rect class="cls-37" x="559.73" y="540.65" width="12.5" height="18.75" transform="translate(1131.96 1100.05) rotate(180)"></rect>
          <path class="cls-38" d="M497.8,567.66h92.92a9.08,9.08,0,0,0-9.08-9.09H506.89a9.09,9.09,0,0,0-9.09,9.09Z"></path>
          <path class="cls-39" d="M506.89,558.57H546a9.09,9.09,0,0,0-9.09,9.09H497.8A9.09,9.09,0,0,1,506.89,558.57Z"></path>
          <path class="cls-39" d="M590.58,566.07a9.31,9.31,0,0,1,.14,1.59H497.8a8.4,8.4,0,0,1,.15-1.59Z"></path>
          <rect class="cls-38" x="494.16" y="567.3" width="100.2" height="12.27" transform="translate(1088.52 1146.86) rotate(180)"></rect>
          <rect class="cls-39" x="494.16" y="567.3" width="64.75" height="12.27" transform="translate(1053.08 1146.86) rotate(180)"></rect>
          <rect class="cls-39" x="494.16" y="567.3" width="100.2" height="1.48" transform="translate(1088.52 1136.07) rotate(180)"></rect>
          <path class="cls-39" d="M558.28,592.87c4.55,0,13.57-3.09,14.72-3.49a.53.53,0,0,0,.33-.69.53.53,0,0,0-.68-.33c-3.5,1.23-13.17,4.19-15.71,3.27-2.11-.76-2.36-8.1-2-12.55a.52.52,0,0,0-.49-.57h0a.53.53,0,0,0-.53.49c-.1,1.26-.83,12.34,2.72,13.64A5.2,5.2,0,0,0,558.28,592.87Z"></path>
          <path class="cls-39" d="M575.7,584.67c-2.34.62-5.81,3.11-5.33,4.93s4.73,2.27,7.07,1.65,3.85-2.59,3.36-4.41S578,584.05,575.7,584.67Z"></path>
          <path class="cls-39" d="M526.36,490.71c0,40.95,18.67,57.1,41.71,57.1s41.71-16.15,41.71-57.1-18.67-91.17-41.71-91.17S526.36,449.77,526.36,490.71Z"></path>
          <path class="cls-38" d="M522.18,490.15c0,39.58,18.05,55.2,40.32,55.2s40.33-15.62,40.33-55.2S584.77,402,562.5,402,522.18,450.57,522.18,490.15Z"></path>
        </g>
        <polygon class="cls-40" points="480.93 654.76 482.32 663.58 493.77 664.08 493.47 653.98 480.93 654.76"></polygon>
        <path class="cls-41" d="M496.91,677.3l-36.73.43s-1.3-7.58,3.95-7.19,11.69-3.44,15.31-7.25,14.79-2.26,16.2-.19S496.91,677.3,496.91,677.3Z"></path>
        <polygon class="cls-40" points="417.29 653.86 416.19 662.83 427.64 663.33 429.04 653.23 417.29 653.86"></polygon>
        <path class="cls-41" d="M430.78,676.55l-36.73.43s-1.29-7.58,3.95-7.19,11.69-3.44,15.31-7.25,14.79-2.26,16.2-.19S430.78,676.55,430.78,676.55Z"></path>
        <path class="cls-42" d="M458.94,476.66l43.18-6.76c2.06,0,3.46-6.1,4.83-14.2l17.26,6.92c-3.38,15.75-10.23,29.13-20.7,27.71-14.85-2-45.76-3.95-45.76-3.95Z"></path>
        <path class="cls-43" d="M493.48,520c24.49-7.9,39.19.08,39.39,34.34l-97.94.29s.77-17.4,8.6-23.19C447.55,528.47,475.92,522.85,493.48,520Z"></path>
        <path class="cls-44" d="M502.9,536.7a141.24,141.24,0,0,1-25.2,6.15c-15.2,2.39-22,2.59-23.59,5.23s.38,28.16-2,39.62c-2.05,9.9-23.19,59.17-28.09,73.38H429s30-58.9,32.51-77.16c1.24-12,1.84-22.28,1.84-22.28h32.2C501.71,560.08,502.9,536.7,502.9,536.7Z"></path>
        <path class="cls-45" d="M573.61,519.2s-1,24.85-8.83,35.38l-92.3,0s-3.76-16.61,3.43-23.19C484.48,523.6,545.48,519.85,573.61,519.2Z"></path>
        <path class="cls-44" d="M505.35,580.63c-.27-9.93-.62-12.39-2.66-19h56c7.73-6.23,11.51-16,13-21.37L549.14,530s-2.23,10.63-6.51,13-51.64,2.44-53.54,4.36,6.17,20.78,7.6,34.39-6.89,79.3-6.89,79.3h5.25S505.84,598.89,505.35,580.63Z"></path>
        <path class="cls-44" d="M524.59,522.05s24.46,4.14,47.09,18.22L570.54,544S548.26,529.26,524.59,522.05Z"></path>
        <path class="cls-43" d="M435.23,553.08s-12.76,66-20.43,108h14.32s30-58.9,32.51-77.16,0-38.34,0-38.34Z"></path>
        <path class="cls-45" d="M472.48,554.63s4.4,64.5,7.34,106.45h15.23s10.79-62.19,10.3-80.45-7.85-35-7.85-35Z"></path>
        <path class="cls-44" d="M505.35,580.63v0c-.45-16.31-6.35-31.4-7.6-34.43l-2.34.17-6.59,2.38c.17,4.91,6.61,21,7.87,33.06,1.42,13.62-6.89,79.3-6.89,79.3h5.25s.67-3.88,1.68-10C499.74,632.73,505.72,594.33,505.35,580.63Z"></path>
        <path class="cls-44" d="M461.59,545.58c-2.78.19-5.36.59-6.92,2-1.57,2.64,0,28.61-2.4,40.07-2,9.9-23.19,59.17-28.09,73.38h4.94c6.35-14.89,30.35-61.32,32.51-77.16C463.21,572.36,464.09,554.76,461.59,545.58Z"></path>
        <path class="cls-46" d="M517.87,473a47.24,47.24,0,0,1-7.37-2.84c-3.92-1.94-2.35-.75-6.91-3.64,0,0,.82-20.84,7-32.75S551,406.42,551,406.42s1.52.09,4,.39l0,.2a19.1,19.1,0,0,1,2.34.12c1.42.21,3,.48,4.72.83,9.44,2.36,25.28,10.59,27.71,39-1.7,29.23-10.13,77.22-18.11,92.8,0,0-57.1-17.72-62.77-22.57,2.1-5.91,5.79-14.76,7.22-23.18A129.77,129.77,0,0,0,517.87,473Z"></path>
        <path class="cls-42" d="M497.93,492.65l51.45-6.83c3.34,0,5.22-11.23,7.56-23.39l21.11,3.51c-2.42,20.33-11.32,42.07-27,40.3-17.7-2-54.52-3.87-54.52-3.87Z"></path>
        <path class="cls-47" d="M553.71,459s23.3,2.14,27.06-7.83,2.19-29.33-17.35-42.75l.16,0,.42.13c9.48,3,23.25,11.88,25.63,38-.61,2.25-1.25,4.53-2,6.89-1.93,6.2-4,11.84-6.18,16.89l-29.07-4.71Z"></path>
        <path class="cls-47" d="M521.6,455.62c-.23,1.47-.53,2.92-.84,4.36s-.62,2.9-1,4.34q-1,4.23-2.06,8.43a49.6,49.6,0,0,1-5.26-1.83,55.37,55.37,0,0,1-5.22-2.48c-1.26-.69-2.48-1.45-3.67-2.25v.44c1.14.76,2.3,1.48,3.5,2.14a54.85,54.85,0,0,0,5.26,2.49,50,50,0,0,0,5.48,1.91l.24.06,0-.2c.67-2.88,1.32-5.77,1.93-8.67.31-1.44.61-2.9.89-4.35s.54-2.92.75-4.39Z"></path>
        <path class="cls-48" d="M554.91,407l-4.81-7.2-20.22,7.67,2.75,12.13S547.26,429.18,554.91,407Z"></path>
        <path class="cls-49" d="M508.67,386.11s3.88,10.14,6.25,15.45,7.62,17.53,19,14.54,15-10.93,17.91-14.94c0,0,7.72-16.81,4.38-19.56s-9.82-12.56-20.37-7.8S508.67,386.11,508.67,386.11Z"></path>
        <path class="cls-50" d="M551.45,401.79s9.33-17,9.7-25.62-2-14-7.1-15.92c0,0,1.94-5.12,3.7-5.92,0,0-5.28,2.38-6.25,4.95,0,0-.6-6.1-3.15-7.08,0,0,1.58,3.54.61,6.1,0,0-12.37-13.54-22.13-7s-23.4,23.3-27.71,23.12a8.42,8.42,0,0,0,6.06-.61,41.83,41.83,0,0,1-9.76,6.53s5.7,8.05,21.35,5.24,25.4-9.34,25.4-9.34,2,14,6.12,18.49c0,0,.37-8.67,3.88-10.25s2.37,5.3,1.4,7.87S549.69,402.59,551.45,401.79Z"></path>
        <path class="cls-47" d="M581.45,470.39q-7.34-1-14.65-2.15-3.66-.56-7.32-1.16c-2.44-.4-4.87-.82-7.3-1.32h0l-.17,0,0-.19q1.58-7.83,3.42-15.6c.63-2.59,1.27-5.17,2-7.73s1.46-5.11,2.36-7.61l.05,0c-.88,2.5-1.6,5.06-2.28,7.63s-1.31,5.15-1.91,7.74q-1.78,7.78-3.27,15.63l-.14-.22h0c2.41.52,4.84,1,7.27,1.39s4.87.84,7.31,1.24q7.3,1.2,14.63,2.3Z"></path>
        <g id="chair-2" data-name="chair">
          <rect class="cls-36" x="33.79" y="618.48" width="100.65" height="6.46" transform="translate(705.83 537.6) rotate(90)"></rect>
          <rect class="cls-37" x="35.84" y="620.53" width="100.65" height="2.36" transform="translate(707.88 535.55) rotate(90)"></rect>
          <polygon class="cls-37" points="80.58 597.1 75.44 572.89 92.79 572.89 87.65 597.1 80.58 597.1"></polygon>
          <polygon class="cls-36" points="120.44 677.73 47.79 677.73 47.79 675.74 76.97 670.87 91.26 670.87 120.44 675.74 120.44 677.73"></polygon>
          <polygon class="cls-36" points="92.96 671.42 75.27 671.42 78.56 650.78 89.67 650.78 92.96 671.42"></polygon>
          <polygon class="cls-37" points="78.56 650.78 89.67 650.78 92.96 671.42 120.44 675.74 72.01 675.74 80.58 672.03 82.89 652.61 78.56 650.78"></polygon>
          <rect class="cls-37" x="56" y="539.95" width="12.56" height="18.85"></rect>
          <path class="cls-38" d="M130.82,567.09H37.41A9.14,9.14,0,0,1,46.55,558h75.13a9.14,9.14,0,0,1,9.14,9.13Z"></path>
          <path class="cls-39" d="M121.68,558H82.4a9.14,9.14,0,0,1,9.14,9.13h39.28A9.14,9.14,0,0,0,121.68,558Z"></path>
          <path class="cls-39" d="M37.56,565.5a9.31,9.31,0,0,0-.15,1.59h93.41a9.31,9.31,0,0,0-.15-1.59Z"></path>
          <rect class="cls-38" x="33.76" y="566.73" width="100.71" height="12.33"></rect>
          <rect class="cls-39" x="69.39" y="566.73" width="65.09" height="12.33"></rect>
          <rect class="cls-39" x="33.76" y="566.73" width="100.71" height="1.48"></rect>
          <path class="cls-39" d="M100.13,492.58c0,39.11-17.84,54.54-39.84,54.54s-39.85-15.43-39.85-54.54,17.84-87.09,39.85-87.09S100.13,453.47,100.13,492.58Z"></path>
          <path class="cls-38" d="M104.13,492c0,37.81-17.25,52.73-38.52,52.73S27.09,529.85,27.09,492s17.24-84.19,38.52-84.19S104.13,454.23,104.13,492Z"></path>
          <path class="cls-39" d="M70,592.44c-4.57,0-13.64-3.12-14.8-3.52a.54.54,0,0,1-.33-.69.55.55,0,0,1,.69-.33c3.52,1.23,13.24,4.22,15.79,3.29,2.12-.77,2.38-8.14,2-12.61a.54.54,0,1,1,1.07-.08c.1,1.26.83,12.4-2.74,13.7A5,5,0,0,1,70,592.44Z"></path>
          <path class="cls-39" d="M52.52,584.19c2.35.62,5.83,3.13,5.35,4.95s-4.75,2.29-7.1,1.67-3.87-2.61-3.39-4.44S50.17,583.57,52.52,584.19Z"></path>
        </g>
        <path class="cls-51" d="M82.58,350.8s-7.73-4-13.62,11.6-6.19,39.91-4.07,48.19c0,0-17.1,18.41-3.13,30.44,0,0,19.25,20.24,20.53,25.46.49-1.22,8.75-16.1,22.14-16.93s46.38-35.48,28.78-40.86c0,0,1.31,5.6-4.69,4.25s-2.22-22-2.28-29.32-4.47-25.33-17.27-33S81.43,343.55,82.58,350.8Z"></path>
        <g id="wrist_right" data-name="wrist right">
          <path class="cls-52" d="M186.3,471.83s12.47,3.95,14.14,4.57c6.51,2.42,6,4.42,6,5.07,0,0,2.27,3.29,1.89,3.83-.64.91-1.28-.13-4.53-3.46-.73-.74-2.76-2.51-3.12-2.25s1.62,1.64,2.82,2.73c1,.91,3.28,5.87,2.22,6.19s-3-3.71-4.12-4.86c-.81-.86-3.21-2.46-3.68-2.15s1.94,2.59,2.32,3.16,2.33,3.55,1.55,4.13S199.57,487,197.7,485a23.75,23.75,0,0,0-6.73-4.06c-.73,0,0,1.82,1,3.23s1.66,3.63.59,3.86-2.89-4-5.18-6.72a13,13,0,0,1-2.61-6.4S185.59,471.86,186.3,471.83Z"></path>
        </g>
        <path class="cls-52" d="M186.3,471.83c-1.23-.41-7.79-.53-12.68,0L174,479l11.77-2.77Z"></path>
        <path class="cls-53" d="M120.51,417.2c-12.6,4.07-5.06,69.41,5.6,75.18,10.07,6.15,39.18-9,55.44-14.22,0,0,2.52-4.15,2.07-7.7-9.89-.37-40.92,6.81-44.48,6.36S133.08,413.15,120.51,417.2Z"></path>
        <path class="cls-52" d="M140.3,665.18a32.29,32.29,0,0,0-.87,8L134,672l.23-6.77Z"></path>
        <path class="cls-52" d="M151.06,675.73c-.07,1.09-17.36.46-17.36.46L134,672h5.46S151.14,674.64,151.06,675.73Z"></path>
        <path class="cls-22" d="M133.66,676.16l.24-2.36s1,1.31,6.3,1.31c4.65,0,5.17-1.66,5.17-1.66,4.36,1.25,6.8,1.46,6.18,2.36C150.75,677,133.66,676.16,133.66,676.16Z"></path>
        <path class="cls-29" d="M134.27,665.18l-.17,5.66a5.54,5.54,0,0,1,5.35,0,42.59,42.59,0,0,1,.85-5.66Z"></path>
        <path class="cls-52" d="M165.51,665.18a31.74,31.74,0,0,0-.87,8L159.25,672l.23-6.77Z"></path>
        <path class="cls-52" d="M176.27,675.73c-.07,1.09-17.36.46-17.36.46l.34-4.24h5.45S176.34,674.64,176.27,675.73Z"></path>
        <path class="cls-22" d="M158.86,676.16l.24-2.36s1,1.31,6.3,1.31c4.66,0,5.18-1.66,5.18-1.66,4.36,1.25,6.8,1.46,6.18,2.36C176,677,158.86,676.16,158.86,676.16Z"></path>
        <path class="cls-29" d="M159.48,665.18l-.18,5.66a5.56,5.56,0,0,1,5.36,0,42.59,42.59,0,0,1,.85-5.66Z"></path>
        <path class="cls-54" d="M131.32,516.74s-33.72,10.07-28.76,41.13h87.17s2.54-13.4-3-19.43S131.32,516.74,131.32,516.74Z"></path>
        <path class="cls-54" d="M189.51,557.87S178,592.17,166.23,668.2h-8.77s-6.21-56.73-4.88-72,12.55-39.49,12.55-39.49S181.75,552.88,189.51,557.87Z"></path>
        <path class="cls-55" d="M131.89,557.87l32.91-.2s-11.6,24.22-12.22,38.49,4.88,72,4.88,72h3.65s-2.89-61.29-1.89-71.17,13.87-42.37,13.2-44.55-41.87-13.73-41.87-13.73Z"></path>
        <polygon class="cls-55" points="131.32 516.74 62.46 516.74 111.67 541.57 131.32 516.74"></polygon>
        <path class="cls-56" d="M62.46,516.74s-9.84,16.45-2.19,41.13h102s2.07-13.64-3.72-19.43C150.52,530.37,91.3,523.57,62.46,516.74Z"></path>
        <path class="cls-56" d="M162.32,557.87s-10.78,24.67-20.71,110.33h-8.8s-7.22-56.73-6.18-72,10.7-38.29,10.7-38.29S154.46,552.88,162.32,557.87Z"></path>
        <path class="cls-54" d="M60.27,557.87h77.06s-10,25.23-10.7,38.29c-.87,16.52,6.18,72,6.18,72h3.27s-4.69-57-3.22-71.34,13.77-42,11.68-45-56-5.86-87-16.32C57.52,535.58,56.52,548.57,60.27,557.87Z"></path>
        <path class="cls-57" d="M116.18,475.64c0,15,4.89,24.27,16.31,41.15-22.43,7.66-46.09,7-70.7,0C67,502.25,75,490.36,84,480l.19-.22.27-.31c.07-.09.19-.21.19-.21,4.67-8.46-9.81-18.13-15.51-34.55-5.82-16.72-3.28-25.45-3.28-25.45,21.09-9.45,33.45-11.63,57.44-1.81l.9,14.54s6.51,11.35,5.78,16.44S116.18,467.64,116.18,475.64Z"></path>
        <path class="cls-58" d="M132.49,516.79c-2.12-7.11-16.31-18-16.31-41.15,0-9.29,13.06-20.24,13.78-27.35-5,2.12-25.45,8.52-58.06,2.65,6.28,16.53,14.06,21,12.73,28.31l-.19.21-.27.31L84,480C75,490.36,67,502.25,61.79,516.79a136.61,136.61,0,0,0,35.43,5.45C108.65,522.22,121.61,520.5,132.49,516.79Z"></path>
        <path class="cls-35" d="M83.11,378s5.72,21.51.82,36.4l18.53,0,6,2.65a66.79,66.79,0,0,1-3-23.25C106,384.66,83.11,378,83.11,378Z"></path>
        <path class="cls-59" d="M106,405.88a61.93,61.93,0,0,1-.5-12.05C106,384.66,83.11,378,83.11,378s5.49,20.7,1,35.56A54.62,54.62,0,0,0,106,405.88Z"></path>
        <path class="cls-60" d="M106.37,485c0-2.05,1-7,2.11-12.24,1.56-7.47,3.34-15.94,3-20.11-.6-7.07-7.71-27.14-8-28l-.94.33c.07.21,7.37,20.81,8,27.75.34,4-1.42,12.41-3,19.82-1.16,5.52-2.17,10.3-2.13,12.46a85.87,85.87,0,0,0,8.59,36.2c.34,0,.7-.07,1-.12A85.39,85.39,0,0,1,106.37,485Z"></path>
        <path class="cls-35" d="M142.77,476.23c4.41,1.1,10,1.63,10.4,3.45.86,4-5.42,6.46-8.61,5.58-3.11-1.07-5.78-5.28-5.78-5.28S138.4,475.14,142.77,476.23Z"></path>
        <path class="cls-35" d="M161.56,485.08c.55-.37-2.2-4.12-3.07-4.7-.7-.46-1.43-1.11-8.2-2.49l2.39,3.48a45.86,45.86,0,0,1,4.79.51C158.05,482.11,159.34,485.15,161.56,485.08Z"></path>
        <path class="cls-35" d="M156.62,492.48c.95-.12-.24-4.3-.73-5.22-.62-1.15-.46-1.69-4.53-7.28l-.66,4.07s3.21,3.64,3.48,4.19S155.15,491.85,156.62,492.48Z"></path>
        <path class="cls-35" d="M153.38,493.17c.91-.1-.23-4.12-.7-5-.6-1.11-.44-1.63-4.35-7l-.63,3.91s3.08,3.48,3.34,4S152,492.57,153.38,493.17Z"></path>
        <path class="cls-35" d="M149.17,491.61c.78-.09-.19-3.5-.59-4.24-.51-.94-.37-1.38-3.68-5.92l-.54,3.31s2.61,2.95,2.83,3.41S148,491.1,149.17,491.61Z"></path>
        <path class="cls-35" d="M139.44,480.23l-6.82.74-.14-6.36a80.6,80.6,0,0,1,10.29,1.62Z"></path>
        <path class="cls-57" d="M65.84,419.25c-12.6,4.07-8.46,71.5,2.2,77.28,14.19,8.81,47.33-8.79,67-14.22,0,0,2.52-4.15,2.08-7.7-16-3.11-52.45,6.81-56,6.36S78.4,415.2,65.84,419.25Z"></path>
        <path class="cls-53" d="M68.93,493.27c-8.37-4.53-12.67-46.95-8.06-67-6,18.23-1.69,65.46,7.17,70.26,14.19,8.81,47.33-8.79,67-14.22a21.73,21.73,0,0,0,1.46-3.37C116.74,484.56,83,502,68.93,493.27Z"></path>
        <polygon class="cls-60" points="78.78 414.11 94.5 429.74 99.05 423.12 103.39 426.84 106.29 422.5 111.46 427.88 111.71 413.39 102.46 414.43 78.78 414.11"></polygon>
        <polygon class="cls-58" points="78.78 414.11 85.82 403.25 102.46 414.43 95.02 425.91 78.78 414.11"></polygon>
        <polygon class="cls-58" points="105.95 405.82 102.46 414.43 110.68 424.35 111.71 413.39 105.95 405.82"></polygon>
        <path class="cls-61" d="M82.26,399.79s9.1,7.06,16.54,4.33,14-9.92,16.06-17.12-1.27-21.65-6.27-26.79S85,351.7,79.77,358.39,72.52,392.1,82.26,399.79Z"></path>
        <path class="cls-62" d="M71.92,422.9s-7.46,2.89-11.7-2.87,2.88-9.22,2.88-9.22-4.63,5.83,2.12,6.56,6.78-10.6,4.41-16.85c-6.84-18-2.87-29.91.29-36.37a39.3,39.3,0,0,1,8.8-11.2l3.86-2.15,2.67,6.55a81.54,81.54,0,0,0-7.31,14.27c-2.46,6.84-3.51,15.63,2.25,27S87.39,421.05,71.92,422.9Z"></path>
        <path class="cls-63" d="M85.25,357.35l-2.67-6.55h0s-7.73-4-13.62,11.6a65.34,65.34,0,0,0-3.51,18.26c2.64,9.69,10.14,20.87,14.21,30.37,5.15,12-10.6,8.78-10.6,8.78s5.25,8.88,13.14,2c8.68-7.52,1.11-19.94-2.2-26.44s-2.76-18.82.42-25.82A120.18,120.18,0,0,0,85.25,357.35Z"></path>
        <path class="cls-62" d="M85.25,357.35s17.63-4.67,26.49,16.68-3.86,31.18-1.62,37.76,8.24,7.53,13.4.76c0,0-6.34,4.08-7.29-.53s9.59-11.37,8.63-29a76.41,76.41,0,0,0-2.5-15.81c-2.71-6.36-7-12.76-13.39-16.57-12.8-7.64-27.54-7.11-26.39.14Z"></path>
        <g id="laptop">
          <polygon class="cls-37" points="214.86 490.64 136.56 490.66 153 429.94 231.3 429.92 214.86 490.64"></polygon>
          <rect class="cls-36" x="99.19" y="491.55" width="115.24" height="4.71" transform="translate(-0.6 0.19) rotate(-0.07)"></rect>
          <polygon class="cls-36" points="214.91 490.56 138.42 490.66 154.54 431.13 231.03 431.03 214.91 490.56"></polygon>
          <path class="cls-37" d="M192,460.18a8.4,8.4,0,0,1-7.54,5.26c-3.2,0-5-2.34-4.05-5.24A8.36,8.36,0,0,1,188,455C191.18,454.94,193,457.29,192,460.18Z"></path>
          <polygon class="cls-64" points="138.42 490.66 154.54 431.13 231.03 431.03 138.42 490.66"></polygon>
          <rect class="cls-37" x="99.19" y="491.6" width="37.15" height="4.71" transform="translate(-0.53 0.13) rotate(-0.06)"></rect>
          <rect class="cls-37" x="146.17" y="490.65" width="14.35" height="2.07" transform="translate(-0.62 0.19) rotate(-0.07)"></rect>
          <rect class="cls-37" x="197.37" y="490.59" width="12.28" height="2.07" transform="translate(-0.62 0.26) rotate(-0.07)"></rect>
          <polygon class="cls-65" points="155.04 431.88 230.83 431.79 231.03 431.03 154.54 431.13 138.42 490.66 139.13 490.66 155.04 431.88"></polygon>
        </g>
        <g id="laptop-2" data-name="laptop">
          <polygon class="cls-37" points="447.84 475.58 526.29 475.6 509.82 414.76 431.36 414.73 447.84 475.58"></polygon>
          <rect class="cls-36" x="503.64" y="421.11" width="4.72" height="115.47" transform="translate(26.54 984.26) rotate(-89.93)"></rect>
          <polygon class="cls-36" points="447.79 475.5 524.43 475.6 508.28 415.95 431.63 415.85 447.79 475.5"></polygon>
          <path class="cls-37" d="M470.7,445.06a8.43,8.43,0,0,0,7.55,5.27c3.21,0,5-2.35,4.07-5.25a8.42,8.42,0,0,0-7.55-5.27C471.56,439.81,469.74,442.16,470.7,445.06Z"></path>
          <polygon class="cls-64" points="524.43 475.6 508.28 415.95 431.63 415.85 524.43 475.6"></polygon>
          <rect class="cls-37" x="542.76" y="460.29" width="4.72" height="37.22" transform="translate(65.64 1023.51) rotate(-89.94)"></rect>
          <rect class="cls-37" x="508.43" y="469.44" width="2.07" height="14.38" transform="translate(32.19 985.49) rotate(-89.93)"></rect>
          <rect class="cls-37" x="458.17" y="470.41" width="2.07" height="12.31" transform="translate(-17.93 935.17) rotate(-89.93)"></rect>
          <polygon class="cls-65" points="507.77 416.7 431.84 416.61 431.63 415.85 508.28 415.95 524.43 475.6 523.72 475.6 507.77 416.7"></polygon>
        </g>
        <rect class="cls-66" x="17.47" y="487.3" width="9.78" height="192.96"></rect>
        <rect class="cls-66" x="18.05" y="487.86" width="131.22" height="19.23"></rect>
        <rect class="cls-67" x="592.43" y="487.3" width="9.78" height="192.96"></rect>
        <rect class="cls-67" x="144.28" y="487.86" width="456.5" height="19.23"></rect>
        <rect class="cls-68" y="481.23" width="153.02" height="12.61"></rect>
        <rect class="cls-69" x="142.01" y="481.23" width="478.05" height="12.61"></rect>
        <rect class="cls-70" y="481.23" width="620.06" height="2.61"></rect>
        <path class="cls-71" d="M359.88,466.82a8.53,8.53,0,0,1,8.55-8.5h3.4a1.9,1.9,0,0,1,1.9,1.9v13.2a1.9,1.9,0,0,1-1.9,1.89h-3.4A8.53,8.53,0,0,1,359.88,466.82Zm11.45-6.11h-2.9a6.11,6.11,0,1,0,0,12.22h2.9Z"></path>
        <path class="cls-72" d="M375.74,452.52h11.49a6.56,6.56,0,0,1,6.56,6.56V481.9a0,0,0,0,1,0,0H369.18a0,0,0,0,1,0,0V459.08A6.56,6.56,0,0,1,375.74,452.52Z" transform="translate(762.97 934.42) rotate(180)"></path>
        <path class="cls-71" d="M375,452.52v24.19a6,6,0,0,0,3.52,5.19h-2.07c-4,0-7.24-2.66-7.24-5.94V452.52Z"></path>
        <rect class="cls-73" x="389.03" y="454.39" width="1.86" height="15.96" rx="0.66" transform="translate(779.93 924.74) rotate(180)"></rect>
        <path class="cls-73" d="M383.39,451.23a.61.61,0,0,0,.61-.61v-4a1,1,0,0,1,1.12-.81h9.38a2.12,2.12,0,0,0,1.43-.63,2.87,2.87,0,0,0,.75-2.14,2.42,2.42,0,0,0-.76-1.93,2.67,2.67,0,0,0-1.95-.55H368.64a2.63,2.63,0,0,1-1.46-2.8A2.74,2.74,0,0,1,369,435h15.46a.62.62,0,0,0,0-1.23l-15.67,0a3.94,3.94,0,0,0-2.84,3.92,3.82,3.82,0,0,0,2.41,4l.17,0h25.55a1.48,1.48,0,0,1,1,.26,1.27,1.27,0,0,1,.34,1c0,1.44-.81,1.54-1,1.55h-9.33a2.27,2.27,0,0,0-2.37,1.83v4.19A.61.61,0,0,0,383.39,451.23Z"></path>
        <rect class="cls-74" x="38" y="89.7" width="71.09" height="52.7"></rect>
        <rect class="cls-7" x="38" y="89.7" width="69.45" height="50.44"></rect>
        <path class="cls-6" d="M49.24,115.61l15.83-7.68v3l-12.55,5.85v.06l12.55,5.88v3L49.24,118Z"></path>
        <path class="cls-6" d="M67.37,127l8.15-24.21h2.87L70.24,127Z"></path>
        <path class="cls-6" d="M96.21,118.08l-15.82,7.61v-3l12.75-5.88v-.06L80.39,110.9v-3l15.82,7.61Z"></path>
        <path class="cls-75" d="M64.9,266.78a35,35,0,0,0,19.75,31.53L67.93,252.52A35,35,0,0,0,64.9,266.78Z"></path>
        <path class="cls-75" d="M123.59,265a18.46,18.46,0,0,0-2.89-9.66c-1.78-2.89-3.44-5.33-3.44-8.22a6.07,6.07,0,0,1,5.88-6.22c.16,0,.3,0,.45,0a35,35,0,0,0-52.93,6.59c.83,0,1.6.05,2.26.05,3.66,0,9.34-.45,9.34-.45a1.45,1.45,0,0,1,.22,2.89s-1.9.22-4,.33l12.76,38,7.67-23-5.46-15c-1.89-.11-3.68-.33-3.68-.33a1.45,1.45,0,0,1,.22-2.89s5.79.45,9.23.45c3.67,0,9.34-.45,9.34-.45a1.45,1.45,0,0,1,.22,2.89s-1.9.22-4,.33L117.42,288l3.5-11.68C122.43,271.49,123.59,268,123.59,265Z"></path>
        <path class="cls-75" d="M100.55,269.84,90,300.39a35.18,35.18,0,0,0,21.53-.56,3.21,3.21,0,0,1-.25-.49Z"></path>
        <path class="cls-75" d="M130.68,250a26.91,26.91,0,0,1,.23,3.6,33,33,0,0,1-2.66,12.55l-10.7,30.94A35,35,0,0,0,130.68,250Z"></path>
        <path class="cls-75" d="M99.94,225.94a40.84,40.84,0,1,0,40.84,40.84A40.89,40.89,0,0,0,99.94,225.94Zm0,79.8a39,39,0,1,1,39-39A39,39,0,0,1,99.94,305.74Z"></path>
      </g>
    </g>
  </g>
</svg>
