<svg version="1.1" id="Layer_1" xmlns="http://www.w3.org/2000/svg" x="0" y="0" viewBox="0 0 500 500" xml:space="preserve"><style>.st0{fill:#ccc}.st1{fill:#e0e0e0}.st2{fill:#bbb}.st3{fill:#fafafa}.st4{fill:#fff}.st6{fill:#e8505b}.st7{fill:#263238}.st8{fill:#455a64}.st10{opacity:.6}.st11{opacity:.3}.st12{fill:#ffbe9d}.st13{fill:#eb996e}</style><g id="Background_Complete"><path class="st0" d="M387.5 84c0-3.6 1.9-5.8 4.5-5.8s4.5 2.1 4.5 5.8-1.9 5.8-4.5 5.8c-2.7-.1-4.5-2.2-4.5-5.8zm7.8 0c0-3-1.4-4.7-3.3-4.7-2 0-3.3 1.7-3.3 4.7s1.4 4.7 3.3 4.7 3.3-1.7 3.3-4.7zm2.8 0c0-3.6 1.9-5.8 4.5-5.8s4.5 2.1 4.5 5.8-1.9 5.8-4.5 5.8c-2.6-.1-4.5-2.2-4.5-5.8zm7.9 0c0-3-1.4-4.7-3.3-4.7-2 0-3.3 1.7-3.3 4.7s1.4 4.7 3.3 4.7S406 87 406 84zm5.9-5.7v11.3h-1.2V79.3H408v-1h3.9zm2.7 5.7c0-3.6 1.9-5.8 4.5-5.8s4.5 2.1 4.5 5.8-1.9 5.8-4.5 5.8c-2.6-.1-4.5-2.2-4.5-5.8zm7.9 0c0-3-1.4-4.7-3.3-4.7-2 0-3.3 1.7-3.3 4.7s1.4 4.7 3.3 4.7 3.3-1.7 3.3-4.7zm5.9-5.7v11.3h-1.2V79.3h-2.7v-1h3.9zM376.3 100c0-3.6 1.9-5.8 4.5-5.8s4.5 2.1 4.5 5.8-1.9 5.8-4.5 5.8-4.5-2.2-4.5-5.8zm7.9 0c0-3-1.4-4.7-3.3-4.7-2 0-3.3 1.7-3.3 4.7s1.4 4.7 3.3 4.7 3.3-1.7 3.3-4.7zm2.8 0c0-3.6 1.9-5.8 4.5-5.8s4.5 2.1 4.5 5.8-1.9 5.8-4.5 5.8-4.5-2.2-4.5-5.8zm7.9 0c0-3-1.4-4.7-3.3-4.7-2 0-3.3 1.7-3.3 4.7s1.4 4.7 3.3 4.7 3.3-1.7 3.3-4.7zm5.9-5.6v11.3h-1.2V95.4H397v-1h3.8zm2.7 5.6c0-3.6 1.9-5.8 4.5-5.8s4.5 2.1 4.5 5.8-1.9 5.8-4.5 5.8-4.5-2.2-4.5-5.8zm7.8 0c0-3-1.4-4.7-3.3-4.7-2 0-3.3 1.7-3.3 4.7s1.4 4.7 3.3 4.7c2 0 3.3-1.7 3.3-4.7zm6-5.6v11.3h-1.2V95.4h-2.7v-1h3.9zm5.8 0v11.3H422V95.4h-2.7v-1h3.8zm2.7 5.6c0-3.6 1.9-5.8 4.5-5.8s4.5 2.1 4.5 5.8-1.9 5.8-4.5 5.8-4.5-2.2-4.5-5.8zm7.9 0c0-3-1.4-4.7-3.3-4.7-2 0-3.3 1.7-3.3 4.7s1.4 4.7 3.3 4.7 3.3-1.7 3.3-4.7zm5.9-5.6v11.3h-1.2V95.4h-2.7v-1h3.9zM387.5 115.5c0-3.6 1.9-5.8 4.5-5.8s4.5 2.1 4.5 5.8c0 3.6-1.9 5.8-4.5 5.8-2.7 0-4.5-2.2-4.5-5.8zm7.8 0c0-3-1.4-4.7-3.3-4.7-2 0-3.3 1.7-3.3 4.7s1.4 4.7 3.3 4.7 3.3-1.6 3.3-4.7zm6-5.6v11.3h-1.2v-10.3h-2.7v-1h3.9zm5.8 0v11.3h-1.2v-10.3h-2.7v-1h3.9zm5.8 0v11.3h-1.2v-10.3H409v-1h3.9zm2.7 5.6c0-3.6 1.9-5.8 4.5-5.8s4.5 2.1 4.5 5.8c0 3.6-1.9 5.8-4.5 5.8s-4.5-2.2-4.5-5.8zm7.8 0c0-3-1.4-4.7-3.3-4.7-2 0-3.3 1.7-3.3 4.7s1.4 4.7 3.3 4.7c2 0 3.3-1.6 3.3-4.7zm6-5.6v11.3h-1.2v-10.3h-2.7v-1h3.9z"/><path class="st1" d="M132.6 203.7c0 .1-12.9.2-28.8.2s-28.8-.1-28.8-.2 12.9-.2 28.8-.2c15.9.1 28.8.1 28.8.2zm0 5.1c0 .1-12.9.2-28.8.2s-28.8-.1-28.8-.2 12.9-.2 28.8-.2c15.9.1 28.8.1 28.8.2zm-20.5 5.1h-1.5c-1 0-2.3 0-4 .1H80.4c-1.6 0-3 0-4-.1h-1.5 1.5c1 0 2.3 0 4-.1h26.2c1.6 0 3 0 4 .1h1.5zM137.9 227.2c0-.1.4-.2.9-.2s.9.1.9.2-.4.2-.9.2c-.5.1-.9-.1-.9-.2zm-3.7 0c0-.1.4-.2.9-.2s.9.1.9.2-.4.2-.9.2c-.5.1-.9-.1-.9-.2zm-3.7 0c0-.1.4-.2.9-.2s.9.1.9.2-.4.2-.9.2c-.5.1-.9-.1-.9-.2zm-3.7 0c0-.1.4-.2.9-.2s.9.1.9.2-.4.2-.9.2c-.5.1-.9-.1-.9-.2zm-3.7 0c0-.1.4-.2.9-.2s.9.1.9.2-.4.2-.9.2c-.5.1-.9-.1-.9-.2zm-3.7 0c0-.1.4-.2.9-.2s.9.1.9.2-.4.2-.9.2c-.5.1-.9-.1-.9-.2zm-3.7 0c0-.1.4-.2.9-.2s.9.1.9.2-.4.2-.9.2c-.5.1-.9-.1-.9-.2zm-3.7 0c0-.1.4-.2.9-.2s.9.1.9.2-.4.2-.9.2c-.5.1-.9-.1-.9-.2zm-3.7 0c0-.1.4-.2.9-.2s.9.1.9.2-.4.2-.9.2c-.5.1-.9-.1-.9-.2zm-3.7 0c0-.1.4-.2.9-.2s.9.1.9.2-.4.2-.9.2c-.5.1-.9-.1-.9-.2zm-3.7 0c0-.1.4-.2.9-.2s.9.1.9.2-.4.2-.9.2c-.4.1-.9-.1-.9-.2zm-3.7 0c0-.1.4-.2.9-.2s.9.1.9.2-.4.2-.9.2c-.4.1-.9-.1-.9-.2zm-3.7 0c0-.1.4-.2.9-.2s.9.1.9.2-.4.2-.9.2c-.4.1-.9-.1-.9-.2zm-3.7 0c0-.1.4-.2.9-.2s.9.1.9.2-.4.2-.9.2c-.4.1-.9-.1-.9-.2zm-3.6 0c0-.1.4-.2.9-.2s.9.1.9.2-.4.2-.9.2c-.5.1-.9-.1-.9-.2zm-3.7 0c0-.1.4-.2.9-.2s.9.1.9.2-.4.2-.9.2c-.5.1-.9-.1-.9-.2zm-3.7 0c0-.1.4-.2.9-.2s.9.1.9.2-.4.2-.9.2c-.5.1-.9-.1-.9-.2zm-3.7 0c0-.1.4-.2.9-.2s.9.1.9.2-.4.2-.9.2c-.5.1-.9-.1-.9-.2zm-3.7 0c0-.1.4-.2.9-.2s.9.1.9.2-.4.2-.9.2c-.5.1-.9-.1-.9-.2zm-3.7 0c0-.1.4-.2.9-.2s.9.1.9.2-.4.2-.9.2c-.5.1-.9-.1-.9-.2zm-3.7 0c0-.1.4-.2.9-.2s.9.1.9.2-.4.2-.9.2c-.5.1-.9-.1-.9-.2zm-3.7 0c0-.1.4-.2.9-.2s.9.1.9.2-.4.2-.9.2c-.5.1-.9-.1-.9-.2zm-3.7 0c0-.1.4-.2.9-.2s.9.1.9.2-.4.2-.9.2c-.5.1-.9-.1-.9-.2zm-3.7 0c0-.1.4-.2.9-.2s.9.1.9.2-.4.2-.9.2c-.5.1-.9-.1-.9-.2zm-3.7 0c0-.1.4-.2.9-.2s.9.1.9.2-.4.2-.9.2c-.5.1-.9-.1-.9-.2zm-3.7 0c0-.1.4-.2.9-.2s.9.1.9.2-.4.2-.9.2c-.5.1-.9-.1-.9-.2zm-3.7 0c0-.1.4-.2.9-.2s.9.1.9.2-.4.2-.9.2c-.5.1-.9-.1-.9-.2zm-3.7 0c0-.1.4-.2.9-.2s.9.1.9.2-.4.2-.9.2c-.5.1-.9-.1-.9-.2zm-2-1.7c.1 0 .2.4.2.9 0 .3 0 .6-.1.8l-.1-.1c.1 0 .2.1.2.1 0 .1-.1.1-.2.1H36l-.1-.2c-.1-.2-.1-.4-.1-.8.1-.4.2-.8.3-.8zm0-3.7c.1 0 .2.4.2.9s-.1.9-.2.9-.2-.4-.2-.9.1-.9.2-.9zm0-3.7c.1 0 .2.4.2.9s-.1.9-.2.9-.2-.4-.2-.9c0-.4.1-.9.2-.9zm0-3.7c.1 0 .2.4.2.9s-.1.9-.2.9-.2-.4-.2-.9c0-.4.1-.9.2-.9zm0-3.7c.1 0 .2.4.2.9s-.1.9-.2.9-.2-.4-.2-.9c0-.4.1-.9.2-.9zm0-3.7c.1 0 .2.4.2.9s-.1.9-.2.9-.2-.4-.2-.9c0-.4.1-.9.2-.9zm0-3.6c.1 0 .2.4.2.9s-.1.9-.2.9-.2-.4-.2-.9.1-.9.2-.9zm0-3.7c.1 0 .2.4.2.9s-.1.9-.2.9-.2-.4-.2-.9.1-.9.2-.9zm0-3.7c.1 0 .2.4.2.9s-.1.9-.2.9-.2-.4-.2-.9.1-.9.2-.9zm0-3.7c.1 0 .2.4.2.9s-.1.9-.2.9-.2-.4-.2-.9.1-.9.2-.9zm0-3.7c.1 0 .2.4.2.9s-.1.9-.2.9-.2-.4-.2-.9.1-.9.2-.9zm.8-2.9c0 .1-.4.2-.8.2l.2-.2v.1c0 .5-.1.9-.2.9s-.2-.4-.2-.9v-.3h.2c.5 0 .8.1.8.2zm3.7 0c0 .1-.4.2-.9.2s-.9-.1-.9-.2.4-.2.9-.2c.5-.1.9 0 .9.2zm3.7 0c0 .1-.4.2-.9.2s-.9-.1-.9-.2.4-.2.9-.2c.5-.1.9 0 .9.2zm3.7 0c0 .1-.4.2-.9.2s-.9-.1-.9-.2.4-.2.9-.2c.5-.1.9 0 .9.2zm3.7 0c0 .1-.4.2-.9.2s-.9-.1-.9-.2.4-.2.9-.2c.5-.1.9 0 .9.2zm3.7 0c0 .1-.4.2-.9.2s-.9-.1-.9-.2.4-.2.9-.2.9 0 .9.2zm3.7 0c0 .1-.4.2-.9.2s-.9-.1-.9-.2.4-.2.9-.2c.5-.1.9 0 .9.2zm3.7 0c0 .1-.4.2-.9.2s-.9-.1-.9-.2.4-.2.9-.2c.5-.1.9 0 .9.2zm3.7 0c0 .1-.4.2-.9.2s-.9-.1-.9-.2.4-.2.9-.2c.5-.1.9 0 .9.2zm3.7 0c0 .1-.4.2-.9.2s-.9-.1-.9-.2.4-.2.9-.2c.4-.1.9 0 .9.2zm3.7 0c0 .1-.4.2-.9.2s-.9-.1-.9-.2.4-.2.9-.2c.4-.1.9 0 .9.2zm3.7 0c0 .1-.4.2-.9.2s-.9-.1-.9-.2.4-.2.9-.2c.4-.1.9 0 .9.2zm3.7 0c0 .1-.4.2-.9.2s-.9-.1-.9-.2.4-.2.9-.2c.4-.1.9 0 .9.2zm3.6 0c0 .1-.4.2-.9.2s-.9-.1-.9-.2.4-.2.9-.2c.5-.1.9 0 .9.2zm3.7 0c0 .1-.4.2-.9.2s-.9-.1-.9-.2.4-.2.9-.2c.5-.1.9 0 .9.2zm3.7 0c0 .1-.4.2-.9.2s-.9-.1-.9-.2.4-.2.9-.2c.5-.1.9 0 .9.2zm3.7 0c0 .1-.4.2-.9.2s-.9-.1-.9-.2.4-.2.9-.2c.5-.1.9 0 .9.2zm3.7 0c0 .1-.4.2-.9.2s-.9-.1-.9-.2.4-.2.9-.2c.5-.1.9 0 .9.2zm3.7 0c0 .1-.4.2-.9.2s-.9-.1-.9-.2.4-.2.9-.2c.5-.1.9 0 .9.2zm3.7 0c0 .1-.4.2-.9.2s-.9-.1-.9-.2.4-.2.9-.2c.5-.1.9 0 .9.2zm3.7 0c0 .1-.4.2-.9.2s-.9-.1-.9-.2.4-.2.9-.2c.5-.1.9 0 .9.2zm3.7 0c0 .1-.4.2-.9.2s-.9-.1-.9-.2.4-.2.9-.2c.5-.1.9 0 .9.2zm3.7 0c0 .1-.4.2-.9.2s-.9-.1-.9-.2.4-.2.9-.2c.5-.1.9 0 .9.2zm3.7 0c0 .1-.4.2-.9.2s-.9-.1-.9-.2.4-.2.9-.2c.5-.1.9 0 .9.2zm3.7 0c0 .1-.4.2-.9.2s-.9-.1-.9-.2.4-.2.9-.2c.5-.1.9 0 .9.2zm3.7 0c0 .1-.4.2-.9.2s-.9-.1-.9-.2.4-.2.9-.2c.5-.1.9 0 .9.2zm3.7 0c0 .1-.4.2-.9.2s-.9-.1-.9-.2.4-.2.9-.2c.5-.1.9 0 .9.2zm3.7 0c0 .1-.4.2-.9.2s-.9-.1-.9-.2.4-.2.9-.2c.5-.1.9 0 .9.2zm3 .6c-.1 0-.2-.3-.2-.6l.2.2h-.3c-.5 0-.9-.1-.9-.2s.4-.2.9-.2h.5v.2c0 .4 0 .6-.2.6zm0 3.7c-.1 0-.2-.4-.2-.9s.1-.9.2-.9.2.4.2.9c.1.5 0 .9-.2.9zm0 3.7c-.1 0-.2-.4-.2-.9s.1-.9.2-.9.2.4.2.9c.1.5 0 .9-.2.9zm0 3.7c-.1 0-.2-.4-.2-.9s.1-.9.2-.9.2.4.2.9c.1.5 0 .9-.2.9zm0 3.7c-.1 0-.2-.4-.2-.9s.1-.9.2-.9.2.4.2.9c.1.5 0 .9-.2.9zm0 3.7c-.1 0-.2-.4-.2-.9s.1-.9.2-.9.2.4.2.9c.1.5 0 .9-.2.9zm0 3.7c-.1 0-.2-.4-.2-.9s.1-.9.2-.9.2.4.2.9c.1.5 0 .9-.2.9zm0 3.7c-.1 0-.2-.4-.2-.9s.1-.9.2-.9.2.4.2.9c.1.5 0 .9-.2.9zm0 3.7c-.1 0-.2-.4-.2-.9s.1-.9.2-.9.2.4.2.9c.1.5 0 .9-.2.9zm0 3.7c-.1 0-.2-.4-.2-.9s.1-.9.2-.9.2.4.2.9c.1.5 0 .9-.2.9zm0 3.7c-.1 0-.2-.4-.2-.9s.1-.9.2-.9.2.4.2.9c.1.5 0 .9-.2.9zm0 3.7c-.1 0-.2-.4-.2-.9s.1-.9.2-.9.2.4.2.9c.1.5 0 .9-.2.9zM70.4 219.9c0-.1.4-.2.9-.2l-.2.2V219.6c0-.1 0-.2.1-.3 0-.2.1-.3.2-.3s.1.1.2.3c0 .1 0 .2.1.3v.3l-.2.2c-.7 0-1.1-.1-1.1-.2zm-3.5 0c0-.1.4-.2.9-.2s.9.1.9.2-.4.2-.9.2-.9-.1-.9-.2zm-3.4 0c0-.1.4-.2.9-.2s.9.1.9.2-.4.2-.9.2c-.6 0-.9-.1-.9-.2zm-3.5 0c0-.1.4-.2.9-.2s.9.1.9.2-.4.2-.9.2-.9-.1-.9-.2zm-3.4 0c0-.1.4-.2.9-.2s.9.1.9.2-.4.2-.9.2c-.6 0-.9-.1-.9-.2zm-3.5 0c0-.1.4-.2.9-.2s.9.1.9.2-.4.2-.9.2-.9-.1-.9-.2zm-3.5 0c0-.1.4-.2.9-.2s.9.1.9.2-.4.2-.9.2-.9-.1-.9-.2zm-3.4 0c0-.1.4-.2.9-.2s.9.1.9.2-.4.2-.9.2-.9-.1-.9-.2zm-2.7-.9c.1 0 .2.4.2.9l-.2-.2h.3c.1 0 .2 0 .3.1.2 0 .3.1.3.2s-.1.1-.3.2c-.1 0-.2 0-.3.1H43.5l-.2-.2c0-.7.1-1.1.2-1.1zm0-3.7c.1 0 .2.4.2.9s-.1.9-.2.9-.2-.4-.2-.9.1-.9.2-.9zm0-3.8c.1 0 .2.4.2.9s-.1.9-.2.9-.2-.4-.2-.9c0-.4.1-.9.2-.9zm0-3.7c.1 0 .2.4.2.9s-.1.9-.2.9-.2-.4-.2-.9.1-.9.2-.9zm0-3.7c.1 0 .2.4.2.9s-.1.9-.2.9-.2-.4-.2-.9.1-.9.2-.9zm0-3.7c.1 0 .2.4.2.9s-.1.9-.2.9-.2-.4-.2-.9.1-.9.2-.9zm0-3.7c.1 0 .2.4.2.9s-.1.9-.2.9-.2-.4-.2-.9.1-.9.2-.9zm1-2.8c0 .1-.4.2-.9.2l.2-.2v.3c0 .1 0 .2-.1.3 0 .2-.1.3-.2.3s-.1-.1-.2-.3c0-.1 0-.2-.1-.3V193.9l.2-.2c.7-.1 1.1 0 1.1.2zm3.4 0c0 .1-.4.2-.9.2s-.9-.1-.9-.2.4-.2.9-.2c.5-.1.9 0 .9.2zm3.5 0c0 .1-.4.2-.9.2s-.9-.1-.9-.2.4-.2.9-.2c.5-.1.9 0 .9.2zm3.4 0c0 .1-.4.2-.9.2s-.9-.1-.9-.2.4-.2.9-.2c.5-.1.9 0 .9.2zm3.5 0c0 .1-.4.2-.9.2s-.9-.1-.9-.2.4-.2.9-.2c.5-.1.9 0 .9.2zm3.4 0c0 .1-.4.2-.9.2s-.9-.1-.9-.2.4-.2.9-.2c.5-.1.9 0 .9.2zm3.5 0c0 .1-.4.2-.9.2s-.9-.1-.9-.2.4-.2.9-.2c.5-.1.9 0 .9.2zm3.4 0c0 .1-.4.2-.9.2s-.9-.1-.9-.2.4-.2.9-.2c.5-.1.9 0 .9.2zm2.7.9c-.1 0-.2-.4-.2-.9l.2.2H71c-.1 0-.2 0-.3-.1-.2 0-.3-.1-.3-.2s.1-.1.3-.2c.1 0 .2 0 .3-.1h.3l.2.2c0 .7-.1 1.1-.2 1.1zm0 3.7c-.1 0-.2-.4-.2-.9s.1-.9.2-.9.2.4.2.9-.1.9-.2.9zm0 3.7c-.1 0-.2-.4-.2-.9s.1-.9.2-.9.2.4.2.9-.1.9-.2.9zm0 3.8c-.1 0-.2-.4-.2-.9s.1-.9.2-.9.2.4.2.9-.1.9-.2.9zm0 3.7c-.1 0-.2-.4-.2-.9s.1-.9.2-.9.2.4.2.9-.1.9-.2.9zm0 3.7c-.1 0-.2-.4-.2-.9s.1-.9.2-.9.2.4.2.9-.1.9-.2.9zm0 3.7c-.1 0-.2-.4-.2-.9s.1-.9.2-.9.2.4.2.9-.1.9-.2.9z"/><path class="st1" d="M42.9 219.2h1.3v1.3h-1.3v-1.3zM42.9 193.2h1.3v1.3h-1.3v-1.3zM70.6 193.2h1.3v1.3h-1.3v-1.3zM70.6 218.6h1.3v1.3h-1.3v-1.3zM56.1 219.2h1.3v1.3h-1.3v-1.3zM56.8 193.2h1.3v1.3h-1.3v-1.3zM42.9 206.9h1.3v1.3h-1.3v-1.3zM70 206.2h1.3v1.3H70v-1.3z"/><g><path class="st0" d="M211 101.4V87.5c0-8.9-.1-21.6-.1-36.9l.2.2h-62.5l.2-.2v50.9l-.2-.2c18.6 0 34.1.1 45.1.1 5.5 0 9.8 0 12.8.1h4.3c.1-.1.2-.1.2-.1h-4.6c-3 0-7.3 0-12.7.1-11 0-26.6.1-45.2.1h-.2V50.3h62.9v.2c0 15.4-.1 28.1-.1 37v13c-.1.6-.1.9-.1.9z"/><path class="st0" d="M211.5 58c0 .1-14.1.2-31.5.2s-31.5-.1-31.5-.2 14.1-.2 31.5-.2 31.5.1 31.5.2zm-57.9-3.7c0 .5-.4.8-.8.8-.5 0-.8-.4-.8-.8 0-.5.4-.8.8-.8.4-.1.8.3.8.8zm3.1 0c0 .5-.4.8-.8.8-.5 0-.8-.4-.8-.8 0-.5.4-.8.8-.8.4-.1.8.3.8.8zm3 0c0 .5-.4.8-.8.8-.5 0-.8-.4-.8-.8 0-.5.4-.8.8-.8.5-.1.8.3.8.8zM171.1 77.2c0 2.7-2 4.3-5.2 4.3h-3.4v4h-1.3V72.8h4.8c3.2 0 5.1 1.7 5.1 4.4zm-1.3 0c0-2-1.3-3.2-3.9-3.2h-3.4v6.4h3.4c2.6 0 3.9-1.2 3.9-3.2zm14.9-4.4v12.7h-1.3v-5.9h-8v5.9H174V72.8h1.3v5.7h8v-5.7h1.4zm14.1 4.4c0 2.7-2 4.3-5.2 4.3h-3.4v4h-1.3V72.8h4.8c3.1 0 5.1 1.7 5.1 4.4zm-1.4 0c0-2-1.3-3.2-3.9-3.2h-3.4v6.4h3.4c2.6 0 3.9-1.2 3.9-3.2z"/></g><g><path class="st2" d="M247.8 285.1h63.6v51h-63.6v-51z"/><path class="st3" d="M311.9 292.7c0 .2-8.2.3-28.1.3s-36.1-.1-36.1-.3c0-.2 16.1-.3 36.1-.3s28.1.1 28.1.3z"/><path class="st4" d="M253.6 289c0 .5-.4.8-1 .8-.5 0-1-.4-1-.8 0-.5.4-.8 1-.8.6-.1 1 .3 1 .8zm3.6 0c0 .5-.4.8-1 .8-.5 0-1-.4-1-.8 0-.5.4-.8 1-.8.5-.1 1 .3 1 .8zm3.5 0c0 .5-.4.8-1 .8-.5 0-1-.4-1-.8 0-.5.4-.8 1-.8.5-.1 1 .3 1 .8zM288.7 321.5s.2-.3.6-.7l1.8-1.8c1.6-1.5 3.7-3.7 6.2-6l.1-.1v.3c-2.4-2.3-4.6-4.3-6.2-5.8l-1.8-1.8c-.4-.4-.7-.7-.6-.7 0 0 .3.2.7.6.5.5 1.2 1 1.9 1.7 1.6 1.5 3.8 3.5 6.3 5.8l.2.2-.2.2-.1.1c-2.4 2.3-4.6 4.4-6.2 5.9-.8.7-1.4 1.3-1.9 1.7-.6.2-.8.4-.8.4zM269.8 304.9s-.2.3-.6.7l-1.8 1.8c-1.6 1.5-3.7 3.7-6.2 6l-.1.1v-.3c2.4 2.3 4.6 4.3 6.2 5.8l1.8 1.8c.4.4.7.7.6.7 0 0-.3-.2-.7-.6-.5-.5-1.2-1-1.9-1.7-1.6-1.5-3.8-3.5-6.3-5.8l-.2-.2.2-.2.1-.1c2.4-2.3 4.6-4.4 6.2-5.9.8-.7 1.4-1.3 1.9-1.7.5-.2.8-.4.8-.4zM274.6 325.4c-.1 0 1.9-5.6 4.4-12.4 2.6-6.8 4.7-12.3 4.8-12.3.1 0-1.9 5.6-4.4 12.4-2.5 6.9-4.6 12.4-4.8 12.3z"/></g><g><path class="st2" d="M109.9 395.5c3.7-1.9 8-2.2 12.2-1.5 2.2.4 4.5 1 6 2.7 1.5 1.7 1.8 4.6.1 6-1 .8-2.5 1-3.8 1-3.2 0-6.8-.6-9.3 1.3-1.5 1.1-2.4 2.9-4.2 3.5-1.7.5-3.6-.5-4.6-2-.9-1.5-.9-3.5-.5-5.2-.1-.1.4-3.9 4.1-5.8zm-8.5-16.4c2.3 3.2 6.7 2.2 8.7.2s2.9-4.8 3.7-7.5c1.8-6.2 3.6-12.7 2.3-19.1-.4-1.9-1.1-3.8-2.4-5.2-1.3-1.4-3.4-2.2-5.2-1.7-2.2.6-3.6 2.8-4.6 4.8-2.9 6.1-4.5 12.8-4.5 19.5-.1 3.2.3 6.5 2 9m-6.2 4.7c2.5-2.9 2.9-7.2 1.8-10.8-1.1-3.6-3.6-6.8-6.4-9.3-3.3-3-7.3-5.3-11.5-6.8-1.7-.6-3.4-1-5.2-.9-1.7.2-3.5 1.1-4.3 2.6-1.2 2.3 0 5.1 1.2 7.4 2.2 4 4.7 7.8 7.5 11.5 2.3 2.9 4.8 5.8 8.3 7.1 3.4 1.3 7 1.2 8.8-1.2M0 0"/><path class="st2" d="M101.6 408.6v-2c-.1-1.3-.3-3.2-.6-5.5-.4-2.3-.9-5-1.8-8-.4-1.4-1.2-4.6-3.4-9.5-2.8-6.6-6.6-12-9.9-15.3-.8-.9-1.6-1.5-2.3-2.2-.4-.3-.7-.6-1-.8l-.9-.6-1.7-1.1c-.1.1 2.4 1.6 5.6 5s6.8 8.7 9.6 15.3c1.5 3.6 2.6 6.7 3.4 9.4.9 2.9 1.5 5.7 1.9 7.9.4 2.3.7 4.2.8 5.5.2 1.2.3 1.9.3 1.9zM86 437.1l1.6 22.1h28.5l1.6-22.1H86zm-2.7-8.8h37.8v8.7H83.3v-8.7z"/><path class="st2" d="M83.3 458.3v2.5h37.1v-2.5H83.3zM86.8 465l-1.7-4.2h34l-2 4.2H86.8zM118.1 436.9c0 .1-7.1.2-15.9.2s-15.9-.1-15.9-.2 7.1-.2 15.9-.2 15.9.1 15.9.2z"/><path class="st2" d="M119.5 461c0 .1-7.7.2-17.3.2-9.5 0-17.3-.1-17.3-.2s7.7-.2 17.3-.2 17.3.1 17.3.2z"/></g></g><g id="Plant"><path class="st6" d="M368.4 376.3c-4.1-2.6-8.8-4.2-13.5-4.7-2.2-.2-4.6-.2-6.4 1.2-.4.3-.7.7-.7 1.2.1.3.4.6.6.8 5.5 4.2 13.9 4.7 20 1.5m-.3-.4c-3.1-2.4-6.2-4.8-8.8-7.7-2.6-2.9-4.7-6.3-5.5-10.1-.2-1.2-.3-2.5.4-3.4 7 5.4 12.5 12.5 13.9 21.2"/><path class="st6" d="M368.3 376.2c-.5-3.8-.7-7.7.2-11.5.9-3.8 2.9-7.3 6.1-9.5 1.2 2.8.7 6.1-.2 9-1.3 4.5-3.4 8.9-6.1 12.8m6.9 11.5c-4.2.5-7.8 2.7-10.9 5.5s-5.3 6.6-6.2 10.7c4.1-.3 7.5-3.1 10-6.3 2.5-3.3 4.3-6.8 7.1-9.9m1.5 1.9c-3.3-8.2-2.1-18.2 3.1-25.3 2.3 8.4 1.5 17.9-3.1 25.3m9 10.8c-3.8-.2-7.6.7-10.9 2.5-3.3 1.9-6 4.7-7.7 8.1-.2.5-.4 1-.1 1.5.3.4.8.4 1.2.4 3.7-.2 6.9-2.4 9.6-4.9 2.7-2.6 5-5.4 7.9-7.6m-.3-.6c-1.9-6.2-2.1-13-.3-19.3.7-2.5 1.8-5.1 4.1-6.3.2-.1.4-.2.6-.1s.3.3.4.5c.8 1.7 1.1 3.6 1 5.5s-.5 3.7-.9 5.6c-.7 3.4-1.1 7.1-3 10-.4.7-.8 1.5-1.2 2.2-.4.8-.4 1-.7 1.6m23.9 3.9c-1.8-6.7.1-14.9 4.4-20.4.3-.4.7-.8 1.2-.8.8.1 1 1.1.9 1.9-.2 6.8-2.5 13.6-6.5 19.3m2.2 1.5c8.2 2.1 17.6.1 24.4-5-4-2-8.8-2.6-13.2-1.6-4.4 1-8.5 3-11.2 6.6m1.8-4.5c4.6-7.5 13.4-12.4 22.1-12.8-1 3.6-3.9 6.3-7.2 8s-7 2.4-10.6 3.1c-1.4.3-3.4.6-4.3 1.7m-3.5-21.8c1.2-4.3 2.5-8.5 2.8-13 .3-4.4-.3-9-2.6-12.8-4.3 8.3-4.7 18-.4 26.2m14.6-7.7c5-9.1 15.2-16.4 25.6-17.4-4 9.9-14.9 17.6-25.6 17.4"/><path class="st6" d="M421.1 373.9c7.5 1.1 13.8 5.9 20.8 8.8 1.5.6 3.1 1.1 4.7.9s3.2-1.3 3.5-2.9c.3-1.3-.3-2.7-1.2-3.7-.9-1-2.2-1.6-3.4-2.1-7.6-3.2-15.8-3.2-23.8-1.3m-5 5.5c1.7.5 2.3 1.4 3.6 2.5 4.5 3.9 10 6.7 15.8 8.1.6.1 1.4.2 1.7-.3.3-.5-.1-1.1-.4-1.5-2.4-3-5.9-5.1-9.5-6.5s-6.8-3-11.1-2.6m-4.9-31.3c6.1 5.7 14.6 8.6 22.9 7.8.4 0 .8-.1 1-.4.6-.6-.1-1.6-.8-2.1-6.7-5.3-14.9-7.4-23.1-5.3"/><path class="st6" d="M417.6 345.4c8-6 19-7.8 28.6-4.7-3.6 3.5-8.6 5.5-13.6 6s-10.1-.1-15-1.3m-2.3-14.6c-.7-6.7-.2-12-.7-18.8 0-.5-.2-1.2-.7-1.4-.7-.3-1.3.6-1.5 1.3-2 6.2-.9 13.4 2.9 18.7"/><path class="st6" d="M414.9 331.6c4.6-2.8 8-6.5 11.1-10.8 2.2-3 4.1-6.6 3.6-10.3-3.1-.1-6 1.6-8 4-2 2.3-3.2 5.3-4.1 8.2-1 2.9-1.6 6-2.6 8.9m10.9-3.1c10-3.7 19.3-9.2 27.4-16.2-3.3-1.3-7-.5-10.3.8-7.5 3-13.6 8.1-17.3 15.3m-7.7 6.8c5.1.6 10.2.9 15.2.1 4.9-.8 9.6-2.8 14.2-4.7.4-.2.8-.4 1-.7.2-.4 0-.9-.3-1.2-.3-.3-.8-.4-1.2-.6-5-1.4-10.4-.7-15.3.9-5 1.7-9.1 3.6-13.6 6.2M389 347.7c-3.5-7-3.2-15.1-.2-22.3 2.1 3.2 2.4 7.3 2 11.1-.4 3.8-1.5 7.7-1.6 11.5m-13.9-7.2c-8.6-.2-17.2 3.5-23.1 9.8 4.3.7 8.7-.4 12.6-2.3s7.4-4.6 10.8-7.3m-9.6-3.3c-4.2-.3-8.3-.9-12.3.4-4.1 1.2-7.7 4.1-9.4 8 3.9.4 7.9-.5 11.6-2.2 3.5-1.7 6.8-4 10.1-6.2m13.7.1c-3.8-2.5-7.7-5-12.1-6s-9.5-.3-12.6 3.1c3.6 2.1 7.9 2.3 12.1 2.3 4.1 0 9.2-.1 13.1 1.3"/><path class="st6" d="M379.7 338c-6.5-6.4-8.9-17.8-6.3-26.5 5.1 7.7 7.4 17.3 6.3 26.5m17.9-18c1.2-2.8 2.1-5.8 3.2-8.7 1.1-2.9 2.5-5.7 4.5-8 2.1-2.3 4.9-4 8-4.2-1.9 8.8-7.8 16.6-15.6 21m-3.4 3.6c-2-2.8-4.4-6.6-7.1-8.6-2.7-2.1-6.3-3.3-9.7-2.5 3.5 6 9.9 10.3 16.8 11.1m.7-3.5c-1.3-3.4-2.7-6.8-3.2-10.4s-.2-7.4 1.6-10.5c3.6 6.7 4.7 13.9 1.8 21m2.4-21c2-6.7 8.1-11.6 14.7-13.8.8-.3 1.7-.5 2.6-.4s1.7.7 1.9 1.6c.2 1.1-.7 2.2-1.6 2.9-5.1 4.4-11.2 7.7-17.6 9.7m.1-5.4c.3-4.3.5-8.7 1.9-12.7 1.4-4.1 4.1-7.9 8-9.7.7 4.3-1.2 8.7-3.6 12.4-2.3 3.7-5.1 7.3-6.5 11.4m.1 1.5c-1.7-4.9-1.8-11-4.7-15.3-2-3-5.3-5-7-8.1-1.2 2.9-.8 6.3.4 9.2 1.2 2.9 3.2 5.4 5.4 7.7 2 2.4 3.9 4.1 5.9 6.5"/><path class="st7" d="M397.6 439.9c-.1 0-.2-32.4-.3-72.4 0-40 .1-72.4.2-72.4s.2 32.4.3 72.4c0 40-.1 72.4-.2 72.4z"/><path class="st7" d="M435.2 320s-.1.1-.3.4l-1 1c-1 .9-2.3 2.1-3.9 3.5-3.4 3-7.9 7-12.9 11.5s-9.4 8.8-12.4 12c-1.5 1.6-2.7 3-3.5 3.9-.4.4-.7.8-.9 1.1-.2.2-.3.4-.4.4 0 0 .1-.2.3-.4.2-.3.5-.6.9-1.1.8-1 1.9-2.3 3.4-4 3-3.3 7.3-7.6 12.4-12.1s9.7-8.5 13-11.4c1.6-1.4 3-2.6 4-3.4.4-.4.8-.7 1.1-.9.1-.4.2-.5.2-.5zm-23.6 21c-.1-.1.9-2.5 2-5.6s1.6-5.7 1.7-5.7-.2 2.7-1.2 5.8c-.5 1.6-1.1 2.9-1.6 3.9s-.9 1.6-.9 1.6zm-14 19.6s-.3-.3-.8-.9c-.5-.7-1.2-1.5-2-2.6-1.7-2.2-4-5.1-6.6-8.4s-5-6.2-6.7-8.3c-.8-1-1.5-1.9-2-2.5s-.7-.9-.7-1l.8.8c.5.6 1.3 1.4 2.2 2.4 1.8 2.1 4.2 5 6.8 8.2 2.6 3.3 4.9 6.3 6.5 8.5.8 1.1 1.4 2 1.9 2.6.4.8.7 1.2.6 1.2zM397.7 329.7c-.1 0-.7-2.1-2.2-4.2-1.5-2.2-3.4-3.3-3.3-3.4 0 0 .5.1 1.3.7.7.5 1.6 1.4 2.4 2.5 1.5 2.2 1.9 4.4 1.8 4.4zm-.1 92.9c-.1 0-.1-.8-.5-2.2-.4-1.4-1-3.3-2.2-5.6-2.2-4.6-6.3-10.4-11.5-16.2-2.6-2.9-5.1-5.7-7.2-8.3-2.1-2.6-3.9-5.2-5.1-7.4-1.3-2.2-2.1-4.1-2.6-5.5-.2-.7-.4-1.2-.5-1.6s-.1-.6-.1-.6.3.7.8 2.1c.5 1.3 1.4 3.2 2.7 5.4 1.3 2.2 3.1 4.7 5.2 7.3 2.1 2.6 4.6 5.4 7.2 8.3 5.2 5.8 9.3 11.7 11.4 16.4 1.1 2.3 1.7 4.3 2 5.7.2.7.3 1.2.3 1.6.1.4.1.6.1.6zm25.6-28.9l-1.3.8c-.9.5-2.1 1.2-3.5 2.3-1.4 1.1-3 2.5-4.6 4.2s-3.3 3.7-4.9 5.8c-3.4 4.2-6.5 8-8.4 11-1 1.5-1.7 2.7-2.1 3.6-.5.9-.7 1.4-.7 1.4s0-.1.1-.4c.1-.2.2-.6.5-1.1.4-.9 1.1-2.2 2-3.7 1.8-3.1 5-6.9 8.3-11.1 1.7-2.1 3.4-4.1 5-5.8 1.6-1.7 3.2-3.1 4.7-4.1 1.4-1.1 2.7-1.8 3.6-2.2l1-.5c.2-.1.3-.2.3-.2z"/><path class="st7" d="M423.7 403.1c0 .1-1.1.2-2.8.4-1.7.2-4.2.5-6.7 1.3s-4.6 2.1-6 3.2-2 2-2.1 1.9c0 0 .1-.3.4-.7.3-.4.8-.9 1.5-1.5 1.4-1.2 3.5-2.5 6.1-3.3s5.1-1.1 6.8-1.2c1.7-.1 2.8-.1 2.8-.1zM411.2 382.1s.2-.8 1.1-1.7c.9-.9 2.6-1.7 4.5-1.7 1.9-.1 3.6.5 4.7.9s1.8.8 1.8.9-.7-.2-1.9-.6c-1.2-.4-2.8-.8-4.6-.8-1.8.1-3.4.8-4.3 1.5-.9.9-1.2 1.6-1.3 1.5zm-3 3.1c-.1-.1 1-1.7 1.3-4.1s-.4-4.3-.3-4.3.3.4.5 1.2c.2.8.4 1.9.2 3.2-.1 1.2-.6 2.3-.9 3-.4.7-.8 1.1-.8 1z"/><path class="st8" d="M375.2 427.3c.7 12.4 4.4 25 10.2 37.7h25c5.5-12.6 9-25.2 9.6-37.7h-44.8z"/><path class="st3" d="M415.9 447.3c0 .1-8.2.2-18.4.2-10.1 0-18.4-.1-18.4-.2s8.2-.2 18.4-.2 18.4.1 18.4.2zM415.3 451.8c0 .1-7.7.2-17.2.2s-17.2-.1-17.2-.2 7.7-.2 17.2-.2 17.2.1 17.2.2z"/></g><g id="Binary_Numbers"><path class="st6" d="M246 140c0-2.4 1.3-3.9 3-3.9s3 1.4 3 3.9c0 2.4-1.3 3.9-3 3.9s-3-1.5-3-3.9zm5.3 0c0-2-.9-3.1-2.2-3.1s-2.2 1.1-2.2 3.1.9 3.1 2.2 3.1 2.2-1.1 2.2-3.1zm1.9 0c0-2.4 1.3-3.9 3-3.9 1.8 0 3 1.4 3 3.9 0 2.4-1.3 3.9-3 3.9-1.8-.1-3-1.5-3-3.9zm5.2 0c0-2-.9-3.1-2.2-3.1-1.3 0-2.2 1.1-2.2 3.1s.9 3.1 2.2 3.1c1.3 0 2.2-1.1 2.2-3.1zm4-3.8v7.6h-.8v-6.9h-1.8v-.7h2.6zm1.8 3.8c0-2.4 1.3-3.9 3-3.9 1.8 0 3 1.4 3 3.9 0 2.4-1.3 3.9-3 3.9-1.7-.1-3-1.5-3-3.9zm5.3 0c0-2-.9-3.1-2.2-3.1-1.3 0-2.2 1.1-2.2 3.1s.9 3.1 2.2 3.1c1.3 0 2.2-1.1 2.2-3.1zm4-3.8v7.6h-.8v-6.9h-1.8v-.7h2.6zM238.5 150.7c0-2.4 1.3-3.9 3-3.9s3 1.4 3 3.9c0 2.4-1.3 3.9-3 3.9s-3-1.4-3-3.9zm5.3 0c0-2-.9-3.1-2.2-3.1s-2.2 1.1-2.2 3.1.9 3.1 2.2 3.1c1.3.1 2.2-1 2.2-3.1zm1.9 0c0-2.4 1.3-3.9 3-3.9 1.8 0 3 1.4 3 3.9 0 2.4-1.3 3.9-3 3.9s-3-1.4-3-3.9zm5.3 0c0-2-.9-3.1-2.2-3.1s-2.2 1.1-2.2 3.1.9 3.1 2.2 3.1c1.3.1 2.2-1 2.2-3.1zm4-3.8v7.6h-.8v-6.9h-1.8v-.7h2.6zm1.8 3.8c0-2.4 1.3-3.9 3-3.9 1.8 0 3 1.4 3 3.9 0 2.4-1.3 3.9-3 3.9-1.8 0-3-1.4-3-3.9zm5.2 0c0-2-.9-3.1-2.2-3.1-1.3 0-2.2 1.1-2.2 3.1s.9 3.1 2.2 3.1c1.3.1 2.2-1 2.2-3.1zm4-3.8v7.6h-.8v-6.9h-1.8v-.7h2.6zm3.9 0v7.6h-.8v-6.9h-1.8v-.7h2.6zm1.8 3.8c0-2.4 1.3-3.9 3-3.9 1.8 0 3 1.4 3 3.9 0 2.4-1.3 3.9-3 3.9s-3-1.4-3-3.9zm5.3 0c0-2-.9-3.1-2.2-3.1s-2.2 1.1-2.2 3.1.9 3.1 2.2 3.1 2.2-1 2.2-3.1zm4-3.8v7.6h-.8v-6.9h-1.8v-.7h2.6zM246 161.2c0-2.4 1.3-3.9 3-3.9 1.8 0 3 1.4 3 3.9 0 2.4-1.3 3.9-3 3.9-1.7-.1-3-1.5-3-3.9zm5.3 0c0-2-.9-3.1-2.2-3.1s-2.2 1.1-2.2 3.1.9 3.1 2.2 3.1c1.2 0 2.2-1.1 2.2-3.1zm4-3.8v7.6h-.8v-6.9h-1.8v-.7h2.6zm3.9 0v7.6h-.8v-6.9h-1.8v-.7h2.6zm3.9 0v7.6h-.8v-6.9h-1.8v-.7h2.6zm1.8 3.8c0-2.4 1.3-3.9 3-3.9 1.8 0 3 1.4 3 3.9 0 2.4-1.3 3.9-3 3.9-1.7-.1-3-1.5-3-3.9zm5.2 0c0-2-.9-3.1-2.2-3.1s-2.2 1.1-2.2 3.1.9 3.1 2.2 3.1 2.2-1.1 2.2-3.1zm4-3.8v7.6h-.8v-6.9h-1.8v-.7h2.6z"/></g><g id="Speech_Bubble"><path class="st6" d="M282.8 97.4s.2-.2.5-.6l1.5-1.5c1.3-1.3 3.1-3 5-4.9v.3c-2-1.9-3.8-3.5-5.1-4.8l-1.5-1.5c-.4-.4-.5-.6-.5-.6s.2.2.6.5c.4.4 1 .8 1.6 1.4 1.3 1.2 3.1 2.9 5.1 4.7l.1.1-.1.1c-2 1.9-3.8 3.6-5.1 4.8-.6.6-1.1 1-1.6 1.4-.2.4-.5.6-.5.6z"/><path class="st6" d="M282.8 97.6c-.1 0-.1 0-.2-.1-.2-.2-.1-.3.5-.9l1.5-1.5c1.3-1.2 2.9-2.9 4.8-4.6-1.8-1.7-3.5-3.3-4.7-4.5l-1.5-1.5c-.6-.6-.7-.7-.5-.9.2-.2.3-.1 1 .5l1.6 1.4c1.4 1.2 3.2 2.9 5.1 4.7l.1.1c.1 0 .1.1.1.2s0 .1-.1.2l-.1.1c-1.9 1.9-3.8 3.6-5.2 4.9l-1.6 1.4c-.4.4-.6.5-.8.5zm-15.4-13.8s-.2.2-.5.6l-1.5 1.5c-1.3 1.3-3.1 3-5 4.9v-.3c2 1.9 3.8 3.5 5.1 4.8l1.5 1.5c.4.4.5.6.5.6s-.2-.2-.6-.5c-.4-.4-1-.8-1.6-1.4-1.3-1.2-3.1-2.9-5.1-4.7l-.1-.1.1-.1c2-1.9 3.8-3.6 5.1-4.8.6-.6 1.1-1 1.6-1.4.3-.5.5-.6.5-.6z"/><path class="st6" d="M267.4 97.6c-.1 0-.3-.2-.8-.5l-1.6-1.4c-1.4-1.3-3.2-2.9-5.1-4.7l-.1-.1c-.1 0-.1-.1-.1-.2s0-.1.1-.2l.1-.1c2-1.9 3.8-3.6 5.2-4.9l1.6-1.4c.6-.6.8-.7 1-.5s.1.3-.5.9l-1.5 1.5c-1.3 1.2-2.9 2.9-4.8 4.6 1.8 1.7 3.5 3.3 4.7 4.5l1.5 1.5c.6.6.7.7.5.9-.1.1-.1.1-.2.1zM271.4 100.6c-.1 0 1.5-4.6 3.6-10.2s3.8-10.1 3.9-10c.1 0-1.5 4.6-3.6 10.2-2.1 5.5-3.8 10-3.9 10z"/><path class="st6" d="M271.4 100.8h-.1c-.3-.1-.4-.1 3.5-10.5 3.8-10 4-10.1 4.1-10.2h.2c.3.1.4.1-3.5 10.5-1 2.7-2 5.2-2.7 7.1-1.1 2.7-1.3 3.1-1.5 3.1z"/></g><g id="Screens"><path class="st4" d="M338.5 190.1h86.7v35.2h-86.7v-35.2z"/><path class="st6" d="M425.2 225.3v-9.4c0-6.1 0-14.9-.1-25.7l.1.1h-86.7l.1-.1v35.2l-.1-.1c25.1 0 46.8 0 62.1.1h24c.4-.1.6-.1.6-.1h-24.4c-15.4 0-37.1 0-62.2.1h-.1V190h86.9v.1c0 10.9 0 19.7-.1 25.8v8.8c-.1.4-.1.6-.1.6z"/><path class="st6" d="M345.9 198.1h20.9V219h-20.9v-20.9zm73.3 8c0 .1-10.8.1-24.1.1s-24.1-.1-24.1-.1c0-.1 10.8-.1 24.1-.1s24.1.1 24.1.1zm0 4.3c0 .1-10.8.1-24.1.1s-24.1-.1-24.1-.1c0-.1 10.8-.1 24.1-.1s24.1 0 24.1.1zm-17.2 4.3h-30.9 30.6c.2-.1.3 0 .3 0z"/><path class="st3" d="M309.7 119h91.4v60.3h-91.4V119z"/><path class="st7" d="M401.1 179.4V175.1c0-2.8 0-6.9-.1-12.1 0-10.5-.1-25.5-.1-43.9l.2.2c-25.1 0-56.9 0-91.4.1l.3-.3v60.3l-.2-.2c26.9 0 49.7.1 65.8.1 8.1 0 14.5 0 18.8.1h6.3-6.3c-4.4 0-10.7 0-18.8.1-16.2 0-39 .1-66 .1h-.2V118.8h.3c34.5 0 66.3 0 91.4.1h.2v.2c0 18.4-.1 33.5-.1 44 0 5.2 0 9.3-.1 12.1v4.2z"/><path class="st7" d="M401.5 125.2c0 .1-20.4.3-45.6.3s-45.6-.1-45.6-.3c0-.1 20.4-.3 45.6-.3s45.6.1 45.6.3z"/><path class="st6" d="M317.6 133.9h29.1v38.4h-29.1v-38.4zm75.6 1.8c0 .1-9.1.3-20.4.3s-20.4-.1-20.4-.3c0-.1 9.1-.3 20.4-.3 11.2 0 20.4.1 20.4.3zm0 4.8c0 .1-9.1.3-20.4.3s-20.4-.1-20.4-.3 9.1-.3 20.4-.3c11.2 0 20.4.1 20.4.3zm0 4.8c0 .1-9.1.3-20.4.3s-20.4-.1-20.4-.3c0-.1 9.1-.3 20.4-.3 11.2 0 20.4.1 20.4.3zm0 4.8c0 .1-9.1.3-20.4.3s-20.4-.1-20.4-.3 9.1-.3 20.4-.3c11.2 0 20.4.1 20.4.3zm-17.7 4h16.4v18.2h-16.4v-18.2zm-2.7.8c0 .1-4.5.3-10 .3s-10-.1-10-.3c0-.1 4.5-.3 10-.3s10 .1 10 .3zm0 4.8c0 .1-4.5.3-10 .3s-10-.1-10-.3c0-.1 4.5-.3 10-.3s10 .1 10 .3zm0 5.6c0 .1-4.5.3-10 .3s-10-.1-10-.3 4.5-.3 10-.3 10 .1 10 .3zm-.5 5.6c0 .1-4.5.3-10 .3s-10-.1-10-.3c0-.1 4.5-.3 10-.3 5.5.1 10 .2 10 .3z"/><g><path class="st6" d="M163.1 150.3v-5.7c0-3.6-.1-8.7-.1-14.8l.2.2h-25.5c-.1 0 .4-.4.2-.2v20.4l-.2-.2c7.5 0 13.9.1 18.4.1 2.2 0 4 0 5.2.1h1.4c.2.1.4.1.4.1h-1.9c-1.2 0-3 0-5.2.1-4.5 0-10.9.1-18.5.1h-.2V129.9l.2-.2h25.7v.2c0 6.2-.1 11.3-.1 14.9v5.5z"/><path class="st6" d="M159.8 142.9s-.6-.5-1.6-1.4-2.4-2.2-4-3.8h.3c-1.2 1.4-2.6 3-4 4.6l-.2.2-.1.2-.2-.1c-.9-.7-1.7-1.4-2.5-2.1h.3c-2.2 2-4.1 3.7-5.5 4.9-.6.5-1.2 1-1.6 1.4-.4.3-.6.5-.6.5s.2-.2.5-.6l1.5-1.5c1.3-1.2 3.2-3 5.4-5l.1-.1.1.1c.8.7 1.6 1.3 2.5 2.1h-.3l.2-.2c1.5-1.7 2.9-3.2 4.1-4.6l.1-.2.2.2 3.9 3.9c.9.9 1.5 1.5 1.4 1.5zm-13.3-7l-.4-.4c-.3-.2-.7-.5-1.3-.6s-1.3.2-1.8.8-.6 1.6-.2 2.3c.4.8 1.4 1.1 2.1 1 .8-.1 1.3-.7 1.6-1.2s.2-1.1.2-1.4c-.2-.3-.3-.5-.2-.5 0 0 .2.1.3.5.1.3.2.9 0 1.6-.2.6-.9 1.3-1.8 1.5-.9.2-2-.2-2.6-1.2-.6-.9-.4-2.1.3-2.8.6-.7 1.5-.9 2.2-.8.7.1 1.1.5 1.4.8l.2.4zm-11.9 8.9l-.4-.4c-.3-.2-.7-.5-1.3-.6s-1.3.2-1.8.8-.6 1.6-.2 2.3c.4.8 1.4 1.1 2.1 1 .8-.1 1.3-.7 1.6-1.2s.2-1.1.2-1.4c-.1-.3-.2-.5-.2-.5s.2.1.3.5c.1.3.2.9 0 1.6-.2.6-.9 1.3-1.8 1.5-.9.2-2-.2-2.6-1.2-.6-.9-.4-2.1.3-2.8.6-.7 1.5-.9 2.2-.8.7.1 1.1.5 1.4.8.2.2.3.4.2.4z"/><path class="st6" d="M150.3 151.2v1.7c0 1.2 0 2.8.1 4.8v.1h-.1c-5.3.1-13.6.1-22.9.1H126v-.2c0-7.3 0-13.8.1-18.8v-.2h.2c2.8 0 5.2.1 6.8.1h1.9-1.9c-1.7 0-4 0-6.8.1l.2-.2c0 5 0 11.5.1 18.8l-.2-.2h1.2c9.3 0 17.6 0 22.9.1l-.1.1c0-2 .1-3.6.1-4.8v-1.3c-.2 0-.2-.2-.2-.2z"/><path class="st6" d="M136.2 149.1c.1.1-1.6 1.6-3.7 3.5s-3.8 3.4-3.9 3.3c-.1-.1 1.5-1.8 3.6-3.6 2.1-1.9 3.9-3.3 4-3.2zm5.2 5.1c-.1.1-.8-.3-1.4-1.1-.7-.7-1-1.5-.9-1.6s.6.5 1.3 1.2c.5.8 1.1 1.4 1 1.5z"/><path class="st6" d="M171.3 168.9v-14c0-9-.1-22-.1-37.9l.2.2c-23.5 0-53.9 0-87.1.1l.2-.2V169l-.2-.2c25.5 0 47.3.1 62.6.1 7.7 0 13.8 0 18 .1h6c.3-.1.4-.1.4-.1h-6.4c-4.2 0-10.3 0-17.9.1-15.4 0-37.2.1-62.8.1H84V116.8h.2c33.1 0 63.6 0 87.1.1h.2v.2c0 15.9-.1 28.9-.1 38v13.1c-.1.4-.1.7-.1.7z"/><path class="st6" d="M91.3 129.2h26.5v1.9H91.3v-1.9zM116.7 138.7c0 .1-5.8.2-12.9.2s-12.9-.1-12.9-.2 5.8-.2 12.9-.2 12.9.1 12.9.2zM116.7 143c0 .1-5.8.2-12.9.2s-12.9-.1-12.9-.2 5.8-.2 12.9-.2 12.9.1 12.9.2zM116.7 147.3c0 .1-5.8.2-12.9.2s-12.9-.1-12.9-.2 5.8-.2 12.9-.2 12.9.1 12.9.2zM116.7 151.6c0 .1-5.8.2-12.9.2s-12.9-.1-12.9-.2 5.8-.2 12.9-.2 12.9.1 12.9.2zM102.5 155.8c0 .1-2.6.2-5.8.2-3.2 0-5.8-.1-5.8-.2s2.6-.2 5.8-.2c3.2 0 5.8.1 5.8.2z"/></g><g><path class="st6" d="M358.2 250.6c0 .1-11.3.1-25.3.1s-25.3-.1-25.3-.1c0-.1 11.3-.1 25.3-.1s25.3 0 25.3.1zm0 4.5c0 .1-11.3.1-25.3.1s-25.3-.1-25.3-.1c0-.1 11.3-.1 25.3-.1 14-.1 25.3 0 25.3.1zm-18 4.5h-32.4 32.1c.2-.1.3 0 .3 0zM362.9 271.2c0-.1.4-.2.8-.2s.8.1.8.2-.4.2-.8.2-.8 0-.8-.2zm-3.2 0c0-.1.4-.2.8-.2s.8.1.8.2-.4.2-.8.2c-.5 0-.8 0-.8-.2zm-3.3 0c0-.1.4-.2.8-.2s.8.1.8.2-.4.2-.8.2-.8 0-.8-.2zm-3.2 0c0-.1.4-.2.8-.2s.8.1.8.2-.4.2-.8.2c-.5 0-.8 0-.8-.2zm-3.3 0c0-.1.4-.2.8-.2s.8.1.8.2-.4.2-.8.2-.8 0-.8-.2zm-3.2 0c0-.1.4-.2.8-.2s.8.1.8.2-.4.2-.8.2c-.5 0-.8 0-.8-.2zm-3.3 0c0-.1.4-.2.8-.2s.8.1.8.2-.4.2-.8.2-.8 0-.8-.2zm-3.2 0c0-.1.4-.2.8-.2s.8.1.8.2-.4.2-.8.2c-.5 0-.8 0-.8-.2zm-3.3 0c0-.1.4-.2.8-.2s.8.1.8.2-.4.2-.8.2-.8 0-.8-.2zm-3.2 0c0-.1.4-.2.8-.2s.8.1.8.2-.4.2-.8.2-.8 0-.8-.2zm-3.2 0c0-.1.4-.2.8-.2s.8.1.8.2-.4.2-.8.2c-.5 0-.8 0-.8-.2zm-3.3 0c0-.1.4-.2.8-.2s.8.1.8.2-.4.2-.8.2-.8 0-.8-.2zm-3.2 0c0-.1.4-.2.8-.2s.8.1.8.2-.4.2-.8.2c-.5 0-.8 0-.8-.2zm-3.3 0c0-.1.4-.2.8-.2s.8.1.8.2-.4.2-.8.2-.8 0-.8-.2zm-3.2 0c0-.1.4-.2.8-.2s.8.1.8.2-.4.2-.8.2c-.5 0-.8 0-.8-.2zm-3.3 0c0-.1.4-.2.8-.2s.8.1.8.2-.4.2-.8.2-.8 0-.8-.2zm-3.2 0c0-.1.4-.2.8-.2s.8.1.8.2-.4.2-.8.2c-.5 0-.8 0-.8-.2zm-3.3 0c0-.1.4-.2.8-.2s.8.1.8.2-.4.2-.8.2-.8 0-.8-.2zm-3.2 0c0-.1.4-.2.8-.2s.8.1.8.2-.4.2-.8.2-.8 0-.8-.2zm-3.3 0c0-.1.4-.2.8-.2s.8.1.8.2-.4.2-.8.2-.8 0-.8-.2zm-3.2 0c0-.1.4-.2.8-.2s.8.1.8.2-.4.2-.8.2-.8 0-.8-.2zm-3.2 0c0-.1.4-.2.8-.2s.8.1.8.2-.4.2-.8.2c-.5 0-.8 0-.8-.2zm-3.3 0c0-.1.4-.2.8-.2s.8.1.8.2-.4.2-.8.2-.8 0-.8-.2zm-3.2 0c0-.1.4-.2.8-.2s.8.1.8.2-.4.2-.8.2c-.5 0-.8 0-.8-.2zm-3.3 0c0-.1.4-.2.8-.2s.8.1.8.2-.4.2-.8.2-.8 0-.8-.2zm-3.2 0c0-.1.4-.2.8-.2s.8.1.8.2-.4.2-.8.2c-.5 0-.8 0-.8-.2zm-3.3 0c0-.1.4-.2.8-.2s.8.1.8.2-.4.2-.8.2-.8 0-.8-.2zm-3.2 0c0-.1.4-.2.8-.2s.8.1.8.2-.4.2-.8.2c-.5 0-.8 0-.8-.2zm-1.8-1.4c.1 0 .2.4.2.8 0 .3 0 .5-.1.7l-.1-.1c.1 0 .1.1.1.1l-.1.1h-.1l-.1-.1c-.1-.1-.1-.4-.1-.7.1-.5.2-.8.3-.8z"/><ellipse class="st6" cx="273.5" cy="267.3" rx=".2" ry=".8"/><ellipse class="st6" cx="273.5" cy="264.1" rx=".2" ry=".8"/><ellipse class="st6" cx="273.5" cy="260.8" rx=".2" ry=".8"/><ellipse class="st6" cx="273.5" cy="257.6" rx=".2" ry=".8"/><ellipse class="st6" cx="273.5" cy="254.3" rx=".2" ry=".8"/><ellipse class="st6" cx="273.5" cy="251.1" rx=".2" ry=".8"/><path class="st6" d="M273.5 247c.1 0 .2.4.2.8s-.1.8-.2.8-.2-.4-.2-.8.1-.8.2-.8z"/><ellipse class="st6" cx="273.5" cy="244.6" rx=".2" ry=".8"/><ellipse class="st6" cx="273.5" cy="241.4" rx=".2" ry=".8"/><ellipse class="st6" cx="273.5" cy="238.1" rx=".2" ry=".8"/><path class="st6" d="M274.2 234.8c0 .1-.3.2-.7.2l.2-.2v.1c0 .4-.1.8-.2.8s-.2-.4-.2-.8v-.3h.2c.4 0 .7.1.7.2zm3.3 0c0 .1-.4.2-.8.2s-.8-.1-.8-.2.4-.2.8-.2.8.1.8.2zm3.2 0c0 .1-.4.2-.8.2s-.8-.1-.8-.2.4-.2.8-.2.8.1.8.2zm3.3 0c0 .1-.4.2-.8.2s-.8-.1-.8-.2.4-.2.8-.2.8.1.8.2zm3.2 0c0 .1-.4.2-.8.2s-.8-.1-.8-.2.4-.2.8-.2.8.1.8.2zm3.2 0c0 .1-.4.2-.8.2s-.8-.1-.8-.2.4-.2.8-.2c.5 0 .8.1.8.2zm3.3 0c0 .1-.4.2-.8.2s-.8-.1-.8-.2.4-.2.8-.2.8.1.8.2zm3.2 0c0 .1-.4.2-.8.2s-.8-.1-.8-.2.4-.2.8-.2c.5 0 .8.1.8.2zm3.3 0c0 .1-.4.2-.8.2s-.8-.1-.8-.2.4-.2.8-.2.8.1.8.2zm3.2 0c0 .1-.4.2-.8.2s-.8-.1-.8-.2.4-.2.8-.2c.5 0 .8.1.8.2zm3.3 0c0 .1-.4.2-.8.2s-.8-.1-.8-.2.4-.2.8-.2.8.1.8.2zm3.2 0c0 .1-.4.2-.8.2s-.8-.1-.8-.2.4-.2.8-.2c.5 0 .8.1.8.2zm3.3 0c0 .1-.4.2-.8.2s-.8-.1-.8-.2.4-.2.8-.2.8.1.8.2zm3.2 0c0 .1-.4.2-.8.2s-.8-.1-.8-.2.4-.2.8-.2.8.1.8.2zm3.3 0c0 .1-.4.2-.8.2s-.8-.1-.8-.2.4-.2.8-.2.8.1.8.2zm3.2 0c0 .1-.4.2-.8.2s-.8-.1-.8-.2.4-.2.8-.2.8.1.8.2zm3.2 0c0 .1-.4.2-.8.2s-.8-.1-.8-.2.4-.2.8-.2c.5 0 .8.1.8.2zm3.3 0c0 .1-.4.2-.8.2s-.8-.1-.8-.2.4-.2.8-.2.8.1.8.2zm3.2 0c0 .1-.4.2-.8.2s-.8-.1-.8-.2.4-.2.8-.2c.5 0 .8.1.8.2zm3.3 0c0 .1-.4.2-.8.2s-.8-.1-.8-.2.4-.2.8-.2.8.1.8.2zm3.2 0c0 .1-.4.2-.8.2s-.8-.1-.8-.2.4-.2.8-.2c.5 0 .8.1.8.2zm3.3 0c0 .1-.4.2-.8.2s-.8-.1-.8-.2.4-.2.8-.2.8.1.8.2zm3.2 0c0 .1-.4.2-.8.2s-.8-.1-.8-.2.4-.2.8-.2c.5 0 .8.1.8.2zm3.3 0c0 .1-.4.2-.8.2s-.8-.1-.8-.2.4-.2.8-.2.8.1.8.2zm3.2 0c0 .1-.4.2-.8.2s-.8-.1-.8-.2.4-.2.8-.2.8.1.8.2zm3.3 0c0 .1-.4.2-.8.2s-.8-.1-.8-.2.4-.2.8-.2.8.1.8.2zm3.2 0c0 .1-.4.2-.8.2s-.8-.1-.8-.2.4-.2.8-.2.8.1.8.2zm3.2 0c0 .1-.4.2-.8.2s-.8-.1-.8-.2.4-.2.8-.2c.5 0 .8.1.8.2zm2.7.5c-.1 0-.2-.2-.2-.6l.2.2h-.2c-.4 0-.8-.1-.8-.2s.4-.2.8-.2h.4v.2c0 .4-.1.6-.2.6zm0 3.3c-.1 0-.2-.4-.2-.8s.1-.8.2-.8.2.4.2.8-.1.8-.2.8zm0 3.2c-.1 0-.2-.4-.2-.8s.1-.8.2-.8.2.4.2.8c0 .5-.1.8-.2.8zm0 3.3c-.1 0-.2-.4-.2-.8s.1-.8.2-.8.2.4.2.8-.1.8-.2.8zm0 3.2c-.1 0-.2-.4-.2-.8s.1-.8.2-.8.2.4.2.8-.1.8-.2.8zm0 3.3c-.1 0-.2-.4-.2-.8s.1-.8.2-.8.2.4.2.8-.1.8-.2.8zm0 3.2c-.1 0-.2-.4-.2-.8s.1-.8.2-.8.2.4.2.8-.1.8-.2.8zm0 3.2c-.1 0-.2-.4-.2-.8s.1-.8.2-.8.2.4.2.8c0 .5-.1.8-.2.8zm0 3.3c-.1 0-.2-.4-.2-.8s.1-.8.2-.8.2.4.2.8-.1.8-.2.8zm0 3.2c-.1 0-.2-.4-.2-.8s.1-.8.2-.8.2.4.2.8c0 .5-.1.8-.2.8zm0 3.3c-.1 0-.2-.4-.2-.8s.1-.8.2-.8.2.4.2.8-.1.8-.2.8zm0 3.2c-.1 0-.2-.4-.2-.8s.1-.8.2-.8.2.4.2.8c0 .5-.1.8-.2.8z"/><g><path class="st6" d="M303.6 264.8c0-.1.4-.2.8-.2l-.2.2V264.2c0-.1.1-.2.1-.2.1 0 .1.1.1.2v.6l-.2.2c-.2 0-.6-.1-.6-.2zm-3 0c0-.1.3-.2.8-.2.4 0 .8.1.8.2s-.3.2-.8.2-.8-.1-.8-.2zm-3.1 0c0-.1.3-.2.8-.2s.8.1.8.2-.3.2-.8.2-.8-.1-.8-.2zm-3 0c0-.1.3-.2.8-.2.4 0 .8.1.8.2s-.3.2-.8.2-.8-.1-.8-.2zm-3 0c0-.1.3-.2.8-.2s.8.1.8.2-.3.2-.8.2-.8-.1-.8-.2zm-3.1 0c0-.1.3-.2.8-.2.4 0 .8.1.8.2s-.3.2-.8.2c-.4 0-.8-.1-.8-.2zm-3 0c0-.1.3-.2.8-.2.4 0 .8.1.8.2s-.3.2-.8.2c-.4 0-.8-.1-.8-.2zm-3 0c0-.1.3-.2.8-.2.4 0 .8.1.8.2s-.3.2-.8.2-.8-.1-.8-.2zm-2.3-.8c.1 0 .2.4.2.8l-.2-.2h.6c.1 0 .2.1.2.1 0 .1-.1.1-.2.1h-.6l-.2-.2c-.1-.2 0-.6.2-.6zm0-3.3c.1 0 .2.4.2.8 0 .5-.1.8-.2.8s-.2-.4-.2-.8c-.1-.4 0-.8.2-.8zm0-3.2c.1 0 .2.4.2.8 0 .5-.1.8-.2.8s-.2-.4-.2-.8c-.1-.5 0-.8.2-.8zm0-3.3c.1 0 .2.4.2.8 0 .5-.1.8-.2.8s-.2-.4-.2-.8c-.1-.4 0-.8.2-.8zm0-3.3c.1 0 .2.4.2.8 0 .5-.1.8-.2.8s-.2-.4-.2-.8c-.1-.4 0-.8.2-.8zm0-3.2c.1 0 .2.4.2.8 0 .5-.1.8-.2.8s-.2-.4-.2-.8c-.1-.5 0-.8.2-.8zm0-3.3c.1 0 .2.4.2.8 0 .5-.1.8-.2.8s-.2-.4-.2-.8c-.1-.4 0-.8.2-.8zm.8-2.4c0 .1-.4.2-.8.2l.2-.2v.6c0 .1-.1.2-.1.2-.1 0-.1-.1-.1-.2v-.6l.2-.2c.2 0 .6.1.6.2zm3 0c0 .1-.3.2-.8.2-.4 0-.8-.1-.8-.2s.3-.2.8-.2.8.1.8.2zm3 0c0 .1-.3.2-.8.2-.4 0-.8-.1-.8-.2s.3-.2.8-.2.8.1.8.2zm3.1 0c0 .1-.3.2-.8.2-.4 0-.8-.1-.8-.2s.3-.2.8-.2c.4 0 .8.1.8.2zm3 0c0 .1-.3.2-.8.2-.4 0-.8-.1-.8-.2s.3-.2.8-.2.8.1.8.2zm3 0c0 .1-.3.2-.8.2s-.8-.1-.8-.2.3-.2.8-.2.8.1.8.2zm3.1 0c0 .1-.3.2-.8.2-.4 0-.8-.1-.8-.2s.3-.2.8-.2c.4 0 .8.1.8.2zm3 0c0 .1-.3.2-.8.2-.4 0-.8-.1-.8-.2s.3-.2.8-.2c.4 0 .8.1.8.2zm2.3.8c-.1 0-.2-.4-.2-.8l.2.2h-.6c-.1 0-.2-.1-.2-.1 0-.1.1-.1.2-.1h.6l.2.2c0 .2-.1.6-.2.6zm0 3.2c-.1 0-.2-.4-.2-.8 0-.5.1-.8.2-.8s.2.4.2.8c0 .5-.1.8-.2.8zm0 3.3c-.1 0-.2-.4-.2-.8 0-.5.1-.8.2-.8s.2.4.2.8-.1.8-.2.8zm0 3.3c-.1 0-.2-.4-.2-.8s.1-.8.2-.8.2.4.2.8-.1.8-.2.8zm0 3.2c-.1 0-.2-.4-.2-.8 0-.5.1-.8.2-.8s.2.4.2.8c0 .5-.1.8-.2.8zm0 3.3c-.1 0-.2-.4-.2-.8 0-.5.1-.8.2-.8s.2.4.2.8-.1.8-.2.8zm0 3.3c-.1 0-.2-.4-.2-.8 0-.5.1-.8.2-.8s.2.4.2.8-.1.8-.2.8z"/><path class="st6" d="M279.5 264.2h1.2v1.2h-1.2v-1.2zM279.5 241.4h1.2v1.2h-1.2v-1.2zM303.8 241.4h1.2v1.2h-1.2v-1.2zM303.8 263.7h1.2v1.2h-1.2v-1.2zM291.1 264.2h1.2v1.2h-1.2v-1.2zM291.7 241.4h1.2v1.2h-1.2v-1.2zM279.5 253.4h1.2v1.2h-1.2v-1.2zM303.2 252.8h1.2v1.2h-1.2v-1.2z"/></g></g></g><g id="Device"><path class="st7" d="M253.7 218.6h56.4c.6 0 1.2-.3 1.6-.7l21.2-23.2c.4-.4.6-.9.6-1.5v-42.4c0-1.2-1-2.2-2.2-2.2h-54c-1.2 0-2.2 1-2.2 2.2v40.6c0 .6-.2 1.2-.7 1.6l-22.2 21.9c-1.5 1.3-.5 3.7 1.5 3.7z"/><path d="M277.1 151.2h54.4v38.7h-54.4v-38.7z" fill="#f5f5f5"/><path class="st8" d="M332.7 192.6c0 .1-12.7.3-28.3.3-15.6 0-28.3-.1-28.3-.3 0-.1 12.7-.3 28.3-.3 15.7.1 28.3.2 28.3.3z"/><path class="st7" d="M327.3 187.1c0-.1.8-.1 1.7-.1h.3l-.1.1c0-.8.1-1.5.1-1.5.1 0 .1.6.1 1.5v.1h-.4c-.9 0-1.7-.1-1.7-.1zm-4 0c0-.1.4-.1 1-.1s1 0 1 .1-.4.1-1 .1c-.5 0-1-.1-1-.1zm-4 0c0-.1.4-.1 1-.1s1 0 1 .1-.4.1-1 .1c-.5 0-1-.1-1-.1zm-4 0c0-.1.4-.1 1-.1s1 0 1 .1-.4.1-1 .1c-.5 0-1-.1-1-.1zm-4 0c0-.1.4-.1 1-.1s1 0 1 .1-.4.1-1 .1c-.5 0-1-.1-1-.1zm-4 0c0-.1.4-.1 1-.1s1 0 1 .1-.4.1-1 .1c-.5 0-1-.1-1-.1zm-4 0c0-.1.4-.1 1-.1s1 0 1 .1-.4.1-1 .1c-.5 0-1-.1-1-.1zm-4 0c0-.1.4-.1 1-.1s1 0 1 .1-.4.1-1 .1c-.5 0-1-.1-1-.1zm-4 0c0-.1.4-.1 1-.1s1 0 1 .1-.4.1-1 .1c-.5 0-1-.1-1-.1zm-4 0c0-.1.4-.1 1-.1s1 0 1 .1-.4.1-1 .1c-.5 0-1-.1-1-.1zm-4 0c0-.1.4-.1 1-.1s1 0 1 .1-.4.1-1 .1c-.5 0-1-.1-1-.1zm-4 0c0-.1.4-.1 1-.1s1 0 1 .1-.4.1-1 .1c-.5 0-1-.1-1-.1zm-4 0c0-.1.4-.1 1-.1s1 0 1 .1-.4.1-1 .1c-.5 0-1-.1-1-.1zm0-4c.1 0 .1.4.1 1s0 1-.1 1-.1-.4-.1-1 0-1 .1-1zm0-4c.1 0 .1.4.1 1s0 1-.1 1-.1-.4-.1-1 0-1 .1-1zm0-4c.1 0 .1.4.1 1s0 1-.1 1-.1-.4-.1-1 0-1 .1-1zm0-4c.1 0 .1.4.1 1s0 1-.1 1-.1-.4-.1-1 0-1 .1-1zm0-4c.1 0 .1.4.1 1s0 1-.1 1-.1-.4-.1-1 0-1 .1-1zm0-4c.1 0 .1.4.1 1s0 1-.1 1-.1-.4-.1-1 0-1 .1-1zm3.2-.8c0 .1-.4.1-1 .1s-1 0-1-.1.4-.1 1-.1 1 .1 1 .1zm4 0c0 .1-.4.1-1 .1s-1 0-1-.1.4-.1 1-.1 1 .1 1 .1zm4 0c0 .1-.4.1-1 .1s-1 0-1-.1.4-.1 1-.1 1 .1 1 .1zm4 0c0 .1-.4.1-1 .1s-1 0-1-.1.4-.1 1-.1 1 .1 1 .1zm4 0c0 .1-.4.1-1 .1s-1 0-1-.1.4-.1 1-.1 1 .1 1 .1zm4 0c0 .1-.4.1-1 .1s-1 0-1-.1.4-.1 1-.1 1 .1 1 .1zm4 0c0 .1-.4.1-1 .1s-1 0-1-.1.4-.1 1-.1 1 .1 1 .1zm4 0c0 .1-.4.1-1 .1s-1 0-1-.1.4-.1 1-.1 1 .1 1 .1zm4 0c0 .1-.4.1-1 .1s-1 0-1-.1.4-.1 1-.1 1 .1 1 .1zm4 0c0 .1-.4.1-1 .1s-1 0-1-.1.4-.1 1-.1 1 .1 1 .1zm4 0c0 .1-.4.1-1 .1s-1 0-1-.1.4-.1 1-.1 1 .1 1 .1zm4 0c0 .1-.4.1-1 .1s-1 0-1-.1.4-.1 1-.1 1 .1 1 .1zm2.8 1.3c-.1 0-.1-.4-.1-1v-.2l.1.1c-.4 0-.8-.1-.8-.1s.3-.1.8-.1h.1v.3c0 .5 0 1-.1 1zm0 4c-.1 0-.1-.4-.1-1s0-1 .1-1 .1.4.1 1c0 .5 0 1-.1 1zm0 4c-.1 0-.1-.4-.1-1s0-1 .1-1 .1.4.1 1c0 .5 0 1-.1 1zm0 4c-.1 0-.1-.4-.1-1s0-1 .1-1 .1.4.1 1c0 .5 0 1-.1 1zm0 4c-.1 0-.1-.4-.1-1s0-1 .1-1 .1.4.1 1c0 .5 0 1-.1 1zm0 4c-.1 0-.1-.4-.1-1s0-1 .1-1 .1.4.1 1c0 .5 0 1-.1 1zM279.3 153.2h50v7.2h-50v-7.2z"/><path class="st8" d="M316.7 207.2l11.8-12.9h-50.9l-13 12.5 52.1.4z"/></g><g id="Character"><path class="st6" d="M152.5 441.4l-5.8 21.6 19 1.8 4-20.6-17.2-2.8z"/><path class="st7" d="M166.2 463c0 .1-1.1 0-2.8-.1s-4.1-.4-6.7-.7c-2.5-.3-4.8-.6-6.6-.9-1.7-.2-2.7-.4-2.7-.5s1.1 0 2.8.1 4.1.4 6.7.7c2.5.3 4.8.6 6.6.9 1.7.3 2.7.4 2.7.5z"/><g class="st10"><path class="st4" d="M146.7 463l19 1.8.3-1.6-18.8-2.4-.5 2"/></g><path class="st7" d="M156.1 462.1c-.1 0 .7-3.7 1.8-8.3 1.1-4.5 2.1-8.2 2.2-8.2.1 0-.7 3.7-1.8 8.3-1.1 4.6-2.1 8.2-2.2 8.2z"/><path class="st6" d="M231 435.6l-1.3 19.2s19.1 6.3 19.2 9.9l-37.3.3.8-30 18.6.6z"/><g class="st10"><path class="st4" d="M218.2 452.9c-.7.2-1.3 1-1.1 1.7.1.7 1 1.3 1.7 1.1.7-.2 1.4-1.1 1.2-1.8-.2-.7-1.2-1.3-1.9-1"/></g><g class="st10"><path class="st4" d="M211.6 465l.1-3 36.1 1s1.2.5 1.4 2h-37.6z"/></g><path class="st7" d="M230.3 454.7c0 .2-.9.2-1.8.8-.9.5-1.4 1.3-1.6 1.2-.2 0 .1-1.1 1.3-1.8 1-.7 2.1-.4 2.1-.2zm3.9 1.7c0 .2-.8.5-1.4 1.2-.7.7-.8 1.6-1 1.5-.2 0-.3-1 .6-2 .7-.8 1.8-.9 1.8-.7zm2 4.8c-.2 0-.4-.9.1-1.9s1.4-1.4 1.4-1.2c.1.2-.5.7-.9 1.5-.3.8-.4 1.5-.6 1.6zm-6.1-10.9c-.1.2-.9-.1-1.9-.1s-1.8.3-1.9.2c-.1-.1.7-.8 1.9-.8 1.2-.1 2 .5 1.9.7z"/><path d="M230.7 439.4l-.2 3.5-18.4-.8.1-3.1 18.5.4z"/><path class="st7" d="M230.3 446.4c0 .1-.7.2-1.9-.1-.6-.1-1.2-.3-1.9-.7-.3-.2-.7-.4-1.1-.6-.2-.1-.4-.2-.6-.5-.2-.2-.3-.7-.1-1s.5-.4.8-.4.5.1.7.1c.4.1.8.3 1.1.4.7.3 1.3.8 1.7 1.2.8.8 1.1 1.5 1.1 1.6-.1.1-.5-.5-1.3-1.2-.4-.3-1-.7-1.6-1-.3-.1-.7-.3-1.1-.4-.4-.1-.7-.1-.8 0v.2c.1.1.2.2.4.3.3.2.7.4 1 .6.6.3 1.3.6 1.8.7 1.1.6 1.8.7 1.8.8z"/><path class="st7" d="M230 446.6c-.1 0-.4-.6-.4-1.8 0-.6.1-1.3.3-2 .1-.4.3-.8.5-1.1.2-.4.5-.8 1.2-.9.4 0 .7.3.8.5.1.3.1.5.2.7.1.4 0 .9 0 1.3-.1.8-.5 1.4-.9 1.9-.8.9-1.5 1.1-1.5 1.1-.1-.1.6-.4 1.2-1.3.3-.4.6-1 .6-1.7 0-.3.1-.7 0-1.1 0-.4-.2-.7-.3-.7-.2 0-.5.3-.7.6-.2.3-.4.7-.5 1-.3.7-.4 1.3-.4 1.9-.1.9 0 1.6-.1 1.6z"/><path class="st7" d="M231 268.8l-56.9-.4L146.6 449l23.6 3 30.2-148.5 9.1 149v.4l25.6-.4-4.1-183.7z"/><path class="st8" d="M167.5 448c.1 0 .2.5.1 1s-.3 1-.5.9c-.1 0-.2-.5-.1-1 .2-.5.4-.9.5-.9zm.8-3.9c.1 0 .2.5.1 1s-.3 1-.5.9c-.1 0-.2-.5-.1-1s.3-1 .5-.9zm.8-4c.1 0 .2.5.1 1s-.3 1-.5.9c-.1 0-.2-.5-.1-1s.3-.9.5-.9zm.8-3.9c.1 0 .2.5.1 1s-.3 1-.5.9c-.1 0-.2-.5-.1-1s.3-.9.5-.9zm.7-3.9c.1 0 .2.5.1 1s-.3 1-.5.9c-.1 0-.2-.5-.1-1 .2-.5.4-.9.5-.9zm.8-3.9c.1 0 .2.5.1 1s-.3 1-.5.9c-.1 0-.2-.5-.1-1 .2-.5.4-.9.5-.9zm.8-3.9c.1 0 .2.5.1 1s-.3 1-.5.9c-.1 0-.2-.5-.1-1 .2-.6.4-1 .5-.9zm.8-4c.1 0 .2.5.1 1s-.3 1-.5.9c-.1 0-.2-.5-.1-1 .2-.5.4-.9.5-.9zm.8-3.9c.1 0 .2.5.1 1s-.3 1-.5.9c-.1 0-.2-.5-.1-1s.3-.9.5-.9zm.8-3.9c.1 0 .2.5.1 1s-.3 1-.5.9c-.1 0-.2-.5-.1-1s.3-.9.5-.9zm.8-3.9c.1 0 .2.5.1 1s-.3 1-.5.9c-.1 0-.2-.5-.1-1s.3-1 .5-.9zm.7-4c.1 0 .2.5.1 1s-.3 1-.5.9c-.1 0-.2-.5-.1-1 .2-.5.4-.9.5-.9zm.8-3.9c.1 0 .2.5.1 1s-.3 1-.5.9c-.1 0-.2-.5-.1-1 .2-.5.4-.9.5-.9zm.8-3.9c.1 0 .2.5.1 1s-.3 1-.5.9c-.1 0-.2-.5-.1-1 .2-.5.4-.9.5-.9zm.8-3.9c.1 0 .2.5.1 1s-.3 1-.5.9c-.1 0-.2-.5-.1-1s.3-.9.5-.9zm.8-3.9c.1 0 .2.5.1 1s-.3 1-.5.9c-.1 0-.2-.5-.1-1 .1-.6.3-1 .5-.9zm.8-4c.1 0 .2.5.1 1s-.3 1-.5.9c-.1 0-.2-.5-.1-1s.3-.9.5-.9zm.7-3.9c.1 0 .2.5.1 1s-.3 1-.5.9c-.1 0-.2-.5-.1-1 .2-.5.4-.9.5-.9zm.8-3.9c.1 0 .2.5.1 1s-.3 1-.5.9c-.1 0-.2-.5-.1-1 .2-.5.4-.9.5-.9zm.8-3.9c.1 0 .2.5.1 1s-.3 1-.5.9c-.1 0-.2-.5-.1-1 .2-.5.4-1 .5-.9zm.8-4c.1 0 .2.5.1 1s-.3 1-.5.9c-.1 0-.2-.5-.1-1 .2-.5.4-.9.5-.9zm.8-3.9c.1 0 .2.5.1 1s-.3 1-.5.9c-.1 0-.2-.5-.1-1s.3-.9.5-.9zm.8-3.9c.1 0 .2.5.1 1s-.3 1-.5.9c-.1 0-.2-.5-.1-1s.3-.9.5-.9zm.8-3.9c.1 0 .2.5.1 1s-.3 1-.5.9c-.1 0-.2-.5-.1-1s.3-.9.5-.9zm.7-3.9c.1 0 .2.5.1 1s-.3 1-.5.9-.2-.5-.1-1c.2-.6.4-1 .5-.9zm.8-4c.1 0 .2.5.1 1s-.3 1-.5.9c-.1 0-.2-.5-.1-1 .2-.5.4-.9.5-.9zm.8-3.9c.1 0 .2.5.1 1s-.3 1-.5.9c-.1 0-.2-.5-.1-1 .2-.5.4-.9.5-.9zm.8-3.9c.1 0 .2.5.1 1s-.3 1-.5.9c-.1 0-.2-.5-.1-1s.3-.9.5-.9zm.8-3.9c.1 0 .2.5.1 1s-.3 1-.5.9c-.1 0-.2-.5-.1-1s.3-1 .5-.9zm.8-4c.1 0 .2.5.1 1s-.3 1-.5.9c-.1 0-.2-.5-.1-1s.3-.9.5-.9zm.7-3.9c.1 0 .2.5.1 1s-.3 1-.5.9c-.1 0-.2-.5-.1-1 .2-.5.4-.9.5-.9zm.8-3.9c.1 0 .2.5.1 1s-.3 1-.5.9c-.1 0-.2-.5-.1-1 .2-.5.4-.9.5-.9zm.8-3.9c.1 0 .2.5.1 1s-.3 1-.5.9c-.1 0-.2-.5-.1-1 .2-.5.4-.9.5-.9zm.8-3.9c.1 0 .2.5.1 1s-.3 1-.5.9c-.1 0-.2-.5-.1-1 .2-.6.4-1 .5-.9zm.8-4c.1 0 .2.5.1 1s-.3 1-.5.9c-.1 0-.2-.5-.1-1s.3-.9.5-.9zm.8-3.9c.1 0 .2.5.1 1s-.3 1-.5.9c-.1 0-.2-.5-.1-1s.3-.9.5-.9zm.8-3.9c.1 0 .2.5.1 1s-.3 1-.5.9c-.1 0-.2-.5-.1-1s.3-.9.5-.9z"/><path class="st12" d="M274.2 185.8s6.7-10 6.8-10.1c0 0 6-10.1 8-10.1s1.3 2.1-.8 5.7c-1.8 3.2-2 5.2-2 5.2l4.9 3s3.3-1.3 3.4 1.8c0 1-.2 2.3-.6 4.2-.2 1.1-.7 2.3-1.7 1.8-.5-.2-.9-.6-.9-1.2-.1-1.8.3-2.5 0-2.5s-3.6 9.5-3.6 9.5l-13.5-7.3z"/><path class="st12" d="M287.6 178c.5-.3 1-.7 1.6-.9s1.2-.4 1.8-.3c.4.1.8.2 1 .5.3.4.4 1 .2 1.5s-.5.9-.8 1.4"/><path class="st12" d="M285.4 176c.5-.3 1-.7 1.5-.9s1.1-.4 1.7-.3c.4.1.7.2.9.5.3.4.3 1 .2 1.4-.2.5-1.2 1.6-1.5 2m-11.7 1.5l-9.6 20.6 10.6 10.8 5.5-15.3s3 .6 4.2-1.4c1.3-2.2 3.1-8.5 3.1-8.5l-13.8-6.2z"/><path class="st13" d="M283.4 179.6c-.1 0 .1-1.4 1.1-2.8.5-.7 1.2-1.2 1.6-1.5.5-.3.8-.4.9-.3.1.2-1.2.8-2.1 2.1s-1.4 2.6-1.5 2.5zm10.6.1c0 .1-.4-.1-.9-.2s-1.4-.1-2.1.3c-.7.4-1.2 1.1-1.6 1.5-.3.5-.6.8-.6.7-.1 0 0-.4.3-.9s.7-1.3 1.6-1.8 1.9-.4 2.4-.2c.7.3 1 .6.9.6zm-3.5-2.9c0 .2-1.2.4-2.3 1.3-1.1 1-1.6 2.1-1.8 2-.1 0 .2-1.3 1.4-2.4.6-.5 1.3-.8 1.8-.9.5-.1.9 0 .9 0zm2.3 4.5c.1-.1.4.7-.1 1.5s-1.3.9-1.3.8c0-.1.5-.4.9-1.1.4-.6.4-1.2.5-1.2z"/><path class="st12" d="M274.2 185.4s-.3-6.1 1.1-7.5c1.5-1.4 5.7.1 5.7.1"/><path class="st13" d="M281.7 175c.1.1-.9 1.7-2.2 3.5-1.3 1.8-2.5 3.3-2.6 3.2s.9-1.6 2.2-3.5c1.3-1.8 2.5-3.3 2.6-3.2z"/><g><path class="st12" d="M178 180.6c.1-.8.3-1.8.6-2.9.2-1 .7-1.9 1.2-2.7.7-1 1.6-2.3 2.4-2.8.9-.7.5-2.1-.5-2.1s-3.6 1.8-5.3 5c-1.8 3.2-2.8-2.5-3.2-4.5-.4-2.1-2-8.4-2.7-8.7-1.1-.5-1.9.5-1.4 2.5.5 2.1 1.4 8.3.3 8.4-1.1.2-3-10.3-3-10.3s-.1-2.3-1.3-2.2c-2.3.3.6 11.3.9 12.3.2.7-1 .9-1.2.2-.2-.8-1.7-10.5-4.1-10.3-1.8.2 2.3 9.1 1.5 11.3s-2.4-7-4.1-6.8c-.6.1-1.1.3.6 5.4.8 2.5 4 14.2 4 14.2l-1.8 9.6 14.6 3.7 2.5-19.3z"/></g><g><path class="st12" d="M196.5 128.5l-.1 47.9 20.6 1 .6-11.7s7.3 1.4 9.2-5.3c1.2-4.3.9-37.8.9-37.8l-31.2 5.9z"/><path class="st7" d="M230.3 126c-3.2.9-3.9 6.2-3.9 6.2l-5.1 11.2c-2.6-2-6.1-1.9-6.7 2.6-.5 3.3 3.6 3.9 3.6 3.9-2.4 4-4 7.3-7.5 11.2-3.7 4.2-5.8 4.6-9.9 4.7h-4.5s-2.2-7.1-6.3-24.9c-4.5-19.8 18.9-17.2 23.2-22.3 7.1-8.2 27.3 4.4 17.1 7.4z"/><path class="st8" d="M232.4 119.5s.6-.2 1.2.5c.3.3.5.9.5 1.5-.1.6-.5 1.3-1.2 1.7-.7.4-1.6.6-2.5.3-.9-.2-1.8-.7-2.6-1.2-.8-.6-1.6-1.2-2.5-1.7s-1.9-.9-3-1.1c-2.2-.4-4.4-.2-6.2.4s-3.4 1.5-4.6 2.3c-2.4 1.7-3.6 3.2-3.7 3.1 0 0 .3-.4.8-1 .6-.6 1.4-1.5 2.6-2.4 1.2-.9 2.7-1.8 4.6-2.5 1.9-.6 4.2-.9 6.4-.5 1.1.2 2.2.6 3.2 1.1s1.8 1.2 2.6 1.8c.8.6 1.6 1 2.4 1.2.8.2 1.6.1 2.2-.2.6-.3 1-.9 1.1-1.4s-.1-1-.3-1.3c-.4-.6-1-.6-1-.6z"/></g><g><path class="st6" d="M175.6 178.7l-25.1 44.9c-1.5 3.8-.6 8.8 1.9 11.9l-.5-.7c2 2.5 5.1 4 8.3 4h.5c4.3 0 8.1-2.5 9.8-6.4l5.9-8.9-.8-44.8z"/><path class="st6" d="M230 175.5c-4.9-2.5-9.8-3.1-15.1-3.2-6.2-.2-14.9-1-21.6-.3 0 0-20.3-.6-20.4 15.1l2.7 60.4-4.3 25.9 60.8 1.8-.4-30.5c.8-15.9-.9-38.4-.9-38.4.9-8.5 5.6-12.4 6.3-17.9.6-5-2.7-10.6-7.1-12.9zM160.2 192.3s-2.3 6.8-2.7 7.7c0 0-5.7 16.4-7.5 27.5l18.2-32.8c.1 0-7.7-2.4-8-2.4z"/><path class="st7" d="M169.2 190.3s-.1.2-.2.5c-.2.4-.4.8-.7 1.3-.6 1.1-1.5 2.8-2.7 4.7-2.3 4-5.8 9.3-9.3 15.4-1.8 3-3.2 6-4.5 8.8-1.3 2.7-1.9 5.4-1.8 7.7.1 2.3.8 4 1.4 5.2.6 1.1 1.1 1.7 1.1 1.7l-.4-.4c-.2-.3-.5-.7-.9-1.2-.7-1.1-1.4-2.9-1.6-5.2-.2-2.3.4-5.1 1.7-7.9 1.3-2.8 2.8-5.8 4.5-8.8 3.5-6.1 7-11.4 9.4-15.3 1.2-1.9 2.1-3.5 2.8-4.7.3-.5.6-.9.8-1.3.2-.4.4-.5.4-.5z"/><path class="st6" d="M281.1 207.1l-14.1-9.2-8.9 15.4s-12.3-17.1-17.9-27.2c-5.1-9.2-11.8-11.7-15-12.4-.9-.2-1.8.6-1.7 1.6l4.9 33.3c.6 1.7 10.8 16.5 16.4 23.9 9.5 12.4 23.4 4.5 27.3-4.2 3-6.9 7.7-17.4 9-21.2z"/><path class="st7" d="M266.3 220.3c-.1 0-.2-.7-.5-1.8-.4-1.1-1-2.5-2.3-3.8-1.2-1.3-2.6-2-3.7-2-1.1-.1-1.7.4-1.8.3-.1 0 .5-.6 1.8-.7 1.3-.1 2.9.7 4.1 2.1 1.3 1.3 2 2.9 2.2 4 .3 1.1.2 1.9.2 1.9zm-42.1-42.5s-.1.1-.3.4l-.4.4c-.2.2-.3.4-.5.6-.8 1-1.8 2.6-2.4 4.7-.7 2.2-.9 4.9-.5 7.9.2 1.5.6 3 1.2 4.5s1.4 3 2.3 4.5c3.4 6.1 7 11.3 9.6 15.1 1.3 1.8 2.3 3.3 3.1 4.4.7 1 1.1 1.6 1.1 1.6l-.4-.4c-.2-.3-.5-.6-.9-1.1-.8-1-1.9-2.5-3.2-4.4-2.6-3.7-6.2-8.9-9.7-15-.8-1.5-1.7-3-2.3-4.6-.7-1.5-1-3.1-1.2-4.6-.4-3-.1-5.8.7-8 .7-2.2 1.8-3.8 2.6-4.8l.6-.6c.2-.2.3-.3.5-.4 0-.1.1-.2.1-.2z"/><path d="M208.5 251c4.5-2 8-6.7 8.2-11.5 0-1.3-.2-2.7-1.1-3.6-1.3-1.3-3.6-1.1-5.2-.2-2.7 1.4-4.5 4.1-6.4 6.5s-4.3 4.8-7.4 5.1c-1.3.1-2.6-.1-3.9-.3s-2.7-.1-3.9.5-2 2-1.6 3.3c0 0 5.4 3.3 11 2.9 5.6-.3 10.3-2.7 10.3-2.7z"/></g></g><path id="Floor" class="st7" d="M468.1 465c0 .1-97.7.3-218.1.3-120.5 0-218.1-.1-218.1-.3 0-.1 97.6-.3 218.1-.3 120.5.1 218.1.2 218.1.3z"/></svg>