<svg version="1.1" id="Capa_1" xmlns="http://www.w3.org/2000/svg" x="0" y="0" viewBox="0 0 96 96" xml:space="preserve"><style>.st1{fill:#ff5a5a}.st3{fill:#a5dc69}.st4{fill:#78d2fa}.st5{fill:#f5c86e}</style><path d="M15.4 80.9h-6c-4.1 0-7.5-3.4-7.5-7.5v-64c0-4.1 3.4-7.5 7.5-7.5h77.3c4.1 0 7.5 3.4 7.5 7.5v64.1c0 4.1-3.4 7.5-7.5 7.5H15.4z" fill="#fff"/><path class="st1" d="M86.6 1.9H9.4c-4.1 0-7.5 3.4-7.5 7.5v6h92.3v-6c-.1-4.2-3.4-7.5-7.6-7.5z"/><path d="M3.9 15.4H93" fill="#231f20"/><path class="st3" d="M10.5 73.5h12v20.6h-12z"/><path class="st4" d="M52.5 68.6h12v25.5h-12z"/><path class="st5" d="M31.5 52.8h12v41.4h-12z"/><path class="st1" d="M73.5 50h12v44.2h-12z"/><circle class="st5" cx="36.4" cy="32.2" r="4.9"/><circle class="st4" cx="58.3" cy="54.6" r="4.9"/><circle class="st1" cx="79.5" cy="32.2" r="4.9"/><circle class="st3" cx="16.4" cy="52.8" r="4.9"/><path d="M89.5 82.6c3.6 0 6.5-2.9 6.5-6.5V9.4C96 4.2 91.8 0 86.6 0H9.4C4.2 0 0 4.2 0 9.4V76c0 3.6 2.9 6.5 6.5 6.5h2.1v9.7H1.9c-1 0-1.9.8-1.9 1.9S.8 96 1.9 96h92.3c1 0 1.9-.8 1.9-1.9s-.8-1.9-1.9-1.9h-6.8v-9.7h2.1zM9.4 3.8h77.3c3.1 0 5.6 2.5 5.6 5.6v4.1H3.7V9.4c.1-3.1 2.6-5.6 5.7-5.6zm3 88.5V75.4h8.3v16.9h-8.3zm21 0V54.6h8.3v37.6h-8.3zm21 0V70.5h8.3v21.8h-8.3zm21 0V72a1.9 1.9 0 10-3.8 0v20.2h-5.3V68.6c0-1-.8-1.9-1.9-1.9h-12c-1 0-1.9.8-1.9 1.9v23.6h-5.3V52.8c0-1-.8-1.9-1.9-1.9h-12c-1 0-1.9.8-1.9 1.9v39.5h-5.3V73.5c0-1-.8-1.9-1.9-1.9h-12c-1 0-1.9.8-1.9 1.9v5.3H6.5c-1.5 0-2.8-1.3-2.8-2.8V17.2h88.5V76c0 1.5-1.3 2.8-2.8 2.8h-2.1V50c0-1-.8-1.9-1.9-1.9h-12c-1 0-1.9.8-1.9 1.9v9.5c0 1 .8 1.9 1.9 1.9s1.9-.8 1.9-1.9v-7.6h8.3v40.4h-8.2z"/><path d="M41.6 10.5H84c1 0 1.9-.8 1.9-1.9S85 6.8 84 6.8H41.6c-1 0-1.9.8-1.9 1.9s.9 1.8 1.9 1.8zM19.5 10.5c.5 0 1-.2 1.3-.5.3-.3.5-.8.5-1.3s-.2-1-.5-1.3c-.3-.4-.8-.6-1.3-.6s-1 .2-1.3.5c-.3.3-.5.8-.5 1.3s.2 1 .5 1.3c.3.4.8.6 1.3.6zM12 10.5c.5 0 1-.2 1.3-.5.3-.3.5-.8.5-1.3s-.2-1-.5-1.3c-.3-.4-.8-.6-1.3-.6s-1 .2-1.3.5c-.3.3-.5.8-.5 1.3s.2 1 .5 1.3c.3.4.8.6 1.3.6zM27 10.5c.5 0 1-.2 1.3-.5.3-.3.5-.8.5-1.3s-.2-1-.5-1.3-.8-.6-1.3-.6-1 .2-1.3.5c-.3.3-.5.8-.5 1.3s.2 1 .5 1.3c.3.4.8.6 1.3.6zM73.5 64.2c-.5 0-1 .2-1.3.5-.3.3-.5.8-.5 1.3s.2 1 .5 1.3c.3.3.8.5 1.3.5s1-.2 1.3-.5c.3-.3.5-.8.5-1.3s-.2-1-.5-1.3c-.3-.3-.8-.5-1.3-.5zM79.5 39a6.8 6.8 0 10-6.8-6.8c0 1.5.5 2.8 1.3 4L61.6 48.7c-1-.5-2.1-.8-3.3-.8-1.1 0-2.1.2-3 .7l-13-13c.5-1 .8-2.1.8-3.3a6.8 6.8 0 00-13.6 0c0 1.3.4 2.5 1 3.5L19.6 46.9c-1-.5-2.1-.8-3.3-.8a6.8 6.8 0 106.8 6.8c0-1.2-.3-2.3-.8-3.3l11.2-11.2c.9.4 1.9.7 3 .7 1.2 0 2.3-.3 3.3-.8L52.6 51c-.6 1-1 2.2-1 3.5a6.8 6.8 0 0013.6 0c0-1.2-.3-2.3-.8-3.3L77 38.5c.8.3 1.6.5 2.5.5zm0-9.8c1.7 0 3 1.3 3 3s-1.3 3-3 3-3-1.3-3-3a3 3 0 013-3zM16.4 55.8c-1.7 0-3-1.3-3-3s1.3-3 3-3 3 1.3 3 3-1.4 3-3 3zm20-20.6c-1.7 0-3-1.3-3-3s1.3-3 3-3 3 1.3 3 3-1.3 3-3 3zm21.9 22.4c-1.7 0-3-1.3-3-3s1.3-3 3-3 3 1.3 3 3a3 3 0 01-3 3zM26.5 27.4c.5 0 1-.2 1.3-.5.3-.3.5-.8.5-1.3s-.2-1-.5-1.3c-.4-.3-.8-.5-1.3-.5s-1 .2-1.3.5c-.3.3-.5.8-.5 1.3s.2 1 .5 1.3c.3.3.8.5 1.3.5zM10.5 27.4h9c1 0 1.9-.8 1.9-1.9s-.8-1.9-1.9-1.9h-9a1.9 1.9 0 100 3.8zM19.5 36.4c1 0 1.9-.8 1.9-1.9s-.8-1.9-1.9-1.9h-9c-1 0-1.9.8-1.9 1.9s.8 1.9 1.9 1.9h9z"/></svg>
