<svg version="1.1" id="Layer_1" xmlns="http://www.w3.org/2000/svg" x="0" y="0" viewBox="0 0 96 96" xml:space="preserve"><style>.st0{fill:#aae1f9}.st2{fill:#57b7eb}.st4{fill:#c4f236}.st5{fill:#a1d51c}.st6{fill:#f89c8d}.st7{fill:#f8664f}.st8{fill:#cc5144}</style><g id="Fill_Outline"><path class="st0" d="M11 51h40v33H11V51z"/><path d="M6 84h49v3c0 3-2 6-6 6H12c-3 0-6-3-6-6v-3z" fill="#f9e109"/><path class="st2" d="M17 63V51h-6v33h40v-6H31c-8 0-14-7-14-15z"/><path d="M15 88c-2 0-4-2-4-4H6v3c0 3 3 6 6 6h37c3 0 5-2 6-5H15z" fill="#fcbc04"/><path class="st4" d="M70 52h17c1 0 3 1 3 3v18c0 2-2 3-3 3H70c-2 0-3-1-3-3V55c0-2 1-3 3-3z"/><ellipse class="st2" cx="78.1" cy="64.1" rx="4.3" ry="4.5"/><path class="st5" d="M71 60v-8h-1c-2 0-3 1-3 3v18c0 2 1 3 2 3h18c1 0 3-1 3-3v-1h-8c-6 0-11-6-11-12z"/><ellipse class="st0" cx="79.5" cy="62.6" rx="1.4" ry="1.5"/><path class="st4" d="M6 19h18v24H6V19z"/><ellipse class="st6" cx="40.8" cy="15.8" rx="11.5" ry="12.1"/><path class="st0" d="M38 20v-9l9 5-9 4z"/><path class="st7" d="M45 23c-6 0-11-5-11-12l1-6c-5 4-7 11-4 17s10 7 16 4l4-4-6 1z"/><path class="st0" d="M70 5h17l3 3v18c0 2-2 3-3 3H70c-2 0-3-1-3-3V8c0-1 1-3 3-3z"/><path class="st2" d="M71 13V5h-1c-2 0-3 2-3 3v18c0 2 1 3 2 3h18c1 0 3-1 3-3v-1h-8c-6 0-11-5-11-12z"/><path class="st5" d="M11 29V19H6v24h18v-4h-5c-4-1-8-5-8-10z"/><path class="st7" d="M30 66l5-3 5 10c1 2 1 4-1 4s-3 1-4-1l-5-10z"/><path class="st8" d="M38 69l-3-6-5 3 3 6 2-1 3-2z"/><path class="st4" d="M60 58l-25 9-7-13 20-17 12 21z"/><path class="st6" d="M22 58l6-4 7 14-6 3c-2 1-5 1-6-1l-3-6c-1-2 0-4 2-6z"/><path class="st8" d="M18 66l2-2 3 6-2 1c-2 1-3 0-4-1s0-3 1-4z"/><path class="st5" d="M37 63l-3 2 1 2 25-9-2-3-21 8z"/><path class="st7" d="M33 65c-3 2-8 1-10-3l-1-4c-2 1-3 4-2 6l3 6c1 2 4 3 6 1l6-3-1-3h-1z"/><path d="M55 82h-3V67l-1-1-1 1v15H12V52h12l1-1-1-2H11l-2 2v31H6l-1 2v3c0 4 3 7 7 7h38c4 0 7-3 7-7v-3l-2-2zm-1 5c0 2-2 4-5 4h-2v-1l-2-2-1 2v1H18v-1l-2-2-1 2v1h-3c-2 0-4-2-4-4v-2h46v2zM80 13h2l2-2-2-1h-2c-3 0-5 2-5 4v2h-1l-2 1 2 2h1v4l2 2 1-2v-4h1l2-2-2-1h-1v-2l2-1z"/><path d="M87 4H70c-3 0-5 2-5 4v3l2 2 1-2V8l1-1h18l1 1v18l-1 2H70l-2-2v-9l-1-1-2 1v9c0 3 2 5 5 5h17c2 0 4-2 4-5V8c0-2-2-4-4-4zM72 64c0 3 3 6 6 6s6-3 6-6-3-6-6-6-6 3-6 6zm9 0c0 2-1 3-3 3s-3-1-3-3 1-3 3-3 3 1 3 3z"/><path d="M87 51H70c-3 0-5 2-5 4v18c0 3 2 5 5 5h17c2 0 4-2 4-5v-3l-1-1-2 1v3l-1 2H70l-2-2V55l1-1h18l1 1v9l2 2 1-2v-9c0-2-2-4-4-4zM37 22h2l8-5 1-2-1-1-8-4-2 1v11zm2-8l4 2-4 2v-4z"/><path d="M41 29c7 0 13-6 13-13S48 2 41 2 28 8 28 16s6 13 13 13zm0-24c5 0 10 5 10 11s-5 11-10 11-10-5-10-11S35 5 41 5zM55 35h1l5-6-1-2h-2l-4 6v2h1zM58 41h2l6-4v-2l-2-1-5 5-1 2zM72 44l-1-1-8 2-1 1 2 2 7-2c1 0 2-1 1-2zM6 45h18l1-2V19l-1-2H6l-1 2v24l1 2zm2-25h14v21H8V20z"/><path d="M18 23h-3l-1 2 1 1h3l1-1-1-2zM18 29h-6l-1 2 1 1h6l1-1-1-2zM18 35h-6l-1 2 1 1h6l1-1-1-2zM54 44l-2-1-1 2 7 12-23 9-4 2-3 2h-2l-1-1-3-6c-1-1-1-3 1-4l5-3 3 7 2 1 1-2v-1l-4-6 18-16 1 1 2 1v-2l-1-3-1-1-1 1-21 17-6 4c-2 1-3 4-2 7l-2 1a5 5 0 001 8h1l2-1h2l2 1h2l3-1h1l3 5c1 2 4 3 6 2s3-4 1-6h1l-3-5 21-9 1-1v-1l-7-13zM20 70h-1l-1-1v-1l1-1 1-1 1 3-1 1zm19 4v1l-1 1h-2l-3-6 3-1 3 5z"/></g></svg>
