<svg xmlns="http://www.w3.org/2000/svg" width="96" viewBox="0 0 464 464"><path d="M112 464H88a24 24 0 01-24-24V24A24 24 0 0188 0h336a24 24 0 0124 24v416a24 24 0 01-24 24H112z" fill="#e6e6e6"/><path d="M88 0h336a24 24 0 0124 24v40H64V24A24 24 0 0188 0z" fill="#0071bc"/><path d="M88 24h16v16H88V24z" fill="#da4836"/><path d="M120 24h16v16h-16V24z" fill="#f8cf26"/><path d="M152 24h16v16h-16V24z" fill="#3dbf50"/><path d="M16 176h224v144H16V176z" fill="#29abe2"/><g fill="#999"><path d="M96 128h152v16H96v-16zM128 96h120v16H128V96zM96 96h16v16H96V96zM296 312h120v16H296v-16zM264 312h16v16h-16v-16z"/></g><g fill="#f2f2f2"><path d="M91.2 278.4l-32-24a8 8 0 010-12.8l32-24 9.6 12.8L77.34 248l23.46 17.6-9.6 12.8zM164.8 278.4l-9.6-12.8 23.46-17.6-23.46-17.6 9.6-12.8 32 24a8 8 0 010 12.8l-32 24zM104.57 285.01l32-80 14.87 5.96-32.01 79.99-14.86-5.95z"/></g><path d="M312 248v-24.63a64 64 0 1164 0V248h-64z" fill="#fcbf29"/><path d="M312 248h64v32h-64v-32z" fill="#0071bc"/><path d="M320 208a63.94 63.94 0 0055.6-95.6 63.91 63.91 0 01.4 110.97V248h-64v-24.63a64.45 64.45 0 01-23.56-23.73A63.66 63.66 0 00320 208z" opacity=".5" fill="#f28d01"/><g fill="none" stroke="#fff" stroke-width="2" stroke-linejoin="round"><path d="M344 248v-56M368 168l-24 24-24-24"/></g><path d="M288 240h112v16H288v-16z" fill="#8c6239"/><path d="M344 424l64-32-64-32H16v64h328z" fill="#da4836"/><path d="M64 360h32v64H64v-64z" fill="#f8cf26"/><path d="M16 360h48v64H16v-64z" fill="#fbb03b"/><path d="M344 360l64 32-64 32v-64z" fill="#8c6239"/><path d="M96 392h248v32H96v-32z" fill="#f7931e"/></svg>