<svg viewBox="0 0 64 64" width="96" xmlns="http://www.w3.org/2000/svg"><g id="tool-computer-laptop-hour-worldwide"><path d="m61 57v2a2.006 2.006 0 0 1 -2 2h-14a2.006 2.006 0 0 1 -2-2v-2z" fill="#ff7956"/><path d="m60 49v8h-16v-8a2.006 2.006 0 0 1 2-2h12a2.006 2.006 0 0 1 2 2z" fill="#46f8ff"/><path d="m61 57v2a2.006 2.006 0 0 1 -2 2h-4a2.006 2.006 0 0 0 2-2v-2z" fill="#ff5023"/><path d="m60 49v8h-4v-8a2.006 2.006 0 0 0 -2-2h4a2.006 2.006 0 0 1 2 2z" fill="#00b6bd"/><path d="m21 11v2a2.006 2.006 0 0 1 -2 2h-14a2.006 2.006 0 0 1 -2-2v-2z" fill="#ff7956"/><path d="m21 5v6h-18v-6a2.006 2.006 0 0 1 2-2h14a2.006 2.006 0 0 1 2 2z" fill="#46f8ff"/><path d="m21 11v2a2.006 2.006 0 0 1 -2 2h-4a2.006 2.006 0 0 0 2-2v-2z" fill="#ff5023"/><path d="m21 5v6h-4v-6a2.006 2.006 0 0 0 -2-2h4a2.006 2.006 0 0 1 2 2z" fill="#00b6bd"/><path d="m10 15h4v4h-4z" fill="#fee9ab"/><path d="m12 15h2v4h-2z" fill="#ffd422"/><circle cx="58" cy="32" fill="#ff3051" r="3"/><circle cx="51" cy="13" fill="#bdfdff" r="10"/><path d="m61 13a10 10 0 0 1 -11.99 9.8 10.005 10.005 0 0 0 0-19.6 10 10 0 0 1 11.99 9.8z" fill="#46f8ff"/><path d="m46 28v8h-4.34l3.07 3.07-5.66 5.66-3.07-3.07v4.34h-8v-4.34l-3.07 3.07-5.66-5.66 3.07-3.07h-4.34v-8h4.34l-3.07-3.07 5.66-5.66 3.07 3.07v-4.34h8v4.34l3.07-3.07 5.66 5.66-3.07 3.07z" fill="#c0ab91"/><circle cx="32" cy="32" fill="#a78966" r="6"/><circle cx="32" cy="6" fill="#ff3051" r="3"/><circle cx="32" cy="58" fill="#ff3051" r="3"/><path d="m23 51h-6a23.07 23.07 0 0 0 -.46-4.66 9.968 9.968 0 0 0 3.6-2.34 9.947 9.947 0 0 1 2.86 7z" fill="#2488ff"/><path d="m17 51h6a9.947 9.947 0 0 1 -2.86 7 9.968 9.968 0 0 0 -3.6-2.34 23.07 23.07 0 0 0 .46-4.66z" fill="#57a4ff"/><path d="m13 41a9.994 9.994 0 0 1 7.14 3 9.968 9.968 0 0 1 -3.6 2.34c-.67-3.17-2-5.34-3.54-5.34z" fill="#57a4ff"/><path d="m20.14 58a9.994 9.994 0 0 1 -7.14 3c1.54 0 2.87-2.17 3.54-5.34a9.968 9.968 0 0 1 3.6 2.34z" fill="#2488ff"/><path d="m17 51h-8a23.07 23.07 0 0 1 .46-4.66 9.824 9.824 0 0 0 7.08 0 23.07 23.07 0 0 1 .46 4.66z" fill="#57a4ff"/><path d="m9 51h8a23.07 23.07 0 0 1 -.46 4.66 9.824 9.824 0 0 0 -7.08 0 23.07 23.07 0 0 1 -.46-4.66z" fill="#2488ff"/><path d="m13 41c1.54 0 2.87 2.17 3.54 5.34a9.824 9.824 0 0 1 -7.08 0c.67-3.17 2-5.34 3.54-5.34z" fill="#2488ff"/><path d="m16.54 55.66c-.67 3.17-2 5.34-3.54 5.34s-2.87-2.17-3.54-5.34a9.824 9.824 0 0 1 7.08 0z" fill="#57a4ff"/><path d="m13 41c-1.54 0-2.87 2.17-3.54 5.34a9.968 9.968 0 0 1 -3.6-2.34 9.994 9.994 0 0 1 7.14-3z" fill="#57a4ff"/><path d="m9.46 55.66c.67 3.17 2 5.34 3.54 5.34a9.994 9.994 0 0 1 -7.14-3 9.968 9.968 0 0 1 3.6-2.34z" fill="#2488ff"/><path d="m5.86 44a9.968 9.968 0 0 0 3.6 2.34 23.07 23.07 0 0 0 -.46 4.66h-6a9.947 9.947 0 0 1 2.86-7z" fill="#2488ff"/><path d="m9.46 55.66a9.968 9.968 0 0 0 -3.6 2.34 9.947 9.947 0 0 1 -2.86-7h6a23.07 23.07 0 0 0 .46 4.66z" fill="#57a4ff"/><circle cx="6" cy="32" fill="#ff3051" r="3"/><path d="m46 36h-4.34l3.07 3.07-5.66 5.66-3.07-3.07v4.34h-4v-28h4v4.34l3.07-3.07 5.66 5.66-3.07 3.07h4.34z" fill="#a78966"/><path d="m38 32a6 6 0 0 1 -6 6v-12a6 6 0 0 1 6 6z" fill="#806749"/><path d="m32 25a7 7 0 1 0 7 7 7.008 7.008 0 0 0 -7-7zm0 12a5 5 0 1 1 5-5 5.006 5.006 0 0 1 -5 5z"/><path d="m58 28a4 4 0 0 0 -3.86 3h-7.14v-3a1 1 0 0 0 -1-1h-1.93l1.37-1.36a1.052 1.052 0 0 0 .29-.71 1.033 1.033 0 0 0 -.29-.71l-5.66-5.65a.99.99 0 0 0 -1.42 0l-1.36 1.36v-1.93a1 1 0 0 0 -1-1h-3v-7.14a4 4 0 1 0 -2 0v7.14h-3a1 1 0 0 0 -1 1v1.93l-1.36-1.36a.99.99 0 0 0 -1.42 0l-5.66 5.65a1.033 1.033 0 0 0 -.29.71 1.052 1.052 0 0 0 .29.71l1.37 1.36h-1.93a1 1 0 0 0 -1 1v3h-7.14a4 4 0 1 0 0 2h7.14v3a1 1 0 0 0 1 1h1.93l-1.37 1.36a1.052 1.052 0 0 0 -.29.71 1.033 1.033 0 0 0 .29.71l5.66 5.65a.99.99 0 0 0 1.42 0l1.36-1.36v1.93a1 1 0 0 0 1 1h3v7.14a4 4 0 1 0 2 0v-7.14h3a1 1 0 0 0 1-1v-1.93l1.36 1.36a.99.99 0 0 0 1.42 0l5.66-5.65a1.033 1.033 0 0 0 .29-.71 1.052 1.052 0 0 0 -.29-.71l-1.37-1.36h1.93a1 1 0 0 0 1-1v-3h7.14a3.994 3.994 0 1 0 3.86-5zm-52 6a2 2 0 1 1 2-2 2.006 2.006 0 0 1 -2 2zm24-28a2 2 0 1 1 2 2 2.006 2.006 0 0 1 -2-2zm4 52a2 2 0 1 1 -2-2 2.006 2.006 0 0 1 2 2zm11-23h-3.34a1 1 0 0 0 -.71 1.71l2.36 2.36-4.24 4.24-2.36-2.36a1 1 0 0 0 -1.71.71v3.34h-6v-3.34a1 1 0 0 0 -1.71-.71l-2.36 2.36-4.24-4.24 2.36-2.36a1 1 0 0 0 -.71-1.71h-3.34v-6h3.34a1 1 0 0 0 .71-1.71l-2.36-2.36 4.24-4.24 2.36 2.36a1 1 0 0 0 1.71-.71v-3.34h6v3.34a1 1 0 0 0 1.71.71l2.36-2.36 4.24 4.24-2.36 2.36a1 1 0 0 0 .71 1.71h3.34zm13-1a2 2 0 1 1 2-2 2.006 2.006 0 0 1 -2 2z"/><path d="m19 2h-14a3.009 3.009 0 0 0 -3 3v8a3.009 3.009 0 0 0 3 3h4v2h-2v2h10v-2h-2v-2h4a3.009 3.009 0 0 0 3-3v-8a3.009 3.009 0 0 0 -3-3zm-6 16h-2v-2h2zm7-5a1 1 0 0 1 -1 1h-14a1 1 0 0 1 -1-1v-1h16zm0-3h-16v-5a1 1 0 0 1 1-1h14a1 1 0 0 1 1 1z"/><path d="m24 5h2v2h-2z"/><path d="m5 24h2v2h-2z"/><path d="m5 38h2v2h-2z"/><path d="m61 56v-7a3.009 3.009 0 0 0 -3-3h-12a3.009 3.009 0 0 0 -3 3v7a1 1 0 0 0 -1 1v2a3.009 3.009 0 0 0 3 3h14a3.009 3.009 0 0 0 3-3v-2a1 1 0 0 0 -1-1zm-16-7a1 1 0 0 1 1-1h12a1 1 0 0 1 1 1v7h-14zm15 10a1 1 0 0 1 -1 1h-14a1 1 0 0 1 -1-1v-1h16z"/><path d="m38 57h2v2h-2z"/><path d="m24 57h2v2h-2z"/><path d="m57 38h2v2h-2z"/><path d="m57 42h2v2h-2z"/><path d="m51 2a11 11 0 1 0 11 11 11.007 11.007 0 0 0 -11-11zm0 20a9 9 0 1 1 9-9 9.014 9.014 0 0 1 -9 9z"/><path d="m13 40a11 11 0 1 0 11 11 11.007 11.007 0 0 0 -11-11zm8.94 10h-3.96a23.513 23.513 0 0 0 -.32-3.05 11.038 11.038 0 0 0 2.4-1.52 8.95 8.95 0 0 1 1.88 4.57zm-3.29-6a8.734 8.734 0 0 1 -1.44.95 12.77 12.77 0 0 0 -.89-2.31 9.184 9.184 0 0 1 2.33 1.36zm-5.65-2c.76 0 1.73 1.35 2.36 3.68a8.862 8.862 0 0 1 -4.72 0c.63-2.33 1.6-3.68 2.36-3.68zm-7.06 3.43a11.038 11.038 0 0 0 2.4 1.52 23.513 23.513 0 0 0 -.32 3.05h-3.96a8.95 8.95 0 0 1 1.88-4.57zm-1.88 6.57h3.96a23.513 23.513 0 0 0 .32 3.05 11.038 11.038 0 0 0 -2.4 1.52 8.95 8.95 0 0 1 -1.88-4.57zm3.29 6a8.734 8.734 0 0 1 1.44-.95 12.77 12.77 0 0 0 .89 2.31 9.184 9.184 0 0 1 -2.33-1.36zm1.44-13.05a8.734 8.734 0 0 1 -1.44-.95 9.184 9.184 0 0 1 2.33-1.36 12.77 12.77 0 0 0 -.89 2.31zm4.21 15.05c-.76 0-1.73-1.35-2.36-3.68a8.862 8.862 0 0 1 4.72 0c-.63 2.33-1.6 3.68-2.36 3.68zm2.76-5.64a10.76 10.76 0 0 0 -5.52 0 20.617 20.617 0 0 1 -.22-2.36h5.96a20.617 20.617 0 0 1 -.22 2.36zm-5.74-4.36a20.617 20.617 0 0 1 .22-2.36 10.76 10.76 0 0 0 5.52 0 20.617 20.617 0 0 1 .22 2.36zm6.3 9.36a12.77 12.77 0 0 0 .89-2.31 8.734 8.734 0 0 1 1.44.95 9.184 9.184 0 0 1 -2.33 1.36zm3.74-2.79a11.038 11.038 0 0 0 -2.4-1.52 23.513 23.513 0 0 0 .32-3.05h3.96a8.95 8.95 0 0 1 -1.88 4.57z"/><path d="m47 14v2h3v2h-4a1 1 0 0 1 -1-1v-4a1 1 0 0 1 1-1h2v-2h-3v-2h4a1 1 0 0 1 1 1v4a1 1 0 0 1 -1 1z"/><path d="m57 8v10h-2v-4h-3a1 1 0 0 1 -1-1v-5h2v4h2v-4z"/><path d="m57 24h2v2h-2z"/><path d="m38 5h2v2h-2z"/></g></svg>