<svg xmlns="http://www.w3.org/2000/svg" viewBox="0 0 800 480"><style>.c1{stroke-width:4;stroke:#f16334}.c2{fill:#fff}.c3{fill:#eee}.c4{font-size:20px;fill:#000}.c5{fill:#00d07e}.c6{stroke-width:6;stroke:#000}.c7{font-size:20px;fill:#fff}</style><path class="c3 c6" d="M2 2h244v476H2z"/><path class="c1 c2" d="M19 20h208v440H19z"/><text x="32" y="100" class="c4"><tspan>Post Layouts</tspan><tspan x="32" y="128">Different Background</tspan></text><text x="32" y="260" class="c4"><tspan>No or Global</tspan><tspan x="32" y="288">Background</tspan></text><path class="c3 c6" d="M275 2h244v476H275z"/><path class="c1 c2" d="M293 20h208v440H293z"/><path class="c1 c5" d="M293 170h208v200H293z"/><text x="308" y="100" class="c4"><tspan>Post Layouts</tspan><tspan x="308" y="128">Different Background</tspan></text><text x="308" y="260" class="c7"><tspan>Container</tspan><tspan x="308" y="288">Background</tspan></text><path class="c3 c6" d="M550 2h244v476H550z"/><path class="c1 c2" d="M567 20h208v440H567z"/><path class="c3 c5" d="M553 170h238v200H553z"/><text x="586" y="100" class="c4"><tspan>Post Layouts</tspan><tspan x="586" y="128">Different Background</tspan></text><text x="586" y="260" class="c7"><tspan>Full-width</tspan><tspan x="586" y="288">Background</tspan></text></svg>
