<?xml version="1.0" encoding="UTF-8"?>
<svg xmlns="http://www.w3.org/2000/svg" xmlns:svg="http://www.w3.org/2000/svg" width="1000" height="200" xml:space="preserve">
 <g class="layer">
  <title>Layer 1</title>
  <rect fill="rgba(255,255,255,0)" height="100%" id="svg_1" transform="matrix(1 0 0 1 0 0)" width="100%"></rect>
  <g font-family="Lato" font-size="110" font-weight="bold" id="svg_2">
   <path d="m392.67,54.38l-28.93,48.62l0,30.91l-14.8,0l0,-30.91l-28.98,-48.62l13.03,0q1.93,0 3.05,0.93q1.13,0.94 1.9,2.37l14.58,26.56q1.26,2.37 2.2,4.48q0.93,2.12 1.7,4.16q0.72,-2.09 1.62,-4.21q0.91,-2.12 2.18,-4.43l14.46,-26.56q0.61,-1.21 1.82,-2.26q1.21,-1.04 3.08,-1.04l13.09,0zm43.17,43.89l0,35.64l-6.1,0q-1.93,0 -3.03,-0.58q-1.1,-0.58 -1.65,-2.34l-1.21,-4.01q-2.14,1.92 -4.21,3.38q-2.06,1.46 -4.26,2.45q-2.2,0.99 -4.67,1.48q-2.48,0.5 -5.5,0.5q-3.58,0 -6.6,-0.97q-3.03,-0.96 -5.2,-2.88q-2.17,-1.93 -3.38,-4.79q-1.21,-2.86 -1.21,-6.65q0,-3.19 1.67,-6.3q1.68,-3.11 5.59,-5.61q3.9,-2.5 10.39,-4.15q6.49,-1.65 16.12,-1.87l0,-3.3q0,-5.67 -2.4,-8.39q-2.39,-2.72 -6.95,-2.72q-3.3,0 -5.5,0.77t-3.83,1.73q-1.62,0.96 -2.99,1.73q-1.38,0.77 -3.03,0.77q-1.37,0 -2.36,-0.71q-0.99,-0.72 -1.6,-1.76l-2.47,-4.35q9.73,-8.91 23.48,-8.91q4.95,0 8.83,1.62q3.88,1.63 6.57,4.51q2.7,2.89 4.1,6.91q1.4,4.01 1.4,8.8zm-26.4,27.17q2.09,0 3.85,-0.39q1.76,-0.38 3.33,-1.15q1.57,-0.77 3.02,-1.9q1.46,-1.13 2.95,-2.67l0,-9.51q-5.94,0.27 -9.93,1.01q-3.99,0.75 -6.41,1.9q-2.42,1.16 -3.44,2.7q-1.01,1.54 -1.01,3.35q0,3.58 2.11,5.12q2.12,1.54 5.53,1.54zm87.78,8.47l-8.3,0q-2.64,0 -3.47,-2.48l-1.1,-5.44q-1.76,1.98 -3.68,3.57q-1.93,1.6 -4.16,2.75q-2.22,1.16 -4.78,1.79q-2.56,0.63 -5.53,0.63q-4.62,0 -8.47,-1.92q-3.85,-1.93 -6.63,-5.59q-2.77,-3.65 -4.29,-9.04q-1.51,-5.39 -1.51,-12.32q0,-6.27 1.71,-11.66q1.7,-5.39 4.89,-9.35q3.19,-3.96 7.65,-6.19q4.45,-2.23 10.01,-2.23q4.73,0 8.08,1.51q3.36,1.52 6,4.05l0,-29.81l13.58,0l0,81.73zm-26.4,-9.96q4.24,0 7.21,-1.76q2.97,-1.76 5.61,-5l0,-25.3q-2.31,-2.81 -5.04,-3.96q-2.72,-1.16 -5.85,-1.16q-3.08,0 -5.59,1.16q-2.5,1.15 -4.23,3.49q-1.73,2.34 -2.67,5.94q-0.93,3.6 -0.93,8.5q0,4.95 0.79,8.38q0.8,3.44 2.29,5.61q1.48,2.18 3.63,3.14q2.14,0.96 4.78,0.96zm85.31,-25.68l0,35.64l-6.11,0q-1.92,0 -3.02,-0.58t-1.65,-2.34l-1.21,-4.01q-2.15,1.92 -4.21,3.38t-4.26,2.45q-2.2,0.99 -4.68,1.48q-2.47,0.5 -5.5,0.5q-3.57,0 -6.6,-0.97q-3.02,-0.96 -5.2,-2.88q-2.17,-1.93 -3.38,-4.79q-1.21,-2.86 -1.21,-6.65q0,-3.19 1.68,-6.3t5.58,-5.61q3.91,-2.5 10.4,-4.15q6.49,-1.65 16.11,-1.87l0,-3.3q0,-5.67 -2.39,-8.39q-2.39,-2.72 -6.96,-2.72q-3.3,0 -5.5,0.77t-3.82,1.73q-1.62,0.96 -3,1.73q-1.37,0.77 -3.02,0.77q-1.38,0 -2.37,-0.71q-0.99,-0.72 -1.59,-1.76l-2.48,-4.35q9.74,-8.91 23.49,-8.91q4.95,0 8.82,1.62q3.88,1.63 6.58,4.51q2.69,2.89 4.09,6.91q1.41,4.01 1.41,8.8zm-26.4,27.17q2.09,0 3.85,-0.39q1.76,-0.38 3.32,-1.15q1.57,-0.77 3.03,-1.9q1.46,-1.13 2.94,-2.67l0,-9.51q-5.94,0.27 -9.93,1.01q-3.98,0.75 -6.4,1.9q-2.42,1.16 -3.44,2.7q-1.02,1.54 -1.02,3.35q0,3.58 2.12,5.12t5.53,1.54zm88.44,-47.96l-22.39,56.43l-12.32,0l-22.44,-56.43l11.28,0q1.48,0 2.5,0.71q1.02,0.72 1.4,1.82l10.89,30.14q0.94,2.64 1.57,5.17q0.63,2.53 1.13,5.06q0.49,-2.53 1.12,-5.06q0.64,-2.53 1.63,-5.17l11.16,-30.14q0.39,-1.1 1.38,-1.82q0.99,-0.71 2.36,-0.71l10.73,0z" fill="#6666c3" fill-rule="nonzero" id="svg_3" stroke-dashoffset="0" stroke-miterlimit="4"></path>
   <path d="m19.63,-398.33q5,0 8.71,-0.91q3.72,-0.91 7.07,-2.5l0,-14.47l-9.95,0q-1.43,0 -2.26,-0.8q-0.82,-0.79 -0.82,-1.95l0,-8.36l26.45,0l0,32.18q-3.02,2.2 -6.3,3.82q-3.27,1.62 -6.98,2.67q-3.71,1.04 -7.95,1.56q-4.23,0.53 -9.13,0.53q-8.69,0 -16,-3.03q-7.32,-3.02 -12.65,-8.41q-5.34,-5.39 -8.34,-12.87q-2.99,-7.48 -2.99,-16.34q0,-8.96 2.91,-16.44q2.92,-7.48 8.28,-12.87q5.36,-5.39 13.01,-8.36q7.64,-2.97 17.16,-2.97q9.73,0 16.85,2.88q7.13,2.89 12.08,7.51l-4.29,6.71q-1.27,2.04 -3.36,2.04q-1.32,0 -2.69,-0.88q-1.76,-1.05 -3.61,-2.09q-1.84,-1.05 -4.07,-1.82q-2.22,-0.77 -5,-1.26q-2.78,-0.5 -6.41,-0.5q-5.88,0 -10.64,1.98q-4.76,1.98 -8.11,5.67q-3.36,3.68 -5.17,8.85q-1.82,5.17 -1.82,11.55q0,6.88 1.93,12.24q1.92,5.36 5.39,9.05q3.46,3.68 8.25,5.63q4.78,1.96 10.45,1.96zm86.46,-24.75l0,35.64l-6.11,0q-1.92,0 -3.02,-0.58t-1.65,-2.34l-1.21,-4.01q-2.15,1.92 -4.21,3.38t-4.26,2.45q-2.2,0.99 -4.68,1.48q-2.47,0.5 -5.5,0.5q-3.57,0 -6.6,-0.97q-3.02,-0.96 -5.2,-2.88q-2.17,-1.93 -3.38,-4.79q-1.21,-2.86 -1.21,-6.65q0,-3.19 1.68,-6.3t5.58,-5.61q3.91,-2.5 10.4,-4.15q6.49,-1.65 16.11,-1.87l0,-3.3q0,-5.67 -2.39,-8.39q-2.39,-2.72 -6.96,-2.72q-3.3,0 -5.5,0.77t-3.82,1.73q-1.62,0.96 -3,1.73q-1.37,0.77 -3.02,0.77q-1.38,0 -2.37,-0.71q-0.99,-0.72 -1.59,-1.76l-2.48,-4.35q9.74,-8.91 23.49,-8.91q4.95,0 8.82,1.62q3.88,1.63 6.58,4.51q2.69,2.89 4.09,6.91q1.41,4.01 1.41,8.8zm-26.4,27.17q2.09,0 3.85,-0.39q1.76,-0.38 3.32,-1.15q1.57,-0.77 3.03,-1.9q1.46,-1.13 2.94,-2.67l0,-9.51q-5.94,0.27 -9.93,1.01q-3.98,0.75 -6.4,1.9q-2.42,1.16 -3.44,2.7q-1.02,1.54 -1.02,3.35q0,3.58 2.12,5.12t5.53,1.54zm38.61,-47.96l13.58,0l0,35.86q0,5.17 2.39,8q2.4,2.83 7.18,2.83q3.52,0 6.6,-1.57q3.08,-1.56 5.83,-4.31l0,-40.81l13.59,0l0,56.43l-8.31,0q-2.64,0 -3.46,-2.48l-0.94,-4.51q-1.76,1.76 -3.63,3.22q-1.87,1.46 -3.99,2.47q-2.11,1.02 -4.56,1.6q-2.45,0.58 -5.25,0.58q-4.62,0 -8.17,-1.57t-5.97,-4.43q-2.42,-2.86 -3.66,-6.79q-1.23,-3.93 -1.23,-8.66l0,-35.86zm77.27,56.43l-13.58,0l0,-56.43l7.97,0q2.09,0 2.92,0.77q0.82,0.77 1.1,2.64l0.82,6.82q3.03,-5.23 7.1,-8.25q4.07,-3.03 9.13,-3.03q4.18,0 6.93,1.93l-1.76,10.17q-0.17,0.99 -0.72,1.4q-0.55,0.42 -1.48,0.42q-0.83,0 -2.26,-0.39q-1.43,-0.38 -3.79,-0.38q-4.24,0 -7.26,2.33q-3.03,2.34 -5.12,6.85l0,35.15zm73.98,-35.64l0,35.64l-6.11,0q-1.92,0 -3.02,-0.58t-1.65,-2.34l-1.21,-4.01q-2.15,1.92 -4.21,3.38t-4.26,2.45q-2.2,0.99 -4.68,1.48q-2.47,0.5 -5.5,0.5q-3.57,0 -6.6,-0.97q-3.02,-0.96 -5.2,-2.88q-2.17,-1.93 -3.38,-4.79q-1.21,-2.86 -1.21,-6.65q0,-3.19 1.68,-6.3t5.58,-5.61q3.91,-2.5 10.4,-4.15q6.49,-1.65 16.11,-1.87l0,-3.3q0,-5.67 -2.39,-8.39q-2.39,-2.72 -6.96,-2.72q-3.3,0 -5.5,0.77t-3.82,1.73q-1.62,0.96 -3,1.73q-1.37,0.77 -3.02,0.77q-1.38,0 -2.37,-0.71q-0.99,-0.72 -1.59,-1.76l-2.48,-4.35q9.74,-8.91 23.49,-8.91q4.95,0 8.82,1.62q3.88,1.63 6.58,4.51q2.69,2.89 4.09,6.91q1.41,4.01 1.41,8.8zm-26.4,27.17q2.09,0 3.85,-0.39q1.76,-0.38 3.32,-1.15q1.57,-0.77 3.03,-1.9q1.46,-1.13 2.94,-2.67l0,-9.51q-5.94,0.27 -9.93,1.01q-3.98,0.75 -6.4,1.9q-2.42,1.16 -3.44,2.7q-1.02,1.54 -1.02,3.35q0,3.58 2.12,5.12t5.53,1.54zm88.44,-47.96l-22.39,56.43l-12.32,0l-22.44,-56.43l11.28,0q1.48,0 2.5,0.71q1.02,0.72 1.4,1.82l10.89,30.14q0.94,2.64 1.57,5.17q0.63,2.53 1.13,5.06q0.49,-2.53 1.12,-5.06q0.64,-2.53 1.63,-5.17l11.16,-30.14q0.39,-1.1 1.38,-1.82q0.99,-0.71 2.36,-0.71l10.73,0z" fill="#334e68" fill-rule="nonzero" id="svg_4" stroke-dashoffset="0" stroke-miterlimit="4" transform="translate(647.682 521.348)"></path>
  </g>
  <g id="svg_5">
   <path d="m225.17,-816.09l239.63,0c4.91,0 9.62,1.95 13.1,5.41c3.47,3.47 5.43,8.17 5.43,13.07l0,192.75c0,4.9 -1.96,9.6 -5.43,13.07c-3.48,3.46 -8.19,5.41 -13.1,5.41l-239.63,0c-2.49,0 -4.96,-0.49 -7.26,-1.44c-2.31,-0.95 -4.4,-2.35 -6.16,-4.11c-1.76,-1.75 -3.16,-3.84 -4.12,-6.14c-0.95,-2.29 -1.44,-4.75 -1.44,-7.24l0,-191.85c0,-5.02 2,-9.84 5.56,-13.39c3.56,-3.55 8.39,-5.54 13.42,-5.54z" fill="#fff" fill-rule="nonzero" id="svg_6" stroke-dashoffset="0" stroke-miterlimit="4" transform="translate(35.0181 435.186) scale(0.4363 0.4363)"></path>
   <path d="m481.58,-801.71l0,195.5c0,9.49 4.67,16.85 -4.79,16.85l-254.72,0c-4.03,0.02 -7.94,-1.34 -11.08,-3.85c-3.14,-2.52 -5.31,-6.04 -6.15,-9.97c1.27,0.54 2.62,0.88 4,1.02l242.16,0c2.24,0 4.46,-0.45 6.53,-1.31c2.07,-0.87 3.94,-2.13 5.52,-3.73c1.57,-1.59 2.81,-3.48 3.64,-5.56c0.83,-2.08 1.24,-4.3 1.2,-6.53l0,-195.79c0.12,-1.1 0.12,-2.21 0,-3.31c3.88,0.74 7.37,2.82 9.87,5.87c2.5,3.04 3.85,6.87 3.82,10.81z" fill="#cec1bc" fill-rule="nonzero" id="svg_7" stroke-dashoffset="0" stroke-miterlimit="4" transform="translate(35.0181 435.186) scale(0.4363 0.4363)"></path>
   <path d="m290.44,-894.72l-123,79.7c-1.78,1.15 -3.77,1.94 -5.86,2.33c-2.09,0.38 -4.24,0.36 -6.32,-0.08c-2.07,-0.44 -4.05,-1.29 -5.8,-2.49c-1.75,-1.2 -3.24,-2.73 -4.4,-4.51c-1.16,-1.78 -1.96,-3.77 -2.34,-5.85c-0.39,-2.08 -0.36,-4.22 0.08,-6.3c0.44,-2.07 1.29,-4.03 2.49,-5.78c1.21,-1.75 2.74,-3.24 4.53,-4.4l122.94,-79.69c3.59,-2.09 7.85,-2.71 11.9,-1.75c4.05,0.96 7.57,3.43 9.84,6.9c2.27,3.48 3.11,7.69 2.36,11.77c-0.76,4.08 -3.05,7.71 -6.42,10.15z" fill="#389bf3" fill-rule="nonzero" id="svg_8" opacity="0.8" stroke-dashoffset="0" stroke-miterlimit="4" transform="translate(35.0181 435.186) scale(0.4363 0.4363)"></path>
   <path d="m126.05,-788.18l-82.22,53.3c-3.6,2.09 -7.86,2.71 -11.9,1.75c-4.05,-0.96 -7.57,-3.43 -9.84,-6.9c-2.27,-3.48 -3.12,-7.69 -2.36,-11.77c0.75,-4.08 3.05,-7.71 6.41,-10.15l82.28,-53.3c3.6,-2.33 7.98,-3.14 12.18,-2.25c4.2,0.89 7.87,3.41 10.21,7c2.34,3.59 3.15,7.96 2.26,12.14c-0.9,4.19 -3.42,7.85 -7.02,10.18z" fill="#ff9d23" fill-rule="nonzero" id="svg_9" opacity="0.8" stroke-dashoffset="0" stroke-miterlimit="4" transform="translate(35.0181 435.186) scale(0.4363 0.4363)"></path>
   <path d="m232.66,-913.48l-122.94,79.75c-1.79,1.16 -3.78,1.96 -5.88,2.35c-2.09,0.38 -4.24,0.36 -6.33,-0.08c-2.08,-0.44 -4.06,-1.29 -5.81,-2.49c-1.76,-1.21 -3.26,-2.74 -4.42,-4.52c-1.16,-1.78 -1.96,-3.78 -2.35,-5.86c-0.39,-2.09 -0.36,-4.24 0.08,-6.32c0.89,-4.19 3.42,-7.86 7.03,-10.2l122.99,-79.7c1.79,-1.15 3.78,-1.95 5.87,-2.33c2.09,-0.39 4.23,-0.36 6.31,0.08c2.08,0.44 4.05,1.29 5.8,2.49c1.75,1.2 3.25,2.73 4.41,4.51c1.16,1.77 1.95,3.76 2.34,5.85c0.39,2.08 0.36,4.22 -0.08,6.29c-0.45,2.07 -1.29,4.04 -2.5,5.79c-1.2,1.74 -2.74,3.24 -4.52,4.39z" fill="#aa7dff" fill-rule="nonzero" id="svg_10" stroke-dashoffset="0" stroke-miterlimit="4" transform="translate(35.0181 435.186) scale(0.4363 0.4363)"></path>
   <path d="m68.32,-806.94l-82.27,53.14c-3.61,2.13 -7.9,2.79 -11.98,1.83c-4.08,-0.95 -7.63,-3.44 -9.91,-6.95c-2.28,-3.51 -3.11,-7.76 -2.32,-11.86c0.8,-4.11 3.15,-7.74 6.58,-10.15l82.22,-53.3c3.6,-2.09 7.86,-2.71 11.9,-1.75c4.05,0.96 7.57,3.43 9.84,6.9c2.27,3.48 3.12,7.69 2.36,11.77c-0.75,4.08 -3.05,7.71 -6.42,10.15l0,0.22z" fill="#389bf3" fill-rule="nonzero" id="svg_11" stroke-dashoffset="0" stroke-miterlimit="4" transform="translate(35.0181 435.186) scale(0.4363 0.4363)"></path>
   <path d="m269.77,-937.52l-0.73,0.45c-1.78,1.29 -3.8,2.21 -5.95,2.69c-2.14,0.48 -4.36,0.53 -6.53,0.13c-2.16,-0.4 -4.22,-1.23 -6.05,-2.45c-1.83,-1.21 -3.39,-2.79 -4.59,-4.63c-1.2,-1.83 -2.01,-3.9 -2.39,-6.06c-0.38,-2.16 -0.31,-4.37 0.2,-6.51c0.51,-2.13 1.45,-4.14 2.76,-5.9c1.31,-1.76 2.97,-3.24 4.87,-4.34l0.73,-0.45c3.6,-2.08 7.86,-2.71 11.9,-1.75c4.05,0.96 7.57,3.43 9.84,6.91c2.27,3.47 3.12,7.68 2.36,11.76c-0.75,4.08 -3.05,7.71 -6.42,10.15z" fill="#ff9d23" fill-rule="nonzero" id="svg_12" stroke-dashoffset="0" stroke-miterlimit="4" transform="translate(35.0181 435.186) scale(0.4363 0.4363)"></path>
   <path d="m284.19,-834.46l-123,79.7c-1.78,1.16 -3.78,1.95 -5.88,2.34c-2.09,0.39 -4.24,0.36 -6.33,-0.08c-2.08,-0.44 -4.06,-1.28 -5.81,-2.49c-1.76,-1.2 -3.26,-2.73 -4.42,-4.52c-1.16,-1.78 -1.96,-3.77 -2.35,-5.86c-0.39,-2.09 -0.36,-4.23 0.08,-6.31c0.44,-2.08 1.29,-4.05 2.5,-5.8c1.2,-1.75 2.74,-3.25 4.53,-4.41l123,-79.75c3.6,-2.34 7.99,-3.15 12.2,-2.26c4.21,0.89 7.89,3.41 10.24,7.01c2.34,3.59 3.16,7.97 2.27,12.17c-0.9,4.2 -3.42,7.87 -7.03,10.21l0,0.05z" fill="#389bf3" fill-rule="nonzero" id="svg_13" opacity="0.5" stroke-dashoffset="0" stroke-miterlimit="4" transform="translate(35.0181 435.186) scale(0.4363 0.4363)"></path>
   <path d="m119.8,-727.91l-82.22,53.3c-1.78,1.29 -3.81,2.2 -5.95,2.69c-2.15,0.48 -4.37,0.53 -6.53,0.13c-2.16,-0.4 -4.22,-1.23 -6.05,-2.45c-1.83,-1.22 -3.4,-2.79 -4.6,-4.63c-1.2,-1.84 -2.01,-3.9 -2.39,-6.06c-0.37,-2.16 -0.3,-4.38 0.2,-6.51c0.51,-2.13 1.45,-4.14 2.76,-5.9c1.31,-1.76 2.97,-3.24 4.87,-4.34l82.28,-53.3c3.6,-2.33 7.98,-3.14 12.18,-2.25c4.2,0.89 7.87,3.4 10.21,6.99c2.33,3.59 3.15,7.96 2.25,12.15c-0.89,4.19 -3.41,7.85 -7.01,10.18z" fill="#aa7dff" fill-rule="nonzero" id="svg_14" opacity="0.5" stroke-dashoffset="0" stroke-miterlimit="4" transform="translate(35.0181 435.186) scale(0.4363 0.4363)"></path>
   <path d="m321.47,-858.55l-0.73,0.5c-1.78,1.29 -3.8,2.21 -5.95,2.69c-2.14,0.49 -4.37,0.53 -6.53,0.13c-2.16,-0.4 -4.22,-1.23 -6.05,-2.45c-1.83,-1.21 -3.39,-2.79 -4.59,-4.62c-1.2,-1.84 -2.02,-3.9 -2.39,-6.07c-0.38,-2.16 -0.31,-4.37 0.2,-6.51c0.51,-2.13 1.44,-4.14 2.76,-5.9c1.31,-1.76 2.96,-3.24 4.86,-4.34l0.79,-0.5c1.79,-1.16 3.78,-1.95 5.87,-2.34c2.09,-0.38 4.23,-0.35 6.31,0.09c2.08,0.44 4.05,1.28 5.8,2.48c1.75,1.2 3.25,2.73 4.41,4.51c1.16,1.78 1.95,3.77 2.34,5.85c0.39,2.09 0.36,4.22 -0.08,6.3c-0.45,2.07 -1.29,4.04 -2.5,5.78c-1.2,1.75 -2.74,3.24 -4.52,4.4z" fill="#ff9d23" fill-rule="nonzero" id="svg_15" opacity="0.5" stroke-dashoffset="0" stroke-miterlimit="4" transform="translate(35.0181 435.186) scale(0.4363 0.4363)"></path>
   <path d="m214.98,-815.59l252.35,0c4.81,0 9.43,1.91 12.83,5.3c3.4,3.39 5.31,7.99 5.31,12.79l0,193.71c0,4.79 -1.91,9.39 -5.31,12.78c-3.4,3.4 -8.02,5.3 -12.83,5.3l-252.35,0c-1.77,0 -3.46,-0.7 -4.7,-1.94s-1.95,-2.93 -1.95,-4.69l0,-216.45c-0.02,-0.89 0.13,-1.77 0.46,-2.59c0.32,-0.82 0.81,-1.57 1.43,-2.21c0.61,-0.63 1.36,-1.13 2.17,-1.48c0.82,-0.34 1.7,-0.52 2.59,-0.52z" fill="none" fill-rule="nonzero" id="svg_16" stroke="#732e54" stroke-dashoffset="0" stroke-miterlimit="10" stroke-width="2" transform="translate(35.0181 435.186) scale(0.4363 0.4363)"></path>
   <path d="m412.03,-771.84l73.38,0m-277.08,0l89.88,0" fill="none" fill-rule="nonzero" id="svg_17" stroke="#732e54" stroke-dashoffset="0" stroke-linecap="round" stroke-miterlimit="10" stroke-width="2" transform="translate(35.0181 435.186) scale(0.4363 0.4363)"></path>
   <g id="svg_18" transform="translate(150.427 538.547) scale(0.4363 0.4363)">
    <linearGradient id="a" x1="0" x2="1" y1="0.5" y2="0.5">
     <stop offset="4%" stop-color="#f27b40"></stop>
     <stop offset="100%" stop-color="#ec697d"></stop>
    </linearGradient>
    <path d="m363.99,-762.73l-12.5,0c-5.02,-0.12 -9.79,-2.19 -13.29,-5.77c-3.51,-3.58 -5.47,-8.38 -5.47,-13.39c0,-2.56 0.55,-5.09 1.61,-7.42c1.06,-2.34 2.6,-4.42 4.53,-6.11l8.05,-7.86c1.91,-1.87 3.41,-4.09 4.44,-6.53c1.04,-2.45 1.57,-5.08 1.57,-7.74c0,-2.66 -0.53,-5.29 -1.57,-7.74c-1.03,-2.44 -2.53,-4.66 -4.44,-6.53l-18.3,-18.08c-3.87,-3.68 -9.01,-5.72 -14.36,-5.72c-5.34,0 -10.49,2.04 -14.36,5.72l-7.72,7.69c-1.74,1.98 -3.89,3.56 -6.3,4.65c-2.41,1.08 -5.02,1.64 -7.66,1.64c-5.02,0.04 -9.85,-1.89 -13.46,-5.37c-3.61,-3.47 -5.71,-8.22 -5.86,-13.22l0,-12.52c0.03,-5.37 -2.06,-10.54 -5.82,-14.39c-3.77,-3.85 -8.9,-6.06 -14.28,-6.17l-24.9,0c-5.38,0.11 -10.5,2.32 -14.26,6.17c-3.75,3.85 -5.83,9.02 -5.78,14.39l0,12.47c-0.15,4.98 -2.25,9.71 -5.85,13.18c-3.6,3.46 -8.41,5.38 -13.42,5.35c-2.57,0.01 -5.11,-0.53 -7.46,-1.58c-2.35,-1.04 -4.45,-2.57 -6.16,-4.48l-7.94,-7.81c-3.88,-3.7 -9.06,-5.72 -14.42,-5.62c-5.32,-0.04 -10.45,1.97 -14.31,5.62l-18.47,17.97c-3.78,3.79 -5.91,8.92 -5.91,14.27c0,5.34 2.13,10.47 5.91,14.26l7.72,7.64c1.98,1.74 3.57,3.87 4.66,6.26c1.1,2.39 1.68,4.98 1.7,7.61c0.02,5 -1.93,9.81 -5.43,13.39c-3.49,3.58 -8.26,5.65 -13.27,5.77l-12.5,0c-2.69,-0.04 -5.35,0.45 -7.85,1.45c-2.49,0.99 -4.77,2.47 -6.69,4.34c-1.92,1.87 -3.45,4.11 -4.5,6.57c-1.05,2.47 -1.61,5.12 -1.63,7.8l0,24.88c0.14,5.35 2.38,10.44 6.25,14.15c3.87,3.71 9.05,5.75 14.42,5.67l12.5,0c5.01,0.15 9.77,2.24 13.26,5.83c3.49,3.58 5.44,8.38 5.44,13.38c-0.02,2.62 -0.59,5.21 -1.69,7.59c-1.1,2.39 -2.69,4.51 -4.67,6.23l-7.72,7.64c-3.78,3.78 -5.9,8.9 -5.9,14.23c0,5.34 2.12,10.46 5.9,14.24l18.53,17.92c1.9,1.83 4.15,3.27 6.62,4.23c2.46,0.97 5.09,1.44 7.74,1.38c5.33,0.03 10.47,-1.98 14.36,-5.61l7.94,-7.86c1.7,-1.87 3.77,-3.36 6.08,-4.39c2.3,-1.02 4.8,-1.56 7.33,-1.57c5.01,-0.03 9.84,1.9 13.45,5.37c3.61,3.48 5.72,8.22 5.86,13.22l0,12.41c-0.04,5.38 2.04,10.56 5.81,14.41c3.77,3.85 8.91,6.06 14.3,6.15l24.95,0c5.38,-0.1 10.5,-2.32 14.26,-6.17c3.75,-3.85 5.83,-9.02 5.78,-14.39l0,-12.46c0.1,-3.81 1.34,-7.49 3.56,-10.58c2.21,-3.1 5.31,-5.46 8.89,-6.78c3.57,-1.33 7.46,-1.55 11.17,-0.65c3.7,0.9 7.05,2.89 9.61,5.71l7.72,7.69c3.87,3.67 9.01,5.72 14.36,5.72s10.48,-2.05 14.36,-5.72l18.3,-18.2c3.78,-3.79 5.91,-8.92 5.91,-14.26c0,-5.35 -2.13,-10.48 -5.91,-14.27l-8.05,-7.92c-1.91,-1.69 -3.44,-3.76 -4.48,-6.09c-1.04,-2.32 -1.56,-4.84 -1.55,-7.39c-0.01,-4.99 1.93,-9.8 5.43,-13.38c3.5,-3.58 8.26,-5.65 13.27,-5.77l12.5,0c2.58,0 5.13,-0.51 7.51,-1.52c2.37,-1.01 4.51,-2.49 6.3,-4.35c1.78,-1.86 3.17,-4.06 4.08,-6.46c0.91,-2.41 1.32,-4.98 1.2,-7.55l0,-24.71c0.19,-2.6 -0.16,-5.2 -1.04,-7.66c-0.87,-2.45 -2.25,-4.69 -4.04,-6.59c-1.79,-1.89 -3.95,-3.4 -6.35,-4.42c-2.4,-1.01 -4.99,-1.52 -7.6,-1.49zm-137.64,97.83c-12.99,0.01 -25.69,-3.82 -36.5,-11.01c-10.8,-7.19 -19.23,-17.41 -24.21,-29.37c-4.98,-11.97 -6.29,-25.14 -3.76,-37.84c2.53,-12.71 8.78,-24.39 17.96,-33.55c9.18,-9.16 20.88,-15.41 33.62,-17.94c12.74,-2.53 25.95,-1.24 37.95,3.72c12,4.95 22.26,13.35 29.48,24.12c7.22,10.77 11.07,23.43 11.07,36.39c0,17.36 -6.91,34 -19.21,46.28c-12.31,12.28 -29,19.19 -46.4,19.2z" fill="url(#a)" fill-rule="nonzero" id="svg_19" stroke-dashoffset="0" stroke-miterlimit="4" transform="translate(-264.517 -236.902)"></path>
   </g>
   <path d="m290.38,-735.5c0.01,17.15 -6.73,33.61 -18.77,45.86c-12.04,12.24 -28.41,19.29 -45.6,19.63c-13.04,0.26 -25.86,-3.36 -36.82,-10.4c-10.97,-7.04 -19.59,-17.18 -24.76,-29.12c-5.17,-11.94 -6.66,-25.14 -4.27,-37.93c2.38,-12.79 8.54,-24.58 17.66,-33.87c9.13,-9.29 20.83,-15.65 33.6,-18.29c12.77,-2.63 26.04,-1.41 38.12,3.51c12.07,4.91 22.41,13.3 29.68,24.1c7.27,10.79 11.16,23.51 11.16,36.51z" fill="#fff" fill-rule="nonzero" id="svg_20" stroke-dashoffset="0" stroke-miterlimit="4" transform="translate(35.0181 435.186) scale(0.4363 0.4363)"></path>
   <path d="m289.37,-728.65c0,2.61 -0.17,5.22 -0.51,7.81c-1.75,-15.67 -9.23,-30.15 -21.01,-40.67c-11.78,-10.51 -27.04,-16.33 -42.85,-16.33c-15.81,0 -31.07,5.82 -42.85,16.33c-11.78,10.52 -19.27,25 -21.01,40.67c-0.34,-2.59 -0.51,-5.2 -0.51,-7.81c0,-17.02 6.78,-33.35 18.85,-45.39c12.07,-12.04 28.45,-18.8 45.52,-18.8c17.07,0 33.44,6.76 45.52,18.8c12.07,12.04 18.85,28.37 18.85,45.39z" fill="#fff" fill-rule="nonzero" id="svg_21" stroke-dashoffset="0" stroke-miterlimit="4" transform="translate(35.0181 435.186) scale(0.4363 0.4363)"></path>
   <path d="m161.08,-739.04c0,-2.61 0.17,-5.21 0.51,-7.8c1.75,15.67 9.23,30.15 21.01,40.66c11.78,10.52 27.04,16.33 42.85,16.33c15.81,0 31.07,-5.81 42.85,-16.33c11.78,-10.51 19.27,-24.99 21.01,-40.66c0.34,2.59 0.51,5.19 0.51,7.8c0,17.03 -6.78,33.36 -18.85,45.4c-12.07,12.04 -28.45,18.8 -45.52,18.8c-17.07,0 -33.44,-6.76 -45.52,-18.8c-12.07,-12.04 -18.85,-28.37 -18.85,-45.4z" fill="#cec1bc" fill-rule="nonzero" id="svg_22" stroke-dashoffset="0" stroke-miterlimit="4" transform="translate(35.0181 435.186) scale(0.4363 0.4363)"></path>
   <path d="m363.99,-767.45l-12.5,0c-5.02,-0.11 -9.8,-2.17 -13.31,-5.75c-3.51,-3.59 -5.46,-8.4 -5.45,-13.4c0,-2.56 0.54,-5.09 1.6,-7.41c1.06,-2.33 2.61,-4.4 4.54,-6.07l8.05,-7.87c1.89,-1.87 3.39,-4.1 4.41,-6.55c1.03,-2.45 1.55,-5.08 1.55,-7.74c0,-2.66 -0.52,-5.29 -1.55,-7.74c-1.02,-2.45 -2.52,-4.68 -4.41,-6.55l-18.3,-18.09c-3.87,-3.67 -9.01,-5.72 -14.36,-5.72c-5.35,0 -10.49,2.05 -14.36,5.72l-7.72,7.7c-1.74,1.98 -3.89,3.56 -6.3,4.65c-2.41,1.08 -5.02,1.64 -7.66,1.64c-5.02,0.03 -9.85,-1.9 -13.46,-5.37c-3.61,-3.48 -5.71,-8.22 -5.86,-13.22l0,-12.53c0.03,-5.37 -2.06,-10.53 -5.83,-14.37c-3.76,-3.84 -8.89,-6.04 -14.27,-6.13l-24.9,0c-5.37,0.09 -10.49,2.3 -14.23,6.14c-3.75,3.84 -5.82,9 -5.76,14.36l0,12.47c-0.15,5 -2.25,9.75 -5.86,13.22c-3.61,3.47 -8.44,5.4 -13.46,5.37c-2.56,-0.01 -5.1,-0.56 -7.45,-1.6s-4.45,-2.57 -6.18,-4.47l-7.94,-7.86c-1.9,-1.83 -4.15,-3.27 -6.61,-4.23c-2.47,-0.97 -5.1,-1.44 -7.75,-1.38c-5.33,-0.06 -10.48,1.96 -14.36,5.61l-18.47,18.03c-3.78,3.78 -5.9,8.9 -5.9,14.24c0,5.34 2.12,10.46 5.9,14.24l7.72,7.69c1.97,1.73 3.55,3.85 4.65,6.23c1.1,2.38 1.68,4.97 1.71,7.59c0.03,5 -1.91,9.81 -5.41,13.39c-3.5,3.59 -8.27,5.65 -13.29,5.76l-12.5,0c-5.39,-0.08 -10.59,1.98 -14.46,5.71c-3.87,3.74 -6.1,8.85 -6.21,14.23l0,24.88c0.14,5.35 2.38,10.45 6.25,14.17c3.87,3.72 9.05,5.77 14.42,5.71l12.5,0c5.01,0.12 9.78,2.19 13.27,5.77c3.5,3.58 5.45,8.38 5.43,13.38c0.01,2.66 -0.56,5.29 -1.65,7.71c-1.1,2.42 -2.71,4.58 -4.71,6.33l-7.72,7.64c-3.78,3.78 -5.9,8.9 -5.9,14.24c0,5.33 2.12,10.45 5.9,14.23l18.53,17.98c3.86,3.68 9.02,5.7 14.36,5.61c5.33,0.03 10.47,-1.98 14.36,-5.61l7.94,-7.87c1.71,-1.91 3.81,-3.45 6.16,-4.49c2.35,-1.05 4.9,-1.58 7.47,-1.57c5.02,-0.03 9.85,1.89 13.46,5.37c3.61,3.47 5.71,8.22 5.86,13.22l0,12.41c-0.05,5.38 2.04,10.56 5.8,14.41c3.77,3.85 8.91,6.06 14.3,6.15l24.95,0c5.38,-0.11 10.5,-2.33 14.24,-6.18c3.75,-3.85 5.81,-9.02 5.75,-14.38l0,-12.41c0.09,-3.82 1.32,-7.52 3.54,-10.62c2.22,-3.11 5.33,-5.48 8.92,-6.8c3.58,-1.33 7.49,-1.55 11.2,-0.64c3.72,0.92 7.07,2.92 9.63,5.76l7.71,7.69c3.88,3.68 9.02,5.73 14.36,5.73s10.49,-2.05 14.36,-5.73l18.08,-18.19c3.78,-3.79 5.91,-8.92 5.91,-14.27c0,-5.35 -2.13,-10.48 -5.91,-14.27l-8.05,-7.86c-1.91,-1.7 -3.43,-3.79 -4.47,-6.12c-1.04,-2.34 -1.57,-4.86 -1.56,-7.41c-0.01,-4.98 1.92,-9.77 5.39,-13.35c3.47,-3.58 8.21,-5.66 13.2,-5.81l12.5,0c2.58,0.01 5.13,-0.51 7.51,-1.52c2.37,-1.01 4.51,-2.49 6.3,-4.35c1.78,-1.85 3.17,-4.05 4.08,-6.46c0.91,-2.41 1.31,-4.98 1.2,-7.55l0,-24.93c0.15,-2.57 -0.22,-5.14 -1.1,-7.56c-0.89,-2.42 -2.26,-4.63 -4.03,-6.5c-1.77,-1.87 -3.91,-3.36 -6.28,-4.37c-2.38,-1.01 -4.93,-1.52 -7.51,-1.51z" fill="none" fill-rule="nonzero" id="svg_23" stroke="#732e54" stroke-dashoffset="0" stroke-miterlimit="10" stroke-width="2" transform="translate(35.0181 435.186) scale(0.4363 0.4363)"></path>
   <path d="m290.38,-734.93c-0.35,12.49 -4.38,24.6 -11.59,34.82c-7.21,10.23 -17.27,18.11 -28.94,22.67c-11.67,4.56 -24.42,5.6 -36.67,2.99c-12.26,-2.62 -23.47,-8.77 -32.24,-17.7c-8.77,-8.92 -14.72,-20.22 -17.1,-32.49c-2.38,-12.28 -1.08,-24.97 3.72,-36.51c4.81,-11.55 12.91,-21.42 23.3,-28.41c10.4,-6.98 22.62,-10.76 35.15,-10.86c17.19,0.34 33.56,7.38 45.6,19.63c12.04,12.25 18.78,28.71 18.77,45.86l0,0z" fill="none" fill-rule="nonzero" id="svg_24" stroke="#732e54" stroke-dashoffset="0" stroke-linecap="round" stroke-miterlimit="10" stroke-width="2" transform="translate(35.0181 435.186) scale(0.4363 0.4363)"></path>
   <path d="m304.57,-699.61c-1.56,4.17 -3.44,8.21 -5.63,12.08" fill="none" fill-rule="nonzero" id="svg_25" stroke="#fff" stroke-dashoffset="0" stroke-linecap="round" stroke-miterlimit="10" transform="translate(35.0181 435.186) scale(0.4363 0.4363)"></path>
   <path d="m312.63,-736.96c-0.23,4.74 -0.83,9.45 -1.8,14.1" fill="none" fill-rule="nonzero" id="svg_26" opacity="0.3" stroke="#fff" stroke-dashoffset="0" stroke-linecap="round" stroke-miterlimit="10" transform="translate(35.0181 435.186) scale(0.4363 0.4363)"></path>
   <path d="m272.36,-816.77c10.28,5.57 19.24,13.28 26.27,22.6c7.04,9.32 11.98,20.04 14.51,31.43" fill="none" fill-rule="nonzero" id="svg_27" stroke="#fff" stroke-dashoffset="0" stroke-linecap="round" stroke-miterlimit="10" transform="translate(35.0181 435.186) scale(0.4363 0.4363)"></path>
   <path d="m183.72,-809.97c8.94,-6.78 19.18,-11.66 30.08,-14.35c10.91,-2.68 22.25,-3.11 33.33,-1.26" fill="none" fill-rule="nonzero" id="svg_28" opacity="0.7" stroke="#fff" stroke-dashoffset="0" stroke-linecap="round" stroke-miterlimit="10" transform="translate(35.0181 435.186) scale(0.4363 0.4363)"></path>
  </g>
 </g>
</svg>
