<?xml version="1.0" encoding="UTF-8"?>
<svg xmlns="http://www.w3.org/2000/svg" xml:space="preserve" width="837.3" height="536.3">
  <path fill="#e7e8e5" d="M739 106c-131 3-263 3-394 0 131-2 263-2 394 0m95-53c-135 3-271 3-406 0 135-3 271-3 406 0M361 159c-84 3-169 3-252 0 83-2 168-2 252 0m-89-53c-84 3-169 3-253 0 84-2 169-2 253 0"></path>
  <path fill="#e7e8e5" d="M637 106c-2-17-2-35 0-53 3 18 3 36 0 53m-198 0c-3-17-3-35 0-53 2 18 2 36 0 53m-199 0c-3-17-3-35 0-53 3 18 3 36 0 53m-199 0c-2-17-2-35 0-53 3 18 3 36 0 53m696-53c-3-17-3-35 0-53 3 18 3 36 0 53m-199 0c-3-17-3-35 0-53 3 18 3 36 0 53M140 161c-3-18-3-36 0-53 3 17 2 35 0 53m582 321c-134 3-271 3-405 0 134-2 271-2 405 0m-140-53c-91 3-182 3-273 0 91-3 182-3 273 0"></path>
  <path fill="#e7e8e5" d="M438 536c-2-18-2-36 0-54 3 18 3 36 0 54m100-54c-3-17-3-35 0-53 3 18 3 36 0 53m-199 0c-3-17-3-35 0-53 3 18 3 36 0 53m445-154c-56 3-113 3-169 0 56-3 113-3 169 0m39-54c-90 3-182 3-272 0 90-2 182-2 272 0"></path>
  <path fill="#e7e8e5" d="M737 381c-3-17-3-35 0-53 3 18 2 36 0 53m-100-53c-2-18-2-36 0-54 3 18 3 36 0 54"></path>
  <path fill="#d4d6d3" d="m837 258-54 278H606l-55-278 66-95-21-76h197l-21 76 65 95"></path>
  <path fill="#bebfbd" d="m837 258-4 22H556l-5-22h286m-7 36-4 22H563l-5-22h272"></path>
  <path fill="#bbbdbb" d="M783 536H676v-14h-1 107V374l13-58h31l-43 220"></path>
  <path fill="#e0e1de" d="m837 258-65-95 65 95"></path>
  <path fill="#bbbdbb" d="m828 303 2-9h-30l3-14h30l-5 23m9-45h-29l-26-40v-4h-3l-30-49 22-78h22l-21 76 65 95"></path>
  <path fill="#a7aaa9" d="M833 280h-30l5-22h29l-4 22m-7 36h-31l5-22h30l-2 9-2 13"></path>
  <path fill="#bebfbd" d="M622 164h100v-2H622Zm107 0h14v-2h-14Z"></path>
  <path fill="#fabb1e" d="M760 190h10v-30h-10zm37 15 21-21-6-7-22 21m15 37h30v-9h-30ZM6 155a511 511 0 0 1 105 216c-6-22-13-43-21-63-30-9-61-16-77-46-16-31-14-72-11-106 0-2 3-2 4-1"></path>
  <path fill="#f4ac12" d="M71 302c-24-7-45-16-58-40-10-20-13-43-13-67a434 434 0 0 1 4-41l2 1c22 31 46 64 65 99v48"></path>
  <path fill="#17282f" d="M90 307A522 522 0 0 0 7 175c23 27 40 57 56 88-15-16-32-30-47-47v1c14 17 30 36 49 49l16 28-4-2-1 1 5 2 7 13c1 1 2 0 2-1m-16-16"></path>
  <path fill="#fabb1e" d="M118 359h-2v-79c-7-13-21-20-31-31a186 186 0 0 1-40-98c-3-28 8-120 20-117 6 2 25 48 31 63 8 24 14 50 18 76 10 61 9 124 4 186"></path>
  <path fill="#f4ac12" d="m71 230-4-7a186 186 0 0 1-22-83c0-35 9-106 19-106h1c6 2 25 48 31 63a434 434 0 0 1 23 117h-4c-3-23-8-44-13-66a329 329 0 0 0-34-97c12 24 20 49 27 75l-4-5-1-1v1l5 8h1c6 25 10 50 14 75l-1-1 1 3 1 8H86a154 154 0 0 1-24-40c6 14 12 27 21 40H71v16"></path>
  <path fill="#17282f" d="M118 247v-1c-1-33-9-66-16-98a329 329 0 0 0-34-97c12 24 20 49 27 75l-4-5h-1l5 8h1c6 25 10 50 14 75l-1-1 1 3 6 38a179 179 0 0 1-54-70c11 29 28 55 54 73l1 10h2l-1-9v-1"></path>
  <path fill="#17282f" d="M108 199a526 526 0 0 1-47-80 259 259 0 0 0 47 80m-23-86L63 75c0-1-1 0 0 0 5 13 12 27 21 38h1m2 5c1 0 1 0 0 0"></path>
  <path fill="#fabb1e" d="M136 284c0 17 2 34 6 51l-1 6a245 245 0 0 1-9-59v-1c-1-25 1-51 6-77 8-48 25-94 59-130 1-1 3 0 3 1 14 34 9 75-2 109-7 19-15 36-27 52-11 16-26 30-35 48"></path>
  <path fill="#f4ac12" d="M185 214h-13a115 115 0 0 0 4-9l-7 9h-22l3-10 2-3v-1h-1l-1 1c5-18 10-36 17-53 8-9 17-18 23-29v-1h-1l-14 20-7 7a405 405 0 0 1 25-55c-23 38-41 80-50 124h-7l2-10a247 247 0 0 1 60-130l2 1c6 15 9 30 9 47a184 184 0 0 1-11 62l-13 30"></path>
  <path fill="#17282f" d="M193 90c-32 52-54 113-57 173a667 667 0 0 1 4-16h1a207 207 0 0 0 35-42c-11 13-22 27-35 38l9-39 2-3c1-1 0-2-1-1l-1 1c5-18 10-36 17-53 8-9 17-18 23-29l-1-1-14 20-7 7a405 405 0 0 1 25-55"></path>
  <path fill="#17282f" d="M186 154c-10 13-22 27-31 41h1a210 210 0 0 0 30-41m-32 44h-1l1 1v-1"></path>
  <path fill="#fabb1e" d="M242 189c-2 26-16 58-33 78-8 9-17 16-27 21l-36 18c-6 14-10 29-13 45l-1-4c8-67 51-124 106-161 2-1 5 1 4 3"></path>
  <path fill="#f4ac12" d="M237 214h-33a274 274 0 0 1 36-28 3 3 0 0 1 2 3c0 8-2 16-5 25"></path>
  <path fill="#17282f" d="M223 209v-1c-30 22-56 53-71 87l1 1 8-13c13-3 25-12 34-20 1 0 0-1 0 0l-16 11-16 6 15-21a148 148 0 0 0 37-22l-35 19 25-30 13-7h-1l-9 5 15-15m-1 23-2 1v1l2-2c1 0 0 0 0 0"></path>
  <path fill="#33535f" d="M196 364H41l16 172h124l15-172m-169 0h183v-35H27Z"></path>
  <path fill="#263f48" d="m43 382-2-18h30v17l-28 1"></path>
  <path fill="#fabb1e" d="M71 522h711V214H71Z"></path>
  <path fill="#17282f" d="M88 478h677V231H88Z"></path>
  <path fill="#fabb1e" d="m680 316 1 1v19l-3 3-2-5v-14zm-4-5v-14l2-5c2 0 3 2 3 3v18l-1 2zm0 2 3 2-3 3h-17l-2-3 2-2zm-1-16h-16l-5-2 3-3h20zm-16 23v14l-2 5-3-3v-19l1-1zm0-21v12l-4 4-1-2v-16l5 2m55 17 1 1v19l-3 3-2-5v-14zm-4-5v-14l2-5c2 0 3 2 3 3v18l-1 2zm-6 2-2 3-3-3v-14h5zm5-16h-16l-5-2c0-1 1-3 3-3h20zm-16 23v14l-2 5-3-3v-19l1-1zm0-21v12l-4 4-1-2v-16l5 2"></path>
  <path fill="#040606" d="M676 389v-13l2-2 3 3v15l-1 1zm0 2 3 3-3 2h-17l-2-2 2-3zm-17 7v14l-2 5c-1 0-3-1-3-3v-18l1-2zm0-21v12l-4 4-1-1v-17zm16-1h-16l-5-2v-4h21l2 3-2 3m39 18 1 2v18c0 2-1 3-3 3l-2-5v-14l4-4m-4-5v-13l2-6c2 1 3 2 3 4v18l-1 1-4-4m-6 3-2 2-3-2v-15h5v15m5-16h-16l-5-2c0-2 1-3 3-4h20l-2 6m-16 22v14l-2 5c-2 0-3-1-3-3v-18l1-2 4 4m0-21v12l-4 4-1-1v-17l5 2m-517-66v31l-9 11-5-6v-47l2-3 12 14"></path>
  <path fill="#fabb1e" d="M235 300v47l-5 6-9-11v-31l12-14 2 3"></path>
  <path fill="#040606" d="m228 355-8 8h-43l-8-8 8-9h43l8 9m3-60-10 11h-45l-10-11 2-4h61l2 4"></path>
  <path fill="#fabb1e" d="M235 362v47l-2 3-12-13v-32l9-10 5 5"></path>
  <path fill="#040606" d="M176 367v32l-12 13-2-3v-47l5-5 9 10m-10 48 10-12h45l10 12-2 3h-61l-2-3m110-104v31l-9 11-5-6v-47l2-3 12 14"></path>
  <path fill="#fabb1e" d="M336 300v47l-5 6-9-11v-31l12-14 2 3"></path>
  <path fill="#040606" d="m328 355-7 8h-44l-8-8 8-9h43l8 9m4-60-10 11h-46l-10-11 2-4h61l3 4"></path>
  <path fill="#fabb1e" d="M336 362v47l-2 3-12-13v-32l9-10 5 5"></path>
  <path fill="#040606" d="M276 367v32l-12 13-2-3v-47l5-5 9 10m-10 48 10-12h46l10 12-3 3h-61l-2-3m151-104v31l-9 11-4-6v-47l2-3 11 14"></path>
  <path fill="#fabb1e" d="M477 300v47l-5 6-9-11v-31l12-14 2 3m-7 55-8 8h-44l-8-8 8-9h44l8 9m3-60-10 11h-46l-10-11 3-4h61l2 4m4 67v47l-2 3-12-13v-32l9-10 5 5"></path>
  <path fill="#040606" d="M417 367v32l-11 13-2-3v-47l4-5 9 10"></path>
  <path fill="#fabb1e" d="m407 415 10-12h46l10 12-2 3h-61l-3-3m111-104v31l-9 11-5-6v-47l2-3 12 14m59-11v47l-5 6-9-11v-31l12-14 2 3m-7 55-8 8h-43l-8-8 7-9h44l8 9"></path>
  <path fill="#040606" d="m573 295-10 11h-45l-10-11 2-4h61l2 4"></path>
  <path fill="#fabb1e" d="M577 362v47l-2 3-12-13v-32l9-10 5 5"></path>
  <path fill="#040606" d="M518 367v32l-12 13-2-3v-47l5-5 9 10m-10 48 10-12h45l10 12-2 3h-61l-2-3m-132-25h-13v-14h13zm0-55h-13v-14h13v14"></path>
  <path fill="#fbc22b" d="M88 478v-45 45"></path>
  <path fill="#2b3c43" d="M149 478H88v-45l127-127h6l10-11-1-4 60-60h107l-74 74 9-10-3-4h-61l-2 4 10 11h45l-39 40h-5l-8 9 2 2-2 2-2-2-5 5v3l-27 27v-30l-5-5-9 10v32l4 4-2 2-2-2h-45l-10 12 2 3h41l-60 60m18-121-5 5v47l2 3 12-13v-32l-9-10m10-11-8 9 8 8h43l8-8-8-9h-43m87-49-2 3v47l5 6 9-11v-31l-12-14m-31 0-12 14v31l9 11 5-6v-47l-2-3"></path>
  <path fill="#fbc22b" d="m230 353-9-11v-31l12-14 2 3v47l-5 6"></path>
  <path fill="#101011" d="M220 363h-43l-8-8 8-9h43l8 9-8 8m1-57h-6l15-15 1 4-10 11"></path>
  <path fill="#fbc22b" d="m225 403-4-4v-32l9-10 5 5v30l-10 11"></path>
  <path fill="#101011" d="m164 412-2-3v-47l5-5 9 10v32l-12 13m45 6h-41l-2-3 10-12h45l2 2-14 13m58-65-5-6v-47l2-3 12 14v31l-9 11m4 4-2-2 8-9h5l-11 11m50-51h-45l-10-11 2-4h61l3 4-9 10-2 1m-59 59v-3l5-5 2 2-7 6"></path>
  <path fill="#fbc22b" d="M765 421V315v106"></path>
  <path fill="#2b3c43" d="M708 478H602l86-86 1 1 4-4v-2l6-6v11l3 2 2-2v-15h-1l1-1h5l2-6h-1l55-55v106l-57 57m6-84-4 4v14l2 5c2 0 3-1 3-3v-18l-1-2m-25 0-1 2v18c0 2 1 3 3 3l2-5v-14l-4-4m23-24-2 6v13l4 4 1-1v-18c0-2-1-3-3-4"></path>
  <path fill="#101011" d="m712 417-2-5v-14l4-4 1 2v18c0 2-1 3-3 3m-21 0c-2 0-3-1-3-3v-18l1-2 4 4v14l-2 5m11-23-3-2v-11l4-4h1v15l-2 2m12-1-4-4v-13l2-6c2 1 3 2 3 4v18l-1 1m-25 0-1-1 5-5v2l-4 4m20-17h-5l6-6h1l-2 6"></path>
  <path fill="#2b3c43" d="M258 478h-21l60-60h21l-60 60m69-68-5-7h-10l10-9v5l7 9-2 2m9-9v-21l68-68v21l-68 68"></path>
  <path fill="#fbc22b" d="m329 408-7-9v-5l14-14v21l-7 7"></path>
  <path fill="#2b3c43" d="M417 319v-8l-6-7 3-2 3 4h14l-14 13"></path>
  <path fill="#101011" d="M318 418h-21l15-15h10l5 7-9 8m86-85v-21l7-8 6 7v8l-13 14"></path>
  <path fill="#2b3c43" d="M446 291h-22l61-60h21l-60 60"></path>
  <path fill="#fbc22b" d="M431 306h-14l-3-4 10-11h22l-15 15M88 294v-21 21"></path>
  <path fill="#2b3c43" d="M88 294v-21l42-42h22l-64 63"></path>
  <path fill="#fabb1e" d="M338 509h40v-18h-40Z"></path>
  <path fill="#d59814" d="M338 512h40v-3h-40Z"></path>
  <path fill="#fff" d="M378 491h-40v2Z"></path>
  <path fill="#fff" d="m338 509 2-18h-2z"></path>
  <path fill="#33535f" d="M407 509h39v-18h-39Z"></path>
  <path fill="#d59814" d="M407 512h39v-3h-39Z"></path>
  <path fill="#fff" d="M446 491h-39v2Z"></path>
  <path fill="#fff" d="m407 509 2-18h-2z"></path>
  <path fill="#fabb1e" d="M475 509h40v-18h-40Z"></path>
  <path fill="#d59814" d="M475 512h40v-3h-40Z"></path>
  <path fill="#fff" d="M515 491h-40v2Z"></path>
  <path fill="#fff" d="m475 509 2-18h-2z"></path>
  <path fill="#fabb1e" d="M176 536h94v-14h-94z"></path>
  <path fill="#d59814" d="M176 529v-7h94v4l-94 3"></path>
  <path fill="#fabb1e" d="M583 536h93v-14h-93Z"></path>
  <path fill="#d59814" d="M583 529v-7h93v4l-93 3"></path>
  <path fill="#17282f" d="M551 214H301v-14h250v14M27 536"></path>
</svg>
