<svg xmlns="http://www.w3.org/2000/svg" viewBox="0 0 800 480"><style>.st0{fill:#f5f5f5}.st1{fill:#e0e0e0}.st2{fill:#fff}.st4{fill:#ebebeb}.st5{fill:#fafafa}.st8{fill:#263238}.st9{fill:#ffbe9d}.st10{fill:#455a64}.st11{fill:#e8505b}.st12{opacity:.3}.st14{fill:#eb996e}.st15{fill:#b78876}.st16{fill:#aa6550}.st17{opacity:.5}.st18{opacity:.2}.st19{font-family:'BerlinSansFBDemi-Bold'}</style><g id="Background_Complete"><path class="st0" d="M372 434c13-9 16-25 16-40l-1-8c-2-2-4-3-7-2l-3 4-6 6-5 1c-2-2-3-5-3-7v-14-7c-1-3-3-5-5-5-2-1-5 0-6 3v3l-1 2c-1 1-2 0-3-1-3-2-4-5-6-9l-6-9c-2-3-5-5-9-5-3 0-7 2-8 6-1 3 1 7 4 9 3 5 7 8 11 11l2 3c0 1-1 3-3 3l-6 1c-2 0-4 1-4 3-1 2 1 5 3 7l14 8 5 2c1 2 2 4 1 6l-5 2-5-2c-3-2-8-1-10 2-1 1-2 4-1 6 1 3 2 5 4 6 5 7 12 12 20 15 8 2 15 3 23 0"/><path class="st1" d="M373 445l-4-20-9-24-3-6-3-6-6-11-6-9a219 219 0 00-16-18l-2-2-1-1h-1 1v1l3 2a93 93 0 0115 18 209 209 0 0113 20l2 6 3 6a228 228 0 0113 44M354 389v-1l1-3 1-10 1-9 1-3v-1 1l-1 2-1 10-1 10-1 3v1z"/><path class="st1" d="M322 383h5l11 2 12 3h3l1 1-1-1-3-1a158 158 0 00-23-4h-5zM368 424l1-1 2-5a475 475 0 0011-29l1-4 1-1-1 1-2 4a475 475 0 00-11 29l-1 5-1 1zM326 411h1l5 2a667 667 0 0130 9l4 2h2-2l-4-2a667 667 0 01-30-10l-5-1h-1z"/><g><path class="st1" d="M487 206h84v69h-84z"/><path class="st0" d="M474 253h93v23h-93z"/><path class="st1" d="M504 259l-1 1-1-1 1-1 1 1zM508 259l-1 1-1-1 1-1 1 1zM513 259l-1 1-1-1 1-1 1 1zM517 259l-1 1-1-1 1-1 1 1zM553 259l-1 1-1-1 1-1 1 1zM558 259l-1 1-1-1 1-1 1 1zM522 259l-1 1-1-1 1-1 1 1zM545 259l-1 1-1-1 1-1 1 1zM527 259l-1 1-1-1 1-1 1 1zM531 259l-1 1-1-1 1-1 1 1zM541 259l-1 1-1-1 1-1 1 1zM562 259l-1 1-1-1 1-1 1 1zM536 259l-1 1-1-1 1-1 1 1zM549 259l-1 1-1-1 1-1 1 1z"/><g><path class="st1" d="M560 264l1-1 1 1-1 1-1-1zM555 264l1-1 1 1-1 1-1-1zM550 264l1-1 1 1-1 1-1-1zM546 264l1-1 1 1-1 1-1-1zM510 264l1-1 1 1-1 1-1-1zM505 264l1-1 1 1-1 1-1-1zM541 264l1-1 1 1-1 1-1-1zM519 264l1-1 1 1-1 1-1-1zM537 264l1-1 1 1-1 1-1-1zM532 264l1-1 1 1-1 1-1-1zM523 264l1-1 1 1-1 1-1-1zM502 264l1-1 1 1-1 1-1-1zM527 264l1-1 1 1-1 1-1-1zM514 264l1-1 1 1-1 1-1-1z"/></g><g><path class="st1" d="M504 268l-1 1-1-1 1-1 1 1zM508 268l-1 1-1-1 1-1 1 1zM513 268l-1 1-1-1 1-1 1 1zM517 268l-1 1-1-1 1-1 1 1z"/><circle class="st1" cx="552" cy="268.3" r="1"/><circle class="st1" cx="556.7" cy="268.3" r="1"/><path class="st1" d="M522 268l-1 1-1-1 1-1 1 1z"/><circle class="st1" cx="543.6" cy="268.3" r="1"/><path class="st1" d="M527 268l-1 1-1-1 1-1 1 1zM531 268l-1 1-1-1 1-1 1 1z"/><circle class="st1" cx="539.5" cy="268.3" r="1"/><path class="st1" d="M562 268l-1 1-1-1 1-1 1 1zM536 268l-1 1-1-1 1-1 1 1z"/><circle class="st1" cx="548" cy="268.3" r="1"/></g><g><path class="st1" d="M479 257h18v3h-18z"/></g><g><path class="st1" d="M479 262h18v3h-18z"/></g><g><path class="st1" d="M479 267h18v3h-18z"/></g><g><path class="st1" d="M581 275h-14v-22h14z"/></g><g><path class="st0" d="M474 225h93v23h-93z"/><path class="st1" d="M504 232l-1 1-1-1 1-1 1 1zM508 232l-1 1-1-1 1-1c1-1 1 0 1 1zM513 232l-1 1-1-1 1-1 1 1zM517 232l-1 1-1-1 1-1c1-1 1 0 1 1zM553 232l-1 1-1-1 1-1c1-1 1 0 1 1zM558 232l-1 1-1-1 1-1 1 1zM522 232l-1 1-1-1 1-1c1-1 1 0 1 1zM545 232l-1 1-1-1 1-1 1 1zM527 232l-1 1-1-1 1-1 1 1zM531 232l-1 1-1-1 1-1c1-1 1 0 1 1zM541 232l-1 1-1-1 1-1 1 1zM562 232l-1 1-1-1 1-1 1 1zM536 232l-1 1-1-1 1-1 1 1zM549 232l-1 1-1-1 1-1c1-1 1 0 1 1z"/><g><path class="st1" d="M560 237l1-1 1 1a1 1 0 01-2 0zM555 237l1-1 1 1a1 1 0 01-2 0zM550 237l1-1 1 1a1 1 0 01-2 0zM546 237l1-1 1 1a1 1 0 01-2 0zM510 237l1-1 1 1a1 1 0 01-2 0zM505 237l1-1 1 1-1 1-1-1zM541 237l1-1 1 1a1 1 0 01-2 0zM519 237l1-1 1 1a1 1 0 01-2 0zM537 237l1-1 1 1a1 1 0 01-2 0zM532 237l1-1 1 1a1 1 0 01-2 0zM523 237l1-1 1 1-1 1-1-1zM502 237l1-1 1 1a1 1 0 01-2 0zM527 237l1-1 1 1a1 1 0 01-2 0zM514 237l1-1 1 1a1 1 0 01-2 0z"/></g><g><path class="st1" d="M504 241l-1 1-1-1 1-1 1 1zM508 241l-1 1-1-1 1-1 1 1zM513 241l-1 1-1-1 1-1 1 1zM517 241l-1 1-1-1 1-1 1 1zM553 241l-1 1-1-1 1-1 1 1zM558 241l-1 1-1-1 1-1 1 1zM522 241l-1 1-1-1 1-1 1 1zM545 241l-1 1-1-1 1-1 1 1zM527 241l-1 1-1-1 1-1 1 1zM531 241l-1 1-1-1 1-1 1 1zM541 241l-1 1-1-1 1-1 1 1zM562 241l-1 1-1-1 1-1 1 1zM536 241l-1 1-1-1 1-1 1 1zM549 241l-1 1-1-1 1-1 1 1z"/></g><g><path class="st1" d="M479 230h18v3h-18z"/></g><g><path class="st1" d="M479 235h18v3h-18z"/></g><g><path class="st1" d="M479 240h18v3h-18z"/></g><g><path class="st1" d="M581 248h-14v-23h14z"/></g></g><g><path class="st0" d="M474 199h93v23h-93z"/><path class="st1" d="M504 205l-1 1-1-1 1-1 1 1zM508 205l-1 1-1-1 1-1 1 1zM513 205l-1 1-1-1 1-1 1 1zM517 205l-1 1-1-1 1-1 1 1zM553 205l-1 1-1-1a1 1 0 012 0zM558 205l-1 1-1-1a1 1 0 012 0zM522 205l-1 1-1-1 1-1 1 1zM545 205l-1 1-1-1 1-1 1 1zM527 205l-1 1-1-1 1-1 1 1zM531 205l-1 1-1-1 1-1 1 1zM541 205l-1 1-1-1a1 1 0 012 0zM562 205l-1 1-1-1a1 1 0 012 0zM536 205l-1 1-1-1 1-1 1 1zM549 205l-1 1-1-1a1 1 0 012 0z"/><g><path class="st1" d="M560 210l1-1 1 1-1 1-1-1zM555 210l1-1 1 1a1 1 0 01-2 0zM550 210l1-1 1 1a1 1 0 01-2 0zM546 210l1-1 1 1-1 1-1-1zM510 210l1-1 1 1a1 1 0 01-2 0zM505 210l1-1 1 1-1 1-1-1zM541 210l1-1 1 1-1 1-1-1zM519 210l1-1 1 1a1 1 0 01-2 0zM537 210l1-1 1 1-1 1-1-1zM532 210l1-1 1 1-1 1-1-1zM523 210l1-1 1 1-1 1-1-1zM502 210l1-1 1 1-1 1-1-1zM527 210l1-1 1 1a1 1 0 01-2 0zM514 210l1-1 1 1-1 1-1-1z"/></g><g><path class="st1" d="M504 215l-1 1-1-1 1-1 1 1zM508 215l-1 1-1-1 1-1 1 1zM513 215l-1 1-1-1 1-1 1 1zM517 215l-1 1-1-1 1-1 1 1z"/><circle class="st1" cx="552" cy="214.5" r="1"/><circle class="st1" cx="556.7" cy="214.5" r="1"/><path class="st1" d="M522 215l-1 1-1-1 1-1 1 1z"/><circle class="st1" cx="543.6" cy="214.5" r="1"/><path class="st1" d="M527 215l-1 1-1-1 1-1 1 1zM531 215l-1 1-1-1 1-1 1 1z"/><circle class="st1" cx="539.5" cy="214.5" r="1"/><path class="st1" d="M562 215l-1 1-1-1a1 1 0 012 0zM536 215l-1 1-1-1 1-1 1 1z"/><circle class="st1" cx="548" cy="214.5" r="1"/></g><g><path class="st1" d="M479 204h18v2h-18z"/></g><g><path class="st1" d="M479 208h18v3h-18z"/></g><g><path class="st1" d="M479 213h18v3h-18z"/></g><g><path class="st1" d="M581 222h-14v-23h14z"/></g></g></g><g><path class="st1" d="M235 205h81v67h-81z"/><path class="st0" d="M223 250h88v22h-88z"/><path class="st1" d="M251 256l-1 1-1-1 1-1 1 1zM255 256l-1 1-1-1 1-1 1 1zM260 256l-1 1-1-1 1-1 1 1zM264 256l-1 1-1-1 1-1 1 1zM298 256l-1 1-1-1 1-1 1 1zM303 256l-1 1-1-1 1-1 1 1zM269 256l-1 1-1-1 1-1 1 1zM290 256l-1 1-1-1 1-1 1 1zM273 256l-1 1-1-1 1-1 1 1zM277 256l-1 1-1-1 1-1 1 1zM286 256l-1 1-1-1 1-1 1 1zM307 256l-1 1-1-1 1-1 1 1zM282 256l-1 1-1-1 1-1 1 1zM294 256l-1 1-1-1 1-1 1 1z"/><g><path class="st1" d="M305 261l1-1 1 1-1 1-1-1zM300 261l1-1 1 1-1 1-1-1zM296 261l1-1 1 1-1 1-1-1zM291 261l1-1 1 1-1 1-1-1z"/><circle class="st1" cx="258" cy="260.5" r="1"/><path class="st1" d="M253 261l1-1 1 1-1 1-1-1zM287 261l1-1 1 1-1 1-1-1z"/><circle class="st1" cx="266.2" cy="260.5" r="1"/><path class="st1" d="M282 261l1-1 1 1-1 1-1-1zM278 261l1-1 1 1-1 1-1-1z"/><circle class="st1" cx="270.1" cy="260.5" r="1"/><circle class="st1" cx="249.9" cy="260.5" r="1"/><circle class="st1" cx="274.6" cy="260.5" r="1"/><circle class="st1" cx="262" cy="260.5" r="1"/></g><g><circle class="st1" cx="249.9" cy="264.8" r="1"/><path class="st1" d="M255 265l-1 1-1-1 1-1 1 1zM260 265l-1 1-1-1 1-1 1 1zM264 265l-1 1-1-1 1-1 1 1zM298 265l-1 1-1-1 1-1 1 1zM303 265l-1 1-1-1 1-1 1 1zM269 265l-1 1-1-1 1-1 1 1zM290 265l-1 1-1-1 1-1 1 1zM273 265l-1 1-1-1 1-1 1 1zM277 265l-1 1-1-1 1-1 1 1zM286 265l-1 1-1-1 1-1 1 1zM307 265l-1 1-1-1 1-1 1 1zM282 265l-1 1-1-1 1-1 1 1zM294 265l-1 1-1-1 1-1 1 1z"/></g><g><path class="st1" d="M227 254h17v3h-17z"/></g><g><path class="st1" d="M227 259h17v3h-17z"/></g><g><path class="st1" d="M227 264h17v2h-17z"/></g><g><path class="st1" d="M325 272h-14v-22h14z"/></g><g><path class="st0" d="M223 224h88v22h-88z"/><path class="st1" d="M251 230l-1 1-1-1 1-1 1 1zM255 230l-1 1-1-1 1-1 1 1zM260 230l-1 1-1-1 1-1 1 1zM264 230l-1 1-1-1 1-1 1 1zM298 230l-1 1-1-1 1-1 1 1zM303 230l-1 1-1-1 1-1 1 1zM269 230l-1 1-1-1 1-1 1 1zM290 230l-1 1-1-1 1-1 1 1zM273 230l-1 1-1-1 1-1 1 1zM277 230l-1 1-1-1 1-1 1 1zM286 230l-1 1-1-1 1-1 1 1zM307 230l-1 1-1-1 1-1 1 1zM282 230l-1 1-1-1 1-1 1 1zM294 230l-1 1-1-1 1-1 1 1z"/><g><path class="st1" d="M305 234l1-1 1 1-1 1-1-1zM300 234l1-1 1 1-1 1-1-1zM296 234l1-1 1 1-1 1-1-1zM291 234l1-1 1 1-1 1-1-1z"/><circle class="st1" cx="258" cy="234.3" r="1"/><path class="st1" d="M253 234l1-1 1 1-1 1-1-1zM287 234l1-1 1 1-1 1-1-1z"/><circle class="st1" cx="266.2" cy="234.3" r="1"/><path class="st1" d="M282 234l1-1 1 1-1 1-1-1zM278 234l1-1 1 1-1 1-1-1z"/><circle class="st1" cx="270.1" cy="234.3" r="1"/><circle class="st1" cx="249.9" cy="234.3" r="1"/><circle class="st1" cx="274.6" cy="234.3" r="1"/><circle class="st1" cx="262" cy="234.3" r="1"/></g><g><path class="st1" d="M251 239l-1 1-1-1 1-1 1 1zM255 239l-1 1-1-1 1-1 1 1zM260 239l-1 1-1-1 1-1 1 1zM264 239l-1 1-1-1 1-1 1 1zM298 239l-1 1-1-1 1-1 1 1zM303 239l-1 1-1-1 1-1 1 1zM269 239l-1 1-1-1 1-1 1 1zM290 239l-1 1-1-1 1-1 1 1zM273 239l-1 1-1-1 1-1 1 1zM277 239l-1 1-1-1 1-1 1 1zM286 239l-1 1-1-1 1-1 1 1zM307 239l-1 1-1-1 1-1 1 1zM282 239l-1 1-1-1 1-1 1 1zM294 239l-1 1-1-1 1-1 1 1z"/></g><g><path class="st1" d="M227 228h17v3h-17z"/></g><g><path class="st1" d="M227 233h17v2h-17z"/></g><g><path class="st1" d="M227 237h17v3h-17z"/></g><g><path class="st1" d="M325 245h-14v-21h14z"/></g></g><g><path class="st0" d="M223 198h88v22h-88z"/><circle class="st1" cx="249.9" cy="204.1" r="1"/><path class="st1" d="M255 204l-1 1-1-1 1-1 1 1zM260 204l-1 1-1-1 1-1 1 1zM264 204l-1 1-1-1 1-1 1 1zM298 204l-1 1-1-1 1-1 1 1zM303 204l-1 1-1-1 1-1 1 1zM269 204l-1 1-1-1 1-1 1 1zM290 204l-1 1-1-1 1-1 1 1zM273 204l-1 1-1-1 1-1 1 1zM277 204l-1 1-1-1 1-1 1 1zM286 204l-1 1-1-1 1-1 1 1zM307 204l-1 1-1-1 1-1 1 1zM282 204l-1 1-1-1 1-1 1 1zM294 204l-1 1-1-1 1-1 1 1z"/><g><path class="st1" d="M305 209l1-1 1 1-1 1-1-1zM300 209l1-1 1 1-1 1-1-1zM296 209l1-1 1 1-1 1-1-1zM291 209l1-1 1 1-1 1-1-1zM257 209l1-1 1 1-1 1-1-1zM253 209l1-1 1 1-1 1-1-1zM287 209l1-1 1 1-1 1-1-1zM265 209l1-1 1 1-1 1-1-1zM282 209l1-1 1 1-1 1-1-1zM278 209l1-1 1 1-1 1-1-1zM269 209l1-1 1 1-1 1-1-1zM249 209l1-1 1 1-1 1-1-1zM274 209l1-1 1 1-1 1-1-1zM261 209l1-1 1 1-1 1-1-1z"/></g><g><path class="st1" d="M251 213l-1 1-1-1 1-1 1 1zM255 213l-1 1-1-1 1-1 1 1zM260 213l-1 1-1-1 1-1 1 1zM264 213l-1 1-1-1 1-1 1 1zM298 213l-1 1-1-1 1-1 1 1zM303 213l-1 1-1-1 1-1 1 1zM269 213l-1 1-1-1 1-1 1 1zM290 213l-1 1-1-1 1-1 1 1zM273 213l-1 1-1-1 1-1 1 1zM277 213l-1 1-1-1 1-1 1 1zM286 213l-1 1-1-1 1-1 1 1zM307 213l-1 1-1-1 1-1 1 1zM282 213l-1 1-1-1 1-1 1 1zM294 213l-1 1-1-1 1-1 1 1z"/></g><g><path class="st1" d="M227 203h17v2h-17z"/></g><g><path class="st1" d="M227 207h17v3h-17z"/></g><g><path class="st1" d="M227 212h17v3h-17z"/></g><g><path class="st1" d="M325 220h-14v-22h14z"/></g></g></g><g><path class="st1" d="M628 209h71v102h-71z"/><path class="st0" d="M625 209h70v102h-70z"/><path class="st2" d="M634 220h52v80h-52z"/><path class="st1" d="M687 300v-1-5-16l-1-58h1-53v80h52-53v-80h54v80z"/><path class="st1" d="M695 209l-1 2-3 4-4 4-1 2 1-2 4-4 3-4 1-2z"/><path class="st2" d="M687 300c2 4 5 8 9 11"/><path class="st1" d="M696 311l-2-1-3-4-3-4-1-2 1 1a362 362 0 008 10z"/><path class="st2" d="M625 311l9-12"/><path class="st1" d="M634 300l-4 5a78 78 0 014-5z"/><g><path class="st1" d="M625 209l4 5 5 6-5-5-4-6z"/></g><g><path class="st1" d="M652 236h18v51h-18z"/></g></g><g><path class="st1" d="M730 96v59h-85l-3-58z"/><path transform="rotate(-90 685 126)" class="st2" d="M655 83h59v85h-59z"/><path class="st1" d="M727 155h-85V96h85v59zm-84-1h83V97h-83v57z"/><path class="st2" d="M651 104h67v44h-67z"/><path class="st1" d="M718 104h-1-1-64v44-1h66v-31-9-2-1 44h-67v-44h67zM642 96l2 1 3 3 3 3 1 1-4-4-5-4zM727 97l-5 3-4 4 4-4 5-3z"/><path class="st2" d="M727 155l-10-8"/><path class="st1" d="M717 147l5 4 5 4-5-4-5-4z"/><g><path class="st1" d="M642 155l5-4 4-3-4 3-5 4z"/></g><g><path transform="rotate(-90 686 125)" class="st1" d="M678 104h15v42h-15z"/></g></g><g><path class="st1" d="M90 154h76v125H90z"/><path class="st4" d="M88 154h76v125H88z"/><path class="st5" d="M91 156h70v121H91z"/><path class="st4" d="M104 172h43v89h-43z"/><path class="st1" d="M104 230c0-9 8-17 16-18l12-1c6-3 8-12 15-14v64h-43v-31z"/></g></g><path class="st8" d="M732 446z" id="Floor"/><g id="Character_3"><path class="st9" d="M585 392l4 12c1 5 5 9 10 9l26 5h7l-7-9-19-6c-2 0-4-2-4-4l-8-16-10 6 1 3z"/><path class="st8" d="M566 313c4-3 10-2 13 0 4 2 6 5 6 9l1 6 1 4 4 2-1 3-2 1-1 3h-3c-4-1-6-4-6-8M572 446c-18-6-6-29-6-29l77 7c6 0 11 5 11 11s-5 11-11 11h-71"/><path class="st8" d="M554 446c-17-6-6-29-6-29l75 7c8 0 11 3 11 11 0 6-2 11-11 11h-69"/><path class="st10" d="M571 421h12l29 2h9l3 1h4l3 2 2 3 1 4v3l-1 5-2 3-2 1c-1 1-1 1 0 0l2-1 2-3 1-5v-3l-1-3a8 8 0 00-5-5l-4-1h-12a3907 3907 0 00-38-3h-2-1zM554 428h1l2 1 5-2c2-2 2-4 2-6v-2 2c0 1 0 4-2 5-2 2-4 3-5 2h-3z"/><path class="st11" d="M577 354c9 1 11 7 15 14l7 12-12 7v18l5 16-44-2 5-19-6-20c-1-3 0-9 1-12 3-12 11-13 18-15h9"/><path d="M553 394l3 11 4 7 8 5 11 1-17-10-5-16-4 2z"/><path class="st8" d="M587 405v-2-3-12l-1-12v-3-1 1l1 3v29zM548 380v1l1 3 3 10 20-7-5-13c-1-4-3-7-6-10l-3-2-3-1h-1-2 2l1-1 3 1 4 3 6 10 4 13-20 7-3-10a71 71 0 01-1-4z"/><g><path class="st9" d="M555 393l4 13c2 6 6 9 11 10l25 5h7l-2-6-24-9-4-4-3-14-14 5z"/></g><g><path class="st10" d="M578 421v-1l19-1 10-24 37 2-13 27z"/><path class="st2" d="M622 410c-1 1-2 2-3 1l-1-3h3l1 2z"/></g><g><path class="st8" d="M573 314c-12-6-18 2-20 7l-1 4-2 2h-2l-3 3 1 4 1 2v1c-1 2 0 3 1 4h5l2 3 3-1 3 1 2-2"/><path class="st9" d="M563 320l-2 2 1 35c0 4 6 6 11 6 4 0 4-2 4-6v-9s6-1 7-8v-15c0-4-3-9-7-9l-14 4z"/><path class="st8" d="M582 330l-1 1v-1-1l1 1zM583 328h-4 1l1-1 2 1zM573 330l-1 1-1-1 1-1 1 1zM573 329l-2-1-2 1 1-1h3v1zM577 336h2v-1l-1-2-2-5a32 32 0 013 7v1h-2z"/><path class="st14" d="M577 348s-5 0-9-3c0 0 2 5 9 5v-2z"/><g><path class="st11" d="M576 339l-1-1h-1l-1 2h2l1-1"/></g><g><path class="st8" d="M574 337l1 2h2l-1 1-2-1v-2z"/></g><g><path class="st8" d="M574 327h-5l2-1h2l1 1z"/></g><g><path class="st8" d="M583 326h-2l-2-1 2-1 1 1 1 1z"/></g><g><path class="st9" d="M562 331h-2c-2 1-2 3-2 4 1 2 2 3 4 3"/></g><g><path class="st8" d="M573 314l7 2c2 1 4 3 5 6v1l-2 1-2-2c0 2-1 3-3 3l-3-3c0 2-1 3-3 3l-3-3-1 4c-1 1-2 2-3 1v3l-3 2-1-3-1-6c0-2 0-4 2-6l5-3h7"/></g><g><path class="st14" d="M561 335l-1-1 1-1h-1l-1 1 1 2 1-1z"/></g></g><g><path class="st11" d="M582 315l-5-2a14 14 0 00-10 2 14 14 0 00-6 10v0l1-5 4-5a15 15 0 0112-2l3 1 1 1z"/></g><g><path class="st5" d="M571 382l-3 1a157 157 0 00-15 4l7-2a141 141 0 0111-3z"/></g><g><path class="st5" d="M569 377z"/></g><g><path class="st5" d="M592 369z"/></g><g><path class="st5" d="M586 377l-7 3-8 2 8-3 7-2z"/></g><g><path class="st5" d="M595 373l-4 2-4 2 4-2 4-2z"/></g></g><g id="Character_2"><path class="st10" d="M460 422l-50-3v-1h-19c1 0 0 0 0 0l-45 1c-9 0-19 6-19 13s3 14 11 14l63-1h62c8 1 10-4 10-10 1-11-6-13-13-13z"/><path class="st8" d="M344 446h59v-5l-1-8-38-4-12-2h-3-1 4l12 1 38 5a1906 1906 0 011 13h-58-1z"/><path class="st8" d="M357 428l-2-1-5-2-4-1h-3 3a16 16 0 019 3l1 1h1zM456 425zM448 424l-4 2-3 3 1-1 2-2 3-2h1z"/><g><path class="st15" d="M402 434l10 1v11l-9-1z"/><path class="st11" d="M412 435h4l2 1 2 1 4 2 8 3c3 2 2 4 0 4h-20v-11z"/><path class="st8" d="M419 445l-1-3v-3l1 3v3zM421 445l-1-3 1-2v5zM423 445v-2-3 5zM417 442h-1l-2-2h-1v-1-1h1l3 3-2 4-1 1h-1v-1-1h1l2-2h0l-2 2h-1v1h2c1-1 2-2 1-4l-2-3h-1v1l1 1 3 2z"/><g><path class="st8" d="M433 446v-2l-3-2-4-2a29 29 0 01-9-4v-1 1l2 1 7 3 4 1 3 2v3z"/></g></g><g><path class="st8" d="M392 312c-3 1-6 5-7 8l1 9c0 2 0 5-2 8l-4 3c-2 1-3 4-3 6l2 7c-2 0-3 3-3 5s1 4 3 5c1 2 4 2 6 3l7-1c2 0 4-3 6-4l7-7 3-12c0-8-1-16-3-23"/></g><g><path class="st15" d="M429 367l16 27c2 4 2 8 1 12-2 4-7 6-11 6l-25-1v-8l21-5-14-25 12-6zM370 414l23 6v-7l-21-11 15-29-12-6-16 28c-4 7 0 16 7 18l4 1z"/><path class="st11" d="M422 385l16-8-7-11c-5-7-12-11-20-13h-18l-6 2v-1c-10 3-20 23-20 23l14 8v2c0 3 2 6 4 8l-4 26 45 1-6-19 2-18z"/><path class="st8" d="M385 395l-1-1-1-1c-1-2-3-5-2-8l1-4a37 37 0 012-6v1l-1 2-1 3-1 4v4l2 3 2 3z"/><path class="st5" d="M386 372l-2-3-2-3 2 2 2 4zM394 359l-3 2-3 1 3-2 3-1zM376 377v-3-3 6zM392 383l-2 1-3 1 2-1 3-1zM398 370l-2 3-2 2 1-3 3-2zM408 374l-2-2-1-3 2 3 1 2zM403 385l-1-3v-4 4l1 3zM398 395l-1-2-2-3 2 2 1 3zM412 390l-1 2-3 3 2-3 2-2zM418 384l-3-2-2-3 2 3 3 2zM428 376h-7 7z"/><path d="M431 363v9c-1 2-3 4-6 5-3 0-6-1-8-3l-2-1h-2l-5-4c-1-3-1-5 1-7l22 1z"/></g><g><path class="st8" d="M378 428l-2-30h55l-4 30z"/><path class="st5" d="M407 414c0 2-2 3-4 3s-3-1-3-3 1-4 3-4 4 2 4 4z"/></g><g><path class="st15" d="M404 363c5 0 9-4 9-8v-34c0-2-1-3-3-3l-14-4c-5 0-8 5-8 10v15c1 8 7 9 7 9v7c0 5 4 8 9 8z"/><path class="st8" d="M391 329l1 1 1-1-1-1-1 1zM389 327h4l-2-1-1 1h-1zM401 329l1 1 1-1-1-1-1 1zM400 327h3l-1-1-2 1zM396 335h-2v-1l1-2 1-6-2 6v2l-1 1h3z"/><path class="st16" d="M395 348s6 0 11-3c0 0-3 5-11 5v-2z"/><g><path class="st16" d="M397 338l1-1 1 1v1l-1 1-1-1-1-1h1"/></g><g><path class="st8" d="M399 336l-1 2-2 1h1l2-1v-1-1z"/></g><g><path class="st8" d="M399 326h5v-1h-4l-1 1z"/></g><g><path class="st8" d="M390 325h3v-1h-2l-1 1z"/></g><g><path class="st8" d="M432 360c-2-3-5-4-5-7l1-5c1-4-4-5-5-9v-9c-1-4-4-5-7-8l-3-4c-2-3-6-6-9-6-4-2-9-1-11-1l-5 3c-1 2-2 4-1 6 1 1 2 3 4 3 2-1 3-2 5-1l3 2 4-1 3 2 1 2c1 5 3 8 1 11l-2 5c0 4 5 8 5 12l-2 5c-1 3 0 8 3 10 2 1 4 2 6 1l4 2c3 0 6-2 8-4 3-3 3-6 2-9z"/></g><g><path class="st10" d="M418 371l3-1 3-2 2-4-1-5c-1-2-3-4-5-4l-3-2-1-4 2-3 1-4v-3l-2-3-2-3-2-3-2-6-1-5-4-6-3-1h1l2 1 2 2 2 4 2 5 1 6 2 3 2 3 3 3v4l-3 6 1 3 2 2 3 2 2 2 1 6-2 4-3 2-2 1h-1z"/></g></g></g><g id="Character_1"><path class="st11" d="M130 437l2-2 12 8-3 5-1-1-20-11c-2-3 10 1 10 1z"/><g class="st17"><path class="st2" d="M136 445l4-2 3 1-2 4-5-3z"/></g><g class="st17"><path class="st2" d="M124 435h-4l21 13v-1l-17-9v-3z"/></g><path class="st8" d="M141 448v-1h-1l-2-1a708 708 0 01-15-9l-3-1v-1 1l3 1 7 4 8 5 2 1h1v1zM124 438v-2-1 3zM129 438v-1 1zM130 438v-1 1zM132 437h-2 2zM132 437l-1-1 1 1zM129 437l-1-1h-1v-1-1l2 2v0l-1-1h-1l1 1 1 1zM129 437v-1h1s0-1 0 0h1-1l-1 1h1v-1s1 0 0 0h-1v1z"/><path class="st8" d="M143 444l-1-1h-2l-3 1-1 1h1v-1l2-1h3l1 1zM136 443l-2-1-2-1a41 41 0 004 2z"/><path class="st8" d="M138 444l-1 1v-1h1zM140 444h-1 1zM141 444v-1 1z"/><g><path class="st8" d="M142 444z"/></g><g><path class="st8" d="M234 428l-49-47c-3-4-8-5-12-5-6 0-11 3-14 8l-30 50 18 11 27-39 25 22h35z"/><path class="st8" d="M249 430c0 1 2 17-20 17h-57c-8 0-14-6-14-13h1c0-8 5-14 13-14h53l6 2 18 8z"/><path class="st10" d="M167 420zM175 395v6l-1 5 1-6v-5zM173 395v5l1 6-1-6v-5z"/></g><g><path class="st8" d="M218 324v2h2l1-4-1-4 1-2c1-1 2-3 1-5-1-1-2-3-4-3h-5l-2-3h-5l-6 1-4-1c-4-1-7 1-9 3-2 3-2 7 0 10 1 1 3 4 6 3"/><path class="st9" d="M216 311v2l7 38c1 4-2 8-7 9-4 1-9-2-10-6l-2-10s-6 1-9-7l-3-15c-1-5 3-9 7-9l17-2z"/><path class="st8" d="M195 327l1 1 1-1-1-1-1 1zM194 325l2-1h1l-1-1-2 1v1zM206 325l1 1v-1l-1-1v1zM205 323l1-1h2l-2-1-1 1v1zM202 332h-2v-1-2l1-6a44 44 0 00-1 8v1h2z"/><g><path class="st14" d="M204 344s6 0 10-5c0 1-1 6-9 7l-1-2z"/></g><g><path class="st8" d="M206 332l-1 2-2 1h1l1-1 1-1v-1z"/></g><g><path class="st8" d="M204 319h2l3-1h-1l-2-1-2 1v1z"/></g><g><path class="st8" d="M194 322l2-1h2l-1-1h-1l-2 1v1z"/></g><g><path class="st8" d="M191 319s4 1 9-3l8-3c1 1 2 4 6 5 0 0 0 6 3 6 3-1 0-14 0-14l-8 1h-7l-7 2-5 2 1 4z"/></g><g><path class="st8" d="M217 308h-2l-1 1 1-1h2z"/></g><g><path class="st8" d="M214 306v0z"/></g><g><path class="st9" d="M217 321s4-3 5 2c1 4-4 4-4 4l-1-6z"/><path class="st14" d="M219 325h1v-2-1h-1-1 2v4h-1v-1z"/></g></g><g><path class="st1" d="M210 420v-3l-42 1-24-39-2 2 25 39z"/></g><g><path class="st9" d="M181 407l-2 3v7l2-1 1-4 1 3c0 1 1 2 2 1l8-2-3-9-9 2z"/></g><g><path class="st11" d="M219 346c3-1 6-1 8 1 4 2 8 6 10 12s8 16 12 33c4 14 9 30 5 35v1c-2 3-6 4-10 2l-4-1c-8-3-16-8-23-14l-14-13 6-4s-5-27-3-38c2-9 8-12 13-14z"/><path class="st11" d="M228 359l8 36c1 6-3 13-9 15l-33 6-4-12 27-9-8-34 19-2z"/><path class="st8" d="M236 402v1l-1 1v1l-3 3-5 2-33 6-4-12 27-8v-1a478 478 0 01-6-24l-1-9-1-2 1-2 1-4c2-2 5-3 8-3l6 3 4 7 1 6 4 20 1 5v0l-1-5-4-20-1-6-4-7c-1-2-4-3-6-3a9 9 0 00-10 7v4l2 9 4 19 1 6 1-1-28 9 5 13 33-6 5-3 3-3v-1h1v-1-1z"/><path class="st8" d="M222 400l-1-1-1-2-2-1h-1 1l2 1 1 2 1 1z"/><path d="M229 359a210 210 0 018 47c-1 3-2 6-5 8l-8 1-10-2 15-4s10 0 6-19l-6-31z"/></g><g><path class="st11" d="M207 359l-3-8 18-12 2 8s-9 1-11 4c-3 2-6 8-6 8z"/></g><g><path class="st8" d="M208 354l-1-2-1-3 1 3 1 2z"/></g><g><path class="st8" d="M211 352l-1-2v-3l1 2v3z"/></g><g><path class="st8" d="M215 350l-1-3-1-2 1 2 1 3z"/></g><g><path class="st8" d="M218 348l-1-2-1-3 1 2 1 3z"/></g><g><path class="st8" d="M221 346l-1-3-1-2 1 2 1 3z"/></g><g><path class="st1" d="M192 411h1l3-1 9-2 13-4 4-1h2l1-2 2-3-1-2v-3l-8-29-2-9a21 21 0 00-1-3h1v3l3 9a3320 3320 0 008 33l-1 4-2 2h-2l-4 1-13 4-9 2h-3l-1 1z"/></g><g><path class="st1" d="M193 413h1l2-1 10-3 14-3 4-1 2-1 1-1 2-4v-2l-1-2-8-31-2-9-1-3v-1 1l1 3 2 9 9 31a66 66 0 001 4l-2 4-2 1-2 1-4 1-14 4-9 2-3 1h-1z"/></g></g><g id="Plants"><path class="st11" d="M294 418h-5l-3-5c-1-3-2-7-1-11l1-3 4-1 2 3c2 3 3 7 3 11l-1 6"/><path d="M294 418h-5l-3-5c-1-3-2-7-1-11l1-3 4-1 2 3c2 3 3 7 3 11l-1 6"/><path class="st11" d="M289 427l-7-1-4 2v3l2 1 6 1 2 2 3-1v-4s0-2-2-3zM297 420l-1-6 4-6c2-1 4-3 7-3l3-1 2 2c1 1 0 3-1 4l-4 7-5 4-5-1"/><path class="st8" d="M294 446v-1l-1-2v-4l-1-4-2-3-3-3h-3 3l3 2 2 4 1 4 1 4v3z"/><path class="st8" d="M294 444v-1-5a175 175 0 00-4-27v-2l-1-2v-1-1 2l1 2a75 75 0 013 16l1 13v5l-1 1h1zM294 435v-1-4l1-4a38 38 0 018-15l1-1 1-1 1-1-3 3-6 9a53 53 0 00-3 10v5z"/><g><path class="st11" d="M689 431c-1-2 1-4 2-6l5-5c1-3-1-8 1-11l5-4 2-3c1-6 4-11 8-15l-3 15c-1 1-3 3-3 5l1 10c-1 4-5 6-6 10l3 9-2 4c-2 4-6 7-11 7h-7l5-16z"/><path d="M689 431c-1-2 1-4 2-6l5-5c1-3-1-8 1-11l5-4 2-3c1-6 4-11 8-15l-3 15c-1 1-3 3-3 5l1 10c-1 4-5 6-6 10l3 9-2 4c-2 4-6 7-11 7h-7l5-16z"/><path class="st8" d="M683 447h-2l-2-1-3-1-1-2-1-2v-2l-1-2-2-5v-6-6l-3-7v-7l-1-4-2-3-2-9v-4l-1-4-2-4v-3l-1-2 1-5v-5h1l3 3 2 5c2 3 2 6 2 8l3 9 3 3 1 4c1 3-1 5-1 8l1 3 2 3 2 3 1 4v6l2 6 2 4 1 2 1 3a12 12 0 01-2 8l-1 1v1l1-1 2-5a12 12 0 00-2-8l-2-5-2-6v-6l-1-3-2-3-2-3-1-4 1-8-2-3-2-4c-2-2-2-5-3-8l-2-9-2-4-3-3-1 5a24 24 0 000 7l1 2 1 4 1 4 1 5 1 8 2 3 1 4 1 8 3 6v7l-1 5 3 5 1 2v4l1 2a10 10 0 005 2h2z"/><path class="st8" d="M662 368l1 3 1 3 1 5 2 6 2 6 2 4 1 4 1 8 4 15 3 13 2 9v0l-3-9-3-13-4-15-1-8-1-4-2-4-2-6a74 74 0 00-3-11l-1-4v-2-1 1z"/><g><path class="st11" d="M681 447c-4-3-5-11-3-15 2-5 5-10 5-15v-11c2-5 7-9 7-15l-2-8c0-4 3-7 5-10 3-5 3-11 4-16 1-6 3-12 8-14 0 4 2 7 1 14 0 2-3 6-3 11l-1 9-1 9-3 6v12c-1 4-4 7-4 10-1 5 2 10 1 15l-4 7v5c-1 3-6 6-10 6"/><path class="st8" d="M703 347v4l-2 5-1 6-2 7-2 8-2 5-1 4-1 11-4 19-3 16-3 11v3l-1 1v-1h1v-3l2-11 4-16 4-19 1-11 1-4 2-5 2-8 2-7 1-6 2-5v-3-1z"/></g></g></g><g id="Lines"><path class="st8" d="M401 306zM236 303v-2-7h328v0l-162 1-166-1v9zM346 120zM458 120zM564 113v53H236v-35-9-3 47h327v-39-10-3l1-1zM404 204z"/></g><g id="Server"><path class="st8" d="M351 200h102v84H351z"/><path class="st10" d="M336 223h111v27H336z"/><path class="st8" d="M341 228h22v4h-22zM341 234h22v4h-22zM341 240h22v3h-22zM372 230l-2 2-1-2 1-1 2 1zM377 230l-1 2-1-2 1-1 1 1zM383 230l-2 2-1-2 1-1 2 1zM388 230l-1 2-1-2 1-1 1 1zM431 230l-1 2-1-2 1-1 1 1zM437 230l-2 2-1-2 1-1 2 1zM394 230l-2 2-1-2 1-1 2 1zM421 230l-1 2-2-2 2-1 1 1z"/><path class="st0" d="M399 230l-1 2-1-2 1-1 1 1zM405 230l-1 2-2-2 1-1 2 1zM416 230l-1 2-2-2 2-1 1 1zM441 230l-1 2-1-2 1-1 1 1z"/><path class="st11" d="M410 230l-1 2-1-2 1-1 1 1zM426 230l-1 2-1-2 1-1 1 1z"/><g><path class="st8" d="M439 236l1-1 1 1-1 2-1-2z"/><circle class="st8" cx="434.5" cy="236.3" r="1.3"/><path class="st8" d="M428 236l1-1 1 1-1 2-1-2z"/><circle class="st8" cx="423.5" cy="236.3" r="1.3"/><circle class="st8" cx="380.5" cy="236.3" r="1.3"/><path class="st8" d="M374 236l1-1 1 1-1 2-1-2zM417 236l1-1 1 1-1 2-1-2zM390 236l1-1 1 1-1 2-1-2z"/><path class="st0" d="M411 236l1-1 2 1-2 2-1-2zM406 236l1-1 1 1-1 2-1-2zM394 236l2-1 1 1-1 2-2-2z"/><circle class="st0" cx="370.3" cy="236.3" r="1.3"/><path class="st11" d="M400 236l1-1 2 1-2 2-1-2z"/><circle class="st11" cx="385.4" cy="236.3" r="1.3"/></g><g><circle class="st8" cx="370.3" cy="241.7" r="1.3"/><path class="st8" d="M377 242l-1 1-1-1 1-2 1 2z"/><circle class="st8" cx="381.4" cy="241.7" r="1.3"/><path class="st8" d="M388 242l-1 1-1-1 1-2 1 2zM431 242l-1 1-1-1 1-2 1 2z"/><circle class="st8" cx="435.5" cy="241.7" r="1.3"/><circle class="st8" cx="392.5" cy="241.7" r="1.3"/><circle class="st8" cx="419.7" cy="241.7" r="1.3"/><path class="st0" d="M399 242l-1 1-1-1 1-2 1 2zM405 242l-1 1-2-1 1-2 2 2z"/><circle class="st0" cx="414.8" cy="241.7" r="1.3"/><path class="st0" d="M441 242l-1 1-1-1 1-2 1 2z"/><circle class="st11" cx="409.1" cy="241.7" r="1.3"/><path class="st11" d="M426 242l-1 1-1-1 1-2 1 2z"/></g><g><path class="st10" d="M336 257h111v27H336z"/></g><g><circle class="st8" cx="370" cy="264" r="1.3"/><path class="st8" d="M377 264l-1 1-2-1 1-1 2 1z"/><circle class="st8" cx="381.1" cy="264" r="1.3"/><path class="st8" d="M388 264l-1 1-2-1 2-1 1 1zM431 264l-1 1-2-1 1-1 2 1z"/><circle class="st8" cx="435.2" cy="264" r="1.3"/><circle class="st8" cx="392.2" cy="264" r="1.3"/><circle class="st8" cx="419.4" cy="264" r="1.3"/><path class="st0" d="M399 264l-1 1-2-1 2-1 1 1z"/><circle class="st0" cx="403.3" cy="264" r="1.3"/><circle class="st0" cx="414.5" cy="264" r="1.3"/><path class="st0" d="M441 264l-1 1-1-1 1-1 1 1z"/><path class="st11" d="M410 264l-1 1-2-1 2-1 1 1zM426 264l-1 1-2-1 2-1 1 1z"/><g><path class="st8" d="M439 270l1-1 1 1-1 1-1-1zM433 270l1-1 2 1-2 1-1-1zM428 270l1-1 1 1-1 1-1-1zM422 270l1-1 1 1c1 1 0 1-1 1l-1-1zM379 270l1-1 2 1-2 1-1-1zM373 270l2-1 1 1-1 1-2-1zM416 270l2-1 1 1-1 1-2-1zM389 270l1-1 2 1-1 1-2-1z"/><path class="st0" d="M411 270l1-1 1 1c1 1 0 1-1 1l-1-1zM405 270l2-1 1 1-1 1-2-1zM394 270l1-1 2 1-2 1-1-1zM369 270l1-1 1 1-1 1-1-1z"/><path class="st11" d="M400 270l1-1 1 1-1 1-1-1zM384 270l1-1 1 1c1 1 0 1-1 1l-1-1z"/></g><g><path class="st8" d="M371 276l-1 1-1-1 1-2 1 2zM377 276l-1 1-2-1 1-2 2 2zM382 276l-1 1-1-1 1-2 1 2zM388 276l-1 1-2-1 2-2 1 2zM431 276l-1 1-2-1 1-2 2 2zM437 276l-2 1-1-1 1-2 2 2zM393 276l-1 1-1-1 1-2 1 2zM421 276l-2 1-1-1 1-2 2 2z"/><path class="st0" d="M399 276l-1 1-2-1 2-2 1 2zM405 276l-2 1-1-1 1-2 2 2zM416 276l-2 1-1-1 1-2 2 2zM441 276l-1 1-1-1 1-2 1 2z"/><path class="st11" d="M410 276l-1 1-2-1 2-2 1 2zM426 276l-1 1-2-1 2-2 1 2z"/></g></g><g><path class="st8" d="M341 262h22v4h-22z"/></g><g><path class="st8" d="M341 268h22v4h-22z"/></g><g><path class="st8" d="M341 274h22v4h-22z"/></g><g><path class="st8" d="M464 250h-17v-27h17z"/></g><g><path class="st8" d="M464 217h-17v-28h17z"/></g><g><path class="st8" d="M464 284h-17v-28h17z"/></g><g><path class="st10" d="M337 189h111v27H337z"/></g><g><path class="st8" d="M342 195h22v3h-22z"/></g><g><path class="st8" d="M342 200h22v4h-22z"/></g><g><path class="st8" d="M342 206h22v4h-22z"/></g><g><path class="st8" d="M372 197l-1 1-1-1 1-2 1 2z"/><circle class="st8" cx="376.6" cy="196.5" r="1.3"/><path class="st8" d="M383 197l-1 1-1-1 1-2 1 2z"/><circle class="st8" cx="387.7" cy="196.5" r="1.3"/><path class="st8" d="M432 197l-1 1-2-1 2-2 1 2z"/><circle class="st8" cx="436.3" cy="196.5" r="1.3"/><path class="st8" d="M395 197l-2 1-1-1 1-2 2 2z"/><circle class="st8" cx="420.5" cy="196.5" r="1.3"/><path class="st0" d="M400 197l-1 1-1-1 1-2 1 2zM406 197l-2 1-1-1 1-2 2 2zM417 197l-1 1-2-1 1-2 2 2zM442 197l-1 1-1-1 1-2 1 2z"/><path class="st11" d="M411 197l-1 1-1-1 1-2 1 2z"/><circle class="st11" cx="425.7" cy="196.5" r="1.3"/><g><path class="st8" d="M440 203l1-2 1 2-1 1-1-1zM434 203l1-2 2 2-2 1-1-1zM429 203l1-2 1 2-1 1-1-1zM423 203l1-2 2 2-2 1-1-1zM380 203l1-2 2 2-2 1-1-1zM374 203l2-2 1 2-1 1-2-1zM418 203l1-2 1 2-1 1-1-1zM390 203l2-2 1 2-1 1-2-1z"/><path class="st0" d="M412 203l1-2 1 2c1 1 0 1-1 1l-1-1zM406 203l2-2 1 2-1 1-2-1zM395 203l1-2 2 2-1 1-2-1zM370 203l1-2 1 2-1 1-1-1z"/><path class="st11" d="M401 203l1-2 1 2c1 1 0 1-1 1l-1-1zM385 203l1-2 2 2-2 1-1-1z"/></g><g><path class="st8" d="M372 208l-1 1-1-1 1-1 1 1zM378 208l-1 1-2-1 2-1 1 1zM383 208l-1 1-1-1 1-1 1 1zM389 208l-1 1-2-1 2-1 1 1zM432 208l-1 1-2-1 2-1 1 1zM438 208l-2 1-1-1 1-1 2 1zM395 208l-2 1-1-1 1-1 2 1zM422 208l-2 1-1-1 1-1 2 1z"/><path class="st0" d="M400 208l-1 1-1-1 1-1 1 1zM406 208l-2 1-1-1 1-1 2 1zM417 208l-1 1-2-1 1-1 2 1zM442 208l-1 1-1-1 1-1 1 1z"/><path class="st11" d="M411 208l-1 1-1-1 1-1 1 1zM427 208l-1 1-2-1 2-1 1 1z"/></g></g></g><g id="Files"><path class="st11" d="M480 126h-49c-4 0-6-3-6-6V51c0-3 2-6 6-6h31l24 25v50c0 3-2 6-6 6z"/><g class="st18"><path class="st2" d="M462 45v19c0 3 3 6 6 6h18l-24-25z"/></g><path d="M462 66s0 5 5 6h1l18 3v-5h-18s-5 0-6-4z"/><path class="st11" d="M588 126h-49c-4 0-7-3-7-6V51c0-3 3-6 7-6h31l24 25v50c0 3-3 6-6 6z"/><path class="st11" d="M570 45v19c0 3 2 6 5 6h19l-24-25z"/><path d="M570 66s0 5 5 6h1l18 3v-5h-18s-5 0-6-4z"/><path class="st11" d="M371 126h-49c-4 0-7-3-7-6V51c0-3 3-6 7-6h31l24 25v50c0 3-3 6-6 6z"/><path class="st11" d="M353 45v19c0 3 2 6 6 6h18l-24-25z"/><path d="M353 66s0 5 5 6h1l18 3v-5h-18s-5 0-6-4z"/><g><path class="st11" d="M259 126h-49c-4 0-7-3-7-6V51c1-3 3-6 7-6h31l24 25v50c0 3-3 6-6 6z"/><g class="st18"><path class="st2" d="M243 45v19c0 3 2 6 5 6h19l-24-25z"/></g><path d="M243 66s0 5 5 6h1l18 3v-5h-19s-4 0-5-4z"/></g><g class="st18"><path class="st2" d="M353 45v19c0 3 2 6 6 6h18l-24-25z"/></g><g class="st18"><path class="st2" d="M570 45v19c0 3 2 6 5 6h19l-24-25z"/></g><text transform="matrix(1.2 0 0 1 211 100)" class="st2 st19 ">Nginx</text><path class="st5" d="M361 219l-7 3 7 3"/><text transform="matrix(1.2 0 0 1 314 100)" class="st2 st19" font-size="12px">WordPress</text><text transform="translate(435 96)"><tspan x="0" y="0" class="st2 st19">Digital</tspan><tspan x="0" y="14.4" class="st2 st19">Ocean</tspan></text><text transform="translate(542 100)" class="st2 st19">LEMP</text></g></svg>