<svg version="1.1" id="Layer_1" xmlns="http://www.w3.org/2000/svg" x="0" y="0" viewBox="0 0 750 500" xml:space="preserve"><style>.st0{fill:#fff}.st2{fill:#d9dae6}.st3{fill:#b2b0be}.st4{fill:#d8d7df}.st5{fill:#cdccd4}.st7{fill:#9a999f}.st12{fill:#a28fde}.st13{fill:#5e5873}.st14{fill:#6a6482}.st16{fill:#0087fc}.st17{fill:#ff7446}.st19{opacity:.53;fill:#20211f;enable-background:new}.st20{fill:#2c0422}.st24{fill:#0065bd}.st25{fill:#001e6e}.st26{fill:#334b8b}.st27{fill:#6678a8}.st28{opacity:.68;fill:#ff682b;enable-background:new}.st29{fill:#ff916c}.st32{fill:#6f81a6}.st33{fill:#53617d}.st36{fill:#fcb500}.st37{fill:#fcc332}.st38{fill:#fc9700}.st39{fill:#232a55}.st40{fill:#f25c12}.st41{fill:#021f6e}.st42{fill:#99c8f2}.st43{fill:#022687}.st44{fill:#8f4800}.st46{fill:#001653}.st47{fill:#7b5119}.st48{fill:#957447}.st49{fill:#fa8e00}.st50{fill:#021753}.st53{fill:#d2b699}.st56{fill:#011037}.st63{fill:#100062}.st65{fill:#5881a5}</style><path class="st0" d="M289 181h168v120H289V181z"/><linearGradient id="SVGID_1_" gradientUnits="userSpaceOnUse" x1="98" y1="261" x2="672.7" y2="261" gradientTransform="matrix(1 0 0 -1 0 500)"><stop offset="0" stop-color="#9dabe0"/><stop offset="1" stop-color="#f7f8fc"/></linearGradient><path d="M98 427V278s14-97 116-73c0 0 11-72 89-77s103-24 142-59 109-20 117 59c6 62 85 27 103 51 38 51-79 246-79 246l-488 2z" fill="url(#SVGID_1_)"/><path class="st2" d="M586 425s20-34 41-77v-71h-11v-14h-20v14h-10v148z"/><path class="st0" d="M342 190c-2-2-5-3-9-3-3-7-10-12-17-12-5 0-10 1-13 5-4-10-13-16-23-16-7 0-13 2-17 7h-2c-8 0-13 6-13 14v5h94zm318 71l-6-2c-2-5-6-9-12-9-3 0-6 2-8 4-3-7-9-11-16-11-4 0-8 2-12 5h-1c-5 0-9 4-9 9l1 4h63zm-415 2c-2-1-5-3-8-3-3-7-10-12-18-12-5 0-9 2-13 5-4-9-13-16-23-16-6 0-13 3-17 8h-2c-7 0-13 6-13 14l1 5h94v-1zm312-153l-9-2c-3-8-9-13-17-13-4 0-9 2-12 5-4-9-12-15-22-15-6 0-12 2-17 7h-2c-6 0-12 6-12 13l1 5h90z"/><path class="st3" d="M184 296h137v128H184V296zm313-91h1v-1h-12v1l5 7-5 6v1h11v-1l-5-6 5-7zm-10 0h9l-4 6-5-6zm9 13h-8l4-5 4 5z"/><path class="st3" d="M497 219h1v-1h-12v1l5 6-5 6v1h11v-1l-5-6 5-6zm-10 0h9l-4 6-5-6zm9 12h-8l4-5 4 5z"/><path class="st3" d="M497 233h1v-2h-12v2l5 6-5 6v1h11v-1l-5-6 5-6zm-10 0h9l-4 5-5-5zm9 12h-8l4-5 4 5z"/><path class="st3" d="M497 246h1v-1h-12v1l5 7-5 6v1h11v-2l-5-5 5-7zm-10 0h9l-4 6-5-6zm9 13h-8l4-6 4 6z"/><path class="st3" d="M497 260h1v-1h-12v1l5 6-5 6v1h11v-1l-5-6 5-6zm-10 0h9l-4 6-5-6zm9 12h-8l4-5 4 5z"/><path class="st3" d="M497 274h1v-2h-12v2l5 6-5 6v1h11v-1l-5-6 5-6zm-10 0h9l-4 5-5-5zm9 12h-8l4-5 4 5z"/><path class="st3" d="M497 287h1v-1h-12v1l5 7-5 6v1h11v-1l-5-6 5-7zm-10 0h9l-4 6-5-6zm9 13h-8l4-5 4 5z"/><path class="st3" d="M497 301h1v-1h-12v1l5 6-5 6v1h11v-1l-5-6 5-6zm-10 0h9l-4 6-5-6zm9 12h-8l4-5 4 5z"/><path class="st3" d="M497 315h1v-2h-12v2l5 6-5 6v1h11v-1l-5-6 5-6zm-10 0h9l-4 5-5-5zm9 12h-8l4-5 4 5z"/><path class="st3" d="M497 328h1v-1h-12v1l5 7-5 6v1h11v-1l-5-6 5-7zm-10 0h9l-4 6-5-6zm9 13h-8l4-5 4 5z"/><path class="st3" d="M497 342h1v-1h-12v1l5 6-5 6v2h11v-2l-5-6 5-6zm-10 0h9l-4 6-5-6zm9 13h-8l4-6 4 6z"/><path class="st3" d="M497 356h1v-2h-12v2l5 6-5 6v1h11v-1l-5-6 5-6zm-10 0h9l-4 5-5-5zm9 12h-8l4-5 4 5z"/><path class="st3" d="M497 369h1v-1h-12v1l5 7-5 6v1h11v-1l-5-6 5-7zm-10 0h9l-4 6-5-6zm9 13h-8l4-5 4 5z"/><path class="st3" d="M497 383h1v-1h-12v1l5 6-5 6v2h11v-2l-5-6 5-6zm-10 0h9l-4 6-5-6zm9 13h-8l4-6 4 6zm-51-222v-1l2-2c2 0 3 1 3 2v1-1c0-2-1-3-3-3s-2 1-2 3v1zm0-8v-17c0-2 1-3 3-3 1 0 2 1 2 3v17l-2 2c-2 0-3-1-3-2zm1-17v17l2 2 1-2v-17l-1-2-2 2z"/><path class="st3" d="M448 171h-1v-6h1v6zm1-20c2 0 4-2 4-4v-12c0-2-2-4-4-4s-4 2-4 4v12c0 2 2 4 4 4zm37-30h12v286h-12V121zm11 1h-10v284h10V122z"/><path class="st3" d="M491 143l-5 6v2h12v-2h-1l-5-6 5-6h1v-1h-12v1l5 6zm1 0l-5-6h9l-4 6zm0 1l4 5h-8l4-5z"/><path class="st3" d="M491 157l-5 6v1h12v-1h-1l-5-6 5-6h1v-2h-12v2l5 6zm1-1l-5-6h9l-4 6zm0 2l4 5h-8l4-5z"/><path class="st3" d="M491 171l-5 6v1h12v-1h-1l-5-6 5-7h1v-1h-12v1l5 7zm1-1l-5-6h9l-4 6zm0 1l4 6h-8l4-6z"/><path class="st3" d="M491 184l-5 6v2h12v-2h-1l-5-6 5-6h1v-1h-12v1l5 6zm1 0l-5-6h9l-4 6zm0 1l4 5h-8l4-5z"/><path class="st3" d="M491 198l-5 6v1h12v-1h-1l-5-6 5-6h1v-2h-12v2l5 6zm1-1l-5-5h9l-4 5zm0 2l4 5h-8l4-5zm4-110h-3a1 1 0 00-1 1v31l1 1h3l1-1V90l-1-1zm-2 1h1l1 1v9l-1 1h-1a1 1 0 01-1-1v-9l1-1zm0 12h1l1 1v5l-1 1h-1a1 1 0 01-1-1v-5l1-1zm1 19h-1a1 1 0 01-1-1v-9l1-1h1l1 1v9l-1 1z"/><path class="st3" d="M418 133v-10l2-2h82l36 8c2 1 2 2 2 3v1l-2 3H420l-2-3zm2-11a1 1 0 00-1 1v10l1 1h118l1-1v-1l-1-1-37-9h-81z"/><path class="st3" d="M418 123v10l2 2h118l2-2v-1a20920 20920 0 01-39-11l-81-1-2 3zm1 9v-9l3 4-3 5zm84-9l3 4-4 6-2-5v-1l3-4zm-2 11h-6l3-4 1 1 2 3zm-68-6l3-5 3 4v1l-3 5-3-5zm-1-3h-1l-2-3h5l-2 3zm6-3h5l-2 3h-2l-1-3zm3 6v-1l3-4 3 4v1l-3 5-3-5zm5-6h5l-2 3h-1l-2-3zm3 6l4-5 2 4c1 1 0 2-3 6l-3-5zm5-6h5l-2 3h-1l-2-3zm4 6l3-5 3 4v1l-3 5-3-5zm5-6h5l-2 3h-2l-1-3zm3 6v-1l3-4 3 4v1l-3 5-3-5zm5-6h5l-2 3h-1l-2-3zm4 6v-1l3-4 2 4v1l-3 5-2-5zm4-6h5l-2 3h-1l-2-3zm4 6v-1l3-4 3 4-3 6-3-5zm5-6h5l-2 3h-2l-1-3zm9 5v1l-3 5-3-5v-1l3-4 3 4zm-4 7h-6l2-4 2 1 2 3zm-9 0h-5l2-4 1 1 2 3zm-8 0h-6l3-4 1 1 2 3zm-8 0h-6l2-4 2 1 2 3zm-9 0h-5l2-4 1 1 2 3zm-8 0h-6l2-4 2 1 2 3zm-9 0h-5l2-4 1 1 2 3zm-8 0h-6l3-4 1 1 2 3zm-10-7l3-4c3 4 4 4 3 5l-3 5-3-6zm0-2h-2l-1-3h5l-2 3zm77-3l-2 3h-1l-2-3h5zm7 2l-1 1h-1l-1-2 3 1zm4 1l2 2-3 6-3-5v-1l2-3 2 1zm3 1v-1 1zm7 1v1l-3 5-2-5v-2l5 1zm8 2l-2 4-3-5 5 1zm8 5h-2l-2-4 4 1 1 2-1 1zm-9 0l2-4 1 1 2 3h-5zm-8 0l2-4 1 1 2 3h-5zm-9 0l2-4 2 1 2 3h-6zm-8 0l2-4 1 1 2 3h-5zm-84 0l2-4 2 1 2 3h-6zM530 167l2-2v-28l-2-2-2 2v28l2 1z"/><path class="st3" d="M516 145h17c2 0 4-1 4-3s-2-4-4-4h-17c-2 0-4 2-4 4s2 3 4 3zm0 8h17c2 0 4-2 4-4s-2-3-4-3h-17c-2 0-4 1-4 3s2 4 4 4zm0 7h17c2 0 4-1 4-3s-2-4-4-4h-17c-2 0-4 2-4 4s2 3 4 3zm0 8h17c2 0 4-1 4-3s-2-4-4-4h-17c-2 0-4 2-4 4s2 3 4 3zm21-37l1-1v-1l-43-41-67 33-1 1h1l66-32 43 40v1z"/><path class="st3" d="M494 90h1v-4l-1-1v5zm-84 44h9v-8h-9c-2 0-3 2-3 4s1 4 3 4z"/><path class="st3" d="M413 140l2-2v-6h-4v6l2 2z"/><path class="st3" d="M447 149v-1l-34-13v1l34 13zm7 29h-13v-4h13v4zm-13 0h12c3 0 5 2 5 5h-22c0-3 2-5 5-5zM436 183v12h22v-12h-22zm3 2l1-1h14l1 1v1l-1 1h-14l-1-1v-1z"/><path class="st4" d="M246 427h-24l-1-2V221l1-1 25 14 1 1v190l-2 1zm41 0h-27a4 4 0 01-3-4V260c0-2 1-4 3-4h27c2 0 4 2 4 4v163c0 2-2 3-4 3zm-13-171h-10a4 4 0 01-3-4v-12c0-2 1-3 3-3h10c2 0 3 1 3 3v12c0 3-1 4-3 4zm38 0h-18a4 4 0 01-3-3v-48c0-2 1-4 3-4h18l4 4v47c0 3-2 4-4 4zm78-101h-27l-1 1v55l-1 1h-8l-1-1v-46l-1-1h-18l-1 1v260l1 1h61l1-1V160v-1l-4-4h-1zm82 133v9l-1 1h-10l-1 1v126l1 2h47l1-2V288l-1-1h-35l-1 1z"/><path class="st0" d="M362 167h33v6h-33v-6zm0 12h33v6h-33v-6zm0 11h33v6h-33v-6zm0 12h33v6h-33v-6zm0 12h33v6h-33v-6zm0 12h33v5h-33v-5zm0 11h33v6h-33v-6zm0 12h33v6h-33v-6zm0 12h33v5h-33v-5zm0 11h33v6h-33v-6zm0 12h33v6h-33v-6zm0 12h33v6h-33v-6zm0 11h33v6h-33v-6zm0 12h33v6h-33v-6zm0 12h33v6h-33v-6zm0 12h33v5h-33v-5zm0 11h33v6h-33v-6zm0 12h33v6h-33v-6zm0 12h33v5h-33v-5zm0 11h33v6h-33v-6zm0 12h33v6h-33v-6z"/><path class="st4" d="M229 228c-2 0-3-2-3-4v-8c0-2 1-4 3-4s4 2 4 4v8c0 2-2 4-4 4z"/><path class="st2" d="M128 278v-13h-20v13H98v149h42V278h-12z"/><path class="st5" d="M347 283v-23h-19v30h-9v-36h-31l-7 6v167h70V289l-4-6z"/><path d="M388 289h47v137h-47V290zm14-12h24v12h-24v-12zm18 0h-13v-11h9l4 5v6zm40-3v-5h-7v-24l-1 24h-7v5c-1 0-3 2-3 4v148h21V278c0-2-1-4-3-4z" fill="#e7e8ec"/><path class="st5" d="M384 427h-27V251l7-6h14l6 6v176z"/><path class="st7" d="M281 264h37v6h-37v-6zm0 10h37v7h-37v-7zm0 10h37v7h-37v-7zm0 10h37v7h-37v-7zm0 10h37v7h-37v-7zm0 10h37v7h-37v-7zm0 10h37v7h-37v-7zm0 10h37v7h-37v-7zm0 10h37v7h-37v-7zm0 10h37v7h-37v-7zm0 10h37v7h-37v-7zm0 10h37v7h-37v-7zm0 10h37v7h-37v-7zm0 10h37v7h-37v-7zm0 10h37v7h-37v-7zm0 10h37v7h-37v-7z"/><path class="st3" d="M436 427h41c2 0 4-2 4-4V278c0-3-2-5-4-5h-41c-3 0-5 2-5 5v145c0 2 2 4 5 4z"/><path class="st3" d="M435 427h29c2 0 4-2 4-4V277c0-2-2-4-4-4h-29c-2 0-4 2-4 4v146c0 2 2 4 4 4z"/><path class="st0" d="M470 287h-34c-2 0-3-2-3-4 0-1 1-3 3-3h34c2 0 4 1 4 3s-2 4-4 4zm0 10h-34c-2 0-3-2-3-4s1-3 3-3h34c2 0 4 1 4 3s-2 3-4 3zm0 9h-34c-2 0-3-1-3-3s1-3 3-3h34c2 0 4 1 4 3a3 3 0 01-4 3zm0 10h-34c-2 0-3-1-3-3s1-3 3-3h34c2 0 4 1 4 3a3 3 0 01-4 3zm0 10h-34c-2 0-3-1-3-3s1-3 3-3h34c2 0 4 1 4 3s-2 3-4 3zm0 10h-34c-2 0-3-1-3-3s1-4 3-4h34c2 0 4 2 4 4s-2 3-4 3zm0 10h-34c-2 0-3-2-3-3 0-2 1-4 3-4h34c2 0 4 2 4 4a3 3 0 01-4 3zm0 10h-34c-2 0-3-2-3-4 0-1 1-3 3-3h34c2 0 4 2 4 3a3 3 0 01-4 4zm0 10h-34c-2 0-3-2-3-4 0-1 1-3 3-3h34c2 0 4 2 4 3 0 2-2 4-4 4zm0 10h-34c-2 0-3-2-3-4s1-3 3-3h34c2 0 4 1 4 3a3 3 0 01-4 4zm0 9h-34c-2 0-3-1-3-3s1-3 3-3h34c2 0 4 1 4 3a3 3 0 01-4 3zm0 10h-34c-2 0-3-1-3-3s1-3 3-3h34c2 0 4 1 4 3s-2 3-4 3zm0 10h-34c-2 0-3-1-3-3s1-3 3-3h34c2 0 4 1 4 3a3 3 0 01-4 3zm0 10h-34c-2 0-3-1-3-3s1-3 3-3h34c2 0 4 1 4 3a3 3 0 01-4 3zm0 10h-34c-2 0-3-1-3-3s1-4 3-4h34c2 0 4 2 4 4s-2 3-4 3z"/><path d="M207 427h-66c-3 0-5-3-5-6V262c0-3 2-5 5-5h66c3 0 5 2 5 5v159c0 3-2 6-5 6z" fill="#c8c6d3"/><path class="st0" d="M143 280c-2 0-3-2-3-4v-8c0-2 1-3 3-3s3 1 3 3v9c0 1-1 3-3 3zm13 0l-2-2v-11l2-2 2 2v11l-2 2zm16 0c-2 0-3-2-3-4v-8c0-2 1-3 3-3s4 1 4 3v9c0 1-2 3-4 3zm30 0c-2 0-4-2-4-4v-8c0-2 2-3 4-3s3 1 3 3v9c0 1-1 3-3 3zm0 17c-2 0-4-1-4-3v-8c0-2 2-4 4-4s3 2 3 4v8c0 2-1 3-3 3zm0 18c-2 0-4-2-4-4v-8c0-2 2-3 4-3s3 1 3 3v8c0 2-1 4-3 4zm0 17c-2 0-4-1-4-3v-8c0-2 2-4 4-4s3 2 3 4v8c0 2-1 3-3 3zm0 18c-2 0-4-2-4-4v-8c0-2 2-3 4-3s3 1 3 3v8c0 2-1 4-3 4zm0 17c-2 0-4-1-4-3v-9c0-1 2-3 4-3s3 2 3 3v9c0 2-1 3-3 3zm0 18c-2 0-4-2-4-4v-8c0-2 2-3 4-3s3 1 3 3v8c0 2-1 4-3 4zm0 17c-2 0-4-1-4-3v-9c0-1 2-3 4-3s3 2 3 3v9c0 1-1 3-3 3zm0 17c-2 0-4-1-4-3v-8c0-2 2-4 4-4s3 2 3 4v8c0 2-1 3-3 3zm-16-139l-2-2v-11l2-2 1 2v11l-1 2zm-14 17c-2 0-3-1-3-3v-8c0-2 1-4 3-4s4 2 4 4v8c0 2-2 3-4 3zm14 0l-2-2v-11l2-2 1 2v11l-1 2zm-14 18c-2 0-3-2-3-4v-8c0-2 1-3 3-3s4 1 4 3v8c0 2-2 4-4 4zm14 0l-2-2v-11l2-2 1 2v11l-1 2zm-14 17c-2 0-3-1-3-3v-8c0-2 1-4 3-4s4 2 4 4v8c0 2-2 3-4 3zm14 0l-2-2v-11l2-2 1 2v11l-1 2zm-14 18c-2 0-3-2-3-4v-8c0-2 1-3 3-3s4 1 4 3v8c0 2-2 4-4 4zm14 0l-2-2v-12l2-1 1 1v12l-1 2zm-14 17c-2 0-3-1-3-3v-9c0-1 1-3 3-3s4 2 4 3v9c0 2-2 3-4 3zm14 0l-2-2v-11l2-2 1 2v11l-1 2zm-14 18c-2 0-3-2-3-4v-8c0-2 1-3 3-3s4 1 4 3v8c0 2-2 4-4 4zm14 0l-2-2v-12l2-2 1 2v12l-1 2zm-14 17c-2 0-3-1-3-3v-9c0-1 1-3 3-3s4 2 4 3v9c0 1-2 3-4 3zm14 0l-2-2v-11l2-2 1 2v11l-1 2zm-14 17c-2 0-3-1-3-3v-8c0-2 1-4 3-4s4 2 4 4v8c0 2-2 3-4 3zm14 0l-2-1v-12l2-2 1 2v12l-1 1zm-43-122c-2 0-3-1-3-3v-8c0-2 1-4 3-4s3 2 3 4v8c0 2-1 3-3 3zm13 0l-2-2v-11l2-2 2 2v11c0 2-1 2-2 2zm-13 18c-2 0-3-2-3-4v-8c0-2 1-3 3-3s3 1 3 3v8c0 2-1 4-3 4zm13 0l-2-2v-11l2-2 2 2v11l-2 2zm-13 17c-2 0-3-1-3-3v-8c0-2 1-4 3-4s3 2 3 4v8c0 2-1 3-3 3zm13 0l-2-2v-11l2-2 2 2v11l-2 2zm-13 18c-2 0-3-2-3-4v-8c0-2 1-3 3-3s3 1 3 3v8c0 2-1 4-3 4zm13 0l-2-2v-11l2-2 2 2v11l-2 2zm-13 17c-2 0-3-1-3-3v-8c0-2 1-4 3-4s3 2 3 4v8c0 2-1 3-3 3zm13 0l-2-2v-11l2-2 2 2v11l-2 2zm-13 18c-2 0-3-2-3-4v-8c0-2 1-3 3-3s3 1 3 3v8c0 2-1 4-3 4zm13 0l-2-2v-12l2-1 2 1v12l-2 2zm-13 17c-2 0-3-1-3-3v-8c0-2 1-4 3-4s3 2 3 4v8c0 2-1 3-3 3zm13 0l-2-2v-11l2-2 2 2v11l-2 2zm-13 18c-2 0-3-2-3-4v-8c0-2 1-3 3-3s3 1 3 3v8c0 2-1 4-3 4zm13 0l-2-2v-12l2-2 2 2v12l-2 2z"/><path d="M394 427h39c3 0 5-2 5-4v-68c0-2-2-4-5-4h-39c-3 0-5 2-5 4v67c0 3 2 5 5 5z" fill="#a09dad"/><path class="st7" d="M430 426v-74l-2-1h8l2 1v74l-2 1h-8l2-1z"/><path class="st0" d="M393 361h3c2 0 3-1 3-2 0-2-1-3-3-3h-3c-1 0-2 1-2 3l2 2zm28 0h3c2 0 3-1 3-2 0-2-1-3-3-3h-3c-1 0-2 1-2 3l2 2zm-9 0h3l2-2c0-2-1-3-2-3h-3c-2 0-3 1-3 3 0 1 1 2 3 2zm-10 0h4l2-2c0-2-1-3-2-3h-4c-1 0-2 1-2 3l2 2zm-9 11h3c2 0 3-1 3-2s-1-2-3-2h-3l-2 2 2 2zm28 0h3c2 0 3-1 3-2s-1-2-3-2h-3l-2 2 2 2zm-9 0h3l2-2-2-2h-3c-2 0-3 1-3 2s1 2 3 2zm-10 0h4l2-2-2-2h-4l-2 2 2 2zm-9 12h3c2 0 3-1 3-2s-1-2-3-2h-3l-2 2 2 2zm28 0h3c2 0 3-1 3-2s-1-2-3-2h-3l-2 2 2 2zm-9 0h3l2-2-2-2h-3c-2 0-3 1-3 2s1 2 3 2zm-10 0h4l2-2-2-2h-4l-2 2 2 2zm-9 12h3c2 0 3-1 3-2 0-2-1-3-3-3h-3c-1 0-2 1-2 3l2 2zm28 0h3c2 0 3-1 3-2 0-2-1-3-3-3h-3c-1 0-2 1-2 3l2 2zm-9 0h3l2-2c0-2-1-3-2-3h-3c-2 0-3 1-3 3 0 1 1 2 3 2zm-10 0h4l2-2c0-2-1-3-2-3h-4c-1 0-2 1-2 3l2 2zm-9 11h3c2 0 3-1 3-2s-1-2-3-2h-3l-2 2 2 2zm28 0h3c2 0 3-1 3-2s-1-2-3-2h-3l-2 2 2 2zm-9 0h3l2-2-2-2h-3c-2 0-3 1-3 2s1 2 3 2zm-10 0h4l2-2-2-2h-4l-2 2 2 2zm-9 12h3c2 0 3-1 3-2s-1-2-3-2h-3l-2 2 2 2zm28 0h3c2 0 3-1 3-2s-1-2-3-2h-3l-2 2 2 2zm-9 0h3l2-2-2-2h-3c-2 0-3 1-3 2s1 2 3 2zm-10 0h4l2-2-2-2h-4l-2 2 2 2z"/><path class="st3" d="M565 427h-80c-3 0-6-3-6-6V224c0-3 3-6 6-6h80c3 0 6 3 6 6v197c0 3-3 6-6 6z"/><path class="st7" d="M549 427h-64c-4 0-6-2-6-6V223c0-3 2-5 6-5h64c3 0 6 2 6 5v198c0 4-3 6-6 6z"/><path class="st0" d="M545 246c-2 0-4-1-4-3v-12c0-2 2-4 4-4s3 2 3 4v12c0 1-1 3-3 3zm0 22c-2 0-4-2-4-4v-12c0-1 2-3 4-3s3 2 3 3v12c0 2-1 4-3 4zm0 21c-2 0-4-1-4-3v-12c0-2 2-3 4-3s3 1 3 3v12c0 2-1 3-3 3zm0 22c-2 0-4-2-4-4v-11c0-2 2-4 4-4s3 2 3 4v11c0 2-1 4-3 4zm0 21c-2 0-4-1-4-3v-12c0-2 2-3 4-3s3 1 3 3v12c0 2-1 3-3 3zm0 22c-2 0-4-2-4-4v-11c0-2 2-4 4-4s3 2 3 4v11c0 2-1 4-3 4zm0 21c-2 0-4-1-4-3v-12c0-2 2-3 4-3s3 1 3 3v12c0 2-1 3-3 3zm0 22c-2 0-4-2-4-3v-12c0-2 2-4 4-4s3 2 3 4v12c0 1-1 3-3 3zm0 22c-2 0-4-2-4-4v-12c0-2 2-3 4-3s3 1 3 3v12c0 2-1 4-3 4zm-16-173l-2-2v-15l2-1 1 1v15l-2 2zm-14 22c-2 0-3-2-3-4v-12c0-1 1-3 3-3s4 2 4 3v12c0 2-2 4-4 4zm14 0l-2-2v-15l2-2 1 2v15l-2 2zm-14 21c-2 0-3-1-3-3v-12c0-2 1-3 3-3s4 1 4 3v12c0 2-2 3-4 3zm14 0l-2-2v-14l2-2 1 2v14l-2 2zm-14 22c-2 0-3-2-3-4v-11c0-2 1-4 3-4s4 2 4 4v11c0 2-2 4-4 4zm14 0l-2-2v-15l2-2 1 2v15l-2 2zm-14 21c-2 0-3-1-3-3v-12c0-2 1-3 3-3s4 1 4 3v12c0 2-2 3-4 3zm14 0l-2-2v-14l2-2 1 2v14l-2 2zm-14 22c-2 0-3-2-3-4v-11c0-2 1-4 3-4s4 2 4 4v11c0 2-2 4-4 4zm14 0l-2-2v-15l2-2 1 2v15l-2 2zm-14 21c-2 0-3-1-3-3v-12c0-2 1-3 3-3s4 1 4 3v12c0 2-2 3-4 3zm14 0l-2-1v-15l2-2 1 2v15l-2 1zm-14 22c-2 0-3-2-3-3v-12c0-2 1-4 3-4s4 2 4 4v12c0 1-2 3-4 3zm14 0l-2-2v-15l2-2 1 2v15l-2 2zm-14 22c-2 0-3-2-3-4v-12c0-2 1-3 3-3s4 1 4 3v12c0 2-2 4-4 4zm14 0l-2-2v-15l2-2 1 2v15l-2 2zm-43-151c-2 0-3-2-3-4v-12c0-1 1-3 3-3s3 2 3 3v12c0 2-1 4-3 4zm13 0l-2-2v-15l2-2 2 2v15l-2 2zm-13 21c-2 0-3-1-3-3v-12c0-2 1-3 3-3s3 1 3 3v12c0 2-1 3-3 3zm13 0l-2-2v-14l2-2 2 2v14l-2 2zm-13 22c-2 0-3-2-3-4v-11c0-2 1-4 3-4s3 2 3 4v11c0 2-1 4-3 4zm13 0l-2-2v-15l2-2 2 2v15l-2 2zm-13 21c-2 0-3-1-3-3v-12c0-2 1-3 3-3s3 1 3 3v12c0 2-1 3-3 3zm13 0l-2-2v-14l2-2 2 2v14l-2 2zm-13 22c-2 0-3-2-3-4v-11c0-2 1-4 3-4s3 2 3 4v11c0 2-1 4-3 4zm13 0l-2-2v-15l2-2 2 2v15l-2 2zm-13 21c-2 0-3-1-3-3v-12c0-2 1-3 3-3s3 1 3 3v12c0 2-1 3-3 3zm13 0l-2-2v-14l2-2 2 2v14c0 2-1 2-2 2zm-13 22c-2 0-3-2-3-4v-11c0-2 1-4 3-4s3 2 3 4v11c0 2-1 4-3 4zm13 0l-2-2v-15l2-2 2 2v15l-2 2zm-13 22c-2 0-3-2-3-4v-12c0-2 1-3 3-3s3 1 3 3v12c0 2-1 4-3 4zm13 0l-2-2v-15l2-2 2 2v15l-2 2z"/><path d="M544 427h35c4 0 7-3 7-7V263c0-4-3-7-7-7h-35c-4 0-7 3-7 7v157c0 4 4 7 7 7z" fill="#d7d6dd"/><path class="st7" d="M584 256h-9l2 2v167l-2 2h9l2-2V258l-2-2z"/><path class="st0" d="M541 266h4l2-2-2-2h-4l-2 2 2 2zm28 0h4l2-2-2-2h-4l-2 2 2 2zm-9 0h3c2 0 3-1 3-2s-1-2-3-2h-3l-2 2 2 2zm-9 0h3l2-2-2-2h-3c-2 0-3 1-3 2s1 2 3 2zm-10 12h4l2-2c0-2-1-3-2-3h-4c-1 0-2 1-2 3l2 2zm28 0h4l2-2c0-2-1-3-2-3h-4c-1 0-2 1-2 3l2 2zm-9 0h3c2 0 3-1 3-2 0-2-1-3-3-3h-3c-1 0-2 1-2 3l2 2zm-9 0h3l2-2c0-2-1-3-2-3h-3c-2 0-3 1-3 3 0 1 1 2 3 2zm-10 11h4l2-2-2-2h-4l-2 2 2 2zm28 0h4l2-2-2-2h-4l-2 2 2 2zm-9 0h3c2 0 3-1 3-2s-1-2-3-2h-3l-2 2 2 2zm-9 0h3l2-2-2-2h-3c-2 0-3 1-3 2s1 2 3 2zm-10 12h4l2-2-2-2h-4l-2 2 2 2zm28 0h4l2-2-2-2h-4l-2 2 2 2zm-9 0h3c2 0 3-1 3-2s-1-2-3-2h-3l-2 2 2 2zm-9 0h3l2-2-2-2h-3c-2 0-3 1-3 2s1 2 3 2zm-10 12h4c1 0 2-1 2-3l-2-2h-4l-2 2c0 2 1 3 2 3zm28 0h4c1 0 2-1 2-3l-2-2h-4l-2 2c0 2 1 3 2 3zm-9 0h3c2 0 3-1 3-3 0-1-1-2-3-2h-3l-2 2c0 2 1 3 2 3zm-9 0h3c1 0 2-1 2-3l-2-2h-3c-2 0-3 1-3 2 0 2 1 3 3 3zm-10 11h4l2-2-2-2h-4l-2 2 2 2zm28 0h4l2-2-2-2h-4l-2 2 2 2zm-9 0h3c2 0 3-1 3-2s-1-2-3-2h-3l-2 2 2 2zm-9 0h3l2-2-2-2h-3c-2 0-3 1-3 2s1 2 3 2zm-10 12h4l2-2c0-2-1-3-2-3h-4c-1 0-2 1-2 3l2 2zm28 0h4l2-2c0-2-1-3-2-3h-4c-1 0-2 1-2 3l2 2zm-9 0h3c2 0 3-1 3-2 0-2-1-3-3-3h-3c-1 0-2 1-2 3l2 2zm-9 0h3l2-2c0-2-1-3-2-3h-3c-2 0-3 1-3 3 0 1 1 2 3 2zm-10 11h4l2-2-2-2h-4l-2 2c0 2 1 2 2 2zm28 0h4l2-2-2-2h-4l-2 2c0 2 1 2 2 2zm-9 0h3c2 0 3-1 3-2s-1-2-3-2h-3l-2 2c0 2 1 2 2 2zm-9 0h3l2-2-2-2h-3c-2 0-3 1-3 2 0 2 1 2 3 2zm-10 12h4l2-2-2-2h-4l-2 2 2 2zm28 0h4l2-2-2-2h-4l-2 2 2 2zm-9 0h3c2 0 3-1 3-2s-1-2-3-2h-3l-2 2 2 2zm-9 0h3l2-2-2-2h-3c-2 0-3 1-3 2s1 2 3 2zm-10 12h4c1 0 2-1 2-3l-2-2h-4l-2 2c0 2 1 3 2 3zm28 0h4c1 0 2-1 2-3l-2-2h-4l-2 2c0 2 1 3 2 3zm-9 0h3c2 0 3-1 3-3 0-1-1-2-3-2h-3l-2 2c0 2 1 3 2 3zm-9 0h3c1 0 2-1 2-3l-2-2h-3c-2 0-3 1-3 2 0 2 1 3 3 3zm-10 11h4l2-2-2-2h-4l-2 2 2 2zm28 0h4l2-2-2-2h-4l-2 2 2 2zm-9 0h3c2 0 3-1 3-2s-1-2-3-2h-3l-2 2 2 2zm-9 0h3l2-2-2-2h-3c-2 0-3 1-3 2l3 2zm-10 12h4l2-2-2-2h-4l-2 2 2 2zm28 0h4l2-2-2-2h-4l-2 2 2 2zm-9 0h3c2 0 3-1 3-2s-1-2-3-2h-3l-2 2 2 2zm-9 0h3l2-2-2-2h-3c-2 0-3 1-3 2s1 2 3 2zm-10 12h4c1 0 2-1 2-3l-2-2h-4l-2 2c0 2 1 3 2 3zm28 0h4c1 0 2-1 2-3l-2-2h-4l-2 2c0 2 1 3 2 3zm-9 0h3c2 0 3-1 3-3 0-1-1-2-3-2h-3l-2 2c0 2 1 3 2 3zm-9 0h3c1 0 2-1 2-3l-2-2h-3c-2 0-3 1-3 2 0 2 1 3 3 3zm-10 11h4l2-2-2-2h-4l-2 2 2 2zm28 0h4l2-2-2-2h-4l-2 2 2 2zm-9 0h3c2 0 3-1 3-2s-1-2-3-2h-3l-2 2 2 2zm-9 0h3l2-2-2-2h-3c-2 0-3 1-3 2s1 2 3 2z"/><path d="M144 243l-7 8v6h21v-14h-14zm13 11l-1 1h-1l-1-1 1-1h1l1 1zm0-3h-3v-1l1-1h1l1 1v1zm0-4l-1 1h-1l-2-1v-1l2-1h1l1 1v1z" fill="#8475b5"/><path class="st12" d="M174 236l-6 8v6h18v-14h-12zm8 8l-1 1h-11v-2h11l1 1h-1zm2 3v1h-1a1 1 0 01-1 0v-1l1-1h1v2zm0-3v1h-1a1 1 0 01-1-1v-1l1-1h1v2zm0-4v1h-1a1 1 0 01-1-1v-1l1-1h1v2zM180 236h-1v-1l-1-1-2 1v1h-1v-1l2-2c2 0 3 1 3 2v1zm-2-4l-2-2v-14c0-2 1-2 2-2l1 2v14c1 1 0 2-1 2zm0-18l-2 2v14l2 1 1-1v-14l-1-2z"/><path class="st12" d="M178 231h-1l-1-1v-5l1-1h1l2 1v5l-2 1z"/><path class="st12" d="M177 229h1v5h-1v-5zm-1-12c-1 0-2-1-2-3v-10c0-2 1-3 3-3s3 1 3 3v10c0 2-2 3-3 3zm-45 210h-10V193h10v234zm-10-1h9V193h-8v233z"/><path class="st12" d="M130 206v-1h-9v1l4 5-4 5v1h9v-1l-4-5 4-5zm-8 0h7l-4 4-3-4zm7 10h-7l4-4 3 4z"/><path class="st12" d="M130 217v-1h-9v1l4 5-4 5v1h9v-1l-4-5 4-5zm-8 0h7l-4 5-3-5zm7 10h-7l4-4 3 4z"/><path class="st12" d="M130 228v-1h-9v1l4 5-4 5v1h9v-1l-4-5 4-5zm-8 0h7l-4 5-3-5zm7 10h-7l4-4 3 4z"/><path class="st12" d="M130 239v-1h-9v1l4 6-4 5v1h9v-1l-4-5 4-6zm-8 0h7l-4 5-3-5zm7 11h-7l4-5 3 5z"/><path class="st12" d="M130 251v-1h-9v1l4 5-4 5v1h9v-1l-4-5 4-5zm-8 0h7l-4 4-3-4zm7 10h-7l4-4 3 4z"/><path class="st12" d="M130 262v-1h-9v1l4 5-4 5v1h9v-1l-4-5 4-5zm-8 0h7l-4 4-3-4zm7 10h-7l4-4 3 4z"/><path class="st12" d="M130 273v-1h-9v1l4 5-4 5v1h9v-1l-4-5 4-5zm-8 0h7l-4 5-3-5zm7 10h-7l4-4 3 4z"/><path class="st12" d="M130 284v-1h-9v1l4 5-4 5v1h9v-1l-4-5 4-5zm-8 0h7l-4 5-3-5zm7 10h-7l4-4 3 4z"/><path class="st12" d="M130 295v-1h-9v1l4 6-4 5v1h9v-1l-4-5 4-6zm-8 0h7l-4 5-3-5zm7 11h-7l4-5 3 5z"/><path class="st12" d="M130 307v-1h-9v1l4 5-4 5v1h9v-1l-4-5 4-5zm-8 0h7l-4 4-3-4zm7 10h-7l4-4 3 4z"/><path class="st12" d="M130 318v-1h-9v1l4 5-4 5v1h9v-1l-4-5 4-5zm-8 0h7l-4 4-3-4zm7 10h-7l4-4 3 4z"/><path class="st12" d="M130 329v-1h-9v1l4 5-4 5v1h9v-1l-4-5 4-5zm-8 0h7l-4 5-3-5zm7 10h-7l4-4 3 4z"/><path class="st12" d="M130 340v-1h-9v1l4 5-4 5v1h9v-1l-4-5 4-5zm-8 0h7l-4 5-3-5zm7 10h-7l4-4 3 4z"/><path class="st12" d="M130 351v-1h-9v1l4 6-4 5v1h9v-1l-4-5 4-6zm-8 0h7l-4 5-3-5zm7 11h-7l4-5 3 5z"/><path class="st12" d="M130 363v-1h-9v1l4 5-4 5v1h9v-1l-4-5 4-5zm-8 0h7l-4 4-3-4zm7 10h-7l4-5 3 5z"/><path class="st12" d="M130 374v-1h-9v1l4 5-4 5v1h9v-1l-4-5 4-5zm-8 0h7l-4 4-3-4zm7 10h-7l4-4 3 4z"/><path class="st12" d="M130 385v-1h-9v1l4 5-4 5v1h9v-1l-4-5 4-5zm-8 0h7l-4 5-3-5zm7 10h-7l4-4 3 4z"/><path class="st12" d="M130 396v-1h-9v1l4 6-4 5v1h9v-2l-4-5 4-5zm-8 0h7l-4 5-3-5zm7 10h-7l4-4 3 4z"/><path class="st12" d="M130 408v-1h-9v1l4 5-4 5v1h9v-2l-4-4 4-5zm-8 0h7l-4 4-3-4zm7 10h-7l4-5 3 4zm-8-250v25h5v-25l-1-1h-3l-1 1zm4 1v7l-1 1h-1l-1-1v-7l1-1h1l1 1zm0 9v4l-1 1h-1l-1-1v-4l1-1h1l1 1zm-3 14v-7l1-1h1l1 1v7l-1 1h-1l-1-1zM184 205H88c-1 0-2-1-2-3l2-2 30-7h66l2 2v8l-2 2zm-66-11l-30 7-1 1 1 1h96l1-1v-7l-1-1h-66z"/><path class="st12" d="M184 193h-66l-31 7-1 2c0 2 1 3 2 3h96c1 0 2-1 2-3v-7c0-2-1-3-2-3zm-1 5l2-3v7c-2-3-3-3-2-4zm-64 0v1l-2 4-3-5 2-4 3 4zm1 2l1 1 2 2h-5l2-2zm52 3l-3-4a1 1 0 010-1l2-4 3 5-2 4zm1-9h4l-2 2h-1l-1-2zm-4 2h-2l-1-2h4l-1 2zm-4 7l-3-4a1 1 0 010-1l3-4 2 4v1l-2 4zm-3-7h-1l-2-2h4l-1 2zm-4 7l-3-5 3-4c2 4 3 4 2 5l-2 4zm-3-7h-1l-2-2h4l-1 2zm-4 7l-3-4a1 1 0 011-1l2-4c2 4 3 4 2 5l-2 4zm-3-7h-1l-2-2h4l-1 2zm-4 7l-2-4a1 1 0 010-1l2-4 3 4v1l-3 4zm-3-7h-1l-2-2h5l-2 2zm-3 7l-3-4a1 1 0 010-1l2-4 3 4v1l-2 4zm-4-7h-1l-1-2h4l-2 2zm-3 7l-3-5 2-4 3 4v1l-2 4zm-3-7h-2l-1-2h4l-1 2zm-5-2l3 4v1l-2 4-3-4a1 1 0 010-1l2-4zm4 7h1l1 2h-4l2-2zm6 0h2l1 2h-4l1-2zm7 0h1l2 2h-4l1-2zm7 0h1l2 2h-5l2-2zm7 0h1l2 2h-5l2-2zm7 0h1l2 2h-5l2-2zm7 0h1l2 2h-5l2-2zm7 0h1l1 2h-4l2-2zm4 2l-3-4 2-5 3 4-2 5zm1-9h4l-2 2h-1l-1-2zm-58 0l-1 2h-1l-2-2h4zm-7 1l-1 1h-1l-1-1h3zm-4 1l1 2v1l-2 4c-2-4-3-4-2-5l1-2h2zm-4 1h-1 1zm-2 0v2l-2 4-2-4v-1l4-1zm-6 1l-3 5-2-4 5-1zm-12 5l1-2 3-1-2 3h-1-1zm4 0l1-2h1l2 2h-4zm7 0l1-2h1l2 2h-4zm6 0l2-2h1l2 2h-5zm7 0l2-2h1l2 2h-5zm69 0l1-2h2l1 2h-4z"/><path class="st12" d="M94 230l-1-1v-23l1-2 2 2v23l-2 1z"/><path class="st12" d="M106 213H92c-2 0-3-2-3-3 0-2 1-3 3-3h14c1 0 3 1 3 3l-3 3zm0 6H92c-2 0-3-1-3-3s1-3 3-3h14l3 3-3 3zm0 6H92c-2 0-3-1-3-3 0-1 1-2 3-2h14l3 2c0 2-2 3-3 3zm-18-24v-1l35-34 55 26v1l-1 1-54-26-34 33h-1z"/><path class="st12" d="M124 168l-1-1v-3h1v3l-1 1z"/><g><path class="st3" d="M348 264v-2l2-2 3 2v1-1c0-1-1-3-3-3s-2 2-2 3v2zm0-9v-17l3-2 2 2v17c0 2-1 3-2 3-2 0-3-1-3-3zm1-17v17l2 2 1-2v-17l-1-2-2 2z"/><path class="st3" d="M349 256v-6l1-2h1l2 2v6l-2 1h-1l-1-1z"/><path class="st3" d="M351 261h-1v-6h1v6zm1-21c2 0 4-1 4-3v-13c0-2-2-3-4-3s-3 1-3 3v13c0 2 1 3 3 3zm33 24h1v-2l2-2 2 2v1h1v-1l-3-3-3 3v2zm1-9v-17l2-2 2 2v17c0 2-1 3-2 3s-2-1-2-3zm1-17v17l1 2 2-2v-17l-2-2-1 2z"/><path class="st3" d="M386 256v-6l1-2h2l1 2v6l-1 1h-2l-1-1z"/><path class="st3" d="M389 261h-2v-6h2v6zm0-21c2 0 4-1 4-3v-13c0-2-2-3-4-3s-3 1-3 3v13c0 2 1 3 3 3zm18-30v222h14V210h-13zm3 220V212h9v218h-9z"/><path class="st3" d="M414 233l-5 6v1h11v-1l-5-7 5-6v-1h-12v1h1l5 7zm0-1l-4-6h9l-5 6zm0 1l4 6h-8l4-6z"/><path class="st3" d="M414 246l-5 6v2h11v-2l-5-6 5-6v-1h-12v1h1l5 6zm0 0l-4-6h9l-5 6zm0 1l4 5h-8l4-5z"/><path class="st3" d="M414 260l-5 6v1h11v-1l-5-6 5-6v-1h-12v1h1l5 6zm0-1l-4-5h9l-5 5zm0 2l4 5h-8l4-5z"/><path class="st3" d="M414 274l-5 6v1h11v-1l-5-6 5-7v-1h-12v1h1l5 7zm0-1l-4-6h9l-5 6zm0 2l4 5h-8l4-6z"/><path class="st3" d="M414 287l-5 6v2h11v-2l-5-6 5-6v-1h-12v1h1l5 6zm0 0l-4-6h9l-5 6zm0 1l4 5h-8l4-5z"/><path class="st3" d="M414 301l-5 6v1h11v-1l-5-6 5-6v-1h-12v1h1l5 6zm0-1l-4-5h9l-5 5zm0 2l4 5h-8l4-5z"/><path class="st3" d="M414 315l-5 6v1h11v-1l-5-6 5-7v-1h-12v1h1l5 7zm0-1l-4-6h9l-5 6zm0 1l4 6h-8l4-6z"/><path class="st3" d="M414 328l-5 6v2h11v-2l-5-6 5-6v-1h-12v1h1l5 6zm0 0l-4-6h9l-5 6zm0 1l4 5h-8l4-5z"/><path class="st3" d="M414 342l-5 6v1h11v-1l-5-6 5-6v-1h-12v1h1l5 6zm0-1l-4-5h9l-5 5zm0 2l4 5h-8l4-5z"/><path class="st3" d="M414 356l-5 6v1h11v-1l-5-6 5-6v-2h-12v2h1l5 6zm0-1l-4-6h9l-5 6zm0 2l4 5h-8l4-5z"/><path class="st3" d="M414 369l-5 6v2h11v-2l-5-6 5-6v-1h-12v1h1l5 6zm0 0l-4-6h9l-5 6zm0 1l4 5h-8l4-5z"/><path class="st3" d="M414 383l-5 6v1h11v-1l-5-6 5-6v-1h-12v1h1l5 6zm0-1l-4-5h9l-5 5zm0 2l4 5h-8l4-5z"/><path class="st3" d="M414 397l-5 6v1h11v-1l-5-6 5-6v-2h-12v2h1l5 6zm0-1l-4-6h9l-5 6zm0 2l4 5h-8l4-5z"/><path class="st3" d="M414 411l-5 6v1h11v-2l-5-5 5-7v-1h-12v1h1l5 7zm0-1l-4-6h9l-5 6zm0 1l4 6h-8l4-6z"/><path class="st3" d="M414 424l-5 6v1h11v-1l-5-6 5-6v-1h-12v1h1l5 6zm0-1l-4-5h9l-5 5zm0 2l4 5h-8l4-5zm5-246h-4a1 1 0 00-1 1v30l1 1h4l1-1v-30l-1-1zm-3 1h2l1 1v8l-1 1h-2a1 1 0 01-1-1v-8l1-1zm0 12h2l1 1v5l-1 1h-2a1 1 0 01-1-1v-5l1-1zm2 18h-2a1 1 0 01-1-1v-8l1-1h2l1 1v8l-1 1z"/><path class="st3" d="M340 222v-9c0-2 1-3 3-3h81l37 9 2 2v1c0 2-1 3-3 3H343a3 3 0 01-3-3zm3-10a1 1 0 00-1 1v9l1 1h117l1-1v-1-1l-37-8h-81z"/><path class="st3" d="M340 213v9c0 2 1 3 3 3h117c2 0 3-1 3-3v-1l-2-2-37-9h-81c-2 0-3 1-3 3zm2 8v-9l2 5c1 1 0 1-2 4zm83-9l3 5c1 1 0 1-3 5l-3-4v-1l3-5zm-1 11h-6l2-3h1l2 3zm-69-5l4-6 2 5v1l-3 4-3-4zm0-3h-2l-1-3h5l-2 3zm5-3h5l-2 3h-1l-2-3zm4 6v-1l3-5 2 5v1l-3 4-2-4zm4-6h5l-2 3h-1l-2-3zm4 6l3-6 3 5-3 5-3-4zm5-6h5l-2 3h-2l-1-3zm3 6l4-6 2 5v1l-3 4-3-4zm5-6h5l-2 3h-1l-2-3zm4 6v-1l3-5 3 5v1l-4 4-2-4zm5-6h5l-2 3h-2l-1-3zm3 6v-1l3-5 3 5v1l-3 4-3-4zm5-6h5l-2 3h-1l-2-3zm3 6v-1l4-5 2 5c1 1 0 1-3 5l-3-4zm5-6h5l-2 3h-1l-2-3zm10 5v1l-3 4-3-4v-1l3-5 3 5zm-5 6h-5l2-3h1l2 3zm-8 0h-6l2-3h2l2 3zm-9 0h-5l2-3h1l2 3zm-8 0h-6l3-3h1l2 3zm-8 0h-6l2-3h2l2 3zm-9 0h-5l2-3h1l2 3zm-8 0h-6l3-3h1l2 3zm-8 0h-6l2-3h2l2 3zm-10-6l3-5 3 6-3 4c-3-4-4-4-3-5zm-1-2h-1l-2-3h5l-2 3zm78-3l-2 3h-2l-2-3h6zm7 1l-1 2h-1l-2-2h4zm4 1l1 3c1 1 0 1-3 5l-2-4v-1l2-3h2zm3 1h-1 1zm7 2v1l-3 4-3-4v-1l1-2 5 2zm8 1l-3 4-3-5 6 1zm7 5h-1l-2-4 4 1v2l-1 1zm-9 0l3-3h1l2 3h-6zm-8 0l2-3h2l2 3h-6zm-8 0l2-3h1l2 3h-5zm-9 0l3-3h1l2 3h-6zm-83 0l2-3h1l2 3h-5z"/><path class="st3" d="M453 256l1-2v-28l-1-2-2 2v28l2 2z"/><path class="st3" d="M438 234h18c1 0 3-1 3-3s-2-3-3-3h-18c-1 0-3 1-3 3s2 3 3 3zm0 8h18c1 0 3-1 3-3s-2-4-3-4h-18c-1 0-3 2-3 4s2 3 3 3zm0 7h18c1 1 3-1 3-3s-2-3-3-3h-18c-1 0-3 1-3 3s2 3 3 3zm0 9h18c1 0 3-2 3-4s-2-3-3-3h-18c-1 0-3 1-3 3s2 4 3 4zm22-38v-1l-43-41-67 32v1l1 1 66-32 42 40h1z"/><path class="st3" d="M417 180l1-1v-4h-2v4l1 1z"/><path class="st13" d="M335 273h56a5 5 0 100-9h-56a5 5 0 00-5 4c0 3 2 5 5 5z"/></g><g><path class="st13" d="M293 356h20l1-1 18-15 11-8 12-11 5-5 9-12 4-3c2-1 4 1 4 3v3l-1 38-1 33v4h1c1 0 2 0 2 2v3c0 2 0 2-3 2v1l2 3c2 1 3 3 2 5s-3 3-5 2c-2 0-4-2-4-4h2v1a3 3 0 003 2l2-2c1-1 1-2-1-3v-1l-2-4h-2c-1 1-2 0-1-2v-3c-1-2 0-2 1-2h1l-1-68-1 1-47 69v3l2 12h-11v3h-6v4h13c5 0 9 4 9 9 0 6-4 10-9 10h-51c-5 0-9-5-9-10s4-9 9-9h11v-4h-5v-3l-1-2-10-8v-2l2-7c0-1 0-2 2-2h7l8-1v-9l1-4v-8c0-3 0-3-2-3v-2c3 0 4 1 4 4v10l1 2v9l2-1v-19h2zm1 32h10v-27h-10v27zm61-65l-13 11v2l-4 4-19 20v1l1 7 35-45zm-35 56l-4-19h-6v19h10zm53-67l-1 1 1 24a5554 5554 0 001 45l1-74-2 4zm-95 103c1-3-2-6-6-6s-7 3-7 7 3 7 7 7c4-1 7-4 7-7zm50 1c0-4-3-7-6-7-4 0-7 3-7 7s3 7 7 7c3 0 6-4 6-7zm-25 0c0-4-3-7-6-7-4 0-7 3-7 7s3 7 7 7c3 0 6-4 6-7z"/><path class="st13" d="M272 421c3 0 5-2 5-6 0-3-2-5-5-5s-5 2-5 6 2 5 5 5zm50 0c3 0 5-2 5-6 0-2-2-5-5-5s-6 2-6 6c0 3 3 5 6 5zm-25 0c3 0 5-2 5-6 0-2-2-5-5-5s-6 2-6 6c1 3 3 5 6 5z"/><path class="st14" d="M101 353h142v11H101v-11z"/><path class="st14" d="M101 353h7v57h-7v-57zm33 3h7v56h-7v-56z"/><path class="st14" d="M104 376h137v8H104v-8z"/><path class="st14" d="M234 361h8v43h-8v-43zm-32-2h8v51h-8v-51zm-36 2h7v49h-8v-49zm-24 6h-9l-1-1h11l-1 1zm-1-25h-8-1l1-1h8l1 1h-1zm1 33h-9-1l1-1h9l1 1h-1zm0 12h-9l-1-1h11l-1 1zm0 12h-9l-1-1h11l-1 1zm-41-58h7v18h-7v-18z"/><path class="st14" d="M134 341h6v18h-6v-18zm130 83c-2-3-3-5-3-9s2-8 6-10v-5H98v25h167l-1-1z"/></g><path d="M582 444H98v-20h492c7 8 1 20-8 20z" fill="#767d92"/><g><path class="st16" d="M535 156l-8-4s-41 35-48 37l5 15s29-4 46-20 5-28 5-28z"/><path class="st17" d="M533 413s1 5-4 8-9 5-9 7 30 2 30 1l-6-17-11 1zm35 1v10s11 8 21 8c0 0 8 0 8-2s-6-6-13-10c-7-3-6-12-6-12l-11 2v4z"/><path d="M572 265c-3-18-56-12-55 2l5 72 10 76h14s-8-120-4-125a5 5 0 014-1c3-1 5 2 6 5l15 123 13-2s-5-133-8-150z" fill="#483342"/><path class="st19" d="M572 265c-3-16-48-13-54-1 0 0 4 10 17 10 12 0 29-2 37-9z"/><path class="st20" d="M568 249c-8 10-48 17-51 2 0 4-1 12 1 13 9 7 41 3 50-5 2-2 0-10 0-10z"/><path d="M540 268h-9c-3 0-5-2-5-5v-1c0-3 2-5 5-5h9c3 0 5 2 5 5v1c0 3-2 5-5 5z" fill="#4185bf"/><path d="M540 266h-9c-2 0-4-1-4-3s2-4 4-4h9c2 0 3 1 3 4 0 2-1 3-3 3z" fill="#dde9f3"/><path class="st19" d="M539 362c1 23 3 40 5 53h2s-8-121-4-125c0 0-7 2-3 72z"/><path class="st16" d="M528 152c-2 0-17 87-13 101s49 7 57-2c10-10 2-39 2-53 0-13 12-39 8-45-4-5-14-8-19-8-7 0-34 7-36 7z"/><path d="M552 220h6l19 12-1-15-8-4-18-1-16-50c0-2-4-5-7-5-1 0-13 72-12 90l40 2c3 0 6-3 5-7l-8-22z" opacity=".6" fill="#0065bd"/><path class="st24" d="M538 156l-1-1-1 1s-7 20-11 42c-5 30-3 51 5 63h2c-8-11-10-33-5-62 4-23 11-43 11-43z"/><path class="st25" d="M550 423l1 6v8s-40 0-42-2 0-6 0-6l8-3c3-2 13-8 16-7s4 3 9 3l7 1z"/><path class="st26" d="M509 436l42 2v-6c-21 3-42-3-42-3v7z"/><path class="st27" d="M551 432c-14 2-30 0-42-3 22 5 40 3 38 3h4z"/><path class="st25" d="M567 422l-2 7-1 8s40 2 42 1c2-2 1-7 1-7l-9-4c-2-1-11-8-14-8-3 1-5 3-10 3h-7z"/><path class="st26" d="M606 438c-1 1-42-1-42-1v-6c21 4 42 0 42 0 1 0 2 5 0 7z"/><path class="st27" d="M564 431c15 3 30 3 42 0-21 3-39 1-38 1l-4-1z"/><path class="st17" d="M533 132l3 26 19-12-10-18-12 4z"/><path class="st28" d="M547 132l-2-4-12 4 2 14 4-2c3-2 6-7 8-12z"/><path class="st29" d="M534 101l-4 5-5 11c-2 6-4 12-2 19 1 3 13 4 18 1s10-12 9-18c0-7-14-19-16-18z"/><path d="M542 132c1 2 2 3 6 3 5 0 10-4 11-12l2-9c-1-16-18-19-23-21l-5 1a8 8 0 01-6 3c-1-1-4-1-5 1-2 5-2 10 6 10 19 1 13 21 14 24z" fill="#0b0080"/><path d="M529 97h-6c3 3 10 7 19 11 8 4 15 8 19 8v-2a129 129 0 00-32-17z" fill="#080060"/><path class="st29" d="M540 121s0-5 3-4 4 7 1 8c-2 1-4-4-4-4z"/><path class="st32" d="M474 160s1-1-2-2l-7-1-7 1 7 39h18l-9-37z"/><path class="st33" d="M467 158s-5 0-6 3l9 9-3-12z"/><path class="st24" d="M461 161s8 1 13-2l16 81h-3l-26-79z"/><path d="M531 161c-1-3-3-4-6-4-11 3-41 8-51 7-14-1-16-6-16-6s-2 3 5 35l12 47c1 2 3 3 5 3l68 3c3 0 5-3 5-7l-22-78z" fill="#f2f9ff"/><path class="st0" d="M553 239l-22-78c-1-2-3-4-6-3-10 2-41 7-51 6-14-1-16-5-16-5s-1 1 3 20c11 1 40-5 51-7 2 0 4 1 5 4l20 69 11 1c3 0 6-3 5-7z"/><path class="st16" d="M604 202v-6c0-2-4-4-5-6-5-16-13-33-17-37-2-2-8 35-8 35s9 17 10 23c7-1 16 1 22 2l2-7c0-3-3-2-4-4z"/><path d="M580 206s1 6 4 7c2 0 22 15 25 15s1-19 1-21c-1-2-4-3-10-3-7 0-20-6-20 2z" fill="#339ffd"/><path class="st17" d="M611 233c1-11-5-20-14-23l-31-8-20-5c-4-1-9 2-12 1s-2 3 1 3h-3c-3-1-3-1-3 1s5 4 12 3c0 0 2 0 1 1h-11c-2 1 0 3 5 3l7 1c0 1-8-1-9 1l14 4 10-1 5 2c9 6 44 27 47 19l1-2z"/><path class="st36" d="M530 97c4-9 14-13 23-9 9 5 13 16 9 25l-1 2-32-17v-1z"/><path class="st37" d="M536 101l1-1c3-8 11-12 19-10l-3-2c-9-5-19-1-23 9l-1 1 32 16h1l-26-13z"/><path class="st38" d="M522 95c1-1 10 3 20 8 11 6 20 11 19 12l-20-9c-11-5-19-10-19-11z"/><path class="st17" d="M477 218c-1-2-6 5-6 5-1-1 7-7 5-8-1-1-6 5-6 4-1-1 6-5 4-6-1-1-5 3-5 3l2-5-1-1-3 5c-1 7 5 11 5 11l5-8z"/></g><g><path class="st39" d="M217 141l1-5h11v7l-13-2z"/><path class="st40" d="M342 182c1-1 0-3-2-4l-10-1s4-5 4-8c0-2 0-6-3-5-2 1 0 3-2 6s-3 2-5 4-1 3-3 7-12 7-12 7l-10 5s5 17 7 16l17-11c7 0 13 1 16-1 2-1 2-2 2-3v-2-3-2l1-3v-2z"/><path class="st16" d="M270 147s6 6 7 15 2 37 6 37c3 0 27-20 28-11 2 8 4 12 4 17 1 7-23 20-40 21-16 1-5-79-5-79z"/><path class="st24" d="M314 199c-10 9-36 20-41 19-6-2-3-71-3-71-2 15-9 80 5 79 17-1 41-14 40-21l-1-6z"/><path class="st16" d="M193 171c12-34 28-34 28-34h28s18 6 21 9 7 111 7 116c0 4-59 8-60 5-1-13-5-44-5-64 0 0-6 7-6 18 0 6 6 25 10 40l-13 8c-7-11-16-26-18-32-3-10-4-33 8-66z"/><path class="st24" d="M270 188c-1-7-7-13-14-13h-19c-3-16-7-29-11-38h-5l-4 1 6 16c3 10 1 20-4 28a16 16 0 00-2 9v76c1 2 35 0 52-2v-1l3-2c3-4 1-51-2-74z"/><path class="st24" d="M262 143l-14-6c3 2 11 12 14 48 1 2 3 4 5 4s4-2 4-5c-2-17-5-32-10-41z"/><path class="st17" d="M258 420s0 5 5 7 9 5 9 8-30 2-30 0l5-17 11 2zm-34 1v10s-11 8-21 8c0 0-8 0-8-2s6-7 12-10 7-12 7-12l10 2v4z"/><path class="st41" d="M216 271c3-17 60-12 59 2l-5 72-5 77h-19s8-121 4-125a5 5 0 00-4-2c-3 0-5 2-6 6l-15 122-21-2s9-132 12-150z"/><path class="st20" d="M224 256c8 9 47 16 51 2 0 3 1 11-1 12-9 8-40 9-52-6l2-8z"/><path class="st19" d="M253 368l-5 54h-3s8-121 5-125c0 0 7 2 3 71z"/><path class="st25" d="M242 429l-1 7v8l41-2c2-1 1-7 1-7l-9-3c-3-2-12-8-15-7s-4 3-10 3l-7 1z"/><path class="st26" d="M283 442l-42 2v-6c21 3 42-3 42-3v7z"/><path class="st27" d="M241 438c14 2 30 1 42-3-22 5-40 4-38 4l-4-1z"/><path class="st25" d="M225 429l2 6v8s-40 2-41 1c-2-1-1-6-1-7l8-3c3-2 12-8 15-8l10 3h7z"/><path class="st26" d="M186 444c1 1 41-1 41-1v-5c-21 4-42-1-42-1 0 1-1 6 1 7z"/><path class="st27" d="M227 438c-14 3-30 2-42-1 22 4 40 1 38 1h4z"/><path class="st41" d="M279 260c-6 7-19 10-29 8-14-2-26-12-26-12v-67c0-8 6-15 14-15l25-1c7 0 13 6 14 14 2 22 5 69 2 73z"/><path class="st42" d="M146 279l-1 1-1-1 1-2 1 2z"/><path class="st19" d="M229 177l1 8c0 3 3 6 6 6 4 0 7-3 7-7l-2-10h-4c-3 0-6 1-8 3zm34 7c0 2 2 3 5 3s6-2 6-4l-2-8-9-2h-2l2 11z"/><path class="st43" d="M253 139c2 1 9 8 12 43 1 2 2 4 4 4s4-2 4-5c-2-16-5-29-9-38l-11-4z"/><path class="st40" d="M236 108l-1 30c0 6 8 12 13 11 4-1 8-6 8-6v-23l-20-12z"/><path class="st28" d="M256 130v-10l-10-6h-1-1l-8-6v1s0 9 4 14c3 4 11 8 16 7z"/><path class="st17" d="M241 80s-6 13-5 23 16 23 23 19c6-4 4-15 4-18s3-14 0-19c-2-4-18-9-22-5z"/><path class="st39" d="M258 74c-9-4-19-2-23 3-9 11 0 29 0 29s1 8 5 13 14 9 20 5c5-4 3-15 3-15s0 2-3 2-2-1-3-1c-4-1-5 0-8 1h-3c-3-1-5-5-5-8l1-8 8-6c1 6 14 4 16 1 2-2 1-12-8-16z"/><path class="st36" d="M263 77c-3-10-14-15-23-11-10 4-14 15-11 25l1 1 34-14-1-1z"/><path class="st37" d="M256 81v-2c-3-8-11-13-19-12l3-1c9-4 20 1 23 11l1 1-35 14 27-11z"/><path class="st38" d="M271 75c-1-1-10 2-21 7l-20 10 21-7 20-10z"/><path class="st17" d="M239 96s-2-3-4-2 0 10 2 10c3 0 2-8 2-8z"/><path class="st43" d="M241 185c-2-21-7-39-12-49h-11c4 4 11 17 14 50 0 3 2 5 5 5 2 0 4-3 4-6z"/><ellipse class="st42" cx="237" cy="184.5" rx="1.2" ry="1.3"/><path class="st42" d="M271 182l-1 1-2-1 2-2 1 1z"/><path class="st32" d="M269 251l-28 6c-2 1-3 3-2 5l15 19c1 2 4 2 5 0l13-26a3 3 0 00-3-4z"/><path class="st32" d="M217 291l-1-1v-3l14-14c2-1 4-2 6-1l5 1 4-1 4-5h3v2l-5 5a7 7 0 01-7 2l-5-1-2 1-15 14-1 1z"/><path class="st33" d="M252 267l-6 5a7 7 0 01-6 3l-5-2-3 1-14 14h-2c-1 2 1 3 2 2l15-14 2-1 5 1a7 7 0 007-2l5-5v-3z"/><path class="st44" d="M234 276l-15 18a4 4 0 01-7 0c-1-1-2-4 0-6l1-1 18-15 2 1 1 3z"/><path d="M271 251h-2l-28 6-2 3c3 4 8 6 14 6 9 0 17-7 18-15z" fill="#8c9ab8"/><path class="st17" d="M215 261l4 12 2 4c3 4 7 8 6 11-1 5-10 13-14 11-5-2-4-20-5-22l-5-8 12-8z"/></g><g><path class="st17" d="M136 426v1c0 2 0 7 3 10 4 4 4 10 0 11s-14-1-14-1-2-4 0-15l2-23 11-1-2 18z"/><path class="st46" d="M138 431l5 9v9c-6 6-19 1-19 1l-1-10c-1-5-1-9 1-9s2 2 5 2c4-1 6-3 9-2z"/><path class="st47" d="M123 443l9 3c4 0 9-1 12-3l-1 6c-6 6-19 1-19 1l-1-7z"/><path class="st48" d="M123 443c10 3 11 3 21 0l-5 2-8 1-8-3z"/><path class="st40" d="M247 240l-6 3c0-2 9-4 10-7l-11 4 12-6c-1-1-14 4-14 3s11-3 10-4l-16 3c-1 0 5-5 3-5-3-1-11 8-11 8-2 1-17 3-24-2-6-4-11-11-13-16-1-5-3-13-2-19h-19c0 8 9 43 13 46 9 6 26 5 37 4 9-1 18-3 26-7 2-1 5-2 6-4l-1-1z"/><path class="st49" d="M182 173c4 5 9 38 8 45-4 7-18 8-22 11-11-5-4-26-4-26l-4-40c0-1 12 0 21 10z"/><path class="st17" d="M168 419c-1 5 0 10 4 14l4 3c7 3 15 2 16 8 2 6-41-2-41-2l3-17v-12l17-1-3 7z"/><path class="st46" d="M153 432l-2 6v8s39 2 41 1c2-2 1-7 0-7l-8-4c-2-1-11-8-14-7l-10 3c-6 0-6-2-7 0z"/><path class="st47" d="M192 447c-2 1-41-1-41-1v-6c21 4 42 0 42 0s1 5-1 7z"/><path class="st48" d="M151 440c14 3 29 3 41 0-21 4-39 1-37 1l-4-1z"/><path class="st41" d="M120 272c-7 27 2 146 2 146l20-1s5-119 8-123h3l2 3c2 7 14 50 11 59l-14 65 17 1s23-42 23-71-3-68-15-84c-5-7-29-13-29-13s-26 10-28 18z"/><path class="st50" d="M145 280c0-3-2-6-5-6-18-2-18-3-20-2-2 5-2 24-2 30 1 5 5 9 10 9 6 1 12-4 13-11l1-11 2 1 1-10zm12 141l14-69c2-8-5-38-9-54-1-5-7-7-10-4 0 0 17 52 14 62l-14 65 17 1-12-1z"/><path class="st50" d="M124 267l-4 5c-7 27 2 146 2 146h5c-1-4-8-117-3-151z"/><path class="st50" d="M181 274a43 43 0 00-3-7 10 10 0 00-3-2l-12 5c-16 5-34 2-41 0l-2 2-1 9c3 3 25 10 44 4 12-5 17-7 18-11z"/><path d="M122 427c5 2 18 2 21 0 2-1 3-12 0-13h-21c-3 1-3 12 0 13zm31-5c5 2 17 2 20 0 3-1 4-12 1-13h-21c-3 1-3 12 0 13z" fill="#5d70a2"/><path class="st44" d="M180 258c-1 2-4 6-18 11-18 6-38 1-41-2-1-1-2 11 0 12 5 5 14 6 21 7 7 0 14-1 21-4 6-1 14-4 17-10v-14z"/><path class="st42" d="M146 279l-1 1-1-1 1-2 1 2z"/><path d="M127 307c-6 0-11-6-10-12l2-19 21 3-2 18c0 6-6 11-11 10z" fill="#bc9166"/><path class="st53" d="M139 290l-22-3v-5l23 3-1 5z"/><path class="st53" d="M141 288l-25-3 1-9c0-3 2-5 5-4l16 1c3 1 5 3 4 6l-1 9z"/><path class="st42" d="M130 284l-1 1-1-2 1-1 1 2z"/><path class="st53" d="M126 297c-4-4-1-14 1-20l1-5h-6c-3-1-5 1-5 4l-1 9h2l-1 10c-1 7 5 13 11 12 1-3 0-6-3-10z"/><path class="st36" d="M145 161s-17-1-24 8-6 96-3 98 24 10 43 3 20-14 20-14l-2-72c0-17-16-27-34-23z"/><path class="st49" d="M130 255c-1-4 0-19 2-29l4 1c2-7 3-24 4-35 0-21-10-27-10-27-2-1-5 1-10 7-6 16-5 93-2 95 1 1 5 3 11 4 1-6 2-12 1-16z"/><path d="M144 162c-4 3-4 3-1 8s17 10 19 9c4-2 0-10-3-15-1-2-12-6-15-2z" fill="#fcdb86"/><path class="st40" d="M160 148v26c-1 1-15-4-16-7s5-49 5-49l11 30z"/><path d="M160 165l-5-2c-6-7-1-19-2-22-1-6-3-10-2-16l9 23v17z" opacity=".6" fill="#b5450e"/><path class="st56" d="M93 332c2 0 3-1 3-3v-16c0-2 1-3 3-3h15l3-3-3-3H99c-4 0-8 4-8 9v16c0 2 1 3 2 3z"/><path d="M122 371H88c-7 0-13-6-13-13v-4c0-7 6-13 13-13h34c7 0 13 6 13 13v4c0 7-6 13-13 13z" fill="#8c114d"/><path d="M75 351h52v6H75v-6z" opacity=".5" fill="#991354"/><path d="M95 321l-4 2-17 18-1 5v6l2 3h61l3-3v-31H95z" fill="#991354"/><path d="M139 321H95l-4 2-17 18v1l64 1 1-22z" fill="#5d0b33"/><path d="M123 371h32c2 0 4-2 4-4v-24l-1-3-16-18a3 3 0 00-5 0l-17 18-1 3v23c0 3 2 5 4 5z" fill="#f7931e"/><path d="M139 348c2 0 4-2 4-5s-2-5-4-5-5 2-5 5 2 5 5 5z" fill="#bf2604"/><path class="st37" d="M139 347c3 0 5-2 5-4v-1c0-3-2-5-5-5s-5 2-5 5v1c0 2 3 4 5 4z"/><path class="st49" d="M107 361c1 0 2-1 2-3v-5l-2-2-3 2v5c0 2 2 3 3 3zm-22 0c1 0 2-1 2-3v-5l-2-2-2 2v5c0 2 1 3 2 3z"/><path class="st56" d="M139 344c1 0 3-1 3-3v-28c0-5-4-9-9-9h-19c-2 0-3 1-3 3 0 1 1 3 3 3h19c2 0 4 1 4 3v28c0 2 1 3 2 3z"/><path class="st40" d="M126 255c3 11-9 35-4 42 5 8 3 16-3 20-6 3-13-2-13-5l3-15c1-4-13-33-3-51 6-11-3-29 2-41 4 8 22 3 21 12-1 7-5 32-3 38z"/><path class="st17" d="M169 115s3 9 3 17c0 7 0 20-5 20s-12-1-14-12 0-22 5-25 11 0 11 0z"/><path class="st63" d="M168 122c-2 0-3 1-3 3 1 2 1 5-2 6l-7 1c-1 1 2 5 0 6s-3-7-5-7-3 11 0 14c2 2-1 6-4 6s1 4-4 5c-4 1-7 1-8-4-2-6 0-9 0-9s-4-5-3-10c0-3 3-8 3-8l3-10c0-4 9-7 14-8s3-4 8-4 5 6 5 6l7-4c4 3 1 7 1 7s3 1 4 5c0 4-3 7-7 6l-2-1z"/><path d="M172 106l-3 1-4 3s-9 2-14 5l-16 9v1l-2 4c4-1 12-4 20-9 10-5 20-13 19-14z" fill="#0c004a"/><path class="st63" d="M158 130s-1 15 0 16c1 2 5 0 7-2s6-1 6 0 2 14 0 16c-3 1-14 0-15-2-6-15-1-29-1-29l3 1z"/><path class="st17" d="M154 130s-3-4-5-2c-2 3-1 13 2 13s3-8 2-11z"/><path class="st37" d="M130 165s6 5 6 25c0 11-3 30-5 37-8-3-19-3-27 0-1-9 2-28 3-35 3-15 15-31 23-27z"/><path class="st36" d="M167 107c-5-9-15-13-24-9-9 5-13 16-9 26l1 1 32-17v-1z"/><path class="st37" d="M160 112l-1-2c-3-7-11-11-19-10l3-2c9-4 19 0 23 9l1 1-32 17 25-13z"/><path class="st38" d="M174 105c-1-1-10 3-21 9-10 5-19 10-18 11l20-9 19-11z"/></g><g><path class="st13" d="M448 358h4v67h-4v-67z"/><path class="st56" d="M448 324l-24 45c-2 2 0 5 2 5h49c2 0 3-3 2-5l-24-45c-1-2-4-2-5 0z"/><path class="st36" d="M426 372l-1-1v-1l24-45 1-1 1 1 24 45v1l-1 1h-48z"/><path class="st56" d="M454 348c-1 0-2-1-2-3l2-2c2 0 3 1 3 2-1 2-1 3-3 3zm8 16l-1-1h-1c0-2-3-2-4 0l-6-6 3-4v-3a7 7 0 00-3-3h-5l-1 1-1 2v1h-1l-1-1h-1l3 2 1 1-2 2 1 3-2 8 1 1h1l2-5v-5l3 3-3 6 2 1 3-6v-2l5 4-1 1v1h-1l-2 1-1 1h15c0-1-3-1-3-3zm-13-10l-1 2-1-1 2-1zm-4-5h2l-2 2v-2z"/></g><g><path class="st65" d="M180 264h-5v-4h9c0 2-2 4-5 4zm6-9h-16v-8h9c4 0 7 4 7 8z"/><path class="st65" d="M175 260h3v4h-3v-4zm-5-13h8v8h-8v-8z"/><path class="st65" d="M173 292c-2 0-3-1-3-3v-42h6v42c0 2-1 3-3 3z"/></g><path class="st44" d="M177 272l-9 4v-4l9-3v3z"/><g><path class="st42" d="M148 287l-1-2 1-2 9-1 3-1v-4l-1-3-3-1-8 1-2-2 2-1 8-1c2 0 4 0 5 2 2 1 2 3 3 5l-2 6a6 6 0 01-5 3l-8 1-1-1z"/></g><g><path d="M156 278v-1-1l8-2v2l-8 2z" fill="#c9e2f4"/></g></svg>