<svg xmlns="http://www.w3.org/2000/svg" viewBox="0 0 750 500" style="enable-background:new 0 0 750 500;">
<style type="text/css">
	.st0{fill:#FFFFFF;}
	.st1{fill:#D3E3F8;}
</style>
<g id="BACKGROUND">
	<g>
		<rect class="st0" width="750" height="500"/>
		<path class="st1" d="M689.8,434.3c7.1-14,7.8-31.8,3.2-47.1c-6.6-22.4-22-41-36.8-59.1c-14.8-18.1-29.7-37.3-35-60
			c-3.3-14.2-2.8-29.4-9.3-42.5c-10-20.2-34.7-29.7-57.2-28.7s-43.8,10.3-64.7,18.9c-20.9,8.5-42.9,16.6-65.4,14.8
			c-24.9-1.9-47.3-15.6-67.2-30.6c-20-15-39-31.9-61.8-41.9c-22.8-10.1-51.1-12.2-71.6,2c-18.7,13-26.9,36.2-35.1,57.4
			s-19.2,44-40.1,53.1c-14.4,6.2-31,4.7-46,9.4c-28.5,8.9-46,39.4-48.4,69.2c-2.3,29.2,7.1,57.9,17.5,85.2H689.8z"/>
	</g>
</g>
<g id="OBJECTS">
</g>
</svg>
