<svg version="1.1" id="Layer_1" xmlns="http://www.w3.org/2000/svg" x="0" y="0" viewBox="0 0 800 480" xml:space="preserve"><style>.st0{fill:#444445}.st1{fill:#fff}.st2{fill:#e0e0e0}.st3{fill:#444545}.st4{fill:#f9f5b3}.st5{fill:#a6d3f1}.st6{fill:#90d1b8}.st7{fill:#f4848c}</style><g id="Desk_2"><path class="st0" d="M721.9 314.6c0-.1-.1-.1-.1-.2l-.1-.1-8.4-12.8c-.3-.4-.8-.6-1.3-.6H171.6c-.5 0-1 .2-1.3.6l-8.4 12.8-.1.1c0 .1-.1.1-.1.2s-.1.2-.1.3c0 .2.1.4.2.6.3.4.8.6 1.3.6h557.5c.5 0 1-.2 1.3-.6.1-.2.2-.4.2-.6-.1-.1-.1-.2-.2-.3zm-556.4-.9l6.9-10.5h538.7l6.9 10.5H165.5z"/><path class="st1" d="M718.1 313.7H165.5l6.9-10.5h538.8z"/><path class="st0" d="M185.4 456h-12.9c-.8 0-1.5.5-1.5 1.2v8.9c0 2.2 3.4 3.8 7.9 3.8s7.9-1.6 7.9-3.8v-8.9c.1-.6-.6-1.2-1.4-1.2zm-1.5 10.2c0 .4-1.9 1.4-5 1.4s-5-1-5-1.4v-7.7h9.9v7.7z"/><path class="st1" d="M183.9 458.5v7.7c0 .4-1.9 1.4-5 1.4s-5-1-5-1.4v-7.7h10z"/><path class="st0" d="M251.7 456h-12.9c-.8 0-1.5.5-1.5 1.2v8.9c0 2.2 3.4 3.8 7.9 3.8s7.9-1.6 7.9-3.8v-8.9c0-.6-.6-1.2-1.4-1.2zm-1.5 10.2c0 .4-1.9 1.4-5 1.4s-5-1-5-1.4v-7.7h9.9v7.7z"/><path class="st1" d="M250.2 458.5v7.7c0 .4-1.9 1.4-5 1.4s-5-1-5-1.4v-7.7h10z"/><path class="st0" d="M710.8 456H698c-.8 0-1.5.5-1.5 1.2v8.9c0 2.2 3.4 3.8 7.9 3.8s7.9-1.6 7.9-3.8v-8.9c0-.6-.6-1.2-1.5-1.2zm-1.4 10.2c0 .4-1.9 1.4-5 1.4s-5-1-5-1.4v-7.7h9.9l.1 7.7z"/><path class="st1" d="M709.4 458.5v7.7c0 .4-1.9 1.4-5 1.4s-5-1-5-1.4v-7.7h10z"/><path class="st0" d="M644.6 456h-12.9c-.8 0-1.5.5-1.5 1.2v8.9c0 2.2 3.4 3.8 7.9 3.8s7.9-1.6 7.9-3.8v-8.9c0-.6-.6-1.2-1.4-1.2zm-1.5 10.2c0 .4-1.9 1.4-5 1.4s-5-1-5-1.4v-7.7h9.9l.1 7.7z"/><path class="st1" d="M643.1 458.5v7.7c0 .4-1.9 1.4-5 1.4s-5-1-5-1.4v-7.7h10z"/><path class="st0" d="M272.3 444.3c0 .3-.1.5-.3.7l-8.4 12.8c-.3.4-.8.6-1.3.6h-.4c-.1 0-.2-.1-.3-.1-.7-.3-1-1-.6-1.6l2-3.1 6.3-9.6.2-.3c.4-.6 1.3-.8 2-.5.5.3.8.7.8 1.1z"/><path class="st0" d="M272.3 348.6v95.7c0 .3-.1.5-.3.7-.3.3-.7.5-1.2.5-.8 0-1.5-.5-1.5-1.2v-95.7c0-.7.6-1.2 1.5-1.2.8 0 1.5.6 1.5 1.2z"/><path class="st0" d="M270.8 347.4c.8 0 1.5.5 1.5 1.2v1.2h339v-1.2c0-.7.7-1.2 1.5-1.2h-342zm451.1-32.8c0-.1-.1-.1-.1-.2l-.1-.1c-.3-.3-.7-.5-1.2-.5H163.1c-.5 0-1 .2-1.2.5l-.1.1c0 .1-.1.1-.1.2s-.1.2-.1.3v142.4c0 .7.7 1.2 1.5 1.2H262c.6-.1 1.1-.6 1.1-1.2V349.8h357.5v107.4c0 .5.5 1 1.1 1.2h98.9c.8 0 1.5-.5 1.5-1.2V314.9c-.1-.1-.1-.2-.2-.3zM719.1 456h-95.6V348.6c0-.7-.7-1.2-1.5-1.2H261.6c-.8 0-1.5.5-1.5 1.2V456h-95.6V316.1H719V456zM270.8 347.4c.8 0 1.5.5 1.5 1.2v1.2h339v-1.2c0-.7.7-1.2 1.5-1.2h-342z"/><path class="st1" d="M269.4 349.8V444l-6.3 9.6V349.8z"/><path class="st1" d="M164.6 316.1V456h95.6V348.6c0-.7.7-1.2 1.5-1.2H622c.8 0 1.5.5 1.5 1.2V456h95.6V316.1H164.6zm88.5 132.4c0 .7-.7 1.2-1.5 1.2h-79.1c-.8 0-1.5-.5-1.5-1.2v-99.9c0-.7.7-1.2 1.5-1.2h79.1c.8 0 1.5.5 1.5 1.2v99.9zm264.7-108.6c0 .7-.7 1.2-1.5 1.2h-149c-.8 0-1.5-.5-1.5-1.2v-16.2c0-.7.6-1.2 1.5-1.2h149c.8 0 1.5.5 1.5 1.2v16.2zm194.5 108.6c0 .7-.7 1.2-1.5 1.2h-79.1c-.8 0-1.5-.5-1.5-1.2v-99.9c0-.7.7-1.2 1.5-1.2h79.1c.8 0 1.5.5 1.5 1.2v99.9z"/><path class="st0" d="M622 458.3c-.1 0-.2.1-.3.1h-.3c-.5 0-1-.2-1.3-.6l-8.4-12.8s-.1-.1-.1-.2-.1-.1-.1-.2v-.3c0-.4.3-.8.8-1.1.7-.3 1.6-.1 2 .5l.2.3 6.3 9.6 2 3.1c.2.6-.1 1.3-.8 1.6z"/><path class="st1" d="M620.5 349.8v103.8l-6.2-9.6v-94.2z"/><path class="st0" d="M614.3 348.6v95.7c0 .7-.7 1.2-1.5 1.2-.5 0-1-.2-1.2-.5 0 0-.1-.1-.1-.2s-.1-.1-.1-.2v-96c0-.7.7-1.2 1.5-1.2.7 0 1.4.6 1.4 1.2zM516.3 322.5h-149c-.8 0-1.5.5-1.5 1.2v16.2c0 .7.6 1.2 1.5 1.2h149c.8 0 1.5-.5 1.5-1.2v-16.2c0-.7-.7-1.2-1.5-1.2zm-1.5 16.2h-146v-13.8h146v13.8z"/><path class="st1" d="M368.8 324.9v13.8h146v-13.8h-146zm80.4 8.1h-14.8c-.8 0-1.5-.5-1.5-1.2s.7-1.2 1.5-1.2h14.8c.8 0 1.5.5 1.5 1.2 0 .6-.7 1.2-1.5 1.2z"/><path class="st0" d="M251.7 347.4h-79.1c-.8 0-1.5.5-1.5 1.2v99.9c0 .7.7 1.2 1.5 1.2h79.1c.8 0 1.5-.5 1.5-1.2v-99.9c-.1-.6-.7-1.2-1.5-1.2zm-1.5 99.9H174v-97.5h76.2v97.5z"/><path class="st1" d="M174 399.8v47.5h76.2v-47.5H174zm45.5 6.5h-14.8c-.8 0-1.5-.5-1.5-1.2s.6-1.2 1.5-1.2h14.8c.8 0 1.5.5 1.5 1.2 0 .6-.7 1.2-1.5 1.2zM174 349.8v47.5h76.2v-47.5H174zm45.5 6.5h-14.8c-.8 0-1.5-.5-1.5-1.2s.6-1.2 1.5-1.2h14.8c.8 0 1.5.5 1.5 1.2s-.7 1.2-1.5 1.2z"/><g><path class="st0" d="M710.8 347.4h-79.1c-.8 0-1.5.5-1.5 1.2v99.9c0 .7.7 1.2 1.5 1.2h79.1c.8 0 1.5-.5 1.5-1.2v-99.9c0-.6-.6-1.2-1.5-1.2zm-1.4 99.9h-76.2v-97.5h76.2v97.5z"/><path class="st1" d="M633.2 399.8v47.5h76.2v-47.5h-76.2zm45.5 6.5h-14.8c-.8 0-1.5-.5-1.5-1.2s.7-1.2 1.5-1.2h14.8c.8 0 1.5.5 1.5 1.2 0 .6-.7 1.2-1.5 1.2zM633.2 349.8v47.5h76.2v-47.5h-76.2zm45.5 6.5h-14.8c-.8 0-1.5-.5-1.5-1.2s.7-1.2 1.5-1.2h14.8c.8 0 1.5.5 1.5 1.2s-.7 1.2-1.5 1.2z"/></g><g><path class="st0" d="M253.1 398.6c0 .7-.7 1.2-1.5 1.2h-79.1c-.8 0-1.5-.5-1.5-1.2s.7-1.2 1.5-1.2h79.1c.9 0 1.5.5 1.5 1.2z"/></g><g><path class="st0" d="M712.3 398.6c0 .7-.7 1.2-1.5 1.2h-79.1c-.8 0-1.5-.5-1.5-1.2s.7-1.2 1.5-1.2h79.1c.9 0 1.5.5 1.5 1.2z"/></g><g><path class="st0" d="M221 355.1c0 .7-.7 1.2-1.5 1.2h-14.8c-.8 0-1.5-.5-1.5-1.2s.6-1.2 1.5-1.2h14.8c.8 0 1.5.6 1.5 1.2z"/></g><g><path class="st0" d="M450.7 331.8c0 .7-.7 1.2-1.5 1.2h-14.8c-.8 0-1.5-.5-1.5-1.2s.7-1.2 1.5-1.2h14.8c.8-.1 1.5.5 1.5 1.2z"/></g><g><path class="st0" d="M221 405.1c0 .7-.7 1.2-1.5 1.2h-14.8c-.8 0-1.5-.5-1.5-1.2s.6-1.2 1.5-1.2h14.8c.8 0 1.5.5 1.5 1.2z"/></g><g><path class="st0" d="M680.2 355.1c0 .7-.7 1.2-1.5 1.2h-14.8c-.8 0-1.5-.5-1.5-1.2s.7-1.2 1.5-1.2h14.8c.8 0 1.5.6 1.5 1.2z"/></g><g><path class="st0" d="M680.2 405.1c0 .7-.7 1.2-1.5 1.2h-14.8c-.8 0-1.5-.5-1.5-1.2s.7-1.2 1.5-1.2h14.8c.8 0 1.5.5 1.5 1.2z"/></g><g><path class="st1" d="M272.3 349.8h339v19.6h-339z"/><path class="st0" d="M614.3 370.6c0 .7-.7 1.2-1.5 1.2h-342c-.8 0-1.5-.5-1.5-1.2s.6-1.2 1.5-1.2h342c.8 0 1.5.6 1.5 1.2z"/></g></g><g id="Square_Clock_1_"><path class="st1" d="M131.1 143H200v56.2h-68.9z"/><path class="st2" d="M137.8 148.5h55.6v45.3h-55.6z"/><path class="st3" d="M165.5 172.4c-.8 0-1.5-.5-1.5-1.2v-19.4c0-.7.7-1.2 1.5-1.2s1.5.5 1.5 1.2v19.4c0 .6-.7 1.2-1.5 1.2z"/><path class="st3" d="M165.5 172.4c-.4 0-.8-.1-1-.4-.6-.5-.6-1.2 0-1.7l10.4-8.5c.6-.5 1.5-.5 2.1 0 .6.5.6 1.2 0 1.7l-10.4 8.5c-.3.2-.7.4-1.1.4z"/><path class="st3" d="M200 200.5h-68.9c-.8 0-1.5-.5-1.5-1.2V143c0-.7.7-1.2 1.5-1.2H200c.8 0 1.5.5 1.5 1.2v56.2c-.1.7-.7 1.3-1.5 1.3zm-67.4-2.4h66v-53.8h-66v53.8z"/></g><g id="Cieling_Lamps_1_"><path class="st4" d="M524.5 143.1h-38.4l4.4-24.2h29.6z"/><path class="st3" d="M505.3 120.1c-.8 0-1.5-.5-1.5-1.2V43.7c0-.7.7-1.2 1.5-1.2s1.5.5 1.5 1.2v75.2c0 .7-.7 1.2-1.5 1.2z"/><path class="st3" d="M524.5 144.3h-38.4c-.4 0-.8-.1-1.1-.4-.3-.3-.4-.6-.3-1l4.4-24.2c.1-.6.7-1 1.5-1h29.6c.7 0 1.3.4 1.5 1l4.4 24.2c.1.4-.1.7-.3 1-.5.2-.9.4-1.3.4zm-36.7-2.4h35l-4-21.8h-27.1l-3.9 21.8z"/><path class="st3" d="M508.5 120.1H502c-.8 0-1.5-.5-1.5-1.2 0-2.1 2.1-3.9 4.7-3.9s4.7 1.7 4.7 3.9c.1.7-.5 1.2-1.4 1.2zm-4.2-2.4h2c-.6-.3-1.5-.3-2 0z"/><g><path class="st5" d="M546.5 102.3h-28.9l3.3-18.2h22.3z"/><path class="st3" d="M546.5 103.4h-28.9c-.4 0-.8-.2-1.1-.4-.3-.3-.4-.6-.3-1l3.3-18.2c.1-.6.7-1 1.5-1h22.2c.7 0 1.3.4 1.5 1L548 102c.1.3-.1.7-.3 1-.4.3-.8.4-1.2.4zm-27.2-2.3h25.5l-2.9-15.8h-19.7l-2.9 15.8z"/><path class="st3" d="M532 85.3c-.8 0-1.5-.5-1.5-1.2V43.7c0-.7.7-1.2 1.5-1.2s1.5.5 1.5 1.2v40.4c0 .7-.7 1.2-1.5 1.2z"/><path class="st3" d="M535.3 85.3h-6.5c-.8 0-1.5-.5-1.5-1.2 0-2.1 2.1-3.9 4.7-3.9s4.7 1.7 4.7 3.9c.1.7-.6 1.2-1.4 1.2zm-4.3-2.4h2c-.5-.3-1.4-.3-2 0z"/></g></g><g id="Grass_2_1_"><path class="st6" d="M549.6 292.6c-.7 0-1.3-.4-1.4-.9l-2.4-8.4c-.2-.6.3-1.3 1.1-1.4.8-.2 1.6.3 1.8.9l2.4 8.4c.2.6-.3 1.3-1.1 1.4h-.4zM592.1 292.6h-.3c-.8-.1-1.3-.8-1.1-1.4l2.4-8.4c.2-.6 1-1 1.8-.9.8.1 1.3.8 1.1 1.4l-2.4 8.4c-.2.5-.8.9-1.5.9zM553.5 292.6c-.8 0-1.4-.5-1.5-1.1l-.8-11c0-.7.6-1.2 1.4-1.3.8 0 1.5.5 1.6 1.1l.8 11c.1.7-.6 1.3-1.5 1.3.1 0 .1 0 0 0zM556.7 292.6c-.9 0-1.5-.6-1.5-1.3l.5-9.2c0-.7.7-1.2 1.5-1.1.8 0 1.4.6 1.4 1.3l-.5 9.2c.1.6-.6 1.1-1.4 1.1zM563.2 292.6c-.7 0-1.4-.5-1.5-1.1l-1.7-12.4c-.1-.7.5-1.3 1.3-1.3.8-.1 1.5.4 1.6 1.1l1.7 12.4c.1.7-.5 1.3-1.3 1.3h-.1zM571.4 292.4c-.8 0-1.4-.5-1.5-1.1l-1.1-11.9c-.1-.7.5-1.2 1.4-1.3.8 0 1.5.5 1.6 1.1l1.1 11.9c.1.7-.5 1.2-1.4 1.3h-.1zM575 292.6c-.8 0-1.5-.5-1.5-1.2l-.1-8c0-.7.6-1.2 1.5-1.2.8 0 1.5.5 1.5 1.2l.1 8c0 .7-.6 1.2-1.5 1.2.1 0 .1 0 0 0zM578.2 292.6h-.2c-.8-.1-1.4-.7-1.3-1.3l1.4-11c.1-.7.8-1.1 1.6-1.1.8.1 1.4.7 1.3 1.3l-1.4 11c0 .6-.7 1.1-1.4 1.1zM582.9 292.6c-.2 0-.3 0-.5-.1-.8-.2-1.2-.9-.9-1.5l4.5-11c.3-.6 1.1-1 1.9-.8.8.2 1.2.9.9 1.5l-4.5 11c-.2.6-.8.9-1.4.9z"/><path class="st6" d="M563.3 292.6c-.2 0-.3 0-.5-.1-.8-.2-1.2-.9-.9-1.5l3.8-9.3c.3-.6 1.1-1 1.9-.8.8.2 1.2.9.9 1.5l-3.8 9.3c-.2.6-.7.9-1.4.9zM587.7 292.4c-.7 0-1.3-.4-1.4-1l-2.5-10.6c-.2-.6.4-1.3 1.2-1.4.8-.1 1.6.3 1.7 1l2.5 10.6c.2.6-.4 1.3-1.2 1.4h-.3z"/><path class="st1" d="M545.5 291.4h50.4v14.4h-50.4z"/><path class="st3" d="M595.9 307h-50.4c-.8 0-1.5-.5-1.5-1.2v-14.4c0-.7.7-1.2 1.5-1.2h50.4c.8 0 1.5.5 1.5 1.2v14.4c0 .7-.7 1.2-1.5 1.2zm-48.9-2.4h47.4v-12H547v12z"/></g><g id="Shelf_1_"><path class="st0" d="M432 168.1H259.6c-.8 0-1.5-.5-1.5-1.2v-5.7c0-.7.7-1.2 1.5-1.2H432c.8 0 1.5.5 1.5 1.2v5.7c-.1.7-.7 1.2-1.5 1.2zm-170.9-2.4h169.4v-3.3H261.1v3.3z"/><path class="st3" d="M266.6 173.8c-.8 0-1.5-.5-1.5-1.2v-5.7c0-.7.7-1.2 1.5-1.2s1.5.5 1.5 1.2v5.7c0 .7-.7 1.2-1.5 1.2zM425 173.8c-.8 0-1.5-.5-1.5-1.2v-5.7c0-.7.7-1.2 1.5-1.2s1.5.5 1.5 1.2v5.7c0 .7-.7 1.2-1.5 1.2z"/><path class="st1" d="M259.6 161.2h172.3v5.7H259.6z"/><path class="st3" d="M432 168.1H259.6c-.8 0-1.5-.5-1.5-1.2v-5.7c0-.7.7-1.2 1.5-1.2H432c.8 0 1.5.5 1.5 1.2v5.7c-.1.7-.7 1.2-1.5 1.2zm-170.9-2.4h169.4v-3.3H261.1v3.3z"/></g><g id="Calendar_1_"><path class="st1" d="M469.7 167.5h93.2v58.1h-93.2z"/><path class="st2" d="M488.7 184.3h-11c-.8 0-1.5-.5-1.5-1.2v-9c0-.7.7-1.2 1.5-1.2h11c.8 0 1.5.5 1.5 1.2v9c0 .7-.7 1.2-1.5 1.2zm-9.5-2.4h8.1v-6.6h-8.1v6.6z"/><path class="st2" d="M488.7 193.3h-11c-.8 0-1.5-.5-1.5-1.2v-9c0-.7.7-1.2 1.5-1.2h11c.8 0 1.5.5 1.5 1.2v9c0 .6-.7 1.2-1.5 1.2zm-9.5-2.4h8.1v-6.6h-8.1v6.6z"/><path class="st2" d="M488.7 202.3h-11c-.8 0-1.5-.5-1.5-1.2v-9c0-.7.7-1.2 1.5-1.2h11c.8 0 1.5.5 1.5 1.2v9c0 .6-.7 1.2-1.5 1.2zm-9.5-2.4h8.1v-6.6h-8.1v6.6z"/><path class="st2" d="M488.7 211.3h-11c-.8 0-1.5-.5-1.5-1.2v-9c0-.7.7-1.2 1.5-1.2h11c.8 0 1.5.5 1.5 1.2v9c0 .6-.7 1.2-1.5 1.2zm-9.5-2.4h8.1v-6.6h-8.1v6.6z"/><path class="st2" d="M488.7 220.3h-11c-.8 0-1.5-.5-1.5-1.2v-9c0-.7.7-1.2 1.5-1.2h11c.8 0 1.5.5 1.5 1.2v9c0 .6-.7 1.2-1.5 1.2zm-9.5-2.4h8.1v-6.6h-8.1v6.6zM499.7 184.3h-11c-.8 0-1.5-.5-1.5-1.2v-9c0-.7.7-1.2 1.5-1.2h11c.8 0 1.5.5 1.5 1.2v9c0 .7-.7 1.2-1.5 1.2zm-9.5-2.4h8.1v-6.6h-8.1v6.6z"/><path class="st2" d="M510.8 184.3h-11c-.8 0-1.5-.5-1.5-1.2v-9c0-.7.7-1.2 1.5-1.2h11c.8 0 1.5.5 1.5 1.2v9c-.1.7-.7 1.2-1.5 1.2zm-9.6-2.4h8.1v-6.6h-8.1v6.6z"/><path class="st2" d="M521.8 184.3h-11c-.8 0-1.5-.5-1.5-1.2v-9c0-.7.7-1.2 1.5-1.2h11c.8 0 1.5.5 1.5 1.2v9c0 .7-.7 1.2-1.5 1.2zm-9.6-2.4h8.1v-6.6h-8.1v6.6z"/><path class="st2" d="M532.8 184.3h-11c-.8 0-1.5-.5-1.5-1.2v-9c0-.7.7-1.2 1.5-1.2h11c.8 0 1.5.5 1.5 1.2v9c0 .7-.7 1.2-1.5 1.2zm-9.5-2.4h8.1v-6.6h-8.1v6.6z"/><path class="st2" d="M543.8 184.3h-11c-.8 0-1.5-.5-1.5-1.2v-9c0-.7.7-1.2 1.5-1.2h11c.8 0 1.5.5 1.5 1.2v9c0 .7-.7 1.2-1.5 1.2zm-9.5-2.4h8.1v-6.6h-8.1v6.6z"/><path class="st2" d="M554.8 184.3h-11c-.8 0-1.5-.5-1.5-1.2v-9c0-.7.7-1.2 1.5-1.2h11c.8 0 1.5.5 1.5 1.2v9c0 .7-.7 1.2-1.5 1.2zm-9.5-2.4h8.1v-6.6h-8.1v6.6z"/><path class="st2" d="M554.8 193.3h-11c-.8 0-1.5-.5-1.5-1.2v-9c0-.7.7-1.2 1.5-1.2h11c.8 0 1.5.5 1.5 1.2v9c0 .6-.7 1.2-1.5 1.2zm-9.5-2.4h8.1v-6.6h-8.1v6.6zM532.8 193.3h-11c-.8 0-1.5-.5-1.5-1.2v-9c0-.7.7-1.2 1.5-1.2h11c.8 0 1.5.5 1.5 1.2v9c0 .6-.7 1.2-1.5 1.2zm-9.5-2.4h8.1v-6.6h-8.1v6.6z"/><path class="st2" d="M521.8 193.3h-11c-.8 0-1.5-.5-1.5-1.2v-9c0-.7.7-1.2 1.5-1.2h11c.8 0 1.5.5 1.5 1.2v9c0 .6-.7 1.2-1.5 1.2zm-9.6-2.4h8.1v-6.6h-8.1v6.6zM499.7 193.3h-11c-.8 0-1.5-.5-1.5-1.2v-9c0-.7.7-1.2 1.5-1.2h11c.8 0 1.5.5 1.5 1.2v9c0 .6-.7 1.2-1.5 1.2zm-9.5-2.4h8.1v-6.6h-8.1v6.6zM554.8 202.3h-11c-.8 0-1.5-.5-1.5-1.2v-9c0-.7.7-1.2 1.5-1.2h11c.8 0 1.5.5 1.5 1.2v9c0 .6-.7 1.2-1.5 1.2zm-9.5-2.4h8.1v-6.6h-8.1v6.6z"/><path class="st2" d="M554.8 211.3h-11c-.8 0-1.5-.5-1.5-1.2v-9c0-.7.7-1.2 1.5-1.2h11c.8 0 1.5.5 1.5 1.2v9c0 .6-.7 1.2-1.5 1.2zm-9.5-2.4h8.1v-6.6h-8.1v6.6zM499.7 211.3h-11c-.8 0-1.5-.5-1.5-1.2v-9c0-.7.7-1.2 1.5-1.2h11c.8 0 1.5.5 1.5 1.2v9c0 .6-.7 1.2-1.5 1.2zm-9.5-2.4h8.1v-6.6h-8.1v6.6z"/><path class="st2" d="M499.7 220.3h-11c-.8 0-1.5-.5-1.5-1.2v-9c0-.7.7-1.2 1.5-1.2h11c.8 0 1.5.5 1.5 1.2v9c0 .6-.7 1.2-1.5 1.2zm-9.5-2.4h8.1v-6.6h-8.1v6.6z"/><path class="st2" d="M510.8 220.3h-11c-.8 0-1.5-.5-1.5-1.2v-9c0-.7.7-1.2 1.5-1.2h11c.8 0 1.5.5 1.5 1.2v9c-.1.6-.7 1.2-1.5 1.2zm-9.6-2.4h8.1v-6.6h-8.1v6.6z"/><path class="st2" d="M521.8 220.3h-11c-.8 0-1.5-.5-1.5-1.2v-9c0-.7.7-1.2 1.5-1.2h11c.8 0 1.5.5 1.5 1.2v9c0 .6-.7 1.2-1.5 1.2zm-9.6-2.4h8.1v-6.6h-8.1v6.6z"/><path class="st2" d="M532.8 211.3h-11c-.8 0-1.5-.5-1.5-1.2v-9c0-.7.7-1.2 1.5-1.2h11c.8 0 1.5.5 1.5 1.2v9c0 .6-.7 1.2-1.5 1.2zm-9.5-2.4h8.1v-6.6h-8.1v6.6z"/><path class="st2" d="M521.8 211.3h-11c-.8 0-1.5-.5-1.5-1.2v-9c0-.7.7-1.2 1.5-1.2h11c.8 0 1.5.5 1.5 1.2v9c0 .6-.7 1.2-1.5 1.2zm-9.6-2.4h8.1v-6.6h-8.1v6.6zM499.7 202.3h-11c-.8 0-1.5-.5-1.5-1.2v-9c0-.7.7-1.2 1.5-1.2h11c.8 0 1.5.5 1.5 1.2v9c0 .6-.7 1.2-1.5 1.2zm-9.5-2.4h8.1v-6.6h-8.1v6.6zM543.8 193.3h-11c-.8 0-1.5-.5-1.5-1.2v-9c0-.7.7-1.2 1.5-1.2h11c.8 0 1.5.5 1.5 1.2v9c0 .6-.7 1.2-1.5 1.2zm-9.5-2.4h8.1v-6.6h-8.1v6.6z"/><path class="st2" d="M543.8 202.3h-11c-.8 0-1.5-.5-1.5-1.2v-9c0-.7.7-1.2 1.5-1.2h11c.8 0 1.5.5 1.5 1.2v9c0 .6-.7 1.2-1.5 1.2zm-9.5-2.4h8.1v-6.6h-8.1v6.6z"/><path class="st2" d="M543.8 211.3h-11c-.8 0-1.5-.5-1.5-1.2v-9c0-.7.7-1.2 1.5-1.2h11c.8 0 1.5.5 1.5 1.2v9c0 .6-.7 1.2-1.5 1.2zm-9.5-2.4h8.1v-6.6h-8.1v6.6z"/><path class="st2" d="M532.8 202.3h-11c-.8 0-1.5-.5-1.5-1.2v-9c0-.7.7-1.2 1.5-1.2h11c.8 0 1.5.5 1.5 1.2v9c0 .6-.7 1.2-1.5 1.2zm-9.5-2.4h8.1v-6.6h-8.1v6.6z"/><path class="st2" d="M521.8 202.3h-11c-.8 0-1.5-.5-1.5-1.2v-9c0-.7.7-1.2 1.5-1.2h11c.8 0 1.5.5 1.5 1.2v9c0 .6-.7 1.2-1.5 1.2zm-9.6-2.4h8.1v-6.6h-8.1v6.6z"/><path class="st2" d="M510.8 193.3h-11c-.8 0-1.5-.5-1.5-1.2v-9c0-.7.7-1.2 1.5-1.2h11c.8 0 1.5.5 1.5 1.2v9c-.1.6-.7 1.2-1.5 1.2zm-9.6-2.4h8.1v-6.6h-8.1v6.6z"/><path class="st2" d="M510.8 202.3h-11c-.8 0-1.5-.5-1.5-1.2v-9c0-.7.7-1.2 1.5-1.2h11c.8 0 1.5.5 1.5 1.2v9c-.1.6-.7 1.2-1.5 1.2zm-9.6-2.4h8.1v-6.6h-8.1v6.6z"/><path class="st2" d="M510.8 211.3h-11c-.8 0-1.5-.5-1.5-1.2v-9c0-.7.7-1.2 1.5-1.2h11c.8 0 1.5.5 1.5 1.2v9c-.1.6-.7 1.2-1.5 1.2zm-9.6-2.4h8.1v-6.6h-8.1v6.6z"/><g><path class="st7" d="M469.7 157.2h93.2v10.4h-93.2z"/></g><g><path class="st3" d="M562.9 226.8h-93.2c-.8 0-1.5-.5-1.5-1.2v-68.5c0-.7.7-1.2 1.5-1.2h93.2c.8 0 1.5.5 1.5 1.2v68.5c-.1.7-.7 1.2-1.5 1.2zm-91.8-2.4h90.3v-66.1h-90.3v66.1z"/></g></g><g id="Paper_Holder_1_"><path class="st2" d="M607.4 290.8h67.2v5.7h-67.2zM607.4 298.8h67.2v5.7h-67.2z"/><path class="st3" d="M607.4 305.7c-.8 0-1.5-.5-1.5-1.2v-5.7c0-.7.7-1.2 1.5-1.2s1.5.5 1.5 1.2v5.7c-.1.7-.7 1.2-1.5 1.2z"/><path class="st3" d="M610.3 308.1c-.8 0-1.5-.5-1.5-1.2v-2.4c0-.7.7-1.2 1.5-1.2s1.5.5 1.5 1.2v2.4c0 .7-.7 1.2-1.5 1.2z"/><path class="st3" d="M674.5 305.7h-67.2c-.8 0-1.5-.5-1.5-1.2s.7-1.2 1.5-1.2h67.2c.8 0 1.5.5 1.5 1.2s-.7 1.2-1.5 1.2z"/><path class="st3" d="M674.5 305.7c-.8 0-1.5-.5-1.5-1.2v-5.7c0-.7.7-1.2 1.5-1.2s1.5.5 1.5 1.2v5.7c0 .7-.7 1.2-1.5 1.2z"/><path class="st3" d="M671.6 308.1c-.8 0-1.5-.5-1.5-1.2v-2.4c0-.7.7-1.2 1.5-1.2s1.5.5 1.5 1.2v2.4c-.1.7-.7 1.2-1.5 1.2zM607.4 297.6c-.8 0-1.5-.5-1.5-1.2v-5.7c0-.7.7-1.2 1.5-1.2s1.5.5 1.5 1.2v5.7c-.1.7-.7 1.2-1.5 1.2z"/><path class="st3" d="M674.5 297.6h-67.2c-.8 0-1.5-.5-1.5-1.2s.7-1.2 1.5-1.2h67.2c.8 0 1.5.5 1.5 1.2s-.7 1.2-1.5 1.2z"/><path class="st3" d="M674.5 297.6c-.8 0-1.5-.5-1.5-1.2v-5.7c0-.7.7-1.2 1.5-1.2s1.5.5 1.5 1.2v5.7c0 .7-.7 1.2-1.5 1.2zM610.3 300c-.8 0-1.5-.5-1.5-1.2v-2.4c0-.7.7-1.2 1.5-1.2s1.5.5 1.5 1.2v2.4c0 .7-.7 1.2-1.5 1.2z"/><path class="st3" d="M671.6 300c-.8 0-1.5-.5-1.5-1.2v-2.4c0-.7.7-1.2 1.5-1.2s1.5.5 1.5 1.2v2.4c-.1.7-.7 1.2-1.5 1.2z"/><g><path class="st1" d="M670.9 294.8H611c-.8 0-1.5-.5-1.5-1.2s.7-1.2 1.5-1.2h59.9c.8 0 1.5.5 1.5 1.2-.1.7-.7 1.2-1.5 1.2z"/></g><g><path class="st1" d="M670.9 302.9H611c-.8 0-1.5-.5-1.5-1.2s.7-1.2 1.5-1.2h59.9c.8 0 1.5.5 1.5 1.2s-.7 1.2-1.5 1.2z"/></g></g><g id="Pen_Holder_1_"><path class="st1" d="M185.4 283.7H206v24.1h-20.6z"/><path class="st4" d="M197.8 284.9c-.2 0-.4 0-.6-.1-.8-.3-1.1-1-.8-1.6l5.6-11.4c.3-.6 1.2-.9 1.9-.7.8.3 1.1 1 .8 1.6l-5.6 11.4c-.2.5-.7.8-1.3.8z"/><path class="st5" d="M189.6 284.9c-.6 0-1.1-.3-1.4-.8l-5.5-11.4c-.3-.6.1-1.3.8-1.6.8-.2 1.6.1 1.9.7l5.5 11.4c.3.6-.1 1.3-.8 1.6-.2.1-.4.1-.5.1z"/><path class="st7" d="M201.9 284.9c-.3 0-.5 0-.7-.2-.7-.3-.9-1.1-.5-1.6l8.8-12.4c.4-.6 1.3-.8 2-.4s.9 1.1.5 1.6l-8.8 12.4c-.3.4-.8.6-1.3.6z"/><path class="st3" d="M206 309h-20.6c-.8 0-1.5-.5-1.5-1.2v-24.1c0-.7.7-1.2 1.5-1.2H206c.8 0 1.5.5 1.5 1.2v24.1c0 .7-.7 1.2-1.5 1.2zm-19.1-2.4h17.7v-21.7h-17.7v21.7z"/></g><g id="Bonsai_1_"><path class="st6" d="M387.8 152.8c-.8 0-1.5-.5-1.5-1.2 0-4.4 4.4-8 9.8-8 .8 0 1.5.5 1.5 1.2s-.7 1.2-1.5 1.2c-3.8 0-6.9 2.5-6.9 5.6.1.7-.6 1.2-1.4 1.2z"/><path class="st6" d="M396.2 146c-.8 0-1.5-.5-1.5-1.2s.7-1.2 1.5-1.2c3.8 0 6.9-2.5 6.9-5.6 0-.7.7-1.2 1.5-1.2s1.5.5 1.5 1.2c-.1 4.4-4.5 8-9.9 8z"/><path class="st1" d="M372.3 151.6h48.2v7.1h-48.2z"/><path class="st3" d="M420.5 159.9h-48.2c-.8 0-1.5-.5-1.5-1.2v-7.1c0-.7.7-1.2 1.5-1.2h48.2c.8 0 1.5.5 1.5 1.2v7.1c0 .7-.7 1.2-1.5 1.2zm-46.7-2.4H419v-4.7h-45.3v4.7z"/><path class="st6" d="M415.5 135.3c0 1.5-1.5 2.7-3.3 2.7h-29.9c-1.8 0-3.3-1.2-3.3-2.7 0-1.5 1.5-2.7 3.3-2.7h11.2c-1.8 0-3.3-1.2-3.3-2.7 0-1.5 1.5-2.7 3.3-2.7h12.1c1.8 0 3.3 1.2 3.3 2.7 0 1.5-1.5 2.7-3.3 2.7h6.5c2 0 3.4 1.2 3.4 2.7z"/><path class="st6" d="M412.3 139.1h-29.9c-2.6 0-4.7-1.7-4.7-3.9 0-2.1 2.1-3.9 4.7-3.9h6.8c-.2-.4-.4-.9-.4-1.5 0-2.1 2.1-3.9 4.7-3.9h12.1c2.6 0 4.7 1.7 4.7 3.9 0 .5-.1 1-.4 1.5h2.1c2.6 0 4.7 1.7 4.7 3.9.3 2.2-1.8 3.9-4.4 3.9zm-29.9-5.3c-1 0-1.8.7-1.8 1.5s.8 1.5 1.8 1.5h29.9c1 0 1.8-.7 1.8-1.5s-.8-1.5-1.8-1.5h-6.5c-.8 0-1.5-.5-1.5-1.2s.7-1.2 1.5-1.2c1 0 1.8-.7 1.8-1.5s-.8-1.5-1.8-1.5h-12.1c-1 0-1.8.7-1.8 1.5s.8 1.5 1.8 1.5c.8 0 1.5.5 1.5 1.2s-.7 1.2-1.5 1.2h-11.3z"/><g><path class="st6" d="M405.7 133.8h-12.1c-.8 0-1.5-.5-1.5-1.2s.7-1.2 1.5-1.2h12.1c.8 0 1.5.5 1.5 1.2s-.7 1.2-1.5 1.2z"/></g></g><g id="Newton_x27_s_Cradle_1_"><path class="st1" d="M283.8 154.8h62.3v3.7h-62.3z"/><path class="st3" d="M301.7 142c-.8 0-1.5-.5-1.5-1.2v-22.2c0-.7.7-1.2 1.5-1.2s1.5.5 1.5 1.2v22.2c-.1.6-.7 1.2-1.5 1.2zM310.5 142c-.8 0-1.5-.5-1.5-1.2v-22.2c0-.7.7-1.2 1.5-1.2s1.5.5 1.5 1.2v22.2c0 .6-.7 1.2-1.5 1.2zM319.4 142c-.8 0-1.5-.5-1.5-1.2v-22.2c0-.7.7-1.2 1.5-1.2s1.5.5 1.5 1.2v22.2c-.1.6-.7 1.2-1.5 1.2z"/><ellipse class="st2" cx="301.7" cy="143.8" rx="4.4" ry="3.6"/><ellipse class="st2" cx="310.5" cy="143.8" rx="4.4" ry="3.6"/><ellipse class="st2" cx="319.4" cy="143.8" rx="4.4" ry="3.6"/><path class="st3" d="M338.8 140.2c-.6 0-1.1-.3-1.4-.7l-10.6-20.4c-.3-.6 0-1.3.8-1.6.8-.3 1.6 0 1.9.6l10.6 20.4c.3.6 0 1.3-.8 1.6-.1.1-.3.1-.5.1z"/><ellipse class="st2" cx="340.3" cy="141.8" rx="4.4" ry="3.6"/><path class="st3" d="M340.9 154.9c-.8 0-1.5-.5-1.5-1.2v-33.9h-48.9v33.9c0 .7-.7 1.2-1.5 1.2s-1.5-.5-1.5-1.2v-35.1c0-.7.7-1.2 1.5-1.2h51.9c.8 0 1.5.5 1.5 1.2v35.1c-.1.7-.7 1.2-1.5 1.2z"/><path class="st3" d="M346.5 160.9h-63.2c-.8 0-1.5-.5-1.5-1.2v-6c0-.7.7-1.2 1.5-1.2h63.2c.8 0 1.5.5 1.5 1.2v6c0 .7-.7 1.2-1.5 1.2zm-61.7-2.4H345v-3.6h-60.2v3.6z"/></g><g id="Desktop_1_"><path class="st2" d="M275.7 276.8h140.8v15.5H275.7z"/><path class="st1" d="M416.5 293.5H275.7c-.8 0-1.5-.5-1.5-1.2v-15.5c0-.7.7-1.2 1.5-1.2h140.8c.8 0 1.5.5 1.5 1.2v15.5c0 .7-.7 1.2-1.5 1.2zm-139.4-2.4H415V278H277.1v13.1z"/><path class="st3" d="M275.7 207.1h140.8v69.7H275.7z"/><path class="st3" d="M416.5 278H275.7c-.8 0-1.5-.5-1.5-1.2v-69.7c0-.7.7-1.2 1.5-1.2h140.8c.8 0 1.5.5 1.5 1.2v69.7c0 .7-.7 1.2-1.5 1.2zm-139.4-2.4H415v-67.3H277.1v67.3z"/><path fill="#59595a" d="M280.7 211.2h130.7v62.7H280.7z"/><path class="st3" d="M347.1 287H345c-1.2 0-2.2-1-2.2-2.2v-.9c0-1.2 1-2.2 2.2-2.2h2.1c1.2 0 2.2 1 2.2 2.2v.9c0 1.2-1 2.2-2.2 2.2z"/><path class="st2" d="M346.1 292.3h13.1l1.5 13.3h-29.2l1.5-13.3h13.1"/><path class="st3" d="M360.7 306.8h-29.2c-.4 0-.8-.1-1.1-.4s-.4-.6-.4-.9l1.5-13.3c.1-.6.7-1.1 1.5-1.1h26.3c.8 0 1.4.5 1.5 1.1l1.5 13.3c0 .3-.1.7-.4.9-.4.3-.8.4-1.2.4zm-27.6-2.4h26l-1.2-10.9h-23.6l-1.2 10.9z"/><g><path class="st3" d="M370.5 306.8h-48.9c-.8 0-1.5-.5-1.5-1.2s.7-1.2 1.5-1.2h48.9c.8 0 1.5.5 1.5 1.2s-.7 1.2-1.5 1.2z"/></g><g><path class="st3" d="M416.5 293.5H275.7c-.8 0-1.5-.5-1.5-1.2v-15.5c0-.7.7-1.2 1.5-1.2h140.8c.8 0 1.5.5 1.5 1.2v15.5c0 .7-.7 1.2-1.5 1.2zm-139.4-2.4H415V278H277.1v13.1z"/></g></g><g id="Keyboard__x2B__Mouse_1_"><path class="st3" d="M385.3 311.3h-79.8c-.8 0-1.5-.5-1.5-1.2s.7-1.2 1.5-1.2h79.8c.8 0 1.5.5 1.5 1.2s-.7 1.2-1.5 1.2z"/><path class="st1" d="M398.1 311.2c0-3.1 3.1-5.6 6.8-5.6s6.8 2.5 6.8 5.6h-13.6z"/><path class="st3" d="M411.8 312.4h-13.7c-.8 0-1.5-.5-1.5-1.2 0-3.7 3.7-6.8 8.3-6.8s8.3 3 8.3 6.8c.1.7-.6 1.2-1.4 1.2zm-12-2.4h10.3c-.6-1.8-2.7-3.2-5.2-3.2s-4.4 1.4-5.1 3.2z"/></g><g id="Outlet_1_"><path class="st1" d="M252.5 391.2h22v27.1h-22z"/><path class="st3" d="M274.5 419.5h-22c-.8 0-1.5-.5-1.5-1.2v-27.1c0-.7.7-1.2 1.5-1.2h22c.8 0 1.5.5 1.5 1.2v27.1c0 .7-.6 1.2-1.5 1.2zm-20.5-2.4h19.1v-24.7H254v24.7z"/><path class="st3" d="M260.7 402.6c-.8 0-1.5-.5-1.5-1.2V398c0-.7.7-1.2 1.5-1.2s1.5.5 1.5 1.2v3.4c0 .7-.7 1.2-1.5 1.2zM266.4 402.6c-.8 0-1.5-.5-1.5-1.2V398c0-.7.7-1.2 1.5-1.2s1.5.5 1.5 1.2v3.4c-.1.7-.7 1.2-1.5 1.2zM260.7 412.7c-.8 0-1.5-.5-1.5-1.2v-3.4c0-.7.7-1.2 1.5-1.2s1.5.5 1.5 1.2v3.4c0 .6-.7 1.2-1.5 1.2zM266.4 412.7c-.8 0-1.5-.5-1.5-1.2v-3.4c0-.7.7-1.2 1.5-1.2s1.5.5 1.5 1.2v3.4c-.1.6-.7 1.2-1.5 1.2z"/></g><g id="Wire_2_"><path class="st3" d="M272 400.3c20 0 36.2-13.3 36.2-29.6 0-.7-.7-1.2-1.5-1.2s-1.5.5-1.5 1.2c0 15-14.9 27.2-33.3 27.2-.8 0-1.5.5-1.5 1.2.1.6.8 1.2 1.6 1.2z"/><path class="st2" d="M260.7 396v6.1h7.5c2.1 0 3.8-1.4 3.8-3.1 0-1.7-1.7-3.1-3.8-3.1h-7.5z"/><path class="st3" d="M259.3 402.1V396c0-.7.7-1.2 1.5-1.2h7.5c2.9 0 5.2 1.9 5.2 4.3s-2.3 4.3-5.2 4.3h-7.5c-.9-.1-1.5-.6-1.5-1.3zm2.9-4.9v3.7h6c1.3 0 2.3-.8 2.3-1.9s-1-1.9-2.3-1.9l-6 .1z"/></g><g id="Waste_Basket_1_"><path class="st1" d="M572.9 413.3l-.1.3s0 .1-.1.1c0 .1-.1.1-.2.2-.6.6-2.2 1.1-4.4 1.5-5.1 1.1-14 1.8-24.1 1.8s-19-.7-24.1-1.8c-2.2-.5-3.8-1-4.4-1.5-.1-.1-.2-.1-.2-.2 0 0 0-.1-.1-.1l-.1-.3c0-2.2 12.9-3.9 28.8-3.9 16.1 0 29 1.7 29 3.9z"/><path class="st0" d="M544.1 418.4c-9.9 0-19-.7-24.5-1.8-3.5-.7-4.6-1.4-5.1-1.9-.1 0-.2-.2-.4-.4 0-.1-.1-.1-.1-.2s-.1-.1-.1-.2l-.1-.3v-.3c0-4.9 25.2-5.1 30.3-5.1s30.3.3 30.3 5.1v.3l-.1.3c0 .1-.1.2-.1.3l-.1.1c-.2.2-.3.4-.5.5-.5.4-1.6 1.1-5.1 1.9-5.4 1-14.6 1.7-24.4 1.7zm-27.1-5.1c.5.2 1.4.6 3.3 1 5.2 1.1 14.1 1.7 23.7 1.7s18.5-.6 23.7-1.7c2-.4 2.9-.8 3.3-1-2.2-1.2-12.2-2.7-27.1-2.7-14.7 0-24.7 1.5-26.9 2.7zm55.9 0z"/><path class="st3" d="M544.1 418.4c-9.9 0-19-.7-24.5-1.8-3.5-.7-4.6-1.4-5.1-1.9-.1 0-.2-.2-.4-.4 0-.1-.1-.1-.1-.2s-.1-.1-.1-.2l-.1-.3v-.3c0-4.9 25.2-5.1 30.3-5.1s30.3.3 30.3 5.1v.3l-.1.3c0 .1-.1.2-.1.3l-.1.1c-.2.2-.3.4-.5.5-.5.4-1.6 1.1-5.1 1.9-5.4 1-14.6 1.7-24.4 1.7zm-27.1-5.1c.5.2 1.4.6 3.3 1 5.2 1.1 14.1 1.7 23.7 1.7s18.5-.6 23.7-1.7c2-.4 2.9-.8 3.3-1-2.2-1.2-12.2-2.7-27.1-2.7-14.7 0-24.7 1.5-26.9 2.7zm55.9 0z"/><path class="st2" d="M568.2 415.4c-5.1 1.1-14 1.8-24.1 1.8s-19-.7-24.1-1.8c5.2-1.1 14-1.8 24.1-1.8 10 .1 18.9.8 24.1 1.8z"/><g><path class="st1" d="M565.7 458.6v.1c0 3.2-9.7 5.9-21.6 5.9s-21.6-2.6-21.6-5.9v-.1l-7.1-45c0 .1.1.1.2.2 2 1.9 14 3.3 28.5 3.3s26.4-1.5 28.5-3.3c.1-.1.2-.1.2-.2l-7.1 45z"/><path class="st3" d="M544.1 465.8c-11.5 0-23.1-2.4-23.1-7.1l-7-44.9c-.1-.6.3-1.1 1-1.3.7-.2 1.3.1 1.7.5 1.6 1.3 11.8 3 27.4 3 15.8 0 26-1.7 27.4-2.9.3-.5 1-.7 1.7-.5.7.2 1.1.7 1 1.3l-7 44.8v.1c0 4.5-11.7 7-23.1 7zM517.3 416l6.7 42.5v.1c0 2 7.8 4.7 20.2 4.7 12.2 0 20-2.7 20.1-4.6v-.3L571 416c-5.3 1.6-16.5 2.4-26.8 2.4-10.4 0-21.6-.7-26.9-2.4zm-.6-2.9zm54.8 0c-.1 0-.1 0 0 0-.1 0-.1 0 0 0zm-54.9-.1z"/></g></g><g id="Plant_2_1_"><path class="st6" d="M163.2 267.8s-.1 0 0 0c-.9 0-1.5-.6-1.5-1.3l3.2-48.6c0-.7.7-1.2 1.6-1.1.8 0 1.4.6 1.4 1.3l-3.2 48.6c-.1.6-.7 1.1-1.5 1.1z"/><path class="st6" d="M163.6 260.9c-.4 0-.8-.1-1.1-.4-.5-.5-.5-1.3.1-1.7l6.7-4.9c.6-.4 1.5-.4 2.1.1.5.5.5 1.3-.1 1.7l-6.7 4.9c-.2.2-.6.3-1 .3zM164.9 241.1c-.4 0-.8-.1-1.1-.4l-6.9-6.3c-.5-.5-.5-1.3.1-1.7.6-.4 1.5-.4 2.1.1l6.9 6.3c.5.5.5 1.3-.1 1.7-.3.2-.6.3-1 .3z"/><path class="st6" d="M164.9 241.1c-4.9-.2-8.6-3.6-8.4-7.5 0-.7.7-1.2 1.6-1.1.8 0 1.4.6 1.4 1.3-.2 2.6 2.3 4.9 5.5 5 .8 0 1.4.6 1.4 1.3 0 .5-.7 1-1.5 1zM164 260.9h-.4c-.8 0-1.4-.6-1.4-1.3s.7-1.2 1.6-1.1c2.7.1 5-1.6 5.1-3.8 0-.7.8-1.2 1.6-1.1.8 0 1.4.6 1.4 1.3-.3 3.4-3.8 6-7.9 6zM157.6 257.6c-.4 0-.8-.1-1.1-.4l-6-5.5c-.5-.5-.5-1.3.1-1.7.6-.4 1.5-.4 2.1.1l6 5.5c.5.5.5 1.2-.1 1.7-.3.2-.7.3-1 .3z"/><path class="st6" d="M157.6 257.6s-.1 0 0 0c-4.4-.2-7.7-3.2-7.5-6.7 0-.7.7-1.2 1.6-1.1.8 0 1.4.6 1.4 1.3-.1 2.2 1.9 4.1 4.6 4.2.8 0 1.4.6 1.4 1.3-.1.5-.7 1-1.5 1z"/><path class="st6" d="M159.4 267.8c-.7 0-1.3-.4-1.4-1l-4.4-23.2c-.1-.7.4-1.3 1.2-1.4.8-.1 1.6.4 1.7 1l4.4 23.2c.1.7-.4 1.3-1.2 1.4h-.3z"/><path class="st1" d="M152.9 266.6h16.7V308h-16.7z"/><path class="st3" d="M169.6 309.2h-16.7c-.8 0-1.5-.5-1.5-1.2v-41.4c0-.7.7-1.2 1.5-1.2h16.7c.8 0 1.5.5 1.5 1.2V308c0 .7-.7 1.2-1.5 1.2zm-15.2-2.4h13.8v-39h-13.8v39z"/></g><g id="Poster_1_"><path class="st1" d="M588.8 110.7h104.3v114.9H588.8z"/><path class="st0" d="M693.1 226.8H588.8c-.8 0-1.5-.5-1.5-1.2V110.7c0-.7.7-1.2 1.5-1.2h104.3c.8 0 1.5.5 1.5 1.2v114.9c0 .7-.7 1.2-1.5 1.2zm-102.9-2.4h101.4V111.9H590.2v112.5z"/><path class="st3" d="M693.1 226.8H588.8c-.8 0-1.5-.5-1.5-1.2V110.7c0-.7.7-1.2 1.5-1.2h104.3c.8 0 1.5.5 1.5 1.2v114.9c0 .7-.7 1.2-1.5 1.2zm-102.9-2.4h101.4V111.9H590.2v112.5z"/><path class="st7" d="M653.3 185.3l-10.4 8.5c-2.4-.6-4.9-.9-7.5-.9-7.5 0-14.2 2.5-19.1 6.4-4.9 4-11.6 6.4-19.1 6.4v-34.6l15.9-13 12.5 10.2h6.9l20.8 17z"/><path class="st5" d="M684.6 171.2v34.6h-11.1c-7.5 0-14.2-2.5-19.1-6.4-3.2-2.6-7.1-4.5-11.5-5.6l10.4-8.5 10.4-8.5h6.1l6.8-5.6h8z"/><path class="st6" d="M673.5 205.8h-15.8c-7.5 0-14.2 2.5-19.1 6.4-4.9 4-11.6 6.4-19.1 6.4h-22.3v-12.9c7.5 0 14.2-2.5 19.1-6.4 4.9-4 11.6-6.4 19.1-6.4 2.6 0 5.2.3 7.5.9 4.4 1 8.4 3 11.5 5.6 4.9 3.9 11.6 6.4 19.1 6.4z"/><path class="st4" d="M684.6 205.8v12.9h-65c7.5 0 14.2-2.5 19.1-6.4 4.9-4 11.6-6.4 19.1-6.4l26.8-.1zM684.6 117.6v53.6h-7.9l-6.8 5.6h-6.2l-10.4 8.5-20.6-16.9h-7l-12.5-10.2-15.9 13v-53.6z"/><g><ellipse class="st1" cx="656" cy="154.1" rx="9.3" ry="7.6"/></g></g><g id="Coffee_1_"><path class="st1" d="M503.3 305.4l1.9-22h-26.1l1.9 22z"/><path class="st3" d="M503.3 306.6H481c-.8 0-1.4-.5-1.5-1.1l-1.9-21.9c0-.3.1-.7.4-.9.3-.2.7-.4 1.1-.4h26.1c.4 0 .8.1 1.1.4.3.2.4.6.4.9l-1.9 21.9c0 .6-.7 1.1-1.5 1.1zm-20.9-2.4H502l1.6-19.5h-22.9l1.7 19.5z"/><path class="st3" d="M505.2 301.1c-.8 0-1.5-.5-1.5-1.2s.7-1.2 1.5-1.2c4.7 0 8.6-3.1 8.6-7s-3.9-7-8.6-7c-.8 0-1.5-.5-1.5-1.2s.7-1.2 1.5-1.2c6.4 0 11.5 4.2 11.5 9.4s-5.2 9.4-11.5 9.4z"/><path class="st2" d="M486.3 279.6c-.8 0-1.5-.5-1.5-1.2 0-3.9 2.1-7.5 5.6-10 .6-.4 1.5-.4 2.1.1.5.5.5 1.3-.2 1.7-2.9 2-4.6 5-4.6 8.2.1.7-.6 1.2-1.4 1.2zM498.9 279.6c-.8 0-1.5-.5-1.5-1.2 0-3.9 2.1-7.5 5.6-10 .6-.4 1.5-.4 2.1.1.5.5.5 1.3-.2 1.7-2.9 2-4.6 5-4.6 8.2.1.7-.6 1.2-1.4 1.2z"/><g><path class="st2" d="M491.5 270.5c-.4 0-.8-.1-1.1-.4-.5-.5-.5-1.3.2-1.7 2.9-2 4.6-5 4.6-8.2 0-.7.7-1.2 1.5-1.2s1.5.5 1.5 1.2c0 3.9-2.1 7.5-5.6 10-.5.2-.8.3-1.1.3z"/></g></g><text transform="matrix(1.2249 0 0 1 302.66 253.83)" class="st1" font-size="18.01" font-family="Lato-Bold">UBUNTU</text><path id="surface1_1_" class="st5" d="M158.5 16c-4.9 0-9.5.7-13.6 2.5v-1.2h-.1c-4 1.6-8.3 4.3-10.8 7.1 0 0-.1 0-.1.1-1.3 1.4-1.9 1.9-2.1 2.1-5.7-1.7-12.5-2.3-18.3-.6-10.3 2.6-17.7 10.5-18 19.4v.1c0 .5 0 .9-.1 1.3-.2.1-.1 0-.3.1l-.1.1c-6.1 1.3-11.2 4.4-14 8.8-.1.1 0 .2-.1.2 0 .1-.2.1-.2.1-.7.8-1.3 1.8-1.5 2.8-.3 1.1-.2 2.3-.2 4.1 0 2-.1 3.2.2 4.3.2 1.1.8 2.1 1.5 3.1 0 .1.1.1.1.2 2.8 4.6 8.3 8.3 14.3 9.5h.1c.8.2 1.2.2 1.9.2.8.1 1.8.1 2.8.2 2.1.1 4.7 0 7.2.1 5 .1 9.7.1 9.7.1h.5c2.4 2 5.6 3.5 9.4 4.3h.1c1.7.2 4.4.2 11.1.2h73.9c.4 0 .9-.1 1.3-.2l1.8-.7c5.1-2 7.8-6.3 8.4-11.1V73c.3-3.6-.5-6.9-2.6-9.5-2.1-2.7-5.5-4.6-9.7-5.8l-.8-.2-.1-1.2c-.9-8.3-8.8-14.3-18.4-15.6-.3-2.3-1.1-4.5-2.1-6.8-4.7-10.6-16.9-17.9-31.1-17.9zm-1.3 3.4c11.5 0 21.5 6 25.3 14.9.8 2 1.4 3.6 1.7 5.1-2.2.1-4.3.5-6.4 1.1h-.1l-.8.2-1.9-1.4h-.1c-5.6-4.8-10.9-6.6-19-6.6-5.6 0-8.8.6-13.5 2.5h-.1c-5.1 2.2-9.3 6.7-11.8 12.4v.1c-.6 1.2-.9 2.1-1 3.2l-2 .6h-.2v.1c-7.1 1.3-13 4.5-15.4 9.2 0 0-.1 0-.1.1-.9 1.8-1.3 3.5-1.3 6.1 0 3 .7 5.8 2 8.2-1.8 0-2.8 0-5.8-.1-2.3 0-4.6-.1-6.9-.1-1 0-1.8 0-2.5-.1-.6 0-1.2-.1-.9-.1l-.1-.1c-3.7-.7-8.4-3.8-10.3-6.9 0-.1-.1-.1-.1-.1-.7-1-.8-1.2-.9-1.8-.1-.5-.2-1.6-.2-3.5 0-1.8.1-2.8.2-3.3s.1-.6.7-1.3c.1-.1.2-.2.3-.4 1.8-3.2 5.6-5.5 10.3-6.5h.1c1.6-.3 2.6-.7 3.5-1.5.5-.4.7-.9.8-1.4.1-.1.1-.1.1-.2 0-.2.1-.4.1-.6.1-.5.2-1.2.2-2V45c.3-6.7 6-12.7 13.6-14.6l.1-.1c3.8-1.1 9.4-.8 13.9.6l.3.1c.4.2.8.4 1.6.5.9.1 2.3-.1 3-.6 1.5-.9 2.1-1.8 3.8-3.6l.1-.1c1.5-1.7 5.7-4.5 8.6-5.6h.1c3.4-1.5 6.8-2.2 11-2.2zm-1.1 18.9c7.2 0 9.8.9 14.9 5.2v.6l3.1 2.5c.8.6 2 .8 3.1.6l2.5-.7h.1c11.4-3.2 22.1 2 23.1 10.7l.3 2.6c.1.9.9 1.7 2.1 2l2.9.7h.1c3.5.9 5.9 2.1 7.3 3.8s2.1 3.8 1.9 6.6v.1c-.6 3.7-2.6 6.2-5.8 7.3l-1.3.4h-41c-15.5 0-25.7-.1-32.3-.1-6.5 0-9.6-.1-10-.1-7-1.6-10.5-5.6-10.5-12.5 0-2.4.1-2.9.9-4.3l.1-.1c1.5-3 5.7-5.5 11.5-6.5.1 0 .1 0 .2-.1 1.6-.4 2.9-.6 4.1-1.3 1.3-.7 2.2-2.2 2.2-3.4 0 .3.2-1 .6-1.8v-.1c2.1-4.8 5.8-8.4 9.1-9.8l.1-.1c4.2-1.9 5.6-2.2 10.7-2.2z"/><text transform="matrix(1.0743 0 0 1 133.2 72.8)" font-size="14.25" font-family="GillSansMT-Bold">OneDrive</text><path class="st5" d="M104 106.2l-5.5-11.4c-.3-.6.1-1.3.8-1.6.8-.2 1.6.1 1.9.7l5.5 11.4M224.8 106.2l-5.5-11.4c-.3-.6.1-1.3.8-1.6.8-.2 1.6.1 1.9.7l5.5 11.4M158.7 106.2l-5.5-11.4c-.3-.6.1-1.3.8-1.6.8-.2 1.6.1 1.9.7l5.5 11.4"/></svg>