<svg version="1.1" id="Layer_1" xmlns="http://www.w3.org/2000/svg" xmlns:xlink="http://www.w3.org/1999/xlink" x="0" y="0" viewBox="0 0 750 500" xml:space="preserve"><style>.st7{fill:#003aa5}.st12{fill:#fff}.st21{opacity:.41}.st22{fill:#1738ff}.st23{fill:#259aff}.st24{fill:#12f}.st27{fill:#ffbe00}.st29{fill:#fccc54}.st30,.st31,.st32{opacity:.3;fill:#ffbe00;enable-background:new}.st31,.st32{opacity:.5;fill:#ffe6b3}.st32{fill:#fce8c5}.st43{fill:#3591ff}.st46,.st47,.st48{fill:#12f;stroke:#12f;stroke-miterlimit:10}.st47,.st48{fill:none;stroke:#033482;stroke-width:1.5;stroke-linecap:round;stroke-linejoin:round}.st48{stroke-dasharray:4}.st49{fill:#033482}.st50{fill:none;stroke:#033482;stroke-width:1.5;stroke-linecap:round;stroke-linejoin:round}</style><path id="BACKGROUND" d="M0 0h750v500H0V0z" fill="none"/><g id="OBJECTS"><ellipse cx="375.7" cy="412.7" rx="203.1" ry="8.3" opacity=".9" fill="#afcfe8"/><g id="XMLID_8_"><linearGradient id="XMLID_2_" gradientUnits="userSpaceOnUse" x1="1303.4" y1="-600.2" x2="1407.4" y2="-458.5" gradientTransform="scale(-1 1) rotate(30 -903 -3610)"><stop offset="0" stop-color="#fdda42"/><stop offset="1" stop-color="#e5a003"/></linearGradient><path id="XMLID_11_" d="M455 241c-3-9-2-20 5-28 4-4 12-7 12-14 1-6-3-11-5-16-2-10 0-21 6-28 5-6 11-9 14-15 3-5 3-12 4-18 0-9 5-22 16-21 9 1 14 12 15 20v9l-1 10c0 4 0 8 2 11l4 9c5 11 3 24-1 35-3 7-5 13-3 21l4 18c0 13-8 24-18 30h-1c-20 9-46-1-53-23z" fill="url(#XMLID_2_)"/><linearGradient id="XMLID_4_" gradientUnits="userSpaceOnUse" x1="1303.4" y1="-600.2" x2="1407.4" y2="-458.5" gradientTransform="scale(-1 1) rotate(30 -903 -3610)"><stop offset="0" stop-color="#fdda42"/><stop offset="1" stop-color="#e5a003"/></linearGradient><path id="XMLID_10_" d="M455 241c-3-9-2-20 5-28 4-4 12-7 12-14 1-6-3-11-5-16-2-10 0-21 6-28 5-6 11-9 14-15 3-5 3-12 4-18 0-9 5-22 16-21 9 1 14 12 15 20v9l-1 10c0 4 0 8 2 11l4 9c5 11 3 24-1 35-3 7-5 13-3 21l4 18c0 13-8 24-18 30h-1c-20 9-46-1-53-23z" opacity=".7" fill="url(#XMLID_4_)"/><linearGradient id="XMLID_5_" gradientUnits="userSpaceOnUse" x1="1358.2" y1="-459.4" x2="1358.2" y2="-577.9" gradientTransform="scale(-1 1) rotate(30 -903 -3610)"><stop offset="0" stop-color="#fdda42"/><stop offset="1" stop-color="#e5a003"/></linearGradient><path id="XMLID_9_" d="M486 281l5-38c-7-10-12-20-16-31l2-1 14 28 5-32c-7-10-13-21-17-32-1-1 1-2 2 0 4 10 9 20 15 29l4-31-11-22c-1-1 1-3 2-1l10 20 4-30-1-1-8-14c-1-1 1-2 2-1l7 12 3-20c0-2 2-2 2 0l-4 28 10-12c1-1 2 1 1 2l-11 15-3 24-2 14c8-7 15-14 21-23 1-1 3 0 2 1-7 10-15 18-24 26l-4 35 19-16c1-1 3 0 1 1l-21 18-7 53c0 1-2 1-2-1z" fill="url(#XMLID_5_)"/></g><g id="XMLID_3_"><linearGradient id="XMLID_12_" gradientUnits="userSpaceOnUse" x1="1518.6" y1="-383.6" x2="1649.2" y2="-205.4" gradientTransform="scale(-1 1) rotate(7 -3766 -17393)"><stop offset="0" stop-color="#fdda42"/><stop offset="1" stop-color="#e5a003"/></linearGradient><path id="XMLID_7_" d="M449 269c2-13 9-25 21-30 6-3 17-3 21-11 3-6 1-14 2-21 2-12 10-23 21-29 8-4 17-4 23-10 7-5 10-13 13-19 5-10 17-23 29-16 11 6 11 20 8 30l-4 11-7 11c-2 4-3 9-3 13v13c0 15-8 29-18 39-7 7-13 13-14 23-2 8-2 16-5 23-5 15-20 24-35 26l-1-1c-28 1-53-24-51-52z" fill="url(#XMLID_12_)"/><linearGradient id="XMLID_14_" gradientUnits="userSpaceOnUse" x1="1587.4" y1="-206.4" x2="1587.4" y2="-355.5" gradientTransform="scale(-1 1) rotate(7 -3766 -17393)"><stop offset="0" stop-color="#fdda42"/><stop offset="1" stop-color="#e5a003"/></linearGradient><path id="XMLID_6_" d="M466 330l25-41v-1c-3-14-4-28-4-43 1-2 4-2 3 0-1 13 0 27 3 40l21-36c-3-15-5-30-4-45 0-2 3-1 3 0-1 14 0 28 3 42l20-34c-2-10-3-21-3-31 0-2 3-3 3-1l2 28 20-33h-1l-3-21c0-2 3-2 3 0l3 17 13-22c1-1 3 0 2 2l-18 30 17-9c2-1 3 2 1 3l-21 11-16 27-9 15c13-4 25-9 36-16 1-1 3 2 2 3-13 7-26 13-40 17l-23 38 30-9c2 0 3 3 1 3l-33 10-34 57c-1 3-3 1-2-1z" fill="url(#XMLID_14_)"/></g><path class="st7" d="M407 165h90c12 0 21 9 21 21v193c0 12-9 21-21 21h-90c-11 0-21-9-21-21V186c0-12 10-21 21-21z"/><path d="M392 182h121v201H392V182z" fill="#c2e1fe"/><path class="st7" d="M425 269h4v8l-8 2c-5 0-10-4-10-10s5-9 10-9c4 0 6 1 8 3l-3 3c-1-2-3-2-4-2-4 0-6 2-6 5s2 6 5 6l4-1v-5zm20 6h-9l-2 4h-4l8-19h4l9 19h-5l-1-4zm-2-4l-3-7-3 7h6zm26 8v-11l-5 9h-2l-5-9v11h-4v-19h3l7 12 7-12h3v19h-4zm23-4v4h-15v-19h14v4h-9v4h8v3h-8v4h10zm-78 22c0-5 4-9 10-9s10 4 10 9-4 10-10 10-10-4-10-10zm16 0c0-3-3-5-6-5s-6 2-6 5c0 4 3 6 6 6s6-2 6-6zm24-9l-8 18h-4l-8-18h5l5 13 6-13h4zm16 15v4h-14v-19h13v4h-9v4h8v3h-8v4h10zm15 3l-4-5h-4v5h-4v-18h8c5 0 8 3 8 7 0 3-2 5-4 6l4 6-4-1zm-4-14h-4v6h4c2 0 4-1 4-3s-2-3-4-3z"/><linearGradient id="SVGID_1_" gradientUnits="userSpaceOnUse" x1="446.1" y1="-61.1" x2="458.3" y2="-61.1" gradientTransform="translate(0 452)"><stop offset="0" stop-color="#fdda42"/><stop offset="1" stop-color="#e5a003"/></linearGradient><path d="M458 391c0 3-2 6-6 6s-6-3-6-6 3-6 6-6 6 3 6 6z" opacity=".5" fill="url(#SVGID_1_)"/><path class="st7" d="M432 350h11v11h-11v-11zm12 0h11v11h-11v-11zm-12 12h11v11h-11v-11zm-32-12h11v11h-11v-11zm0 12h11v11h-11v-11zm13-25h11v11h-11v-11zm0-12h11v11h-11v-11zm-13 12h11v11h-11v-11zm21-118h11v11h-11v-11zm0-12h11v11h-11v-11zm-13 25h11v11h-11v-11zm13 0h11v11h-11v-11zm23 130h11v11h-11v-11z"/><linearGradient id="SVGID_2_" gradientUnits="userSpaceOnUse" x1="423.9" y1="-277.9" x2="479.1" y2="-277.9" gradientTransform="translate(0 452)"><stop offset="0" stop-color="#fdda42"/><stop offset="1" stop-color="#e5a003"/></linearGradient><path d="M477 176h-51l-2-1v-1l2-2h51l2 2v1l-2 1z" opacity=".5" fill="url(#SVGID_2_)"/><linearGradient id="SVGID_3_" gradientUnits="userSpaceOnUse" x1="454.4" y1="-229.8" x2="535.1" y2="-229.8" gradientTransform="translate(0 452)"><stop offset="0" stop-color="#fdda42"/><stop offset="1" stop-color="#e5a003"/></linearGradient><ellipse cx="494.8" cy="222.2" rx="43.2" ry="34.4" fill="url(#SVGID_3_)"/><path class="st12" d="M486 208v29l26-15-26-14z"/><linearGradient id="SVGID_4_" gradientUnits="userSpaceOnUse" x1="340.3" y1="-65.9" x2="227.3" y2="-62.3" gradientTransform="translate(0 452)"><stop offset="0" stop-color="#fdda42"/><stop offset="1" stop-color="#e5a003"/></linearGradient><path d="M224 360v50c14 5 35 8 58 8s44-3 58-7v-51H224z" fill="url(#SVGID_4_)"/><linearGradient id="SVGID_5_" gradientUnits="userSpaceOnUse" x1="271.2" y1="-91.8" x2="551.3" y2="-91.8" gradientTransform="translate(0 452)"><stop offset="0" stop-color="#fdda42"/><stop offset="1" stop-color="#e5a003"/></linearGradient><ellipse cx="281.9" cy="360.2" rx="58.1" ry="8.1" fill="url(#SVGID_5_)"/><linearGradient id="SVGID_6_" gradientUnits="userSpaceOnUse" x1="274.6" y1="-91.8" x2="466.7" y2="-91.8" gradientTransform="translate(0 452)"><stop offset="0" stop-color="#fdda42"/><stop offset="1" stop-color="#e5a003"/></linearGradient><path d="M322 360c0-3-18-5-40-5s-40 2-40 5 18 6 40 6 40-3 40-6z" fill="url(#SVGID_6_)"/><linearGradient id="SVGID_7_" gradientUnits="userSpaceOnUse" x1="180.6" y1="-223.7" x2="228.5" y2="-223.7" gradientTransform="translate(0 452)"><stop offset="0" stop-color="#fdda42"/><stop offset="1" stop-color="#e5a003"/></linearGradient><path d="M224 266c-10 0-19-3-25-10-21-19-18-60-18-62v-4h40v8h-33c0 10 2 39 16 53 6 6 14 8 24 7l1 8h-5z" fill="url(#SVGID_7_)"/><linearGradient id="SVGID_8_" gradientUnits="userSpaceOnUse" x1="2126.8" y1="-223.7" x2="2174.8" y2="-223.7" gradientTransform="matrix(-1 0 0 1 2507 452)"><stop offset="0" stop-color="#fdda42"/><stop offset="1" stop-color="#e5a003"/></linearGradient><path d="M337 266h-4v-8c10 1 18-1 24-7 15-14 16-43 16-53h-32v-8h39l1 4c0 2 2 43-18 62-7 7-16 10-26 10z" fill="url(#SVGID_8_)"/><linearGradient id="SVGID_9_" gradientUnits="userSpaceOnUse" x1="204.1" y1="-216.5" x2="354.9" y2="-216.5" gradientTransform="translate(0 452)"><stop offset="0" stop-color="#fdda42"/><stop offset="1" stop-color="#e5a003"/></linearGradient><path d="M204 165s2 150 87 140c63-7 64-140 64-140H204z" fill="url(#SVGID_9_)"/><linearGradient id="SVGID_10_" gradientUnits="userSpaceOnUse" x1="235.8" y1="-130.9" x2="328" y2="-130.9" gradientTransform="translate(0 452)"><stop offset="0" stop-color="#fdda42"/><stop offset="1" stop-color="#e5a003"/></linearGradient><path d="M266 363c11 1 45 1 31-7-4-2-6-7-8-28-3-31 3-41 3-41l-11-8-10 8s6 10 4 41c-2 19-4 25-7 27l-2 1c-3 2-8 6 0 7z" fill="url(#SVGID_10_)"/><linearGradient id="SVGID_11_" gradientUnits="userSpaceOnUse" x1="354.1" y1="-289.1" x2="209.4" y2="-284.5" gradientTransform="translate(0 452)"><stop offset="0" stop-color="#fdda42"/><stop offset="1" stop-color="#e5a003"/></linearGradient><ellipse cx="279.5" cy="165.3" rx="75.4" ry="4.1" fill="url(#SVGID_11_)"/><path class="st12" d="M280 198l9 18 20 3-15 15 3 20-18-10-18 10 4-20-15-15 20-3 10-18z"/><g class="st21"><path class="st12" d="M269 301h14c36-4 50-39 57-76l-15 2c-6 31-21 70-56 74zm64-125c-1 10-2 26-6 42l15-2c3-18 5-33 5-42l-14 2z"/></g><path class="st22" d="M485 309l-25-10c-4-1-5-5-4-8l3-7c1-3 5-5 8-4l25 10c3 2 5 5 4 9l-3 6c-1 4-5 6-8 4z"/><path class="st23" d="M511 393l-4-65c-1-24-21-43-46-43H344c-24 0-44 19-46 43l-3 65c-1 12 9 23 21 23 8 0 16-4 21-9l36-37h60l35 37c6 5 13 9 21 9 13 0 22-11 22-23z"/><g class="st21"><circle class="st24" cx="465.6" cy="320.2" r="8.5"/><circle class="st24" cx="465.6" cy="347.6" r="8.5"/><circle class="st24" cx="479.3" cy="333.9" r="8.5"/><circle class="st24" cx="451.8" cy="333.9" r="8.5"/><path class="st24" d="M348 328h-6v-6c0-3-3-6-6-6-4 0-7 3-7 6v6h-5c-4 0-6 2-6 6 0 3 2 6 6 6h5v6c0 3 3 6 7 6 3 0 6-3 6-6v-6h6c3 0 6-3 6-6s-3-6-6-6z"/></g><circle class="st23" cx="334.1" cy="332.4" r="23.9"/><path class="st23" d="M438 363h-71l-42 43c-4 4-9 7-15 9l6 1c8 0 16-3 21-9l35-37h60l36 37c5 6 13 9 21 9l6-1c-6-2-11-5-15-9l-42-43z"/><circle class="st22" cx="464" cy="318.7" r="8.5"/><circle class="st22" cx="464" cy="346.1" r="8.5"/><circle class="st22" cx="477.7" cy="332.4" r="8.5"/><circle class="st22" cx="450.3" cy="332.4" r="8.5"/><path class="st22" d="M346 326h-6v-6c1-3-2-6-6-6-3 0-6 3-6 7v5h-6c-3 0-6 3-6 6 0 4 3 7 6 7h6v5c0 4 3 6 6 6 4 0 7-2 7-6v-5h5c3 0 6-3 6-7 0-3-2-6-6-6z"/><path d="M492 346c-12 25-4 54 18 53l1-6-4-65c0-10-4-19-10-26 2 8 4 25-5 44zm-179 0c13 25 4 54-18 53l-1-6 4-65c1-10 4-19 10-26-2 8-4 25 5 44z" opacity=".5" fill="#259aff"/><path class="st22" d="M397 338h-15l-2-2 2-2h15l1 1v1l-1 2zm26 0h-14l-2-2 2-2h14l2 1v1l-2 2z"/><path d="M344 297h117c24 0 45 19 47 43l-1-12c-1-24-22-43-46-43H344c-24 0-44 19-46 43v12c1-24 22-43 46-43z" fill="#65b6fd"/><path class="st24" d="M409 89a56 56 0 00-75 1l7 7c17-16 44-16 61-1l7-7z"/><path class="st24" d="M396 102a41 41 0 00-49 1l7 6a32 32 0 0136 0l6-7zm-13 14c-7-4-16-4-23 0l4 4 7 7 12-11z"/><path id="XMLID_13_" class="st27" d="M219 132c-15 0-28-13-28-28 0 15-13 28-28 28 15 0 28 12 28 28 0-16 13-28 28-28z"/><g id="XMLID_538_"><linearGradient id="XMLID_15_" gradientUnits="userSpaceOnUse" x1="521.2" y1="-62.9" x2="583" y2="-62.9" gradientTransform="translate(0 452)"><stop offset="0" stop-color="#fec008"/><stop offset="1" stop-color="#fe9c03"/></linearGradient><path id="XMLID_550_" d="M521 382h62v14h-62v-14z" fill="url(#XMLID_15_)"/><path id="XMLID_549_" class="st29" d="M521 382h62v2h-62v-2z"/><g id="XMLID_541_"><path id="XMLID_548_" class="st30" d="M527 382h2v14h-2v-14z"/><path id="XMLID_547_" class="st30" d="M535 382h2v14h-2v-14z"/><path id="XMLID_546_" class="st30" d="M543 382h2v14h-2v-14z"/><path id="XMLID_545_" class="st27" d="M551 382h2v14h-2v-14z"/><path id="XMLID_544_" class="st27" d="M559 382h3v14h-3v-14z"/><path id="XMLID_543_" class="st27" d="M567 382h3v14h-3v-14z"/><path id="XMLID_542_" class="st27" d="M575 382h3v14h-3v-14z"/></g><path id="XMLID_540_" class="st31" d="M545 382h34v14h-34v-14z"/><path id="XMLID_539_" class="st32" d="M570 382h9v14h-9v-14z"/></g><g id="XMLID_56_"><linearGradient id="XMLID_16_" gradientUnits="userSpaceOnUse" x1="498.8" y1="-77.3" x2="560.6" y2="-77.3" gradientTransform="translate(0 452)"><stop offset="0" stop-color="#fec008"/><stop offset="1" stop-color="#fe9c03"/></linearGradient><path id="XMLID_81_" d="M499 367h62v15h-62v-15z" fill="url(#XMLID_16_)"/><path id="XMLID_80_" class="st29" d="M499 367h62v2h-62v-2z"/><g id="XMLID_59_"><path id="XMLID_78_" class="st30" d="M504 367h3v15h-3v-15z"/><path id="XMLID_77_" class="st30" d="M512 367h3v15h-3v-15z"/><path id="XMLID_76_" class="st30" d="M520 367h3v15h-3v-15z"/><path id="XMLID_75_" class="st27" d="M528 367h3v15h-3v-15z"/><path id="XMLID_74_" class="st27" d="M537 367h2v15h-2v-15z"/><path id="XMLID_61_" class="st27" d="M545 367h2v15h-2v-15z"/><path id="XMLID_60_" class="st27" d="M553 367h2v15h-2v-15z"/></g><path id="XMLID_58_" class="st31" d="M523 367h33v15h-33v-15z"/><path id="XMLID_57_" class="st32" d="M548 367h8v15h-8v-15z"/></g><g id="XMLID_22_"><linearGradient id="XMLID_17_" gradientUnits="userSpaceOnUse" x1="509.6" y1="-48.5" x2="571.4" y2="-48.5" gradientTransform="translate(0 452)"><stop offset="0" stop-color="#fec008"/><stop offset="1" stop-color="#fe9c03"/></linearGradient><path id="XMLID_52_" d="M510 396h61v15h-61v-15z" fill="url(#XMLID_17_)"/><path id="XMLID_47_" class="st29" d="M510 396h61v2h-61v-2z"/><g id="XMLID_26_"><path id="XMLID_37_" class="st30" d="M515 396h2v15h-2v-15z"/><path id="XMLID_35_" class="st30" d="M523 396h3v15h-3v-15z"/><path id="XMLID_33_" class="st30" d="M531 396h3v15h-3v-15z"/><path id="XMLID_31_" class="st27" d="M539 396h3v15h-3v-15z"/><path id="XMLID_29_" class="st27" d="M547 396h3v15h-3v-15z"/><path id="XMLID_28_" class="st27" d="M555 396h3v15h-3v-15z"/><path id="XMLID_27_" class="st27" d="M564 396h2v15h-2v-15z"/></g><path id="XMLID_25_" class="st31" d="M533 396h34v15h-34v-15z"/><path id="XMLID_23_" class="st32" d="M559 396h8v15h-8v-15z"/></g><g id="XMLID_535_"><linearGradient id="XMLID_18_" gradientUnits="userSpaceOnUse" x1="537" y1="-140" x2="600.4" y2="-140" gradientTransform="translate(0 452)"><stop offset="0" stop-color="#fec008"/><stop offset="1" stop-color="#fe9c03"/></linearGradient><circle id="XMLID_566_" cx="568.7" cy="312" r="31.7" fill="url(#XMLID_18_)"/><radialGradient id="XMLID_19_" cx="592.5" cy="-178.2" r="90.4" gradientTransform="translate(0 452)" gradientUnits="userSpaceOnUse"><stop offset=".1" stop-color="#f0dc20"/><stop offset="1" stop-color="#f07a20"/></radialGradient><circle id="XMLID_565_" cx="568.7" cy="312" r="26.7" fill="url(#XMLID_19_)"/><circle id="XMLID_564_" transform="rotate(-68 569 312)" cx="568.6" cy="312.1" opacity=".3" fill="none" stroke="#ffbe00" stroke-width=".5" stroke-miterlimit="10" r="25.9"/><g id="XMLID_559_" opacity=".5"><path id="XMLID_560_" class="st27" d="M571 325v4h-4v-4c-3 0-7-1-9-3l2-4 7 2v-6c-4-1-8-2-8-7 0-4 3-7 8-8v-4h4v4l7 2-2 4-5-1v6c4 1 8 2 8 7 0 4-3 7-8 8zm-4-16v-5c-2 0-2 1-2 2 0 2 1 2 2 3zm6 9c0-2-1-2-2-3v5c2 0 2-1 2-2z"/></g><g id="XMLID_551_" opacity=".7"><defs><circle id="SVGID_12_" cx="572.7" cy="311.2" r="26.7"/></defs><clipPath id="SVGID_13_"><use xlink:href="#SVGID_12_" overflow="visible"/></clipPath><path id="XMLID_554_" d="M539 329l59-34 8 14-60 33-7-13z" opacity=".2" clip-path="url(#SVGID_13_)" fill="#ffe6b3"/><g><defs><circle id="SVGID_14_" cx="568.7" cy="312" r="26.7"/></defs><clipPath id="SVGID_15_"><use xlink:href="#SVGID_14_" overflow="visible"/></clipPath><path id="XMLID_553_" d="M540 325l-5-4 59-34 5 5-59 33z" opacity=".2" clip-path="url(#SVGID_15_)" fill="#ffe6b3"/></g></g></g><path d="M125 288l-5 5 6-4 5-4-6 3z" fill="#072551"/><circle transform="rotate(-45 144 316)" class="st43" cx="143.5" cy="315.5" r="29.2"/><path class="st7" d="M126 289l-7 4 5 7c5-1 10-4 12-8l-5-7-5 4z"/><path d="M144 286a29 29 0 017 52c-5 4-11 5-16 5 8 3 17 2 25-3a29 29 0 00-16-54z" opacity=".3" fill="#259aff"/><path d="M160 295c1 1 0 3-1 4s-3 0-4-1 0-3 1-4 3 0 4 1zm7 9c2 3 2 6-1 8s-6 1-8-1-1-6 2-8c2-2 6-1 7 1z" opacity=".7" fill="#f9f9f9"/><path class="st24" d="M127 288c-2-3-5-7-9-7-5-1-9 3-12 10l4 2c2-5 5-8 8-8 2 0 4 3 6 5l1-1 2-1z"/><path class="st27" d="M95 291h8l3-7 2 8 8 1-7 4 2 7-6-5-7 4 3-7-6-5z"/><g><path class="st43" d="M273 152l-29-29c-3-4-3-9 0-12l29-29c3-3 8-3 11 0l29 29c3 3 3 8 0 12l-29 29c-3 3-8 3-11 0z"/><path class="st46" d="M281 103c-2 2-6 2-8 0-3-3-3-6 0-8 2-3 6-3 8 0 2 2 2 5 0 8zm20 20c-2 2-6 2-8 0-2-3-2-6 0-8 2-3 6-3 8 0s2 6 0 8z"/><circle transform="rotate(-72 260 115)" class="st46" cx="260.3" cy="115" r="5.8"/><circle class="st46" cx="280.4" cy="135.1" r="5.8"/></g><path class="st47" d="M138 262v-57c0-14 12-26 26-26h30"/><path class="st48" d="M145 249v-57c0-14 12-26 26-26h23"/><circle class="st49" cx="612.5" cy="374.6" r="4.2"/><circle class="st49" cx="193.9" cy="178.7" r="4.2"/><g><circle class="st49" cx="153.6" cy="276.4" r="4.2"/><path class="st47" d="M154 210v68"/></g><g><circle class="st49" cx="625.7" cy="350.7" r="4.2"/><path class="st48" d="M626 265v87"/></g><g><circle transform="rotate(-81 575 238)" class="st49" cx="575.2" cy="238.5" r="4.2"/><path class="st48" d="M618 238h-44"/></g><g><circle class="st49" cx="412.3" cy="132.8" r="4.2"/><path class="st47" d="M479 133h-68"/></g><g><circle class="st49" cx="639" cy="295.9" r="4.2"/><path class="st47" d="M639 363v-69"/></g><g><path class="st50" d="M146 356l1 2"/><path d="M148 362c4 11 17 33 59 29" fill="none" stroke="#033482" stroke-width="1.5" stroke-linecap="round" stroke-linejoin="round" stroke-dasharray="4.092,4.092"/><path class="st50" d="M210 391h2"/></g><path class="st47" d="M566 250c0 12 10 22 22 22h2c13 0 22 10 22 22v81"/><g><circle class="st49" cx="317.3" cy="144.6" r="4.2"/><path class="st49" d="M454 145c0 2-2 4-4 4-3 0-5-2-5-4s2-5 5-5c2 0 4 2 4 5z"/><path class="st48" d="M317 144h133"/></g><g><path class="st24" d="M201 308l-13 5-4-2-4-13c-1-1 0-3 2-3l12-5c2-1 3 0 4 2l4 12c1 2 0 3-1 4zm7 19l-13 4c-1 1-3 0-4-1l-4-13c-1-1 0-3 1-4l13-4c1-1 3 0 4 2l4 12c1 2 0 3-1 4zm6 18l-12 5c-2 1-3 0-4-2l-4-12c-1-2 0-3 1-4l13-4c1-1 3 0 3 1l5 13c1 1 0 3-2 3zm20-7l-13 5c-1 1-3 0-4-2l-4-12c-1-2 0-3 2-4l12-4c2-1 3 0 4 1l4 13c1 1 0 3-1 3z"/></g><g><path class="st24" d="M608 136l13 5c1 0 2 2 1 3l-5 13c-1 1-2 2-4 1l-12-5c-2 0-2-2-2-3l5-13c1-1 3-2 4-1zm-7 18l12 5c1 1 2 2 1 4l-5 12c0 2-2 3-3 2l-13-5c-1-1-2-2-1-4l5-12c0-2 2-2 4-2z"/></g><g><linearGradient id="SVGID_16_" gradientUnits="userSpaceOnUse" x1="143.6" y1="-53.3" x2="148.6" y2="-53.3" gradientTransform="translate(0 452)"><stop offset="0" stop-color="#fdda42"/><stop offset="1" stop-color="#e5a003"/></linearGradient><path d="M146 407l-2-2v-13l2-2c2 0 3 1 3 2v13c0 1-1 2-3 2z" fill="url(#SVGID_16_)"/><linearGradient id="SVGID_17_" gradientUnits="userSpaceOnUse" x1="137.5" y1="-53.3" x2="154.7" y2="-53.3" gradientTransform="translate(0 452)"><stop offset="0" stop-color="#fdda42"/><stop offset="1" stop-color="#e5a003"/></linearGradient><path d="M138 399v-1l2-2h12c2 0 3 1 3 2v1c0 1-1 2-3 2h-12l-2-2z" fill="url(#SVGID_17_)"/></g><g><linearGradient id="SVGID_18_" gradientUnits="userSpaceOnUse" x1="455.8" y1="-350.9" x2="460.8" y2="-350.9" gradientTransform="translate(0 452)"><stop offset="0" stop-color="#fdda42"/><stop offset="1" stop-color="#e5a003"/></linearGradient><path d="M459 110h-1l-2-2V95l2-2h1l2 2v13l-2 2z" fill="url(#SVGID_18_)"/><linearGradient id="SVGID_19_" gradientUnits="userSpaceOnUse" x1="449.7" y1="-350.9" x2="466.9" y2="-350.9" gradientTransform="translate(0 452)"><stop offset="0" stop-color="#fdda42"/><stop offset="1" stop-color="#e5a003"/></linearGradient><path d="M450 101l2-2h13l2 2-2 2h-13c-1 1-2 0-2-2z" fill="url(#SVGID_19_)"/></g><g><linearGradient id="SVGID_20_" gradientUnits="userSpaceOnUse" x1="587.4" y1="-91.8" x2="592.4" y2="-91.8" gradientTransform="translate(0 452)"><stop offset="0" stop-color="#fdda42"/><stop offset="1" stop-color="#e5a003"/></linearGradient><path d="M590 369c-2 0-3-1-3-2v-13c0-1 1-2 3-2l2 2v13l-2 2z" fill="url(#SVGID_20_)"/><linearGradient id="SVGID_21_" gradientUnits="userSpaceOnUse" x1="581.3" y1="-91.8" x2="598.5" y2="-91.8" gradientTransform="translate(0 452)"><stop offset="0" stop-color="#fdda42"/><stop offset="1" stop-color="#e5a003"/></linearGradient><path d="M581 360l2-2h13l2 2c1 2 0 3-2 3h-13c-1 0-2-1-2-3z" fill="url(#SVGID_21_)"/></g><g><path class="st43" d="M637 273l-36-9c-5-1-7-5-6-9l7-34c1-4 5-7 10-6l36 9c5 1 7 5 6 9l-7 33c-1 5-5 8-10 7z"/><path class="st24" d="M616 250a5 5 0 10-3 9 5 5 0 003-9zm-2 6c-1 0-2-1-1-2l2-2c1 1 2 2 1 3l-2 1zm29-18h-1l-26-6v-3c0-2-1-4-3-5l-2-1-2 1 1 2 2 1 1 2-1 16c0 2 2 4 4 4l15 4c2 0 4-1 5-3l6-10 1-2zm-27 8l-1-1 1-10 5 1-2 11-3-1zm10 3l-5-2 2-11 7 2-4 11zm8 0l-2 1-3-1 3-11 7 2-5 9zm-3 4a5 5 0 104 6c0-3-1-5-4-6zm-1 7l-2-3 3-1 1 2-2 2z"/></g></g></svg>