<svg xmlns="http://www.w3.org/2000/svg" viewBox="0 0 800 480"><path d="M683 245c156 54 156 141 0 195-156 53-410 53-566 0-156-54-156-141 0-195s410-54 566 0" fill="#f3f2f1"/><path d="M330 383l-120 45h-11L79 383c-3-1-3-2 0-3l120-44c3-2 8-2 11 0l120 44c3 1 3 2 0 3M559 372l-9-2-122-45c-4-1-6-3-6-6 0-2 2-5 6-6l168-62 8-1 9 1 123 45c3 2 6 4 6 6 0 3-3 5-6 7l-168 61-9 2" fill="#e2e2e0"/><path d="M693 279c0-8-2-24 9-39 9-10 24-20 37-19s14 13 2 22c-13 8-24 23-28 41l-13 11-7-16" fill="#26b6a6"/><path d="M700 295l-7-16v-9c0-8 1-19 9-30 8-10 22-19 35-19h2c7 0 10 4 10 8 0 5-3 10-8 14-13 8-24 23-28 41l-13 11" fill="#1db3a0"/><path d="M704 286l1-1c-4-24 7-44 31-59v-1h-2c-24 15-35 36-31 60l1 1" fill="#fff"/><path d="M713 292s9 3 24 3c14 0 19-4 19-4s-8-8-16-10c0 0 14 1 26 4 0 0 8-1 10-9 0 0-7-5-24-6 0 0 9-2 25-2 1 1 3-11 3-16 1-5-2-4-9-5-6 0-27 1-30 4-3 2-4 10-4 10s-4-4-4-8c0 0-6 0-12 3-4 1-6 3-6 6-1 3 0 7 1 11 0 0-5-5-4-13 0 0-11 5-12 10 0 5-1 15 13 22" fill="#26b6a6"/><path d="M713 292h1c7-16 45-38 59-41l1-1h-1c-15 3-53 25-61 41l1 1" fill="#fff"/><path d="M304 371l53-20h7l56 21 4 1 5-1 74-27v-1h-1l-74 27-4 1-3-1-56-21h-9l-53 20v1h1" fill="#26b6a6"/><path d="M290 366l67-25h7l56 21h9l60-22v-1h-1l-60 22h-7l-56-21-4-1-5 1-67 25 1 1" fill="#26b6a6"/><path d="M474 333l-46 17-4 1-3-1-56-20-4-1-5 1-81 30h1l81-29 4-1 3 1 56 20 4 1 5-1 46-17v-1h-1" fill="#26b6a6"/><path d="M459 328l-31 12h-7l-56-21h-9l-95 35v1h1l95-35h7l56 21 4 1 5-1 31-12 1-1h-2" fill="#26b6a6"/><path d="M423 315l4 4 127 47h9l173-64c2-1 4-3 4-5l-4-4-127-47h-9l-173 64c-2 1-4 3-4 5" fill="#273e47"/><path d="M558 360v6h-4l-127-47-4-4c0-2 2-4 4-5-2 1-2 2 0 3l127 46 4 1" fill="#17282f"/><path d="M419 310c-3-1-5-3-5-5v-96c0-2 2-4 5-5l173-63h9c2 0 4 3 4 4v96c0 2-2 4-5 5l-173 64h-8" fill="#33535f"/><path d="M427 310h-8c-3-1-5-3-5-5v-96l2-3 8 3-1 3v96c0 2 2 3 4 2" fill="#17282f"/><path d="M423 212v96c0 2 2 3 4 2l173-64c3-1 5-3 5-5v-96c0-1-2-2-5-1l-173 63c-2 1-4 3-4 5" fill="#273e47"/><path d="M427 313l127 46h9l173-63c2-1 2-2 0-3l-127-47h-9l-173 64c-2 1-2 2 0 3" fill="#33535f"/><path d="M430 213l167-62 2 1v83c0 2-1 3-2 3l-167 62-3-1v-83c0-2 1-3 3-3" fill="#fafaf9"/><path d="M442 311l161-59h4l8 3c2 0 2 1 0 1l-160 59h-5l-8-3v-1" fill="#26b6a6"/><path d="M442 311l161-59h4l8 3c2 0 2 1 0 1l-160 59h-5l-8-3v-1M463 318l161-59h4l51 19v2l-161 58h-4l-51-18v-2" fill="#17282f"/><path d="M550 293l5-2c1 0 1 0 0 0l-5-2h-1l-5 2zm59-23h1l5-2-1-1h-1l-5 2zm46 11l5-2-6-3h-1l-5 2v1l6 2h1zm-19-12h1l5-2-6-2h-1l-5 1v1zm-12-5h1l5-1v-1h-2l-5 2c-1 0-1 0 0 0zm-22 8h1l5-1v-1h-2l-6 2h1zm-38 16h1l5-2-6-2h-1l-5 1v1zm-7 3h1l5-2v-1l-6-2h-1l-5 2zm31-12h1l5-2-6-2h-1l-5 2zm-16 6l5-2c1 0 1 0 0 0l-5-2h-1l-5 2zm23-8h1l5-2v-1l-6-2h-1l-5 2zm-14 5l5-2c1 0 1 0 0 0l-5-2h-1l-5 1v1zm36-15h1l5-2-2-1h-1l-5 2v1zm-34 40l5-2-6-2-6 2h1l5 2h1zm-15 5l5-1v-1l-5-2h-1l-5 2 6 2zm8-2l5-2-6-3h-1l-5 2v1l6 2h1zm-30 10l5-1v-1l-5-2h-1l-5 2 6 2c0 1 0 1 0 0zm15-5l5-2-6-2h-1l-5 2 6 2h1zm-7 3l5-2-6-3h-1l-5 2v1l6 2h1zm69-26h1l5-2-6-2h-1l-5 2zm-33 12l6-2h-1l-5-2h-1l-5 2 6 2zm42-21l5-2-6-2h-1l-5 2 6 2h1zm7 3h1l5-2-6-2h-1l-5 2zm-41 16l15-6h-1l-5-2h-1l-15 5 6 3h1zm16-19l5-2c1 0 1 0 0 0l-5-2h-1l-5 2 6 2zm33 0l5-1v-1l-6-2-5 2c-1 0-1 0 0 0l6 2zm-16 8h-1l-5 2 6 2h1l5-2zm-26 9h-1l-6 3 6 2h1l6-2zm-78 29h-1l-6 2v1l6 2h1l6-3zm61-22h-1l-6 2 6 2h1l6-2zm-52 19h-1l-6 2 6 3 7-3zm43-16l-42 15 6 2h1l41-15zm36-13h-1l-8 3 6 2h1l8-3zm-19 7l-7 2 6 2h1l6-2zm79-25l-14-5h-1l-5 2 15 5 5-2c1 0 1 0 0 0zm-13 0h-1l-5 2v1l6 2h1l5-2zm-38 15h-1l-5 1v1l6 2h1l5-2zm-85 29l5-2-6-2h-1l-5 2 6 2h1zm100-35h-1l-5 2 6 2 5-1v-1zm16-6h-1l-12 5c-1 0-1 0 0 0l5 2h1l13-4v-1zm-156 30h1l5-2-6-2h-1l-5 1v1zm7-3h1l5-2c1 0 0 0 0 0l-6-2-5 2c-1 0-1 0 0 0zm13 23h-1l-8 3 6 2h1l8-2v-1zm-2-27h1l5-2-6-2h-1l-5 2zm15-5h1l5-2-6-2h-1l-5 1v1zm-40 15h1l5-2v-1l-6-2h-1l-5 2zm32-12h1l5-2v-1l-6-2-5 2c-1 0-1 0 0 0zm15-6h1l5-2-6-2h-1l-5 2zm-24 35l-6-2h-1l-6 2 6 2h1l6-2zm-5-5l-6-2h-1l-9 4c-1 0-1 0 0 0l5 2h1l10-3v-1zm-26-10h1l5-2-6-2-5 2c-1 0-1 0 0 0zm-4 2l-6-2h-1l-6 2 6 2 1 1 6-3zm20 6l-6-2h-1l-8 3 6 2h1l8-3zm-11-2l-6-2h-1l-5 2 6 2h1l5-2zm43 3l5-2-6-2h-1l-5 1v1l6 2h1zm5-19l-5 2 6 2h1l5-2-6-2h-1zm-7 2l-5 2v1l6 2 5-2c1 0 1 0 0 0l-5-2-1-1zm29-10l-5 2 6 2h1l5-2-6-2h-1zm-15 5l-5 2 6 2h1l5-1v-1l-6-2h-1zm8-3l-5 2v1l6 2 5-2c1 0 1 0 0 0l-5-3h-1zm-30 11l-5 2 6 2h1l5-1v-1l-6-2h-1zm-7 3l-5 2 6 2h1l5-2-6-2h-1zm27 1l5-2-6-2h-1l-5 2 6 2h1zm-8 3l5-2-6-2c0-1 0-1 0 0l-5 1v1l5 2h1zm-7 3l5-2v-1l-6-2h-1l-5 2 6 3h1zm-19-4l-5 1v1l6 2 5-2c1 0 1 0 0 0l-6-2zm11 6h1l5-2-6-2h-1l-5 2zm55-31l-5 2 6 3 5-2v-1l-5-2h-1zm64-13h1l5-1v-1l-6-2h-1l-5 2zm-72 16l-5 2 6 2h1l5-2-6-2h-1zm56-20l-5 2 6 2 5-2c1 0 1 0 0 0l-5-2h-1zm17-6l14 5h1l5-2-14-5h-1l-5 1v1zm-2 0h-1l-5 2 6 3h1l5-2v-1zm-6 7l5-2-6-2h-1l-5 2 6 2h1zm15 1l5-2c1 0 1 0 0 0l-5-3h-1l-5 2v1l6 2zm-90 33l5-2c1 0 1 0 0 0l-6-3-5 2v1l5 2h1zm73-44h-1l-5 2 6 3h1l5-2v-1zm-46 28l5-2-6-2h-1l-5 1v1l6 2h1zm38-25l-5 2 6 2 5-2c1 0 1 0 0 0l-5-2h-1zm-16 6l-5 2c-1 0-1 0 0 0l5 2h1l5-2-6-2zm8-3l-5 2 6 2h1l5-2-6-2h-1zm-64 40l5-1v-1l-6-2h-1l-5 2 6 2h1zm-38-3l-5 2 6 2h1l5-1v-1l-6-2h-1zm8-3l-5 2v1l6 2 5-2c1 0 1 0 0 0l-5-3h-1zm7-2l-5 2 6 2h1l5-2-6-2h-1zm15-6l-5 2 6 3 5-2c1 0 1 0 0 0l-5-3h-1zm-37 14l-5 2 6 2h1l5-2-6-2h-1zm29-11l-5 2 6 2h1l5-2-6-2h-1zm-36 14l-5 1v1l6 2 5-2c1 0 1 0 0 0l-6-2c0-1 0-1 0 0zm19 15h1l5-2-6-2h-1l-5 2zm8-2l5-2v-1l-5-2h-1l-5 2 6 3zm-23-4h1l5-2v-1l-6-2h-1l-5 2zm-12-7l-5 2 6 3h1l5-2v-1l-6-2h-1zm22 9h1l5-2-6-2-5 1v1zm37-30l-5 2 6 2h1l5-2-6-2h-1zm7-3l-5 2 6 2h1l5-2-6-2h-1zm38 3l11-4-14-5h-1l-6 2 8 3-5 2 6 2h1zm7-8l5-2-6-3h-1l-5 2v1l6 2h1zm-36 19l5-2-6-2h-1l-5 2 6 2h1zm7-3l5-2-6-2h-1l-5 2 6 2h1zm7-2l5-2c1 0 1 0 0 0l-6-3-5 2c-1 0-1 0 0 0l6 3zm8-3l5-2-6-2h-1l-5 2 6 2h1zm-23-9l-5 2 6 3 5-2v-1l-5-2h-1zm7-2l-5 1v1l6 2h1l5-2-6-2h-1zm20-8l-5 2 6 3 6-2-1-1-5-2h-1zm-9 4l-9 3 6 2h1l9-3-6-2h-1zm16-6l-5 1v1l6 2h1l5-2-6-2h-1zm10 7l5-2-6-2-6 2h1l5 2h1" fill="#26b6a6"/><path d="M550 293l5-2c1 0 1 0 0 0l-5-2h-1l-5 2zm59-23h1l5-2-1-1h-1l-5 2zm46 11l5-2-6-3h-1l-5 2v1l6 2h1zm-19-12h1l5-2-6-2h-1l-5 1v1zm-12-5h1l5-1v-1h-2l-5 2c-1 0-1 0 0 0zm-22 8h1l5-1v-1h-2l-6 2h1zm-38 16h1l5-2-6-2h-1l-5 1v1zm-7 3h1l5-2v-1l-6-2h-1l-5 2zm31-12h1l5-2-6-2h-1l-5 2zm-16 6l5-2c1 0 1 0 0 0l-5-2h-1l-5 2zm23-8h1l5-2v-1l-6-2h-1l-5 2zm-14 5l5-2c1 0 1 0 0 0l-5-2h-1l-5 1v1zm36-15h1l5-2-2-1h-1l-5 2v1zm-34 40l5-2-6-2-6 2h1l5 2h1zm-15 5l5-1v-1l-5-2h-1l-5 2 6 2zm8-2l5-2-6-3h-1l-5 2v1l6 2h1zm-30 10l5-1v-1l-5-2h-1l-5 2 6 2c0 1 0 1 0 0zm15-5l5-2-6-2h-1l-5 2 6 2h1zm-7 3l5-2-6-3h-1l-5 2v1l6 2h1zm69-26h1l5-2-6-2h-1l-5 2zm-33 12l6-2h-1l-5-2h-1l-5 2 6 2zm42-21l5-2-6-2h-1l-5 2 6 2h1zm7 3h1l5-2-6-2h-1l-5 2zm-41 16l15-6h-1l-5-2h-1l-15 5 6 3h1zm16-19l5-2c1 0 1 0 0 0l-5-2h-1l-5 2 6 2zm33 0l5-1v-1l-6-2-5 2c-1 0-1 0 0 0l6 2zm-16 8h-1l-5 2 6 2h1l5-2zm-26 9h-1l-6 3 6 2h1l6-2zm-78 29h-1l-6 2v1l6 2h1l6-3zm61-22h-1l-6 2 6 2h1l6-2zm-52 19h-1l-6 2 6 3 7-3zm43-16l-42 15 6 2h1l41-15zm36-13h-1l-8 3 6 2h1l8-3zm-19 7l-7 2 6 2h1l6-2zm79-25l-14-5h-1l-5 2 15 5 5-2c1 0 1 0 0 0zm-13 0h-1l-5 2v1l6 2h1l5-2zm-38 15h-1l-5 1v1l6 2h1l5-2zm-85 29l5-2-6-2h-1l-5 2 6 2h1zm100-35h-1l-5 2 6 2 5-1v-1zm16-6h-1l-12 5c-1 0-1 0 0 0l5 2h1l13-4v-1zm-156 30h1l5-2-6-2h-1l-5 1v1zm7-3h1l5-2c1 0 0 0 0 0l-6-2-5 2c-1 0-1 0 0 0zm13 23h-1l-8 3 6 2h1l8-2v-1zm-2-27h1l5-2-6-2h-1l-5 2zm15-5h1l5-2-6-2h-1l-5 1v1zm-40 15h1l5-2v-1l-6-2h-1l-5 2zm32-12h1l5-2v-1l-6-2-5 2c-1 0-1 0 0 0zm15-6h1l5-2-6-2h-1l-5 2zm-24 35l-6-2h-1l-6 2 6 2h1l6-2zm-5-5l-6-2h-1l-9 4c-1 0-1 0 0 0l5 2h1l10-3v-1zm-26-10h1l5-2-6-2-5 2c-1 0-1 0 0 0zm-4 2l-6-2h-1l-6 2 6 2 1 1 6-3zm20 6l-6-2h-1l-8 3 6 2h1l8-3zm-11-2l-6-2h-1l-5 2 6 2h1l5-2zm43 3l5-2-6-2h-1l-5 1v1l6 2h1zm5-19l-5 2 6 2h1l5-2-6-2h-1zm-7 2l-5 2v1l6 2 5-2c1 0 1 0 0 0l-5-2-1-1zm29-10l-5 2 6 2h1l5-2-6-2h-1zm-15 5l-5 2 6 2h1l5-1v-1l-6-2h-1zm8-3l-5 2v1l6 2 5-2c1 0 1 0 0 0l-5-3h-1zm-30 11l-5 2 6 2h1l5-1v-1l-6-2h-1zm-7 3l-5 2 6 2h1l5-2-6-2h-1zm27 1l5-2-6-2h-1l-5 2 6 2h1zm-8 3l5-2-6-2c0-1 0-1 0 0l-5 1v1l5 2h1zm-7 3l5-2v-1l-6-2h-1l-5 2 6 3h1zm-19-4l-5 1v1l6 2 5-2c1 0 1 0 0 0l-6-2zm11 6h1l5-2-6-2h-1l-5 2zm55-31l-5 2 6 3 5-2v-1l-5-2h-1zm64-13h1l5-1v-1l-6-2h-1l-5 2zm-72 16l-5 2 6 2h1l5-2-6-2h-1zm56-20l-5 2 6 2 5-2c1 0 1 0 0 0l-5-2h-1zm17-6l14 5h1l5-2-14-5h-1l-5 1v1zm-2 0h-1l-5 2 6 3h1l5-2v-1zm-6 7l5-2-6-2h-1l-5 2 6 2h1zm15 1l5-2c1 0 1 0 0 0l-5-3h-1l-5 2v1l6 2zm-90 33l5-2c1 0 1 0 0 0l-6-3-5 2v1l5 2h1zm73-44h-1l-5 2 6 3h1l5-2v-1zm-46 28l5-2-6-2h-1l-5 1v1l6 2h1zm38-25l-5 2 6 2 5-2c1 0 1 0 0 0l-5-2h-1zm-16 6l-5 2c-1 0-1 0 0 0l5 2h1l5-2-6-2zm8-3l-5 2 6 2h1l5-2-6-2h-1zm-64 40l5-1v-1l-6-2h-1l-5 2 6 2h1zm-38-3l-5 2 6 2h1l5-1v-1l-6-2h-1zm8-3l-5 2v1l6 2 5-2c1 0 1 0 0 0l-5-3h-1zm7-2l-5 2 6 2h1l5-2-6-2h-1zm15-6l-5 2 6 3 5-2c1 0 1 0 0 0l-5-3h-1zm-37 14l-5 2 6 2h1l5-2-6-2h-1zm29-11l-5 2 6 2h1l5-2-6-2h-1zm-36 14l-5 1v1l6 2 5-2c1 0 1 0 0 0l-6-2c0-1 0-1 0 0zm19 15h1l5-2-6-2h-1l-5 2zm8-2l5-2v-1l-5-2h-1l-5 2 6 3zm-23-4h1l5-2v-1l-6-2h-1l-5 2zm-12-7l-5 2 6 3h1l5-2v-1l-6-2h-1zm22 9h1l5-2-6-2-5 1v1zm37-30l-5 2 6 2h1l5-2-6-2h-1zm7-3l-5 2 6 2h1l5-2-6-2h-1zm38 3l11-4-14-5h-1l-6 2 8 3-5 2 6 2h1zm7-8l5-2-6-3h-1l-5 2v1l6 2h1zm-36 19l5-2-6-2h-1l-5 2 6 2h1zm7-3l5-2-6-2h-1l-5 2 6 2h1zm7-2l5-2c1 0 1 0 0 0l-6-3-5 2c-1 0-1 0 0 0l6 3zm8-3l5-2-6-2h-1l-5 2 6 2h1zm-23-9l-5 2 6 3 5-2v-1l-5-2h-1zm7-2l-5 1v1l6 2h1l5-2-6-2h-1zm20-8l-5 2 6 3 6-2-1-1-5-2h-1zm-9 4l-9 3 6 2h1l9-3-6-2h-1zm16-6l-5 1v1l6 2h1l5-2-6-2h-1zm10 7l5-2-6-2-6 2h1l5 2h1" fill="#33535f"/><path d="M582 321l50-18h5l29 11v2l-50 18h-5l-29-11v-2" fill="#26b6a6"/><path d="M582 321l50-18h5l29 11v2l-50 18h-5l-29-11v-2" fill="#17282f"/><path d="M419 310h-1 1M427 310zM434 289c0 1 1 2 3 1l153-56c2-1 3-2 3-4v-65l-159 58v66" fill="#26b6a6"/><path d="M436 290l-2-1v-66l159-58v65c0 2-1 3-3 4l-153 56h-1" fill="#afe4db"/><path d="M434 219l3-4 153-56c2-1 3 0 3 1v5l-159 58v-4" fill="#26b6a6"/><path d="M575 167l-2 2h2l1-1-1-1M580 165l-1 2h1l2-1-2-1M586 163l-2 2h2l1-1-1-1" fill="#273e47"/><path d="M485 231h1l3 6 2-8h1v-1l4-1h1l-5 17v1h-1l-4 1v1l-1-1-2-6-2 8h-1l-1 1-3 1h-1l-5-13v-1l4-2h1v1l3 6 2-8 1-1 3-1M515 220h1l3 6 2-8 1-1 4-1h1l-5 17-1 1-4 2h-1v-1l-2-6-3 8v1h-1l-4 1c0 1 0 1 0 0h-1l-5-13v-1h1l4-2h1v1l3 6 2-8v-1h1l3-1M545 209h1l2 7 3-9 1-1 4-1h1v1l-6 16v1h-1l-3 2h-1v-1l-3-6-2 8v1h-1l-4 2h-1v-1l-5-13v-1h1l4-1c0-1 0-1 0 0h1l2 6 3-8 1-1 3-1" fill="#33535f"/><path d="M318 360l-113 42-114-42 114-42 113 42" fill="#26b6a6"/><path d="M205 402L98 363l107 39v-6L98 357l7-2 100 36 99-36 14 5-113 42" fill="#1db3a0"/><path d="M98 363l-7-3 7-3-7 3 7 3" fill="#d5d7d4"/><path d="M205 402L98 363l-7-3 7-3 107 39v6" fill="#14b09a"/><path d="M205 402v19l7-1 49-18 53-20c2 0 4-3 4-5v-17l-113 42" fill="#26b6a6"/><path d="M205 421v-19l113-42v17c0 2-2 5-4 5l-53 20-49 18-7 1m13-12h2c2-1 4-2 4-4l-1-1-2-1h-1-1l-3 4v1l2 1m14-5h3l3-4-1-1-2-1h-2c-2 1-3 2-3 4l1 1 1 1" fill="#94dbd1"/><path d="M307 369l-56 21c-2 1-4 2-4 4v5c0 1 2 2 4 1l56-20c2-1 4-3 4-5v-4c0-2-2-3-4-2" fill="#26b6a6"/><path d="M307 373v3h-1l-1 1v-3-1h2M303 375v2l-1 1h-1v-2l1-1v-1l1 1M299 376v3l-1 1-1-1v-2l1-1h1" fill="#fafaf9"/><path d="M296 377v3l-1 1h-2v-3h1l1-1h1M292 379v2l-1 1h-1-1v-2l1-1h2" fill="#33535f"/><path d="M288 380v3h-1l-1 1v-3-1h2M284 382v2l-1 1h-1v-2-1l1-1 1 1M280 383v2l-1 1v1l-1-1v-2l1-1h1M276 384v4h-2v-3h1l1-1M273 386v2l-1 1h-1-1v-2l1-1h2M269 387v3h-1l-1 1h-1v-3l1-1h2M265 389v2l-1 1h-1v-2-1l1-1 1 1" fill="#fafaf9"/><path d="M261 390v2l-1 1v1l-1-1v-2l1-1h1" fill="#33535f"/><path d="M257 391v4h-2v-3h1l1-1M254 393v2l-1 1h-2v-2l1-1h2" fill="#fafaf9"/><path d="M91 360v17c0 2 2 5 5 5l45 17 56 21 8 1v-19L91 360" fill="#26b6a6"/><path d="M205 421l-8-1-56-21-45-17c-3 0-5-3-5-5v-17l114 42v19m-100-43c0 2 2 3 4 4l28 10 2 1 2-2v-5l-4-4-28-10-2-1-2 2v5" fill="#70cec3"/><path d="M113 377h4c2 0 3 2 3 3l-1 2h-2-1c-2-1-3-2-3-4v-1" fill="#26b6a6"/><path d="M115 377l3 4c0 1-1 2-3 1-2 0-3-2-3-3 0-2 1-2 3-2M127 383l2-1h2c2 1 3 2 3 4l-1 1-1 1-1-1c-2-1-4-2-4-4" fill="#26b6a6"/><path d="M129 383c2 0 4 2 4 3 0 2-2 2-4 1l-3-3c0-2 2-2 3-1" fill="#26b6a6"/><path d="M139 393l-2-1-28-10c-2-1-4-2-4-4v-5l2-2 2 1 28 10 4 4v5l-2 2m-12-11l-1 2 3 3 2 1h1l1-1 1-1c0-2-1-3-3-4h-4m-14-5l-1 2c0 1 1 3 3 3l2 1 1-1h1l1-2c0-1-1-3-3-3h-4" fill="#f4fbf9"/><path d="M117 383l-2-1c-2 0-3-2-3-3l1-2v1c0 2 1 3 3 4h2l-1 1M131 388l-2-1-3-3 1-2v1c0 2 2 3 4 4l1 1h-1" fill="#afe4db"/><path d="M113 377h4c2 0 3 2 3 3l-1 2h-2-1c-2-1-3-2-3-4v-1" fill="#26b6a6"/><path d="M118 382h-1-1c-2-1-3-2-3-4v-1h4c2 0 3 2 3 3l-1 2h-1" fill="#14b099"/><path d="M115 377l3 4c0 1-1 2-3 1-2 0-3-2-3-3 0-2 1-2 3-2M127 383l2-1h2c2 1 3 2 3 4l-1 1-1 1-1-1c-2-1-4-2-4-4" fill="#26b6a6"/><path d="M132 388l-1-1c-2-1-4-2-4-4l2-1h2c2 1 3 2 3 4l-1 1-1 1" fill="#14b099"/><path d="M129 383c2 0 4 2 4 3 0 2-2 2-4 1l-3-3c0-2 2-2 3-1M237 399l-2-1h-2c-2 1-3 2-3 4l1 1 1 1 1-1h1l3-3v-1" fill="#26b6a6"/><path d="M232 404l-1-1-1-1c0-2 1-3 3-4h2l2 1h-1-1c-2 0-4 2-4 3l1 2" fill="#08917e"/><path d="M235 399c-2 0-4 2-4 3 0 2 2 2 4 2l3-4c0-1-1-2-3-1" fill="#26b6a6"/><path d="M233 404l-2-2c0-1 2-3 4-3h1l2 1-3 4h-2" fill="#14b099"/><path d="M223 404l-2-1h-2l-3 4v1l2 1 1-1c2 0 4-2 4-3v-1" fill="#26b6a6"/><path d="M218 409l-2-1v-1l3-4h2l2 1h-3c-1 1-3 2-3 4l1 1" fill="#08917e"/><path d="M220 404c-1 1-3 2-3 4 0 1 2 2 3 1 2-1 4-2 4-4 0-1-2-2-4-1" fill="#26b6a6"/><path d="M219 409l-2-1c0-2 2-3 3-4h2l2 1c0 2-2 3-4 4h-1" fill="#14b099"/><path d="M318 329l-113 41-114-41 114-42 113 42" fill="#26b6a6"/><path d="M205 370v-5L98 326l7-2 100 36 99-36 14 5-113 41" fill="#1db3a0"/><path d="M205 370l-71-26-43-15 7-3 107 39v5" fill="#14b09a"/><path d="M318 350l-113 41v-21l113-41v21" fill="#26b6a6"/><path d="M205 391v-21l113-41v21l-113 41m13-13h2l4-4-1-1-2-1h-1-1l-3 4v1l2 1m14-5h1l2-1c2 0 3-2 3-3l-1-2h-4c-2 1-3 2-3 4l1 1 1 1" fill="#94dbd1"/><path d="M307 338l-56 21c-2 0-4 2-4 4v5c0 1 2 2 4 1l56-21c2 0 4-2 4-4v-5c0-1-2-2-4-1" fill="#26b6a6"/><path d="M307 342v2l-1 1-1 1v-3-1h2" fill="#fafaf9"/><path d="M303 343v3l-1 1h-1v-3h1v-1h1" fill="#33535f"/><path d="M299 345v3h-2v-2l1-1h1c0-1 0 0 0 0" fill="#fafaf9"/><path d="M296 346v3h-1l-1 1h-1v-3l1-1h2M292 348v2l-1 1h-1-1v-2l1-1 1-1 1 1" fill="#33535f"/><path d="M288 349v2l-1 1-1 1v-3-1h2M284 350v3l-1 1h-1v-3l1-1h1M280 352v2l-1 1h-1v-2l1-1h1" fill="#fafaf9"/><path d="M276 353v3l-1 1h-1v-3l1-1h1" fill="#33535f"/><path d="M273 355v2l-1 1h-1-1v-2l1-1 1-1 1 1" fill="#fafaf9"/><path d="M269 356v2l-1 1-1 1-1-1v-2l1-1h2" fill="#33535f"/><path d="M265 357v3l-1 1h-1v-3l1-1h1" fill="#fafaf9"/><path d="M261 359v2l-1 1h-1v-2l1-1h1" fill="#33535f"/><path d="M257 360v3l-1 1-1-1v-2l1-1h1M254 362v2l-1 1h-2v-2l1-1 1-1 1 1" fill="#fafaf9"/><path d="M205 391L91 350v-21l114 41v21" fill="#26b6a6"/><path d="M205 391L91 350v-21l114 41v21m-98-51l-2 2v5l4 4 28 10 2 1 2-2v-5c0-2-2-3-4-4l-28-10-2-1" fill="#70cec3"/><path d="M139 362l-2-1-28-10-4-4v-5l2-2 2 1 28 10c2 1 4 2 4 4v5l-2 2m-12-10c0 2 2 3 4 4h2l1-2c0-1-1-3-3-3l-1-1-1 1h-2v1m-14-5l3 4h3l1-2c0-1-1-3-3-3l-2-1-2 1v1" fill="#d5f1ea"/><path d="M113 346l2-1 2 1c2 0 3 2 3 3l-1 2h-2-1l-3-4v-1" fill="#26b6a6"/><path d="M118 351h-1-1l-3-4v-1l2-1 2 1c2 0 3 2 3 3l-1 2h-1" fill="#14b099"/><path d="M115 346c2 1 3 2 3 4 0 1-1 2-3 1s-3-2-3-4c0-1 1-2 3-1M127 351h4c2 0 3 2 3 3l-1 2h-2c-2-1-4-2-4-4v-1" fill="#26b6a6"/><path d="M132 356h-1c-2-1-4-2-4-4v-1h2l1-1 1 1c2 0 3 2 3 3l-1 2h-1" fill="#14b099"/><path d="M129 351l4 4c0 1-2 2-4 1l-3-3c0-2 2-2 3-2" fill="#26b6a6"/><path d="M304 360v-5l-99 36v5l99-36" fill="#33535f"/><path d="M98 352v5l107 39v-5L98 352" fill="#26b6a6"/><path d="M98 352v5l107 39v-5L98 352" fill="#273e47"/><path d="M237 367h-2-2c-2 1-3 2-3 4l1 1 1 1 1-1h1c1-1 3-2 3-4v-1" fill="#26b6a6"/><path d="M232 373l-1-1-1-1c0-2 1-3 3-4h3l-1 1c-2 0-4 2-4 3l1 2" fill="#08917e"/><path d="M235 368c-2 0-4 2-4 3 0 2 2 2 4 1 2 0 3-2 3-3 0-2-1-2-3-1" fill="#26b6a6"/><path d="M233 373l-2-2c0-1 2-3 4-3l1-1 2 2c0 1-1 3-3 3l-2 1" fill="#14b099"/><path d="M223 373l-2-1h-2l-3 4v1l2 1v-1h1c2 0 4-2 4-3v-1" fill="#26b6a6"/><path d="M218 378l-2-1v-1l3-4h2l2 1h-3l-3 3 1 2" fill="#08917e"/><path d="M220 373l-3 3c0 2 2 2 3 2l4-4c0-1-2-2-4-1" fill="#26b6a6"/><path d="M219 378l-2-2 3-3h2l2 1-4 4h-1" fill="#14b099"/><path d="M318 298l-113 41-114-41 114-42 113 42" fill="#26b6a6"/><path d="M205 339v-5L98 295l7-3 100 37 99-37 14 6-113 41" fill="#1db3a0"/><path d="M205 339l-71-26-43-15 7-3 107 39v5" fill="#14b09a"/><path d="M318 318l-113 42v-21l113-41v20" fill="#26b6a6"/><path d="M205 360v-21l113-41v20l-113 42m13-13h1l1-1c2 0 4-2 4-3l-1-2h-2-1-1c-2 1-3 2-3 4v1l2 1m14-6l1 1 2-1c2 0 3-2 3-3l-1-2h-4c-2 0-3 2-3 3l1 2h1" fill="#94dbd1"/><path d="M307 307l-56 20c-2 1-4 3-4 5v4c0 2 2 3 4 2l56-21c2-1 4-2 4-4v-5c0-1-2-2-4-1" fill="#26b6a6"/><path d="M307 311v2l-1 1h-1v-2-1h2M303 312v3h-1v1l-1-1v-2l1-1h1M299 314v3h-2v-2l1-1 1-1v1M296 315v2l-1 1-1 1-1-1v-2l1-1h2" fill="#fafaf9"/><path d="M292 316v3l-1 1h-1-1v-3l1-1h2M288 318v2l-1 1h-1v-2-1h2" fill="#33535f"/><path d="M284 319v3h-1l-1 1v-3-1h2M280 321v2l-1 1h-1v-2l1-1v-1l1 1M276 322v3l-1 1-1-1v-2l1-1h1" fill="#fafaf9"/><path d="M273 323v3l-1 1h-1-1v-3l1-1h2" fill="#33535f"/><path d="M269 325v2l-1 1h-1-1v-2l1-1h2M265 326v3h-1l-1 1v-3-1h2" fill="#fafaf9"/><path d="M261 328v2l-1 1h-1v-3h1v-1l1 1" fill="#33535f"/><path d="M257 329v3l-1 1-1-1v-2l1-1h1" fill="#fafaf9"/><path d="M254 330v3l-1 1h-2v-3l1-1h2" fill="#33535f"/><path d="M205 360L91 318v-20l114 41v21" fill="#26b6a6"/><path d="M205 360L91 318v-20l114 41v21m-98-51l-2 2v5l4 4 28 10h2l2-1v-5c0-2-2-4-4-4l-28-11h-2" fill="#70cec3"/><path d="M139 330h-2l-28-10-4-4v-5l2-2h2l28 11c2 0 4 2 4 4v5l-2 1m-12-9l4 4h2l1-2c0-1-1-3-3-3l-1-1h-1l-2 1v1m-14-5c0 1 1 3 3 3l1 1h1l1-1 1-1-3-4h-2l-2 1v1" fill="#d5f1ea"/><path d="M113 315l2-1h2l3 4-1 1-1 1h-1l-1-1c-2 0-3-2-3-3v-1" fill="#26b6a6"/><path d="M118 320h-1l-1-1c-2 0-3-2-3-3v-1l2-1h2l3 4-1 1-1 1" fill="#14b099"/><path d="M115 315c2 1 3 2 3 4l-3 1-3-4c0-1 1-2 3-1M127 320l2-1 2 1c2 0 3 2 3 3l-1 2h-2l-4-4v-1" fill="#26b6a6"/><path d="M132 325h-1l-4-4v-1l2-1h1l1 1c2 0 3 2 3 3l-1 2h-1" fill="#14b099"/><path d="M129 320c2 1 4 2 4 4 0 1-2 2-4 1-1-1-3-2-3-4l3-1" fill="#26b6a6"/><path d="M304 329v-5l-99 36v5l99-36" fill="#33535f"/><path d="M98 321v5l107 39v-5L98 321" fill="#273e47"/><path d="M237 336h-2-2c-2 0-3 2-3 3l1 2h3c1-1 3-2 3-4v-1" fill="#26b6a6"/><path d="M232 341h-1l-1-2c0-1 1-3 3-3h2l-4 4 1 1" fill="#08917e"/><path d="M235 336l-4 4c0 1 2 2 4 1 2 0 3-2 3-3 0-2-1-2-3-2" fill="#26b6a6"/><path d="M233 342l-2-2 4-4h1l2 2c0 1-1 3-3 3l-2 1" fill="#14b099"/><path d="M223 342l-2-1h-2c-2 1-3 2-3 4v1l2 1v-1h1c2-1 4-2 4-4" fill="#26b6a6"/><path d="M218 347l-2-1v-1c0-2 1-3 3-4h4-1l-2 1-3 3 1 2" fill="#08917e"/><path d="M220 342l-3 3c0 2 2 2 3 1 2 0 4-2 4-3s-2-2-4-1" fill="#26b6a6"/><path d="M219 347l-2-2 3-3 2-1 2 2c0 1-2 3-4 3l-1 1" fill="#14b099"/><path d="M318 266l-113 42-114-42 114-41 113 41" fill="#26b6a6"/><path d="M205 308v-5L98 264l-7 2 14-5 100 37 77-29 22-8 14 5-113 42" fill="#2db8a6"/><path d="M205 308l-71-26-43-16 7-2 107 39v5" fill="#22b4a0"/><path d="M318 287l-113 42v-21l113-42v21" fill="#26b6a6"/><path d="M205 329v-21l113-42v21l-113 42m13-14l1 1 1-1c2 0 4-2 4-3l-1-2h-2-1-1c-2 0-3 2-3 3v2h2m14-5h3c2-1 3-2 3-4l-1-1-2-1-2 1c-2 0-3 2-3 3l1 2h1" fill="#94dbd1"/><path d="M307 276l-56 20-4 4v5c0 2 2 2 4 2l56-21 4-4v-5c0-2-2-2-4-1" fill="#26b6a6"/><path d="M307 280v2l-1 1h-1v-2-1l1-1 1 1" fill="#fafaf9"/><path d="M303 281v2l-1 1v1l-1-1v-2l1-1h1" fill="#33535f"/><path d="M299 282v4h-2v-3l1-1h1M296 284v2l-1 1h-2v-2l1-1h2M292 285v3h-1l-1 1-1-1v-2l1-1h2" fill="#fafaf9"/><path d="M288 287v2l-1 1h-1v-2-1l1-1 1 1M284 288v2l-1 1-1 1v-3-1h2" fill="#33535f"/><path d="M280 289v3l-1 1h-1v-3l1-1h1" fill="#fafaf9"/><path d="M276 291v3h-2v-2l1-1h1c0-1 0 0 0 0" fill="#33535f"/><path d="M273 292v3h-1l-1 1-1-1v-2l1-1h2M269 294v2l-1 1h-1-1v-2l1-1 1-1 1 1M265 295v2l-1 1-1 1v-3-1h2" fill="#fafaf9"/><path d="M261 296v3l-1 1h-1v-3l1-1h1" fill="#33535f"/><path d="M257 298v3h-2v-2l1-1h1c0-1 0 0 0 0M254 299v3h-1l-1 1-1-1v-2l1-1h2" fill="#fafaf9"/><path d="M205 329L91 287v-21l114 42v21" fill="#26b6a6"/><path d="M205 329L91 287v-21l114 42v21m-98-51c-1 0-2 0-2 2v4c0 2 2 4 4 5l28 10h2c1 0 2 0 2-2v-4c0-2-2-4-4-5l-28-10h-2" fill="#70cec3"/><path d="M139 299h-2l-28-10c-2-1-4-3-4-5v-4c0-2 1-2 2-2h2l28 10c2 1 4 3 4 5v4c0 2-1 2-2 2m-12-9c0 1 2 3 4 3v1h1l1-1 1-1-3-4h-2l-2 1v1m-14-5l3 3h1l1 1 1-1 1-1c0-2-1-3-3-4h-2l-2 1v1" fill="#d5f1ea"/><path d="M113 284l2-1h2c2 1 3 2 3 4l-1 1-1 1-1-1h-1l-3-3v-1" fill="#26b6a6"/><path d="M118 289l-1-1h-1l-3-3v-1l2-1h2c2 1 3 2 3 4l-1 1-1 1" fill="#14b099"/><path d="M115 284c2 0 3 2 3 3 0 2-1 2-3 2l-3-4c0-1 1-2 3-1M127 289l2-1h2l3 4-1 1-1 1h-1v-1c-2 0-4-2-4-3v-1" fill="#26b6a6"/><path d="M132 294h-1v-1c-2 0-4-2-4-3v-1l2-1h2l3 4-1 1-1 1" fill="#14b099"/><path d="M129 289c2 1 4 2 4 4l-4 1c-1-1-3-2-3-4 0-1 2-2 3-1" fill="#26b6a6"/><path d="M304 298v-6l-99 37v5l99-36" fill="#33535f"/><path d="M98 290v5l107 39v-5L98 290" fill="#273e47"/><path d="M237 305l-2-1-2 1c-2 0-3 2-3 3l1 2h3l3-4v-1" fill="#26b6a6"/><path d="M232 310h-1l-1-2c0-1 1-3 3-3l2-1 2 1h-1-1c-2 1-4 2-4 4l1 1" fill="#08917e"/><path d="M235 305c-2 1-4 2-4 4 0 1 2 2 4 1s3-2 3-4l-3-1" fill="#26b6a6"/><path d="M233 310l-2-1c0-2 2-3 4-4h1l2 1c0 2-1 3-3 4h-2" fill="#14b099"/><path d="M223 310h-2-2c-2 0-3 2-3 3v2h3c2-1 4-2 4-4v-1" fill="#26b6a6"/><path d="M218 315h-2v-2c0-1 1-3 3-3h4-3l-3 4 1 1" fill="#08917e"/><path d="M220 310l-3 4c0 1 2 2 3 1 2 0 4-2 4-3 0-2-2-2-4-2" fill="#26b6a6"/><path d="M219 316l-2-2 3-4h2l2 2c0 1-2 3-4 3l-1 1" fill="#14b099"/><path d="M96 233l104-38h9l105 38 4 5v18l-113 42-114-42v-18c0-1 2-4 5-5" fill="#26b6a6"/><path d="M205 298L91 256v-18c0-1 2-4 5-4l-2 1 2 2 104 38 5 1v22m-98-51l-2 1v5c0 2 2 4 4 4l28 11h2l2-2v-5l-4-4-28-10h-2m175 22l36-13v-18l-4-4c2 0 4 3 4 4v18l-36 13m33-33v-1 1m-1-2v-1 1m-218 0v-1 1m0-1l104-38-104 38" fill="#70cec3"/><path d="M139 268h-2l-28-11c-2 0-4-2-4-4v-5l2-1h2l28 10 4 4v5l-2 2m-12-9l4 3 1 1 1-1 1-1c0-2-1-3-3-4h-2l-2 1v1m-14-6c0 2 1 3 3 4h3l1-1c0-2-1-3-3-4h-4v1" fill="#d5f1ea"/><path d="M113 252h4c2 1 3 2 3 4l-1 1h-2-1c-2-1-3-2-3-4v-1" fill="#26b6a6"/><path d="M118 257h-1-1c-2-1-3-2-3-4v-1h4c2 1 3 2 3 4l-1 1h-1" fill="#14b099"/><path d="M115 253c2 0 3 2 3 3s-1 2-3 1c-2 0-3-2-3-3 0-2 1-2 3-1M127 258l2-1h2c2 1 3 2 3 4l-1 1-1 1-1-1-4-3v-1" fill="#26b6a6"/><path d="M132 263l-1-1-4-3v-1l2-1h2c2 1 3 2 3 4l-1 1-1 1" fill="#14b099"/><path d="M129 258c2 0 4 2 4 3 0 2-2 2-4 2l-3-4c0-1 2-2 3-1M205 276v22l113-42v-18l-4-4c2 1 2 2 0 3l-105 38-4 1" fill="#26b6a6"/><path d="M205 298v-22l4-1 105-38 1-1v-1l-1-1 4 4v18l-113 42m13-14h2c2-1 4-2 4-4l-1-1-2-1h-1l-1 1c-2 0-3 2-3 3v2h2m14-5h3c2-1 3-2 3-4l-1-1-2-1h-2l-3 4 1 1 1 1" fill="#94dbd1"/><path d="M307 244l-56 21-4 4v5c0 2 2 2 4 1l56-20 4-4v-5c0-2-2-2-4-2" fill="#26b6a6"/><path d="M307 248v3l-1 1h-1v-3-1h2" fill="#33535f"/><path d="M303 250v2l-1 1h-1v-2l1-1h1" fill="#fafaf9"/><path d="M299 251v3l-1 1-1-1v-2l1-1h1M296 253v2l-1 1h-2v-3h1l1-1 1 1M292 254v2l-1 1-1 1-1-1v-2l1-1h2" fill="#33535f"/><path d="M288 255v3l-1 1h-1v-3-1h2M284 257v2l-1 1h-1v-2-1h2" fill="#fafaf9"/><path d="M280 258v3h-1v1l-1-1v-2l1-1h1" fill="#33535f"/><path d="M276 260v3h-2v-3h1l1-1v1" fill="#fafaf9"/><path d="M273 261v2l-1 1-1 1-1-1v-2l1-1h2M269 262v3l-1 1h-1-1v-3l1-1h2M265 264v2l-1 1h-1v-2-1h2" fill="#33535f"/><path d="M261 265v3h-1v1l-1-1v-2l1-1h1" fill="#fafaf9"/><path d="M257 267v3h-2v-3h1l1-1v1M254 268v2l-1 1-1 1-1-1v-2l1-1h2" fill="#33535f"/><path d="M314 237l-105 38h-9L96 237c-3-1-3-3 0-4l104-38h9l105 38c2 1 2 3 0 4" fill="#26b6a6"/><path d="M205 276l-5-1-104-38-2-2 2-2 104-38 5-1 4 1 105 38 1 2v1l-1 1-105 38-4 1" fill="#ceeee7"/><path d="M304 266v-5l-99 37v5l99-37" fill="#33535f"/><path d="M98 259v5l107 39v-5L98 259" fill="#273e47"/><path d="M237 274l-2-1h-2l-3 4 1 1 1 1h1l1-1 3-3v-1" fill="#26b6a6"/><path d="M232 279l-1-1-1-1 3-4h2l2 1h-1-1c-2 1-4 2-4 4l1 1" fill="#08917e"/><path d="M235 274c-2 1-4 2-4 4l4 1c2-1 3-2 3-4 0-1-1-2-3-1" fill="#26b6a6"/><path d="M233 279l-2-1c0-2 2-3 4-4h1l2 1c0 2-1 3-3 4h-2" fill="#14b099"/><path d="M223 279l-2-1-2 1c-2 0-3 2-3 3v2h3l4-4v-1" fill="#26b6a6"/><path d="M218 284h-2v-2c0-1 1-3 3-3l1-1h1l2 1h-3c-1 1-3 2-3 4l1 1" fill="#08917e"/><path d="M220 279c-1 1-3 2-3 4 0 1 2 2 3 1 2-1 4-2 4-4l-4-1" fill="#26b6a6"/><path d="M219 284l-2-1c0-2 2-3 3-4h2l2 1c0 2-2 3-4 4h-1" fill="#14b099"/><path d="M510 136l-8-10 6-12v-7l-20 7v7l9 10 13 5" fill="#26b6a6"/><path d="M510 136l-13-5-2-3 6-2 8 9 1 1" fill="#14b099"/><path d="M557 49c0-3-2-6-6-7l-4-2h-12l-75 28c-3 1-6 4-6 6v52c0 3 3 6 6 7l5 2h12l24-9 8 9h3l9-16 30-12c4-1 6-4 6-6V49" fill="#26b6a6"/><path d="M466 135h-1l-5-2 5 2h1" fill="#c3c5c2"/><path d="M471 136l-5-1h-1l-5-2-3-1-3-6V74l2-3 6 2 11 4-2 3v53c0 1 1 2 3 2h2l-5 1" fill="#14b099"/><path d="M520 46l15-6-15 6m36-1" fill="#fff"/><path d="M473 77l-11-4-6-2c1-2 2-3 4-3l60-22 15-6 6-1 6 1 4 2h1l4 3 1 3c0-1-1-2-3-2h-3l-74 28c-2 0-3 2-4 3" fill="#70cec3"/><path d="M462 73l-6-2 6 2" fill="#6ecdbc"/><path d="M540 83l-26-14-26 34 14-5v17l25-9V88l13-5" fill="#fff"/><path d="M206 159h-1-1v8h1l1-1v-7M206 169l-1-1h-1v4h2v-3M206 174h-1-1v4h2v-4M206 180h-1-1v4h2v-4M206 186h-1-1v4h2v-4M206 192h-1-1v4h2v-4M206 198h-1-1v4h2v-4M206 204h-1-1v4h1l1-1v-3M206 210l-1-1h-1v5h1l1-1v-3M206 216l-1-1h-1v4h2v-3M206 221h-1-1v4h2v-4M206 227h-1-1v4h2v-4M206 233h-1-1v4h2v-4" fill="#26b6a6"/><path d="M211 151l-2-2h-9l-2 2v10l2 2h9l2-2v-10" fill="#33535f"/><path d="M215 140l-3-2c-4-2-11-2-14 0l-3 2v11c0 1 0 2 3 2 3 2 10 2 14 0 2 0 3-1 3-2v-11" fill="#273e47"/><path d="M241 146v-1h-2v8h2v-7M241 156v-1h-2v4h2v-3M241 161h-2v4h2v-4M241 167h-2v4h2v-4M241 173h-2v4h2v-4M241 179h-2v4h2v-4M241 185h-2v4h2v-4M241 191h-2v4h2v-4M241 197v-1h-2v4h2v-3M241 203v-1h-2v4h2v-3M241 208h-2v4h2v-4M241 214h-2v4h2v-4M241 220h-2v4h2v-4" fill="#26b6a6"/><path d="M246 138l-2-2h-8l-2 2v10l2 2h8l2-2v-10" fill="#33535f"/><path d="M250 127c0-1-1-2-3-2-4-2-10-2-14 0-2 0-3 1-3 2v11c0 1 1 2 3 2 4 2 10 2 14 0 2 0 3-1 3-2v-11" fill="#273e47"/><path d="M170 172v-1h-2v8h2v-7M168 185h2v-4h-2M170 187h-2v4h2v-4M170 193h-2v4h2M170 199h-2v4h2v-4M170 205h-2v4h2v-1M170 211h-2v4h2v-4M170 217v-1h-2v4h2M170 223v-1h-2v4h2v-3M170 228h-2v4h2M170 234h-2v4h2v-4M170 240h-2v4h2M170 246h-2v4h2v-4" fill="#26b6a6"/><path d="M175 164l-1-2h-9l-2 2v10l2 2h9l1-2v-10" fill="#33535f"/><path d="M179 153c0-1-1-2-3-2-4-2-10-2-14 0-2 0-3 1-3 2v10l3 3c4 2 10 2 14 0l3-3v-10" fill="#273e47"/><path d="M69 185l-34-13c-9-3-15-11-15-22 0-20 19-43 43-52l4-1-1-11c0-28 24-60 56-76-13 6-24 15-33 25l34 13c12-13 27-24 44-30-37 13-67 50-67 81l2 10-35-12-14 6c-11 6-21 17-27 28l34 12c-4 7-6 13-6 20 0 11 6 18 15 22m4-59c6-6 15-12 24-15l2-1-2 1c-9 3-18 9-24 15m252-26c13-5 24-19 24-31 0 12-11 26-24 31m-4-42l1-8 18 6-6-1-10 2-3 1m-87-10c0-12-5-21-13-27l31 11c-7 5-13 10-18 16m33-24l2-1a61 61 0 01-2 1m-56-9h-1L179 4l32 11M254 7" fill="#55c6b9"/><path d="M304 21L270 9l34 12m-71-9l2-1a63 63 0 01-2 1m37-3" fill="#fff"/><path d="M252 32l-31-11-2-2a81 81 0 0137-12 47 47 0 0114 2l34 12a38 38 0 00-14-2 61 61 0 00-23 5c-6 2-10 5-15 8" fill="#83d5ca"/><path d="M122 10l11-5a81 81 0 01-11 5m57-6" fill="#fff"/><path d="M123 48L89 35a115 115 0 0144-30 81 81 0 0127-5c7 0 13 1 19 4l31 11a50 50 0 00-22-2c-7 0-14 2-21 5-17 6-32 17-44 30M60 143l-34-12c6-11 16-22 27-28l14-6 35 12-3 1-2 1a71 71 0 00-37 32" fill="#83d5ca"/><path d="M324 57l-3 1 1-9c0-25-23-36-53-26-13 5-25 14-35 25-1-30-31-44-67-30-37 13-67 50-67 81l2 10-5 2c-24 9-43 32-43 52s19 29 43 21l62-23 165-61c14-5 25-19 25-31s-11-17-25-12" fill="#26b6a6"/><path d="M80 187c-15 0-26-9-26-24 0-20 19-43 43-52l5-2-2-10c0-31 30-68 67-81 10-4 19-5 27-5 23 0 39 13 40 35 10-11 22-20 35-25 8-2 15-4 21-4 19 0 32 11 32 30l-1 9 3-1 10-2c9 0 15 5 15 14 0 12-11 26-25 31l-74 27-20 8-15 5-20 8-16 5-20 8-62 23-17 3M194 18c-7 0-14 2-22 4-35 13-63 47-63 77l1 9c1 3-1 5-4 6l-5 2c-20 7-38 29-38 47 0 11 7 18 17 18l13-2 226-83c12-5 22-17 22-27 0-4-2-8-7-8l-6 1-2 1h-5c-5 0-9-2-8-6l1-8c0-15-9-24-24-24l-16 3c-12 4-23 12-32 22-2 2-5 3-8 3-4 0-8-2-9-5 0-19-12-30-31-30" fill="#a1dfd6"/><path d="M80 181c-10 0-17-7-17-18 0-18 18-40 38-47l5-2c3-1 5-3 4-6l-1-9c0-30 28-64 63-77 8-2 15-4 22-4 19 0 31 11 31 30 1 3 5 5 9 5 3 0 6-1 8-3 9-10 20-18 32-22l16-3c15 0 24 9 24 24l-1 8c-1 4 3 6 8 6h5l2-1 6-1c5 0 7 4 7 8 0 10-10 22-22 27L93 179l-13 2" fill="#e0f4ef"/></svg>
